<svg width="100" height="100" viewBox="0 0 100 100" fill="none" xmlns="http://www.w3.org/2000/svg">

<path d="M66.7999 40.4V38H61.9999V30.8H33.1999V64.4H45.1999V74H52.9999H52.3999C51.1269 74 49.906 73.4943 49.0058 72.5941C48.1056 71.6939 47.5999 70.473 47.5999 69.2V45.2C47.5999 43.927 48.1056 42.7061 49.0058 41.8059C49.906 40.9057 51.1269 40.4 52.3999 40.4H66.7999ZM52.9999 74H33.1999C31.9269 74 30.706 73.4943 29.8058 72.5941C28.9056 71.6939 28.3999 70.473 28.3999 69.2V30.8C28.3999 28.16 30.5599 26 33.1999 26H61.9999C63.2729 26 64.4938 26.5057 65.394 27.4059C66.2942 28.3061 66.7999 29.527 66.7999 30.8V40.4C68.0729 40.4 69.2938 40.9057 70.194 41.8059C71.0942 42.7061 71.5999 43.927 71.5999 45.2V69.2C71.5999 70.473 71.0942 71.6939 70.194 72.5941C69.2938 73.4943 68.0729 74 66.7999 74H52.9999ZM52.3999 45.2V64.4H66.7999V45.2H52.3999ZM59.5999 71.6C60.2364 71.6 60.8469 71.3471 61.297 70.8971C61.747 70.447 61.9999 69.8365 61.9999 69.2C61.9999 68.5635 61.747 67.953 61.297 67.5029C60.8469 67.0529 60.2364 66.8 59.5999 66.8C58.9634 66.8 58.3529 67.0529 57.9028 67.5029C57.4528 67.953 57.1999 68.5635 57.1999 69.2C57.1999 69.8365 57.4528 70.447 57.9028 70.8971C58.3529 71.3471 58.9634 71.6 59.5999 71.6Z" fill="#262F56"/>
</svg>
