<svg width="68" height="102" viewBox="0 0 68 102" fill="none" xmlns="http://www.w3.org/2000/svg">
<g clip-path="url(#clip0)">
<path d="M65.6536 0H2.35424C1.05239 0 0 1.10398 0 2.46965V99.5385C0 100.904 1.05239 102.008 2.35424 102.008H65.6536C66.9554 102.008 68.0078 100.904 68.0078 99.5385V2.46965C68 1.10398 66.9476 0 65.6536 0Z" fill="#262F56"/>
<path d="M61.4984 4.39978H6.50125C5.23839 4.39978 4.20938 5.47923 4.20938 6.81219V87.0677C4.20938 88.4007 5.23839 89.472 6.50125 89.472H61.4984C62.7691 89.472 63.7903 88.3925 63.7903 87.0677V6.81219C63.7903 5.47923 62.7691 4.39978 61.4984 4.39978Z" fill="white"/>
<path d="M45.2451 42.5566H22.7629C21.7339 42.5566 20.8998 41.6816 20.8998 40.6022V17.0096C20.8998 15.9302 21.7339 15.0552 22.7629 15.0552H45.2451C46.2741 15.0552 47.1082 15.9302 47.1082 17.0096V40.594C47.1082 41.6734 46.2741 42.5566 45.2451 42.5566Z" fill="#262F56"/>
<path d="M34.0038 99.3665C35.9153 99.3665 37.4649 97.7409 37.4649 95.7356C37.4649 93.7303 35.9153 92.1047 34.0038 92.1047C32.0922 92.1047 30.5426 93.7303 30.5426 95.7356C30.5426 97.7409 32.0922 99.3665 34.0038 99.3665Z" fill="white"/>
<path d="M53.594 54.7741H14.406C13.416 54.7741 12.6053 53.9237 12.6053 52.8851C12.6053 51.8465 13.416 50.996 14.406 50.996H53.5862C54.5762 50.996 55.3869 51.8465 55.3869 52.8851C55.3869 53.9237 54.584 54.7741 53.594 54.7741Z" fill="#262F56"/>
<path opacity="0.6" d="M46.9598 65.2416H13.751C13.1196 65.2416 12.6129 64.7018 12.6129 64.0476V63.9167C12.6129 63.2543 13.1274 62.7228 13.751 62.7228H46.9598C47.5912 62.7228 48.0979 63.2625 48.0979 63.9167V64.0476C48.1057 64.7018 47.5912 65.2416 46.9598 65.2416Z" fill="#262F56"/>
<path opacity="0.3" d="M40.6378 71.8898H13.6421C13.073 71.8898 12.6053 71.3992 12.6053 70.8022V70.4424C12.6053 69.8454 13.073 69.3547 13.6421 69.3547H40.63C41.1991 69.3547 41.6668 69.8454 41.6668 70.4424V70.8022C41.6668 71.3992 41.1991 71.8898 40.6378 71.8898Z" fill="#3C4777"/>
<path opacity="0.6" d="M44.0365 78.0475H13.7043C13.104 78.0475 12.6129 77.5323 12.6129 76.9026V76.6737C12.6129 76.044 13.104 75.5288 13.7043 75.5288H44.0365C44.6367 75.5288 45.1279 76.044 45.1279 76.6737V76.9026C45.1279 77.5241 44.6367 78.0475 44.0365 78.0475Z" fill="#262F56"/>
<path d="M34.0716 28.0457C36.3226 28.0457 38.1473 26.106 38.1473 23.713C38.1473 21.32 36.3226 19.3802 34.0716 19.3802C31.8205 19.3802 29.9958 21.32 29.9958 23.713C29.9958 26.106 31.812 28.0457 34.0716 28.0457ZM34.0716 30.2121C31.3516 30.2121 25.9201 31.6624 25.9201 34.5448V35.6325C25.9201 36.2308 26.3805 36.7202 26.9433 36.7202H41.2169C41.7796 36.7202 42.2401 36.2308 42.2401 35.6325V34.5448C42.223 31.6714 36.7916 30.2121 34.0716 30.2121Z" fill="white"/>
</g>
<defs>
<clipPath id="clip0">
<rect width="68" height="102" fill="white"/>
</clipPath>
</defs>
</svg>
