<svg width="950" height="968" viewBox="0 0 950 968" fill="none" xmlns="http://www.w3.org/2000/svg">
<g opacity="0.6" clip-path="url(#clip0)">
<path d="M-57.9533 356.268C3.42301 285.781 124.629 376.97 300.25 337.061C452.359 302.479 461.11 210.622 582.642 215.177C671.431 218.487 768.183 269.755 821.356 359.072C879.997 457.551 858.68 557.81 852.696 582.139C825.983 691.263 746.698 748.826 718.728 768.487C603.488 849.44 474.173 835.254 412.136 828.479C179.1 802.957 -70.3861 636.583 -81.4947 455.701C-82.971 432.021 -85.658 388.098 -57.9533 356.268Z" fill="url(#paint0_linear)"/>
</g>
<defs>
<linearGradient id="paint0_linear" x1="526.823" y1="69.8268" x2="292.583" y2="775.635" gradientUnits="userSpaceOnUse">
<stop stop-color="#F3F7FF"/>
<stop offset="1" stop-color="#DEEEFE"/>
</linearGradient>
<clipPath id="clip0">
<rect width="937.962" height="671.376" fill="white" transform="translate(76.5776) rotate(21.4558)"/>
</clipPath>
</defs>
</svg>
