<svg width="611" height="540" viewBox="0 0 611 540" fill="none" xmlns="http://www.w3.org/2000/svg">
<g clip-path="url(#clip0)">
<ellipse cx="334.406" cy="234" rx="281.406" ry="275" fill="#AFDEDD" fill-opacity="0.1"/>
<path d="M523.025 262.741C639.483 326.055 639.483 428.707 523.024 492.021C406.565 555.336 217.748 555.336 101.29 492.023C-15.1686 428.708 -15.1681 326.056 101.291 262.741C217.751 199.427 406.567 199.427 523.025 262.741Z" fill="#F3F2F1"/>
<path d="M506.996 296.571C531.283 310.593 531.283 333.329 506.994 347.352C482.708 361.373 443.329 361.373 419.041 347.352C394.755 333.329 394.755 310.593 419.041 296.572C443.329 282.549 482.708 282.549 506.996 296.571Z" fill="#DADBD8"/>
<path d="M170.596 387.616C194.884 401.637 194.884 424.372 170.596 438.396C146.308 452.419 106.929 452.419 82.6421 438.396C58.3546 424.373 58.3546 401.639 82.6421 387.616C106.93 373.592 146.308 373.592 170.596 387.616Z" fill="#DADBD8"/>
<path d="M556.466 309.391L547.483 304.257C547.483 304.257 543.176 280.517 546.398 260.111C550.927 231.419 570.463 221.521 577.558 224.373C584.652 227.225 586.32 235.725 573.507 252.303C565.947 262.085 556.223 282.761 556.466 309.391Z" fill="#26B6A6"/>
<path d="M556.465 309.391L547.483 304.257C547.483 304.257 545.204 291.692 545.201 276.985C545.201 271.479 545.52 265.671 546.397 260.111C550.433 234.548 566.38 223.903 574.828 223.903C575.862 223.903 576.784 224.063 577.557 224.373C580.891 225.712 583.025 228.299 583.025 232.383C583.024 236.992 580.301 243.512 573.506 252.303C566.042 261.96 556.469 282.239 556.46 308.379C556.46 308.715 556.461 309.052 556.465 309.391Z" fill="#1DB3A0"/>
<path d="M552.197 297.709L552.287 297.705C552.639 297.667 552.892 297.351 552.853 297C549.924 270.041 561.576 240.937 574.052 229.435C574.313 229.195 574.329 228.789 574.089 228.529C573.848 228.272 573.444 228.253 573.184 228.493C560.48 240.205 548.607 269.783 551.581 297.139C551.615 297.459 551.883 297.7 552.197 297.709Z" fill="white"/>
<path d="M581.385 323.787C582.805 324.601 585.729 322.82 586.851 322.068C588.768 320.781 590.321 318.959 591.355 316.897C592.556 314.499 592.859 311.928 592.484 309.275C592.288 307.899 591.903 306.557 591.519 305.221C591.143 303.909 590.764 302.597 590.387 301.285C590.016 299.992 589.64 298.653 589.811 297.317C590.155 294.627 592.543 292.741 594.715 291.116C597.116 289.317 599.617 286.944 599.603 283.704C599.593 281.205 598.299 278.884 596.749 276.923C595.2 274.96 593.363 273.227 591.963 271.156C590.955 269.665 590.168 267.915 590.331 266.121C590.433 265.008 590.895 263.96 591.428 262.977C592.572 260.868 594.081 258.936 594.871 256.669C595.659 254.404 595.547 251.585 593.777 249.964C592.325 248.633 590.169 248.447 588.204 248.577C586.385 248.697 584.609 249.517 583.02 250.401C577.876 253.261 574.94 259.352 569.484 261.553C567.377 262.401 565.072 262.588 562.877 263.168C560.683 263.748 558.445 264.868 557.429 266.897C555.427 270.899 559.145 275.831 557.736 280.079C556.489 283.837 552.837 285.276 550.785 288.664C549.888 290.145 549.683 291.857 549.827 293.584C550.072 296.507 550.499 298.649 551.901 301.899C553.06 304.584 556.465 309.391 556.465 309.391C556.551 309.475 581.168 323.661 581.385 323.787Z" fill="#26B6A6"/>
<path d="M566.805 316.017H566.823C567.185 316.003 567.46 315.704 567.445 315.351C566.387 289.927 578.368 261.857 587.079 253.703C587.336 253.461 587.349 253.056 587.108 252.797C586.867 252.539 586.461 252.527 586.204 252.767C577.317 261.085 565.093 289.621 566.164 315.404C566.18 315.749 566.464 316.017 566.805 316.017Z" fill="white"/>
<path d="M570.615 285.98L570.804 285.951C578.973 283.427 589.153 282.98 589.255 282.977C589.608 282.963 589.883 282.663 589.869 282.311C589.855 281.957 589.587 281.679 589.203 281.696C589.097 281.701 578.756 282.153 570.427 284.728C570.089 284.832 569.899 285.191 570.003 285.529C570.089 285.804 570.341 285.98 570.615 285.98Z" fill="white"/>
<path d="M39.5173 338.271L48.4553 333.111C48.4553 333.111 52.7918 309.372 49.5698 288.964C45.0402 260.272 25.5042 250.376 18.4094 253.227C11.3141 256.08 9.64643 264.58 22.4599 281.157C30.0203 290.94 39.7599 311.643 39.5173 338.271Z" fill="#26B6A6"/>
<path d="M39.5172 338.271C39.5203 337.933 39.5219 337.596 39.5219 337.26C39.5131 311.119 29.9245 290.816 22.4599 281.157C15.6651 272.367 12.9422 265.847 12.9417 261.237C12.9411 257.153 15.0765 254.567 18.4093 253.227C19.1828 252.916 20.1036 252.757 21.1375 252.757C29.586 252.757 45.5339 263.401 49.5697 288.964C50.4417 294.485 50.7599 300.249 50.7609 305.721C50.7631 320.479 48.4552 333.111 48.4552 333.111L39.5172 338.271Z" fill="#1DB3A0"/>
<path d="M44.3131 336.904L44.2771 336.903C43.9094 336.884 43.6271 336.569 43.6465 336.201C45.7558 296.251 40.1235 273.444 24.8141 259.944C24.5381 259.7 24.5115 259.277 24.7547 259.001C24.9985 258.728 25.4225 258.7 25.6959 258.944C41.3438 272.743 47.111 295.868 44.9782 336.272C44.9594 336.628 44.6651 336.904 44.3131 336.904Z" fill="white"/>
<path d="M42.2339 336.703C42.4241 328.112 37.4162 299.679 20.5907 289.333C3.76516 278.988 -4.41453 291.871 2.40735 299.687C7.40162 305.409 16.7105 309.545 25.4646 321.368C31.4829 329.497 34.9198 340.925 34.9198 340.925L42.2339 336.703Z" fill="#26B6A6"/>
<path d="M39.214 340.032C38.8682 340.032 38.576 339.764 38.5494 339.415C36.9322 317.735 24.6245 298.283 8.61818 292.111C8.27444 291.977 8.10308 291.591 8.23589 291.248C8.36818 290.904 8.75413 290.733 9.09736 290.865C25.5672 297.217 38.2254 317.14 39.8792 339.316C39.9068 339.683 39.6312 340.003 39.264 340.031L39.214 340.032Z" fill="white"/>
<path d="M378.256 83.7907C380.285 85.4693 382.604 86.328 385.274 88.9187C387.626 91.2 388.637 92.1 391.474 93.2253C394.55 94.4453 397.448 94.084 405.986 92.7187C416.429 91.0494 420.925 89.2934 425.429 85.4494C430.697 80.9547 442.481 67.4013 448.177 62.0773C454.202 56.4493 462.484 58.624 462.484 58.624C462.484 58.624 459.072 70.8347 451.182 82.0653C446.618 88.5613 438.096 94.7774 434.24 97.9854C428.07 103.119 424.792 105.148 411.24 106.167C401.012 106.936 399.653 107.187 391.286 106.937C388.261 106.848 386.373 106.817 381.422 106.404C378.968 106.2 376.973 105.892 375.062 105.296C372.637 104.539 370.534 104.085 368.42 102.667C365.756 100.881 363.47 98.4667 362.1 95.5667C361.346 93.9707 360.873 92.22 360.922 90.456C360.973 88.6934 361.577 86.9187 362.764 85.6133C363.005 85.348 363.28 85.0974 363.621 84.9867C364.236 84.788 364.889 85.088 365.464 85.3827C368.677 87.028 371.897 89.2827 375.252 90.576C378.086 91.668 380.24 92.048 380.03 91.476C379.818 90.9053 378.108 90.38 376.35 88.3973C374.67 86.504 374.15 83.6454 375.286 82.7867C376.424 81.928 376.224 82.1133 378.256 83.7907Z" fill="#F6879F"/>
<path d="M464.915 58.5773C464.915 58.5773 459.82 55.9387 454.548 57.452C449.278 58.9667 445.055 62.4146 440.028 67.8093C435 73.204 426.518 81.9306 426.518 81.9306C426.518 81.9306 430.694 92.504 440.08 96.2613L459.759 78.056L464.915 58.5773Z" fill="#DADBD8"/>
<path d="M493.824 320.609H481.894V300.185H493.824V320.609Z" fill="#F6879F"/>
<path d="M460.812 305.328L448.887 305.739L448.291 284.124L460.812 283.715V305.328Z" fill="#F6879F"/>
<path d="M498.906 147.684C498.906 159.076 496.892 225.341 496.892 225.341C497.17 228.62 500.326 234.448 500.571 246.256C500.927 263.38 494.334 310.397 494.334 310.397C494.334 310.397 488.543 313.781 481.051 310.66C481.051 310.66 475.64 246.925 473.502 229.976C471.636 215.184 468.471 174.997 468.471 174.997L462.854 223.289C462.854 223.289 465.054 232.112 464.332 242.249C463.775 250.089 461.566 298.633 461.566 298.633C461.566 298.633 455.951 302.444 447.791 299.688C447.791 299.688 439.376 230.481 439.239 223.288C439.082 215.088 442.358 131.373 442.358 131.373L498.906 147.684Z" fill="#273E47"/>
<path d="M491.068 63.8747C493.692 65.048 495.764 67.184 496.817 69.8587C497.755 72.24 498.564 75.616 498.564 80.1707V103.545L498.905 147.684C481.781 156.709 460.013 157.313 441.744 143.972C441.744 143.972 442.763 87.1574 442.763 77.8654C442.763 77.4454 442.773 77.0187 442.796 76.5881C443.46 63.316 456.529 54.2054 469.4 57.5174L480.212 60.2987L491.068 63.8747Z" fill="#EDEDEB"/>
<path d="M476.829 20.3973C476.829 29.452 469.489 36.792 460.435 36.792C451.379 36.792 444.04 29.452 444.04 20.3973C444.04 11.3413 451.379 4.0013 460.435 4.0013C469.489 4.0013 476.829 11.3413 476.829 20.3973Z" fill="#26B6A6"/>
<path d="M446.656 29.2867C445 26.7253 444.04 23.6733 444.04 20.3973C444.04 17.2493 444.925 14.3093 446.463 11.8133C446.507 11.864 446.552 11.916 446.596 11.9653C447.34 12.792 448.168 13.4667 449.171 13.888C448.347 15.4534 447.772 17.2933 447.513 19.4333C447.048 23.2827 446.771 26.4987 446.656 29.2867Z" fill="#0B7465"/>
<path d="M488.776 32.0547C488.776 32.0547 486.12 44.5373 485.053 46.588C483.988 48.6387 481.787 49.2213 481.787 49.2213L481.973 40.4413L488.776 32.0547Z" fill="#26B6A6"/>
<path d="M481.799 49.2187L481.974 40.4413C481.974 40.4413 482.504 42.7106 485.555 42.7093C485.787 42.7093 486.033 42.6973 486.295 42.668C485.816 44.488 485.367 45.9867 485.053 46.588C484.035 48.5507 481.973 49.1693 481.799 49.2187Z" fill="#0B7465"/>
<path d="M485.441 14.1733C485.441 14.1733 488.304 13.6813 490.535 15.9626C492.72 18.2 491.5 25.1987 488.776 32.0547L483.771 32.6293L485.441 14.1733Z" fill="#26B6A6"/>
<path d="M485.135 30.8907C485.42 30.5427 485.695 30.236 485.943 30.0093C485.68 30.2853 485.409 30.588 485.135 30.8907ZM486 29.952C486.44 29.4547 486.601 28.0667 486.601 26.308C486.601 22.652 485.908 17.3893 485.593 15.1947L487.356 14.2493C488.316 14.4373 489.493 14.8987 490.535 15.9627C491.311 16.7587 491.657 18.1547 491.66 19.9333C491.661 22.3013 491.052 25.348 490.032 28.5507C489.86 28.528 489.688 28.5173 489.517 28.5173C488.061 28.5173 486.675 29.284 486 29.952Z" fill="#0B7465"/>
<path d="M482.271 32.6333C483.275 33.2333 484.705 31.3053 485.943 30.0093C487.181 28.7147 491.221 26.9453 493.236 31.192C495.291 35.52 491.457 41.2373 488.276 42.236C482.796 43.956 481.973 40.4413 481.973 40.4413L481.568 60.8173C474.753 69.5547 455.84 68.816 463.72 59.6893L463.736 53.672C463.736 53.672 458.769 54.4253 456.347 54.052C452.315 53.428 449.78 50.248 448.557 45.8853C446.592 38.876 445.848 33.2173 447.513 19.4333C449.34 4.32666 466.912 4.16933 476.4 10.1413C485.889 16.1133 482.271 32.6333 482.271 32.6333Z" fill="#F6879F"/>
<path d="M482.271 34.3213C482.776 34.3307 484.695 31.1467 485.943 30.0093C487.675 28.4347 485.441 14.1733 485.441 14.1733C485.441 14.1733 487.104 10.628 483.771 6.95863C481.4 4.3493 477.437 4.05864 470.672 2.99597C467.121 2.4373 461.74 1.44399 458.196 0.785324C453.963 -0.00134277 450.459 -0.834698 447.471 1.76264C445.144 3.78264 444.143 7.35598 445.395 10.1706C445.688 10.832 446.113 11.428 446.596 11.9653C447.453 12.9186 448.424 13.668 449.644 14.064C449.644 14.064 451.488 15.7013 457.911 16.484C464.331 17.2667 474.332 16.3333 475.7 16.1467C477.561 15.892 477.959 17.696 478.963 22.6266C479.844 26.9546 480.575 34.288 482.271 34.3213Z" fill="#26B6A6"/>
<path d="M482.273 34.3214C482.272 34.3214 482.272 34.3214 482.271 34.3214C480.575 34.288 479.844 26.9547 478.963 22.6267C478.02 17.9973 477.612 16.1227 476.024 16.1227C475.921 16.1227 475.813 16.1307 475.7 16.1467C474.725 16.28 469.364 16.792 464.04 16.792C461.895 16.792 459.755 16.7093 457.911 16.484C451.488 15.7013 449.644 14.064 449.644 14.064C448.424 13.668 447.453 12.9187 446.596 11.9653C446.113 11.428 445.688 10.832 445.395 10.1707C445.025 9.34134 444.852 8.44534 444.851 7.54267C444.848 5.38267 445.829 3.18799 447.471 1.76266C448.996 0.435993 450.657 0.00400162 452.481 0.00400162C454.228 0.00400162 456.124 0.400017 458.196 0.785351C461.74 1.44402 467.121 2.43733 470.672 2.99599C477.437 4.05866 481.4 4.34932 483.771 6.95866C485.225 8.55866 485.728 10.1347 485.833 11.404C485.328 12.0427 485.053 12.848 485.055 13.6707C485.055 14.2133 485.177 14.7653 485.432 15.2813L485.593 15.1947C485.908 17.3893 486.601 22.652 486.601 26.308C486.601 28.0667 486.44 29.4547 486 29.952C485.981 29.9733 485.963 29.992 485.943 30.0093C484.696 31.1453 482.781 34.3214 482.273 34.3214Z" fill="#0B7465"/>
<path d="M485.432 15.2813L491.5 12.024C490.638 10.2853 488.582 9.6053 486.906 10.5053C485.23 11.404 484.57 13.5426 485.432 15.2813Z" fill="#26B6A6"/>
<path d="M485.432 15.2813C485.177 14.7653 485.055 14.2133 485.055 13.6706C485.052 12.3826 485.728 11.1373 486.907 10.5053C487.408 10.236 487.944 10.108 488.472 10.108C489.707 10.108 490.896 10.8066 491.5 12.024L485.432 15.2813Z" fill="#0B7465"/>
<path d="M463.736 53.672C463.736 53.672 472.735 51.86 475.88 50.1866C477.985 49.068 479.72 47.128 480.229 45.8853C480.229 45.8853 479.64 48.5546 477.758 50.9599C475.457 53.8999 463.736 56.0666 463.736 56.0666V53.672Z" fill="#F47089"/>
<path d="M464.176 30.384C464.176 31.4187 464.984 32.2547 465.98 32.252C466.976 32.2493 467.783 31.408 467.783 30.3733C467.783 29.3387 466.976 28.5013 465.98 28.504C464.984 28.508 464.176 29.3493 464.176 30.384Z" fill="#17282F"/>
<path d="M466.089 23.576L469.945 25.704C470.515 24.5974 470.112 23.2214 469.047 22.6334C467.983 22.0454 466.656 22.4667 466.089 23.576Z" fill="#17282F"/>
<path d="M464.551 42.84L460.435 44.384C460.841 45.564 462.095 46.176 463.231 45.7493C464.368 45.3227 464.959 44.02 464.551 42.84Z" fill="#F47089"/>
<path d="M448.619 25.0773L452.138 22.3667C451.42 21.36 450.05 21.1493 449.079 21.8987C448.107 22.6453 447.901 24.0693 448.619 25.0773Z" fill="#17282F"/>
<path d="M449.703 29.8707C449.703 30.9053 450.509 31.7413 451.505 31.7387C452.501 31.736 453.309 30.8947 453.309 29.86C453.309 28.8253 452.501 27.9893 451.505 27.9907C450.509 27.9947 449.703 28.8347 449.703 29.8707Z" fill="#17282F"/>
<path d="M458.888 28.16L458.297 39.004L452.635 37.0746L458.888 28.16Z" fill="#F47089"/>
<path d="M481.893 314.72V313.013C480.753 313.511 478.099 323.629 473.367 327.948C469.603 331.38 464.471 335.344 463.164 339.171C461.807 343.151 470.313 345.348 473.828 344.725C477.915 344.003 484.993 341.125 486.771 338.459C488.548 335.793 489.38 331.859 490.825 329.905C492.269 327.951 495.599 325.769 496.38 323.508C496.809 322.265 496.3 319.544 495.697 317.244C495.144 315.135 494.544 312.816 493.824 313.013C493.821 313.271 493.824 314.313 493.824 314.313C492.957 315.275 490.561 316.227 487.86 316.331C486.113 316.397 481.879 316.051 481.893 314.72Z" fill="#17282F"/>
<path d="M448.762 302.06C448.143 302.081 447.638 302.955 446.271 304.433C444.619 306.221 441.919 308.149 439.254 309.483C434.786 311.72 426.1 315.16 422.17 316.931C419.714 318.036 419.828 321.003 422.368 322.691C424.906 324.379 431.035 325.595 438.392 323.949C442.402 323.053 447.62 319.351 450.923 319.551C454.226 319.751 460.407 319.703 462.844 318.021C465.283 316.341 464.307 312.752 463.618 309.668C462.867 306.303 461.926 301.053 460.812 301.284V302.444C459.376 304.616 451.976 305.5 448.824 303.9L448.762 302.06Z" fill="#17282F"/>
<path d="M468.471 174.997C468.471 174.997 458.935 172.312 451.859 165.472C451.859 165.472 455.064 171.475 464.596 177.06L463.326 219.229L468.471 174.997Z" fill="#17282F"/>
<path d="M142.728 172.907H90.7183V122.191C90.7183 109.004 101.408 98.312 114.596 98.312H118.848C132.036 98.312 142.728 109.004 142.728 122.191V172.907Z" fill="#17282F"/>
<path d="M112.879 421.952C111.735 420.931 110.584 419.935 109.54 418.981C106.299 416.025 103.829 411.012 102.41 407.592C101.6 405.639 101.184 403.555 101.184 401.44V394.776H89.4932V405.623V405.624V405.913L89.5516 405.943C90.114 408.372 95.4797 414.835 98.5276 419.048C100.571 421.873 104.454 425.467 109.092 426.085C113.488 426.673 115.735 425.285 112.879 421.952Z" fill="#F6879F"/>
<path d="M146.655 404.175C146.983 403.981 147.27 403.732 147.494 403.424C148.405 402.169 147.683 401.485 147.023 400.492C146.167 399.204 145.605 397.548 145.015 396.124C144.473 394.817 143.762 392.417 143.762 392.417C143.762 392.417 143.788 390.672 143.788 389.972V383.309H132.097V394.156V394.445L132.157 394.476C132.757 397.069 135.117 399.579 136.668 401.647C137.869 403.251 140.957 404.064 142.828 404.465C143.653 404.643 144.507 404.757 145.341 404.631C145.801 404.561 146.256 404.409 146.655 404.175Z" fill="#F6879F"/>
<path d="M91.8193 224.343C82.7563 244.139 92.1464 313.871 92.1464 313.871C91.874 317.083 88.2011 323.404 86.8328 337.543C85.2156 354.248 89.3693 396.193 89.3693 396.193C89.3693 396.193 94.7823 399.733 101.184 396.663C101.184 396.663 112.325 333.489 114.421 316.88C116.249 302.384 119.759 270.511 119.759 270.511L126.737 316.859C126.737 316.859 124.177 324.979 123.578 331.165C122.631 340.935 132.097 386.423 132.097 386.423C132.097 386.423 136.131 387.903 143.788 386.775C143.788 386.775 147.136 326.411 148.019 314.641C149.501 294.876 147.248 233.147 143.623 221.447L91.8193 224.343Z" fill="#273E47"/>
<path d="M119.759 270.511L122.702 252.125C122.702 252.125 135.151 249.547 140.796 244.239C140.796 244.239 134.873 251.607 126.075 254.02L122.77 268.175L125.729 310.164L119.759 270.511Z" fill="#17282F"/>
<path d="M101.217 403.861L101.201 402.173C102.322 402.661 104.944 412.613 109.593 416.855C113.29 420.226 118.333 424.121 119.616 427.88C120.95 431.789 112.593 433.948 109.14 433.336C105.127 432.625 98.1714 429.8 96.4251 427.181C94.6792 424.562 93.8615 420.697 92.4432 418.777C91.0246 416.859 87.7536 414.715 86.9864 412.493C86.5651 411.273 87.0651 408.6 87.6579 406.341C88.2011 404.269 88.7902 401.991 89.497 402.185C89.499 402.437 89.497 403.463 89.497 403.463C90.3484 404.405 92.7022 405.341 95.3563 405.443C97.0714 405.508 101.231 405.169 101.217 403.861Z" fill="#17282F"/>
<path d="M143.763 392.417C144.371 392.437 145.024 393.359 146.367 394.812C147.99 396.568 150.643 398.461 153.262 399.772C157.65 401.969 166.18 405.348 170.042 407.088C172.455 408.174 172.342 411.088 169.847 412.747C167.354 414.404 161.335 415.599 154.106 413.983C150.168 413.101 145.042 409.465 141.796 409.661C138.552 409.857 132.481 409.811 130.086 408.16C127.691 406.509 128.65 402.983 129.327 399.953C130.065 396.647 130.989 391.492 132.084 391.717V392.857C133.492 394.991 140.763 395.859 143.859 394.288L143.763 392.417Z" fill="#17282F"/>
<path d="M127.154 155.032C127.154 155.032 135.932 153.743 142.028 161.696C146.708 167.804 159.031 192.819 159.031 192.819C159.031 192.819 186.084 191.012 187.381 189.447C188.68 187.881 187.949 184.715 187.593 182.972C187.235 181.229 186.645 177.36 186.257 176.272C185.579 174.373 188.387 174.885 190.041 176.66C191.735 178.477 192.431 181.903 193.257 182.499C194.081 183.095 200.361 175.872 203.409 172.388C206.456 168.903 207.887 166.464 209.929 167.901C211.4 168.939 210.456 171.008 208.271 173.993C206.085 176.98 205.767 177.301 205.449 177.949C205.187 178.483 205.993 178.911 206.313 179.196C206.904 179.727 207.956 180.592 208.029 181.42C208.069 181.871 207.987 182.337 208.112 182.773C208.397 183.767 209.627 184.232 209.973 185.205C210.224 185.911 209.948 186.7 210.089 187.433C210.18 187.907 210.441 188.335 210.525 188.808C210.692 189.739 210.157 190.648 209.549 191.372C207.408 193.919 204.481 194.895 201.676 196.447C199.343 197.737 196.933 198.303 194.247 199.497C191.56 200.692 158.677 209.203 153.744 206.48C148.812 203.757 129.958 174.12 129.958 174.12C122.608 161.943 127.154 155.032 127.154 155.032Z" fill="#F6879F"/>
<path d="M107.807 155.571C96.1872 156.371 95.3727 161.981 92.4639 168.119C90.2513 172.791 90.9805 178.365 92.6691 183.251L100.012 206.52C100.012 206.52 96.2211 215.684 91.8196 224.343C112.14 235.684 137.514 229.723 143.623 221.447C143.882 219.691 142.311 205.967 141.344 197.001C144.923 188.024 145.868 182.333 144.358 176.399C141.555 165.383 130.674 154.651 125.859 155.041L107.807 155.571Z" fill="#26B6A6"/>
<path d="M89.4606 109.049L92.9783 114.703C91.419 115.745 89.3679 115.325 88.3966 113.764C87.4252 112.203 87.9018 110.092 89.4606 109.049Z" fill="#17282F"/>
<path d="M134.184 108.829C136.931 110.452 140.327 117.361 139.991 131.845C139.707 144.119 135.729 147.151 133.731 148.025C131.733 148.899 127.881 148.368 124.135 147.743V155.109C124.135 155.109 129.312 161.123 128.986 164.501C128.66 167.879 121.511 168.676 116.666 165.376C111.822 162.077 108.716 157.055 108.716 157.055V139.247C108.716 139.247 106.187 142.624 102.051 139.877C97.9152 137.131 97.7586 130.332 100.163 127.891C102.567 125.449 107.75 126.223 108.716 129.595C108.716 129.595 114.69 129.813 122.645 125.444C130.599 121.073 133.656 113.588 134.184 108.829Z" fill="#F6879F"/>
<path d="M124.913 128.76C124.957 129.645 124.303 130.395 123.451 130.435C122.599 130.476 121.874 129.791 121.829 128.907C121.785 128.023 122.439 127.272 123.29 127.232C124.142 127.192 124.868 127.876 124.913 128.76Z" fill="#17282F"/>
<path d="M126.699 139.165L130.284 140.309C129.986 141.335 128.942 141.911 127.953 141.595C126.962 141.28 126.401 140.192 126.699 139.165Z" fill="#F47089"/>
<path d="M137.568 124.021L134.445 121.856C135.015 120.964 136.176 120.725 137.039 121.324C137.901 121.921 138.137 123.129 137.568 124.021Z" fill="#17282F"/>
<path d="M136.848 127.645C136.893 128.528 136.237 129.279 135.386 129.319C134.536 129.36 133.809 128.676 133.764 127.791C133.72 126.907 134.374 126.156 135.225 126.116C136.077 126.076 136.804 126.76 136.848 127.645Z" fill="#17282F"/>
<path d="M129.309 126.76L129.554 136.052L134.446 134.537L129.309 126.76Z" fill="#F47089"/>
<path d="M124.135 147.743C120.187 147.225 112.066 144.892 110.801 141.681C110.801 141.681 111.222 143.7 113.648 145.779C116.074 147.859 124.135 150.201 124.135 150.201V147.743Z" fill="#F47089"/>
<path d="M100.012 206.52L92.6689 183.251C91.5313 179.96 90.6974 176.329 91.0741 172.907H91.1703C90.8266 176.343 91.5293 179.953 92.6689 183.251L100.012 206.52Z" fill="#E0E1DE"/>
<path d="M91.1705 172.907H91.0742C91.1664 172.069 91.3309 171.245 91.5814 170.441C91.5956 170.432 91.609 170.423 91.6232 170.412C91.4029 171.228 91.2549 172.063 91.1705 172.907Z" fill="#142228"/>
<path d="M116.781 230.604C108.673 230.604 99.852 228.827 91.8192 224.343C96.2207 215.684 100.012 206.52 100.012 206.52L92.6687 183.251C91.5291 179.953 90.8264 176.343 91.1701 172.907C91.2545 172.063 91.4025 171.228 91.6228 170.412C92.5207 169.788 93.0895 169.393 93.0895 169.393L101.257 178.84C100.08 182.716 100.63 185.96 100.63 185.96L103.766 196.405C104.383 199.505 108.984 207.989 111.618 209.736C110.853 209.228 110.158 208.909 109.425 208.909C108.952 208.909 108.463 209.043 107.931 209.343C106.368 210.224 105.105 211.628 104.396 213.277C101.855 219.183 107.473 225.232 113.003 226.54C116.618 227.396 120.963 227.952 125.735 227.952C128.757 227.952 131.951 227.729 135.237 227.219C130.262 229.276 123.788 230.604 116.781 230.604Z" fill="#1DB3A0"/>
<path d="M208.98 458.512L182.555 443.256C179.804 441.632 178.271 437.557 178.276 432.303L178.166 316.4L204.791 331.772L204.684 448.048C204.688 453.165 206.336 456.825 208.98 458.512Z" fill="#26B6A6"/>
<path d="M208.98 458.512L182.555 443.256C179.928 441.705 178.412 437.92 178.284 433.005C178.279 432.784 178.276 432.56 178.276 432.333C178.276 432.323 178.276 432.312 178.276 432.303L178.166 316.4L204.791 331.772L204.684 448.048C204.688 453.165 206.336 456.825 208.98 458.512Z" fill="#14B099"/>
<path d="M209.167 458.62L208.98 458.512C206.336 456.825 204.688 453.165 204.684 448.048L204.791 331.772L178.166 316.4L201.196 302.965L201.403 302.853L201.468 302.801L201.511 302.789L204.778 300.899L204.786 300.885L208.472 298.327L208.616 298.231L208.767 298.123C208.97 297.989 209.123 297.847 209.303 297.72L209.512 297.573C209.73 297.413 209.934 297.245 210.151 297.085C210.367 296.925 210.571 296.757 210.767 296.604C210.942 296.455 211.116 296.307 211.284 296.172L211.487 296.004L211.67 295.841C212.018 295.58 212.346 295.288 212.667 295.011C212.85 294.848 213.011 294.692 213.174 294.536L213.371 294.347C213.994 293.761 214.619 293.143 215.196 292.513L215.402 292.312C215.638 292.056 215.867 291.813 216.091 291.551C216.194 291.432 216.306 291.301 216.396 291.175L216.679 290.84L216.755 290.74L216.838 290.628L216.972 290.456C217.211 290.167 217.456 289.863 217.682 289.565C217.871 289.3 218.068 289.021 218.243 288.748L218.386 288.563L218.431 288.483C218.688 288.132 218.918 287.765 219.139 287.412C219.346 287.087 219.523 286.779 219.708 286.457L219.778 286.337C219.926 286.049 220.08 285.781 220.23 285.493C220.307 285.36 220.391 285.212 220.455 285.071C220.643 284.716 220.816 284.353 220.978 283.983L221 283.943C221.096 283.713 221.207 283.492 221.303 283.261C221.414 283.04 221.511 282.812 221.594 282.575C221.68 282.393 221.763 282.191 221.83 281.98C221.903 281.791 221.986 281.588 222.059 281.399C222.226 280.924 222.379 280.444 222.532 279.961L222.539 279.948C222.66 279.555 222.788 279.147 222.903 278.732L222.948 278.563C223.078 278.12 223.182 277.664 223.278 277.22L223.307 277.076C223.383 276.728 223.467 276.367 223.538 275.997L223.544 275.984C223.646 275.472 223.75 274.891 223.816 274.341L223.868 274.067C223.89 273.937 223.903 273.82 223.924 273.691L223.94 273.539C223.955 273.423 223.976 273.292 223.998 273.163C224.071 272.509 224.124 271.864 224.175 271.251L224.199 270.961C224.214 270.721 224.235 270.467 224.251 270.225L224.258 270.212C224.295 269.253 224.326 268.273 224.343 267.285L224.346 267.251L224.344 267.161C224.334 266.871 224.335 266.621 224.324 266.329L224.318 266.005L224.314 265.611C224.306 265.285 224.304 264.945 224.288 264.633L224.276 264.377L224.256 264.133L224.248 263.933L224.238 263.767C224.198 263.28 224.171 262.801 224.128 262.349L224.136 262.336L224.127 262.259C224.083 261.841 224.031 261.437 223.986 261.055C223.708 258.971 223.315 257.245 222.887 255.733C222.578 254.664 222.248 253.689 221.944 252.765C221.27 250.755 220.66 248.941 220.327 246.308C220.278 245.869 220.222 245.409 220.182 244.923C220.15 244.423 220.112 243.901 220.09 243.355L220.094 243.285L220.084 243.208C220.071 243.077 220.059 242.945 220.072 242.828C220.036 242.521 220.018 242.244 220.027 241.981C220.03 235.835 223.771 228.675 228.391 226.013C228.9 225.719 229.388 225.52 229.852 225.396C230.211 225.3 230.546 225.244 230.872 225.235C231.218 225.221 231.536 225.227 231.856 225.288C232.022 225.312 232.178 225.348 232.327 225.399C232.791 225.524 233.228 225.723 233.655 225.969L260.254 241.325L260.246 241.34C260.394 241.424 260.546 241.531 260.699 241.636C262.272 242.831 263.144 245.116 263.147 248.075C263.151 248.469 263.126 248.883 263.074 249.531L263.075 249.62L263.063 249.703C262.907 254.139 262.12 257.356 261.219 261.076C260.996 262.017 260.766 262.972 260.547 263.968C260.458 264.308 260.39 264.644 260.32 264.977C260.087 266.001 259.871 267.053 259.7 268.184C259.636 268.544 259.583 268.928 259.524 269.301L278.259 258.725L304.898 274.105L304.894 289.947L304.887 297.552L304.902 304.688C304.898 313.276 304.242 319.009 302.908 322.215C301.974 324.42 300.55 325.807 297.262 327.704C293.494 329.877 291.258 330.048 288.667 330.245C287.715 330.319 286.803 330.417 285.89 330.548C285.54 330.596 285.184 330.659 284.807 330.725C284.464 330.795 284.122 330.864 283.763 330.96C283.124 331.108 282.456 331.311 281.792 331.533L281.255 331.723C280.279 332.085 279.32 332.512 278.315 333.019C278.194 333.073 278.072 333.128 277.958 333.204L277.866 333.24L277.716 333.315C277.354 333.479 276.942 333.669 276.511 333.92C272.987 335.949 269.592 339.299 266.686 343.591C265.358 345.552 264.174 347.665 263.172 349.832C262.211 351.896 261.406 354.033 260.746 356.165C261.247 355.635 261.742 355.119 262.215 354.608C263.79 352.897 265.119 351.491 266.643 350.179C268.014 349.009 269.343 348.065 270.839 347.201C272.974 345.975 274.686 344.984 275.946 345.765L275.954 345.752L302.375 361.507L302.368 361.519L302.666 361.744L302.874 361.972L302.976 362.101L303.174 362.376L303.218 362.455C303.294 362.571 303.362 362.699 303.436 362.848C304.116 364.293 304.563 366.885 304.764 371.136C304.79 371.615 304.81 372.107 304.826 372.633C304.862 373.991 304.89 375.485 304.887 377.159L304.898 407.729L217.834 457.992C216.2 458.938 214.62 459.454 213.164 459.537C212.63 459.568 212.106 459.55 211.591 459.485C211.418 459.475 211.24 459.443 211.078 459.385C210.403 459.226 209.762 458.98 209.167 458.62Z" fill="#26B6A6"/>
<path d="M302.369 361.503L291.312 354.909L302.369 361.503ZM267.524 349.453C267.916 349.139 268.311 348.841 268.711 348.557L268.716 348.56C268.315 348.844 267.919 349.14 267.524 349.453Z" fill="#D5D7D4"/>
<path d="M269.538 382.805C263.312 382.805 258.948 377.053 258.948 367.443C258.951 363.825 259.604 359.961 260.776 356.144C261.27 355.623 261.743 355.107 262.222 354.612C263.796 352.901 265.126 351.495 266.651 350.183C266.942 349.929 267.232 349.687 267.524 349.453C267.919 349.14 268.315 348.844 268.716 348.56L272.032 350.475L271.828 350.767C269.514 354.188 268.146 358.441 268.152 362.135C268.15 365.287 269.139 367.587 270.711 368.691L270.899 368.799L270.906 368.785C271.312 369.039 271.758 369.224 272.242 369.343C272.494 369.399 272.775 369.437 273.059 369.44C273.076 369.44 273.092 369.44 273.11 369.44C273.378 369.44 273.659 369.417 273.934 369.375C274.735 369.285 275.596 368.964 276.499 368.451C276.522 368.439 276.546 368.425 276.568 368.412C276.831 368.255 277.131 368.041 277.448 367.816L277.504 367.776L277.562 367.739C278.946 366.847 280.111 365.943 281.171 365.009C282.688 363.669 283.99 362.267 285.404 360.743C286.58 359.479 287.651 358.333 288.834 357.18L288.876 357.14L289.027 356.989L289.378 356.66L289.54 356.507C289.595 356.456 289.65 356.404 289.704 356.353C290.24 355.849 290.775 355.369 291.312 354.909L302.37 361.503L302.362 361.515C302.051 361.319 301.712 361.232 301.344 361.232C300.231 361.232 298.86 362.028 297.255 362.951C295.758 363.816 294.43 364.759 293.072 365.936C291.535 367.241 290.207 368.648 288.631 370.357C285.924 373.285 282.856 376.593 278.195 379.605C277.674 379.981 277.056 380.373 276.49 380.705C274.022 382.131 271.67 382.805 269.538 382.805Z" fill="#1DB3A0"/>
<path d="M304.892 274.103L278.259 258.725L259.524 269.301C259.525 269.296 259.527 269.291 259.527 269.285L278.263 258.712L304.911 274.097L304.892 274.103Z" fill="#D5D7D4"/>
<path d="M266.907 293.111C266.397 293.111 265.884 293.045 265.391 292.951L265.127 292.885C264.699 292.767 264.323 292.636 263.981 292.481C263.859 292.432 263.761 292.376 263.664 292.32L263.616 292.292C263.292 292.105 262.963 291.895 262.652 291.649L262.596 291.596L262.365 291.399C262.024 291.093 261.72 290.724 261.425 290.339L261.301 290.18C260.655 289.248 260.125 288.036 259.72 286.575L259.659 286.345C259.491 285.667 259.364 284.989 259.24 284.272L259.185 283.917C259.068 283.116 258.976 282.267 258.92 281.393C258.845 280.252 258.823 279.248 258.816 278.252C258.816 274.892 259.103 271.933 259.504 269.299L259.527 269.285C259.527 269.291 259.525 269.296 259.524 269.301L278.259 258.725L304.892 274.103L304.884 274.104L281.971 287.333L281.927 287.372L281.875 287.387L274.972 290.984L274.901 291.031L274.825 291.051C274.671 291.133 274.508 291.191 274.336 291.264L274.088 291.357C273.684 291.533 273.3 291.679 272.94 291.816C272.717 291.903 272.505 291.973 272.291 292.044L272.12 292.117C271.753 292.229 271.395 292.367 271.037 292.463C270.783 292.531 270.544 292.608 270.299 292.66C269.916 292.763 269.552 292.833 269.188 292.903L269.071 292.921C268.901 292.953 268.732 292.984 268.572 293C268.125 293.064 267.655 293.095 267.22 293.103L266.936 293.111C266.925 293.111 266.916 293.111 266.907 293.111Z" fill="#1DB3A0"/>
<path d="M201.196 302.965L201.39 302.845L201.468 302.801L201.403 302.853L201.196 302.965ZM209.303 297.72L209.499 297.565C209.716 297.405 209.934 297.245 210.151 297.085C209.934 297.245 209.73 297.413 209.512 297.573L209.303 297.72ZM216.396 291.175L216.666 290.832L216.755 290.74L216.679 290.84L216.396 291.175ZM219.708 286.457L219.764 286.329C219.926 286.049 220.08 285.781 220.23 285.493C220.08 285.781 219.926 286.049 219.778 286.337L219.708 286.457ZM220.595 284.8C220.708 284.556 220.83 284.315 220.935 284.077C220.828 284.321 220.714 284.563 220.595 284.8ZM221.303 283.261C221.346 283.177 221.387 283.088 221.427 282.996C221.388 283.087 221.347 283.175 221.303 283.261ZM222.948 278.563C223.058 278.127 223.182 277.664 223.278 277.22C223.182 277.664 223.078 278.12 222.948 278.563ZM223.816 274.341L223.854 274.06C223.882 273.951 223.903 273.82 223.924 273.691C223.903 273.82 223.89 273.937 223.868 274.067L223.816 274.341ZM223.94 273.539C223.955 273.423 223.976 273.292 223.984 273.155C224.067 272.489 224.124 271.864 224.162 271.244L224.199 270.961L224.175 271.251C224.124 271.864 224.071 272.509 223.998 273.163C223.976 273.292 223.955 273.423 223.94 273.539ZM224.346 267.251L224.344 267.161C224.334 266.871 224.335 266.621 224.324 266.329L224.318 266.005L224.314 265.611C224.306 265.285 224.291 264.939 224.275 264.625L224.276 264.377L224.256 264.133L224.248 263.933L224.238 263.767C224.198 263.28 224.171 262.801 224.128 262.349L224.106 262.264L224.114 262.252C224.07 261.835 224.031 261.437 223.986 261.055C223.708 258.971 223.315 257.245 222.887 255.733C223.315 257.245 223.708 258.971 223.986 261.055C224.031 261.437 224.083 261.841 224.127 262.259L224.136 262.336L224.128 262.349C224.171 262.801 224.198 263.28 224.238 263.767L224.248 263.933L224.256 264.133L224.276 264.377L224.288 264.633C224.304 264.945 224.306 265.285 224.314 265.611L224.318 266.005L224.324 266.329C224.335 266.621 224.334 266.871 224.344 267.161L224.346 267.251ZM231.844 225.285C231.619 225.244 231.394 225.229 231.16 225.229C231.066 225.229 230.97 225.231 230.872 225.235C230.975 225.225 231.078 225.22 231.178 225.22C231.404 225.22 231.626 225.244 231.844 225.285Z" fill="#D5D7D4"/>
<path d="M204.791 331.772L178.166 316.4L201.196 302.965L201.403 302.853L201.468 302.801L201.511 302.789L204.778 300.899L204.786 300.885L208.484 298.335L208.616 298.231L208.767 298.123C208.97 297.989 209.123 297.847 209.303 297.72L209.512 297.573C209.73 297.413 209.934 297.245 210.151 297.085C210.367 296.925 210.571 296.757 210.767 296.604C210.942 296.455 211.116 296.307 211.284 296.172L211.487 296.004L211.67 295.841C212.018 295.58 212.346 295.288 212.667 295.011C212.85 294.848 213.011 294.692 213.174 294.536L213.371 294.347C213.994 293.761 214.619 293.143 215.196 292.513L215.402 292.312C215.638 292.056 215.867 291.813 216.091 291.551C216.194 291.432 216.306 291.301 216.396 291.175L216.679 290.84L216.755 290.74L216.851 290.636L216.972 290.456C217.224 290.175 217.47 289.871 217.682 289.565C217.871 289.3 218.068 289.021 218.256 288.756L218.386 288.563L218.431 288.483C218.688 288.132 218.918 287.765 219.139 287.412C219.346 287.087 219.523 286.779 219.708 286.457L219.778 286.337C219.926 286.049 220.08 285.781 220.23 285.493C220.32 285.368 220.391 285.212 220.468 285.079C220.508 284.985 220.551 284.893 220.595 284.8C220.714 284.563 220.828 284.321 220.935 284.077C220.95 284.045 220.963 284.015 220.978 283.983L221 283.943C221.096 283.713 221.207 283.492 221.303 283.261C221.347 283.175 221.388 283.087 221.427 282.996C221.487 282.864 221.546 282.725 221.607 282.583C221.688 282.379 221.763 282.191 221.83 281.98C221.903 281.791 221.986 281.588 222.059 281.399C222.234 280.912 222.384 280.464 222.532 279.961L222.539 279.948C222.66 279.555 222.788 279.147 222.903 278.732L222.948 278.563C223.078 278.12 223.182 277.664 223.278 277.22L223.32 277.084C223.391 276.715 223.467 276.367 223.538 275.997L223.544 275.984C223.646 275.472 223.75 274.891 223.816 274.341L223.868 274.067C223.89 273.937 223.903 273.82 223.924 273.691L223.94 273.539C223.955 273.423 223.976 273.292 223.998 273.163C224.071 272.509 224.124 271.864 224.175 271.251L224.199 270.961C224.222 270.707 224.242 270.488 224.251 270.225L224.258 270.212C224.295 269.253 224.326 268.273 224.343 267.285L224.346 267.251L224.344 267.161C224.334 266.871 224.335 266.621 224.324 266.329L224.318 266.005L224.314 265.611C224.306 265.285 224.304 264.945 224.288 264.633L224.276 264.377L224.256 264.133L224.248 263.933L224.238 263.767C224.198 263.28 224.171 262.801 224.128 262.349L224.136 262.336L224.127 262.259C224.083 261.841 224.031 261.437 223.986 261.055C223.708 258.971 223.315 257.245 222.887 255.733C222.586 254.651 222.256 253.676 221.944 252.765C221.27 250.755 220.66 248.941 220.327 246.308C220.278 245.869 220.222 245.409 220.182 244.923C220.15 244.423 220.126 243.909 220.103 243.363L220.094 243.285L220.098 243.216C220.086 243.084 220.072 242.952 220.072 242.828C220.042 242.575 220.024 242.34 220.024 242.119C220.024 242.072 220.026 242.027 220.027 241.981C220.03 235.835 223.771 228.675 228.391 226.013C228.9 225.719 229.388 225.52 229.852 225.396C230.211 225.3 230.546 225.244 230.872 225.235C230.97 225.231 231.066 225.229 231.16 225.229C231.394 225.229 231.619 225.244 231.844 225.285C231.848 225.287 231.852 225.287 231.856 225.288C232.022 225.312 232.178 225.348 232.327 225.399C232.791 225.524 233.228 225.723 233.655 225.969L260.254 241.325C259.692 241.003 259.067 240.819 258.399 240.772C258.315 240.768 258.231 240.765 258.146 240.765C257.775 240.765 257.388 240.811 256.995 240.888C256.302 241.04 255.544 241.333 254.792 241.772C254.011 242.231 253.25 242.807 252.539 243.483C250.772 245.155 249.259 247.436 248.176 249.928C247.944 250.455 247.747 250.981 247.555 251.531C247.287 252.303 247.067 253.084 246.895 253.876C246.602 255.187 246.442 256.483 246.442 257.749C246.434 258.101 246.479 258.519 246.507 258.963L246.516 259.039L246.511 259.108C246.624 261.847 246.958 263.768 247.435 265.505C247.518 265.855 247.616 266.179 247.706 266.516C247.922 267.193 248.139 267.836 248.354 268.512C248.658 269.436 248.994 270.396 249.295 271.479C249.404 271.845 249.494 272.217 249.595 272.597C249.696 272.977 249.783 273.383 249.883 273.796C250.147 275.036 250.382 276.42 250.536 278.005L250.544 278.083L250.559 278.089C250.566 278.325 250.579 278.547 250.599 278.791C250.619 279.033 250.626 279.269 250.646 279.512L250.662 279.7L250.679 279.888C250.69 280.055 250.707 280.208 250.711 280.388C250.722 280.555 250.727 280.7 250.716 280.872C250.727 281.039 250.738 281.205 250.735 281.364L250.739 281.759V282.097C250.752 282.353 250.756 282.624 250.767 282.915L250.755 282.997L250.752 283.032C250.751 283.529 250.748 284.027 250.734 284.517C250.718 285.007 250.688 285.489 250.672 285.979C250.658 286.22 250.636 286.475 250.608 286.708L250.584 286.997C250.547 287.617 250.48 288.256 250.407 288.909C250.375 289.211 250.33 289.505 250.29 289.821L250.247 290.081L250.239 290.095C250.15 290.649 250.062 291.204 249.959 291.752C249.89 292.12 249.806 292.481 249.73 292.831L249.7 292.973C249.643 293.227 249.587 293.479 249.508 293.736C249.452 293.989 249.375 294.247 249.312 294.479L249.238 294.792C249.158 295.085 249.05 295.396 248.962 295.703L248.955 295.716C248.8 296.197 248.648 296.679 248.467 297.145C248.326 297.544 248.171 297.936 248.016 298.328C247.823 298.787 247.628 299.245 247.43 299.683C247.248 300.059 247.067 300.436 246.886 300.812L246.878 300.825C246.762 301.025 246.651 301.247 246.536 301.448C246.412 301.661 246.31 301.869 246.207 302.077L246.13 302.212C246.038 302.372 245.946 302.532 245.839 302.685L245.747 302.845L245.556 303.145C245.326 303.512 245.096 303.879 244.854 304.237L244.808 304.317L244.666 304.503C244.588 304.636 244.49 304.775 244.378 304.907C244.288 305.033 244.203 305.18 244.099 305.297L243.851 305.636C243.7 305.835 243.55 306.033 243.395 306.209L243.26 306.381L243.11 306.58C242.998 306.712 242.894 306.829 242.811 306.943L242.715 307.047L242.499 307.297C242.388 307.428 242.276 307.561 242.151 307.684C242.06 307.811 241.935 307.933 241.823 308.065L241.619 308.268C241.034 308.911 240.416 309.516 239.78 310.093L239.595 310.289C239.42 310.439 239.259 310.595 239.076 310.757C238.768 311.041 238.427 311.325 238.084 311.609L237.896 311.751L237.8 311.856L237.707 311.925C237.539 312.061 237.364 312.209 237.19 312.359C236.776 312.672 236.355 313 235.922 313.319L235.726 313.473C235.544 313.6 235.378 313.736 235.19 313.876L234.894 314.08L231.207 316.639L227.94 318.531L227.826 318.607L227.618 318.719L204.791 331.772Z" fill="#1DB3A0"/>
<path d="M306.504 331.883L278.128 315.5C278.324 315.221 278.543 314.937 278.755 314.632L278.815 314.559C278.92 314.407 279.019 314.267 279.124 314.115C279.579 313.451 280.001 312.749 280.387 312.081L280.511 311.868C280.921 311.124 281.329 310.327 281.704 309.491C281.785 309.288 281.88 309.093 281.969 308.877L282.012 308.743C282.221 308.257 282.463 307.684 282.688 307.047C282.793 306.771 282.888 306.485 282.988 306.187L283.04 306.004C283.207 305.529 283.361 305.048 283.501 304.559C283.621 304.165 283.728 303.763 283.836 303.361C283.944 302.925 284.048 302.468 284.165 302.019C284.253 301.589 284.348 301.145 284.436 300.715C284.517 300.297 284.597 299.881 284.664 299.456L284.704 299.265C284.776 298.861 284.844 298.436 284.911 298.012C284.937 297.779 284.981 297.519 285.017 297.272L285.047 297.004C285.333 294.871 285.516 292.641 285.655 290.208L285.648 290.097L285.657 290.049L285.655 289.995L285.664 289.947L285.808 283.4L285.817 283.352L285.807 283.311L285.812 283.117L285.817 282.799L285.819 252.236L314.095 268.793L314.087 268.807L314.085 299.368L314.08 299.687L314.083 299.867L314.087 299.923L314.084 299.956L313.931 306.516L313.929 306.551L313.92 306.599L313.924 306.655L313.909 306.771C313.792 309.197 313.601 311.44 313.321 313.56L313.285 313.841C313.249 314.089 313.213 314.336 313.179 314.583C313.111 315.007 313.052 315.419 312.98 315.821L312.94 316.012C312.865 316.451 312.793 316.855 312.712 317.272C312.616 317.715 312.529 318.145 312.42 318.581C312.323 319.025 312.22 319.481 312.111 319.919C311.996 320.333 311.889 320.735 311.776 321.116C311.637 321.604 311.484 322.087 311.317 322.56L311.256 322.757C311.163 323.041 311.063 323.34 310.956 323.617C310.739 324.24 310.488 324.827 310.28 325.312L310.224 325.44C310.143 325.643 310.061 325.845 309.98 326.048C309.592 326.875 309.197 327.681 308.779 328.437L308.655 328.651C308.269 329.32 307.841 330 307.392 330.684C307.293 330.824 307.188 330.977 307.076 331.108L307.023 331.201C306.849 331.44 306.683 331.665 306.504 331.883Z" fill="#26B6A6"/>
<path d="M285.718 386.035L285.802 360.332C285.669 360.468 285.537 360.605 285.404 360.743C286.58 359.479 287.65 358.333 288.833 357.18L289.032 356.992L289.382 356.66L289.544 356.504C291.949 354.221 294.325 352.421 296.962 350.879L296.97 350.865L297.257 350.709L297.321 350.657L297.529 350.545L297.55 350.54C298.186 350.177 298.814 349.863 299.456 349.555C299.633 349.461 299.817 349.391 299.988 349.311L300.18 349.225C300.598 349.057 301.053 348.856 301.512 348.711C301.745 348.613 301.977 348.552 302.196 348.481L302.301 348.453C302.68 348.352 303.06 348.251 303.402 348.181C303.682 348.128 303.941 348.083 304.192 348.048C304.533 348.013 304.853 347.984 305.17 347.989C305.428 347.977 305.677 347.979 305.917 347.993C306.241 348.019 306.528 348.079 306.793 348.143L306.91 348.156C307.101 348.196 307.285 348.248 307.456 348.293C307.766 348.401 308.028 348.535 308.256 348.667C308.605 348.832 308.852 348.992 309.077 349.157C309.356 349.355 309.645 349.592 309.938 349.887C310.082 350.04 310.216 350.208 310.358 350.396L310.46 350.527L310.532 350.62C310.665 350.788 310.793 350.968 310.926 351.171C311.093 351.408 311.234 351.687 311.376 351.964C311.513 352.223 311.632 352.451 311.733 352.705C311.881 353.005 312.006 353.344 312.13 353.683C312.233 353.939 312.314 354.199 312.396 354.46C312.518 354.833 312.62 355.213 312.726 355.613C312.784 355.824 312.832 356.049 312.881 356.273L312.909 356.379C313.006 356.827 313.104 357.275 313.186 357.751C313.206 357.868 313.233 358.008 313.246 358.141L313.277 358.301C313.58 360.187 313.79 362.323 313.932 364.792L313.924 364.84L313.926 364.896L314.074 370.844L314.086 370.887L314.084 370.921L314.09 371.281C314.085 371.475 314.088 371.655 314.084 371.847L314.094 402.417L285.718 386.035Z" fill="#26B6A6"/>
<path d="M270.711 368.691L242.803 352.579C240.947 351.595 239.871 349.013 239.876 345.577C239.877 341.872 241.26 337.627 243.552 334.209C243.733 333.957 243.893 333.712 244.088 333.468C243.952 333.673 243.793 333.885 243.656 334.091L272.032 350.475L271.828 350.767C269.513 354.188 268.145 358.441 268.152 362.135C268.149 365.287 269.139 367.587 270.711 368.691Z" fill="#26B6A6"/>
<path d="M306.504 331.883L278.128 315.5C278.324 315.221 278.543 314.937 278.755 314.632L278.815 314.559C278.92 314.407 279.019 314.267 279.124 314.115C279.579 313.451 280.001 312.749 280.387 312.081L280.511 311.868C280.921 311.124 281.329 310.327 281.704 309.491C281.785 309.288 281.88 309.093 281.969 308.877L282.012 308.743C282.221 308.257 282.463 307.684 282.688 307.047C282.793 306.771 282.888 306.485 282.988 306.187L283.04 306.004C283.207 305.529 283.361 305.048 283.501 304.559C283.621 304.165 283.728 303.763 283.836 303.361C283.944 302.925 284.048 302.468 284.165 302.019C284.253 301.589 284.348 301.145 284.436 300.715C284.517 300.297 284.597 299.881 284.664 299.456L284.704 299.265C284.776 298.861 284.844 298.436 284.911 298.012C284.937 297.779 284.981 297.519 285.017 297.272L285.047 297.004C285.333 294.871 285.516 292.641 285.655 290.208L285.648 290.097L285.657 290.049L285.655 289.995L285.664 289.947L285.808 283.4L285.817 283.352L285.807 283.311L285.812 283.117L285.817 282.799L285.819 252.236L314.095 268.793L314.087 268.807L314.085 299.368L314.08 299.687L314.083 299.867L314.087 299.923L314.084 299.956L313.931 306.516L313.929 306.551L313.92 306.599L313.924 306.655L313.909 306.771C313.792 309.197 313.601 311.44 313.321 313.56L313.285 313.841C313.249 314.089 313.213 314.336 313.179 314.583C313.111 315.007 313.052 315.419 312.98 315.821L312.94 316.012C312.865 316.451 312.793 316.855 312.712 317.272C312.616 317.715 312.529 318.145 312.42 318.581C312.323 319.025 312.22 319.481 312.111 319.919C311.996 320.333 311.889 320.735 311.776 321.116C311.637 321.604 311.484 322.087 311.317 322.56L311.256 322.757C311.163 323.041 311.063 323.34 310.956 323.617C310.739 324.24 310.488 324.827 310.28 325.312L310.224 325.44C310.143 325.643 310.061 325.845 309.98 326.048C309.592 326.875 309.197 327.681 308.779 328.437L308.655 328.651C308.269 329.32 307.841 330 307.392 330.684C307.293 330.824 307.188 330.977 307.076 331.108L307.023 331.201C306.849 331.44 306.683 331.665 306.504 331.883Z" fill="#17282F"/>
<path d="M285.718 386.035L285.802 360.332C285.669 360.468 285.537 360.605 285.404 360.743C286.58 359.479 287.65 358.333 288.833 357.18L289.032 356.992L289.382 356.66L289.544 356.504C291.949 354.221 294.325 352.421 296.962 350.879L296.97 350.865L297.257 350.709L297.321 350.657L297.529 350.545L297.55 350.54C298.186 350.177 298.814 349.863 299.456 349.555C299.633 349.461 299.817 349.391 299.988 349.311L300.18 349.225C300.598 349.057 301.053 348.856 301.512 348.711C301.745 348.613 301.977 348.552 302.196 348.481L302.301 348.453C302.68 348.352 303.06 348.251 303.402 348.181C303.682 348.128 303.941 348.083 304.192 348.048C304.533 348.013 304.853 347.984 305.17 347.989C305.428 347.977 305.677 347.979 305.917 347.993C306.241 348.019 306.528 348.079 306.793 348.143L306.91 348.156C307.101 348.196 307.285 348.248 307.456 348.293C307.766 348.401 308.028 348.535 308.256 348.667C308.605 348.832 308.852 348.992 309.077 349.157C309.356 349.355 309.645 349.592 309.938 349.887C310.082 350.04 310.216 350.208 310.358 350.396L310.46 350.527L310.532 350.62C310.665 350.788 310.793 350.968 310.926 351.171C311.093 351.408 311.234 351.687 311.376 351.964C311.513 352.223 311.632 352.451 311.733 352.705C311.881 353.005 312.006 353.344 312.13 353.683C312.233 353.939 312.314 354.199 312.396 354.46C312.518 354.833 312.62 355.213 312.726 355.613C312.784 355.824 312.832 356.049 312.881 356.273L312.909 356.379C313.006 356.827 313.104 357.275 313.186 357.751C313.206 357.868 313.233 358.008 313.246 358.141L313.277 358.301C313.58 360.187 313.79 362.323 313.932 364.792L313.924 364.84L313.926 364.896L314.074 370.844L314.086 370.887L314.084 370.921L314.09 371.281C314.085 371.475 314.088 371.655 314.084 371.847L314.094 402.417L285.718 386.035Z" fill="#17282F"/>
<path d="M270.711 368.691L242.803 352.579C240.947 351.595 239.871 349.013 239.876 345.577C239.877 341.872 241.26 337.627 243.552 334.209C243.733 333.957 243.893 333.712 244.088 333.468C243.952 333.673 243.793 333.885 243.656 334.091L272.032 350.475L271.828 350.767C269.513 354.188 268.145 358.441 268.152 362.135C268.149 365.287 269.139 367.587 270.711 368.691Z" fill="#17282F"/>
<path d="M270.906 368.785L270.899 368.799L270.711 368.691C269.139 367.587 268.15 365.287 268.152 362.135C268.146 358.441 269.514 354.188 271.828 350.767L272.032 350.475L243.656 334.091C243.794 333.885 243.952 333.673 244.088 333.468C244.448 332.999 244.815 332.549 245.199 332.131C245.391 331.921 245.584 331.711 245.782 331.523C245.982 331.299 246.202 331.105 246.412 330.924C246.996 330.405 247.603 329.972 248.211 329.628L248.219 329.616C248.442 329.476 248.663 329.372 248.955 329.237C249.046 329.201 249.146 329.152 249.267 329.097L249.33 329.08L249.4 329.049C250.82 328.319 252.023 327.872 253.124 327.6C253.272 327.56 253.434 327.529 253.582 327.489C254.808 327.217 255.934 327.119 257.128 327.024C260.143 326.804 263.54 326.537 268.983 323.407C269.284 323.225 269.607 323.036 269.916 322.841C270.188 322.677 270.448 322.507 270.715 322.321C270.908 322.203 271.118 322.056 271.32 321.923L271.364 321.877L271.442 321.833C271.767 321.611 272.099 321.375 272.426 321.117C272.744 320.875 273.064 320.631 273.37 320.379L273.536 320.244L273.682 320.115L273.791 320.017C273.93 319.901 274.06 319.799 274.186 319.675C274.316 319.572 274.455 319.456 274.572 319.345C274.82 319.132 275.055 318.911 275.296 318.676L275.635 318.337L275.775 318.187C275.982 317.984 276.174 317.775 276.366 317.565C276.602 317.311 276.839 317.055 277.07 316.777L277.167 316.673C277.286 316.528 277.412 316.369 277.552 316.219C277.727 315.981 277.934 315.744 278.115 315.492L306.504 331.883C306.683 331.665 306.85 331.44 307.023 331.201L307.076 331.108C307.188 330.977 307.294 330.824 307.392 330.684C307.842 330 308.27 329.32 308.655 328.651L308.779 328.437C309.198 327.681 309.592 326.875 309.98 326.048C310.062 325.845 310.143 325.643 310.224 325.44L310.28 325.312C310.488 324.827 310.739 324.24 310.956 323.617C311.063 323.34 311.163 323.041 311.256 322.757L311.318 322.56C311.484 322.087 311.638 321.604 311.776 321.116C311.89 320.735 311.996 320.333 312.111 319.919C312.22 319.481 312.323 319.025 312.42 318.581C312.53 318.145 312.616 317.715 312.712 317.272C312.794 316.855 312.866 316.451 312.94 316.012L312.98 315.821C313.052 315.419 313.111 315.007 313.179 314.583C313.214 314.336 313.25 314.089 313.286 313.841L313.322 313.56C313.602 311.44 313.792 309.197 313.91 306.771L313.924 306.655L313.92 306.599L313.93 306.551L313.931 306.516L314.084 299.956L314.087 299.923L314.083 299.867L314.08 299.687L314.086 299.369L314.087 268.807L314.095 268.793L285.819 252.236L297.415 245.548L303.403 242.091L308.754 238.996C309.478 238.576 310.178 238.196 310.836 237.828C311.371 237.549 311.874 237.268 312.372 237.021C314.634 235.849 316.484 235.083 317.952 234.701C318.163 234.644 318.346 234.607 318.535 234.556C319.25 234.399 319.875 234.367 320.375 234.425C320.726 234.467 320.91 234.733 321.178 234.888L349.507 251.227C350.002 251.512 350.347 251.996 350.575 252.805C350.636 253.037 350.698 253.303 350.75 253.583C350.794 253.876 350.83 254.181 350.866 254.523C350.89 254.697 350.892 254.877 350.91 255.065C350.928 255.432 350.946 255.835 350.96 256.271C350.976 256.708 350.988 257.179 350.98 257.689C350.98 258.955 350.926 260.1 350.823 261.2C350.808 261.476 350.778 261.744 350.748 262.011C350.718 262.28 350.696 262.533 350.652 262.793C350.623 263.063 350.587 263.309 350.543 263.568C350.508 263.815 350.464 264.076 350.428 264.323C350.336 264.821 350.254 265.308 350.16 265.807C350.063 266.284 349.958 266.776 349.851 267.268L349.831 267.364C352.11 262.12 353.471 256.401 353.466 251.069C353.471 250.288 353.442 249.505 353.384 248.832C353.14 242.773 351.984 239.343 350.97 236.316C349.988 233.416 349.136 230.909 349.134 225.883C349.135 219.307 349.146 215.677 363.111 207.631L385.926 194.569L414.302 210.952L414.303 327.041C414.304 336.701 408.408 347.963 401.158 352.153L314.095 402.417L314.084 371.847C314.088 371.655 314.086 371.475 314.091 371.281L314.084 370.921L314.087 370.887L314.075 370.844L313.926 364.896L313.924 364.84L313.932 364.792C313.791 362.323 313.58 360.187 313.278 358.301L313.247 358.141C313.234 358.008 313.208 357.868 313.187 357.751C313.104 357.275 313.007 356.827 312.91 356.379L312.882 356.273C312.832 356.049 312.784 355.824 312.727 355.613C312.62 355.213 312.519 354.833 312.396 354.46C312.315 354.199 312.234 353.939 312.131 353.683C312.007 353.344 311.882 353.005 311.734 352.705C311.632 352.451 311.514 352.223 311.376 351.964C311.235 351.687 311.094 351.408 310.927 351.171C310.794 350.968 310.666 350.788 310.532 350.62L310.46 350.527L310.359 350.396C310.216 350.208 310.083 350.04 309.939 349.887C309.646 349.592 309.356 349.355 309.078 349.157C308.852 348.992 308.606 348.832 308.256 348.667C308.028 348.535 307.767 348.401 307.456 348.293C307.286 348.248 307.102 348.196 306.911 348.156L306.794 348.143C306.528 348.079 306.242 348.019 305.918 347.993C305.676 347.979 305.428 347.977 305.171 347.989C304.854 347.984 304.534 348.013 304.192 348.048C303.942 348.083 303.683 348.128 303.403 348.181C303.06 348.251 302.68 348.352 302.302 348.453L302.196 348.481C301.978 348.552 301.746 348.613 301.511 348.711C301.054 348.856 300.599 349.057 300.18 349.225L299.988 349.311C299.818 349.391 299.634 349.461 299.455 349.555C298.815 349.863 298.187 350.177 297.551 350.54L297.53 350.545L297.322 350.657L297.258 350.709L296.971 350.865L296.963 350.879C294.326 352.421 291.95 354.221 289.544 356.504L289.383 356.66L289.032 356.992L288.834 357.18C287.651 358.333 286.58 359.479 285.404 360.743C283.002 363.331 280.924 365.569 277.566 367.747L277.507 367.785L277.45 367.823C277.096 368.065 276.786 368.295 276.499 368.451C275.596 368.964 274.735 369.285 273.934 369.375C273.64 369.42 273.342 369.444 273.059 369.44C272.775 369.437 272.494 369.399 272.242 369.343C271.758 369.224 271.312 369.039 270.906 368.785Z" fill="#273E47"/>
<path d="M314.095 268.793L285.819 252.236L297.415 245.548L303.403 242.091L308.754 238.996C309.478 238.576 310.178 238.196 310.836 237.828C311.371 237.549 311.874 237.268 312.372 237.021C314.634 235.849 316.484 235.083 317.952 234.701C318.163 234.644 318.346 234.607 318.535 234.556C319.25 234.399 319.875 234.367 320.375 234.425C320.726 234.467 320.91 234.733 321.178 234.888L349.432 251.2L349.115 251.071C348.987 251.015 348.844 250.985 348.672 250.976L348.658 250.968C348.282 250.911 347.846 250.925 347.335 251.005C346.987 251.055 346.623 251.129 346.236 251.244C344.051 251.819 341.012 253.255 337.03 255.552L331.679 258.647L325.683 262.117L314.095 268.793Z" fill="#040606"/>
<path d="M350.68 300.436C348.073 297.747 346.645 293.28 346.652 287.855C346.647 287.119 346.676 286.36 346.752 285.52L346.764 285.421C346.817 284.136 346.895 282.845 347.044 281.467C347.087 281.06 347.133 280.677 347.191 280.28C347.283 279.449 347.407 278.637 347.544 277.877C347.653 277.164 347.779 276.461 347.912 275.784C347.992 275.421 348.064 275.073 348.125 274.744C348.439 273.265 348.779 271.781 349.159 270.191C349.412 269.195 349.645 268.229 349.853 267.273L349.863 267.256C352.123 262.035 353.475 256.372 353.476 251.072C353.472 250.293 353.427 249.513 353.383 248.843C353.137 242.775 351.972 239.344 350.967 236.308C349.987 233.416 349.151 230.908 349.144 225.883C349.145 219.312 349.145 215.692 363.113 207.62L385.925 194.568L414.301 210.951L391.387 224.18C377.419 232.253 377.419 235.872 377.417 242.444C377.416 247.484 378.261 249.976 379.241 252.869C380.245 255.905 381.411 259.336 381.656 265.403C381.7 266.075 381.745 266.855 381.732 267.623C381.745 280.515 373.877 295.559 364.197 301.131C358.957 304.16 354.025 303.896 350.68 300.436Z" fill="#040606"/>
<path d="M272.032 350.475L243.656 334.091C243.794 333.885 243.952 333.673 244.088 333.468C244.448 332.999 244.815 332.549 245.199 332.131C245.391 331.921 245.584 331.711 245.782 331.523C245.982 331.299 246.202 331.105 246.412 330.924C246.996 330.405 247.603 329.972 248.211 329.628L248.219 329.616C248.442 329.476 248.663 329.372 248.955 329.237L249.272 329.119L249.33 329.08L249.402 329.049C250.82 328.319 252.023 327.872 253.124 327.6C253.272 327.561 253.434 327.529 253.582 327.489C254.808 327.217 255.934 327.119 257.128 327.024C260.143 326.804 263.54 326.537 268.983 323.407C269.284 323.225 269.607 323.036 269.916 322.841C270.188 322.677 270.448 322.507 270.715 322.321C270.916 322.189 271.118 322.056 271.306 321.915L271.364 321.877L271.442 321.833C271.767 321.611 272.099 321.375 272.426 321.119C272.744 320.875 273.064 320.631 273.382 320.387L273.536 320.244L273.682 320.115L273.806 320.025C273.943 319.909 274.06 319.799 274.186 319.675C274.316 319.572 274.455 319.456 274.572 319.345C274.819 319.132 275.055 318.911 275.296 318.676L275.635 318.337L275.79 318.195C275.982 317.984 276.174 317.775 276.366 317.565C276.602 317.311 276.839 317.055 277.07 316.777L277.167 316.673C277.286 316.528 277.412 316.369 277.552 316.219C277.727 315.98 277.934 315.744 278.115 315.492L306.518 331.891L306.406 332.023C306.218 332.287 306.015 332.545 305.814 332.803C305.68 332.94 305.562 333.085 305.442 333.229L305.338 333.348C304.915 333.835 304.486 334.299 304.051 334.744L303.772 335.009L303.572 335.233C303.338 335.453 303.082 335.68 302.847 335.901C302.592 336.128 302.344 336.341 302.068 336.575L301.958 336.672L301.631 336.928C301.012 337.444 300.375 337.931 299.718 338.391L299.574 338.485C298.779 339.06 298.003 339.539 297.259 339.964C296.915 340.157 296.579 340.339 296.264 340.513C295.93 340.693 295.608 340.847 295.302 341.008C292.522 342.397 290.308 342.991 288.375 343.283C287.963 343.347 287.546 343.392 287.155 343.451C286.954 343.46 286.744 343.481 286.536 343.504C286.16 343.536 285.786 343.569 285.41 343.603L285.396 343.595C283.758 343.717 282.263 343.835 280.416 344.444C279.93 344.608 279.406 344.804 278.838 345.047L278.83 345.06C278.467 345.225 278.076 345.409 277.67 345.62L277.606 345.637L277.548 345.675L277.222 345.808C276.938 345.928 276.71 346.047 276.487 346.185C275.863 346.556 275.25 347.003 274.644 347.527C274.44 347.695 274.242 347.883 274.058 348.079C273.859 348.268 273.654 348.469 273.475 348.687C273.232 348.921 273.002 349.199 272.784 349.481C272.635 349.647 272.494 349.831 272.364 350.024C272.244 350.169 272.139 350.321 272.032 350.475Z" fill="#040606"/>
<path d="M358.741 289.312L330.299 272.892C330.164 272.813 330.037 272.757 329.911 272.668C328.323 271.465 327.588 268.975 327.585 266.015C327.576 265.599 327.588 265.177 327.639 264.565L327.651 264.483L327.648 264.393C327.816 259.964 328.592 256.74 329.492 253.019C329.952 251.111 330.428 249.085 330.851 246.869L337.003 243.312L337.24 243.181L337.389 243.107L337.447 243.069L342.297 240.471L342.348 240.445L342.389 240.433L342.519 240.365C344.269 239.524 345.803 238.876 347.24 238.423L347.425 238.351C347.643 238.281 347.84 238.217 348.051 238.16C348.312 238.079 348.564 238.011 348.823 237.964L348.964 237.939C349.259 237.859 349.567 237.788 349.868 237.731C350.14 237.691 350.412 237.652 350.676 237.627C350.983 237.589 351.303 237.56 351.607 237.557C351.843 237.551 352.077 237.544 352.305 237.551C352.601 237.563 352.904 237.593 353.261 237.657L353.376 237.671C353.52 237.7 353.685 237.724 353.828 237.753C354.168 237.843 354.515 237.953 354.912 238.129C355.04 238.185 355.128 238.219 355.229 238.259C356.148 238.736 356.949 239.448 357.619 240.387L357.771 240.617C358.041 241.041 358.299 241.492 358.511 241.989L358.647 242.281L358.681 242.373C358.88 242.863 359.056 243.392 359.229 243.955L359.343 244.376C359.493 244.98 359.64 245.652 359.741 246.371L359.8 246.672C360.048 248.401 360.177 250.276 360.168 252.392C360.168 259.644 358.891 264.913 357.768 269.576C356.868 273.297 356.092 276.521 355.924 280.951L355.925 281.04L355.913 281.121C355.863 281.735 355.844 282.169 355.848 282.563C355.841 285.536 356.713 287.821 358.288 289.016C358.441 289.121 358.595 289.228 358.741 289.312Z" fill="#26B6A6"/>
<path d="M314.089 256.547L285.813 239.991L285.819 229.549L285.825 219.165L285.831 209.401C285.824 203.641 286.103 199.24 286.685 195.976C287.677 190.525 289.165 188.872 293.463 186.399C297.231 184.225 299.467 184.056 302.065 183.844C303.072 183.767 304.019 183.672 304.975 183.529C305.233 183.481 305.485 183.448 305.743 183.401C306.184 183.317 306.619 183.212 307.088 183.109C307.636 182.963 308.213 182.796 308.835 182.585C309.073 182.509 309.321 182.42 309.576 182.317C310.544 181.968 311.484 181.548 312.425 181.057L312.553 180.989C313.163 180.736 313.705 180.477 314.22 180.171C319.464 177.139 324.399 171.183 327.744 163.847C327.965 163.369 328.153 162.891 328.355 162.419C328.125 162.66 327.883 162.895 327.641 163.129C328.552 162.229 329.427 161.272 330.349 160.291C333.069 157.371 336.137 154.061 340.777 151.056C341.299 150.679 341.903 150.28 342.504 149.951C352.167 144.355 360.044 150.312 360.039 163.193C360.039 168.628 358.613 174.737 356.02 180.404C352.667 187.753 347.74 193.695 342.488 196.74C341.98 197.035 341.431 197.305 340.821 197.56L340.701 197.615C339.737 198.109 338.808 198.517 337.844 198.888L337.101 199.155C336.481 199.367 335.904 199.532 335.351 199.657C334.887 199.783 334.46 199.875 334.019 199.959C333.76 200.005 333.501 200.052 333.251 200.085C332.295 200.228 331.341 200.337 330.333 200.415C327.743 200.612 325.492 200.775 321.739 202.955C317.441 205.428 315.939 207.073 314.961 212.532C314.377 215.796 314.087 220.191 314.087 225.964L314.095 235.735V246.107L314.08 246.099L314.089 256.547Z" fill="#26B6A6"/>
<path d="M316.677 169.185L288.256 152.759C286.595 151.745 285.825 147.523 285.824 136.936L285.713 106.54L314.089 122.923L314.1 153.493C314.095 164.183 314.985 168.227 316.685 169.172L316.677 169.185Z" fill="#26B6A6"/>
<path d="M358.741 289.312L346.94 282.499C346.969 282.16 347.003 281.816 347.04 281.467C347.045 281.432 347.051 281.397 347.056 281.361C347.059 281.336 347.063 281.311 347.065 281.285C347.111 280.947 347.145 280.604 347.187 280.281C347.192 280.235 347.197 280.189 347.203 280.144C347.291 279.431 347.388 278.753 347.5 278.103C347.512 278.027 347.525 277.952 347.539 277.877C347.555 277.78 347.569 277.683 347.585 277.587C347.684 276.973 347.793 276.369 347.908 275.785C347.988 275.421 348.059 275.075 348.121 274.744C348.308 273.865 348.504 272.985 348.715 272.083C348.751 271.931 348.787 271.777 348.824 271.624C348.935 271.156 349.051 270.683 349.171 270.2C350.131 266.187 350.976 262.709 350.983 257.695C350.979 255.393 350.867 253.835 350.571 252.799C350.345 252.009 350.012 251.525 349.539 251.248L346.572 249.535L336.401 243.664L331.481 246.505L337.003 243.312L337.24 243.181L337.389 243.107L337.447 243.069L342.297 240.471L342.348 240.445L342.389 240.433L342.519 240.365C344.269 239.524 345.803 238.876 347.24 238.423L347.425 238.351C347.643 238.281 347.84 238.217 348.051 238.16C348.312 238.079 348.564 238.011 348.823 237.964L348.964 237.939C349.259 237.859 349.567 237.788 349.868 237.731C350.14 237.691 350.412 237.652 350.676 237.627C350.983 237.589 351.303 237.56 351.607 237.557C351.696 237.555 351.784 237.552 351.872 237.551C351.947 237.549 352.02 237.548 352.093 237.548C352.097 237.548 352.1 237.548 352.104 237.548C352.105 237.548 352.107 237.548 352.108 237.548C352.14 237.548 352.172 237.548 352.205 237.549C352.239 237.549 352.272 237.549 352.305 237.551C352.601 237.563 352.904 237.593 353.261 237.657L353.376 237.671C353.52 237.7 353.685 237.724 353.828 237.753C354.168 237.843 354.515 237.953 354.912 238.129C355.04 238.185 355.128 238.219 355.229 238.259C356.148 238.736 356.949 239.448 357.619 240.387L357.771 240.617C358.041 241.041 358.299 241.492 358.511 241.989L358.647 242.281L358.681 242.373C358.88 242.863 359.056 243.392 359.229 243.955L359.343 244.376C359.493 244.98 359.64 245.652 359.741 246.371L359.8 246.672C360.041 248.348 360.169 250.159 360.168 252.193C360.168 252.26 360.168 252.325 360.168 252.392C360.168 259.644 358.891 264.913 357.768 269.576C356.868 273.297 356.092 276.521 355.924 280.951L355.925 281.04L355.913 281.121C355.867 281.681 355.848 282.093 355.848 282.46C355.848 282.495 355.848 282.529 355.848 282.563C355.848 282.575 355.848 282.587 355.848 282.599C355.848 285.553 356.72 287.827 358.288 289.016C358.441 289.121 358.595 289.228 358.741 289.312Z" fill="#14B099"/>
<path d="M314.089 256.547L304.907 251.171L304.909 231.287L304.904 231.22L304.901 231.153L305.204 221.784L305.203 221.675L305.207 221.592C305.229 221.367 305.241 221.159 305.253 220.951L305.28 220.643C305.341 220.053 305.392 219.479 305.46 218.915C305.477 218.623 305.511 218.34 305.561 218.068L305.585 217.801C305.643 217.253 305.727 216.699 305.791 216.175C305.837 215.876 305.884 215.576 305.933 215.291C305.943 215.237 305.953 215.184 305.963 215.132C306.065 214.545 306.157 213.975 306.267 213.412L306.312 213.223C306.359 212.991 306.405 212.76 306.453 212.529C306.616 211.761 306.812 211.012 307.007 210.263L307.073 210C307.299 209.16 307.585 208.291 307.888 207.432C307.921 207.3 307.96 207.193 308.009 207.071C308.269 206.36 308.571 205.651 308.864 204.957C308.923 204.819 308.989 204.664 309.073 204.519L309.113 204.412C309.42 203.771 309.725 203.128 310.073 202.488L310.335 202.036C310.748 201.284 311.165 200.597 311.631 199.94L311.651 199.908C312.696 198.357 313.867 196.964 315.148 195.679L315.181 195.656L315.28 195.561C315.831 195.017 316.459 194.453 317.117 193.908L317.26 193.775C318.684 192.615 320.149 191.607 321.733 190.691C323.777 189.501 325.528 188.745 327.081 188.219C328.121 187.872 329.072 187.645 329.943 187.48C331.269 187.233 332.463 187.147 333.588 187.063C335.983 186.872 338.056 186.713 341.324 185.045L341.384 185.015L341.445 184.985C341.9 184.795 342.211 184.629 342.496 184.472C344.731 183.176 346.828 180.811 348.397 177.795C348.795 177.032 349.149 176.268 349.447 175.492C350.365 173.156 350.852 170.744 350.844 168.52C350.843 168.111 350.824 167.733 350.805 167.356L350.748 167.043C350.731 166.775 350.705 166.523 350.652 166.277L350.595 165.964C350.535 165.735 350.483 165.489 350.427 165.285L350.343 165.021C350.256 164.799 350.185 164.585 350.097 164.363L350.008 164.181C349.923 163.959 349.8 163.759 349.695 163.569L349.603 163.429C349.481 163.231 349.349 163.047 349.203 162.855L349.14 162.775C348.968 162.589 348.801 162.428 348.636 162.268L348.588 162.24C348.405 162.071 348.188 161.924 347.979 161.803L347.987 161.787L335.868 154.789C333.732 156.659 331.972 158.551 330.363 160.293C329.679 161.028 329.02 161.737 328.352 162.423C328.353 162.421 328.353 162.42 328.355 162.419C328.125 162.66 327.883 162.895 327.641 163.129C328.552 162.229 329.427 161.272 330.349 160.291C333.069 157.371 336.137 154.061 340.777 151.056C341.299 150.679 341.903 150.28 342.504 149.951C342.519 149.941 342.533 149.933 342.548 149.925C344.996 148.516 347.331 147.848 349.449 147.847H349.452C349.455 147.847 349.456 147.847 349.457 147.847C355.676 147.849 360.043 153.601 360.039 163.193C360.039 168.628 358.613 174.737 356.02 180.404C352.667 187.753 347.74 193.695 342.488 196.74C341.98 197.035 341.431 197.305 340.821 197.56L340.701 197.615C339.737 198.109 338.808 198.517 337.844 198.888L337.101 199.155C336.481 199.367 335.904 199.532 335.351 199.657C334.887 199.783 334.46 199.875 334.019 199.959C333.76 200.005 333.501 200.052 333.251 200.085C332.295 200.228 331.341 200.337 330.333 200.415C327.743 200.612 325.492 200.775 321.739 202.955C317.441 205.428 315.939 207.073 314.961 212.532C314.377 215.796 314.087 220.191 314.087 225.964L314.095 235.735V246.107L314.08 246.099L314.089 256.547Z" fill="#14B099"/>
<path d="M316.681 169.179C316.68 169.179 316.68 169.179 316.68 169.179C315.904 168.731 304.967 162.413 304.967 162.413C304.891 159.784 304.879 156.849 304.904 153.784L304.901 128.228L285.752 117.172L285.713 106.54L314.089 122.923L314.1 153.493C314.1 153.535 314.1 153.576 314.1 153.617C314.101 164.213 314.992 168.229 316.685 169.172L316.681 169.179Z" fill="#14B099"/>
<path d="M358.981 289.452L358.767 289.328L358.741 289.312C358.595 289.228 358.441 289.121 358.288 289.016C356.713 287.821 355.841 285.536 355.848 282.563C355.844 282.169 355.863 281.735 355.913 281.121L355.925 281.04L355.924 280.951C356.092 276.521 356.868 273.297 357.768 269.576C358.891 264.913 360.168 259.644 360.168 252.392C360.177 250.276 360.048 248.401 359.8 246.672L359.741 246.371C359.64 245.652 359.493 244.98 359.343 244.376L359.229 243.955C359.056 243.392 358.88 242.863 358.681 242.373L358.647 242.281L358.511 241.989C358.299 241.492 358.041 241.041 357.771 240.617L357.619 240.387C356.949 239.448 356.148 238.736 355.229 238.259C355.128 238.219 355.04 238.185 354.912 238.129C354.515 237.953 354.168 237.843 353.828 237.753C353.685 237.724 353.52 237.7 353.376 237.671L353.261 237.657C352.904 237.593 352.601 237.563 352.305 237.551C352.077 237.544 351.843 237.551 351.607 237.557C351.303 237.56 350.983 237.589 350.676 237.627C350.412 237.652 350.14 237.691 349.868 237.731C349.567 237.788 349.259 237.859 348.964 237.939L348.823 237.964C348.564 238.011 348.312 238.079 348.051 238.16C347.84 238.217 347.643 238.281 347.425 238.351L347.24 238.423C345.803 238.876 344.269 239.524 342.519 240.365L342.389 240.433L342.348 240.445L342.297 240.471L337.447 243.069L337.389 243.107L337.24 243.181L337.003 243.312L330.851 246.869L314.089 256.547L314.08 246.099L314.095 246.107V235.735L314.087 225.964C314.087 220.191 314.377 215.796 314.961 212.532C315.939 207.073 317.441 205.428 321.739 202.955C325.492 200.775 327.743 200.612 330.333 200.415C331.341 200.337 332.295 200.228 333.251 200.085C333.501 200.052 333.76 200.005 334.019 199.959C334.46 199.875 334.887 199.783 335.351 199.657C335.904 199.532 336.481 199.367 337.101 199.155L337.844 198.888C338.808 198.517 339.737 198.109 340.701 197.615L340.821 197.56C341.431 197.305 341.98 197.035 342.488 196.74C347.74 193.695 352.667 187.753 356.02 180.404C358.613 174.737 360.039 168.628 360.039 163.193C360.044 150.312 352.167 144.355 342.504 149.951C341.903 150.28 341.299 150.679 340.777 151.056C336.137 154.061 333.069 157.371 330.349 160.291C329.427 161.272 328.552 162.229 327.641 163.129C326.275 164.479 324.836 165.733 323.031 166.919C322.828 167.051 322.635 167.171 322.427 167.283C322.205 167.421 321.975 167.573 321.739 167.704C320.944 168.155 320.212 168.588 319.537 168.893C319.304 168.989 319.091 169.081 318.885 169.159C318.672 169.249 318.461 169.305 318.265 169.336C318.069 169.4 317.88 169.416 317.701 169.419C317.341 169.425 316.992 169.349 316.685 169.172C314.985 168.227 314.095 164.183 314.1 153.493L314.089 122.923L285.713 106.54L372.891 56.1107C373.204 55.936 373.499 55.7667 373.812 55.6267C374.111 55.4787 374.403 55.344 374.692 55.244L374.7 55.2307C375.011 55.124 375.292 55.0374 375.573 54.9507C375.856 54.864 376.144 54.7987 376.415 54.7587C376.779 54.684 377.153 54.652 377.5 54.6373C379.033 54.5773 380.427 54.972 381.639 55.744L409.613 71.8947L409.619 71.916C410.464 72.368 411.2 73.0067 411.848 73.8267C412.053 74.088 412.244 74.376 412.421 74.656C412.54 74.8507 412.66 75.044 412.764 75.264C412.981 75.692 413.176 76.1267 413.363 76.608C413.437 76.8467 413.527 77.0947 413.595 77.3467C414.056 78.8627 414.304 80.6253 414.303 82.604L414.304 198.692L391.376 211.92C391.232 212.015 391.096 212.096 390.96 212.179L390.688 212.341L390.645 212.353L390.616 212.372L386.104 215.185L386.055 215.209L386.019 215.243C384.081 216.529 382.367 217.803 380.8 219.127L380.691 219.224L380.423 219.443C380.02 219.799 379.619 220.155 379.229 220.519L379.133 220.623C378.959 220.772 378.789 220.941 378.628 221.097C378.268 221.443 377.923 221.795 377.591 222.156C377.369 222.384 377.14 222.627 376.931 222.863C376.599 223.224 376.287 223.579 375.981 223.953C375.779 224.211 375.585 224.455 375.347 224.745C375.045 225.143 374.753 225.525 374.475 225.917C374.308 226.143 374.148 226.388 373.996 226.621L373.887 226.808L373.759 227.001C373.532 227.333 373.296 227.679 373.088 228.039C372.941 228.293 372.787 228.56 372.653 228.823L372.551 229.031C372.132 229.787 371.732 230.572 371.38 231.367L371.3 231.569C371.141 231.905 370.996 232.249 370.859 232.58L370.851 232.593C370.719 232.945 370.596 233.284 370.477 233.643L370.371 233.92C370.228 234.319 370.093 234.74 369.964 235.147C369.835 235.589 369.711 236.017 369.595 236.467C369.479 236.916 369.361 237.365 369.259 237.821C369.161 238.265 369.067 238.709 368.991 239.147C368.893 239.625 368.821 240.12 368.752 240.613L368.74 240.695C368.667 241.099 368.607 241.509 368.561 241.928C368.496 242.444 368.457 242.973 368.409 243.552L368.383 243.875C368.351 244.177 368.332 244.487 368.315 244.797C368.273 245.452 368.26 246.156 368.239 247.089L368.244 247.233C368.241 247.393 368.231 247.565 368.228 247.724C368.228 254.977 369.507 258.781 370.633 262.14C371.523 264.828 372.303 267.149 372.475 271.544L372.483 271.62L372.48 271.689C372.516 272.12 372.552 272.551 372.559 272.911C372.556 279.059 368.801 286.211 364.195 288.88C363.235 289.431 362.296 289.761 361.425 289.847C361.217 289.869 361.031 289.885 360.836 289.881L360.733 289.875C360.608 289.875 360.484 289.873 360.363 289.839L360.033 289.791L359.767 289.727L359.448 289.632L359.211 289.548L358.981 289.452Z" fill="#26B6A6"/>
<path d="M314.089 122.923L285.713 106.54L372.891 56.1107C373.204 55.936 373.499 55.7667 373.812 55.6267C374.111 55.4787 374.403 55.344 374.692 55.244L374.7 55.2307C375.011 55.124 375.292 55.0374 375.573 54.9507C375.856 54.864 376.144 54.7987 376.415 54.7587C376.779 54.684 377.153 54.652 377.5 54.6374C377.603 54.6347 377.705 54.632 377.805 54.632C379.219 54.632 380.507 55.024 381.639 55.744L409.319 71.7253C409.071 71.6 408.82 71.5093 408.563 71.4307L408.387 71.3653C408.143 71.2947 407.897 71.2254 407.649 71.1894L407.396 71.168C407.24 71.1307 407.067 71.12 406.895 71.1094L406.839 71.1134C406.688 71.0974 406.529 71.0947 406.371 71.092H406.247C406.2 71.088 406.155 71.088 406.109 71.088C405.917 71.088 405.731 71.1093 405.544 71.132C405.372 71.156 405.197 71.18 405.023 71.204C404.673 71.2533 404.323 71.3347 403.957 71.4454C403.767 71.496 403.591 71.5547 403.415 71.6134C403.083 71.724 402.728 71.876 402.373 72.028C401.983 72.2107 401.575 72.4213 401.152 72.6587L314.089 122.923Z" fill="#4AC2B6"/>
<path d="M269.465 279.419L241.184 262.841L241.192 262.827C240.091 262.173 239.737 260.347 239.739 256.392C239.739 252.596 240.225 249.687 240.893 246.74C240.041 248.708 239.319 250.732 238.739 252.785C241.456 242.984 247.624 233.66 254.787 229.527C259.472 226.813 263.875 226.719 267.189 229.22C270.516 231.729 272.337 236.54 272.328 242.791C272.333 243.399 272.297 243.985 272.26 244.515L272.255 244.708L272.248 244.812C272.24 244.949 272.237 245.108 272.229 245.247C272.183 246.592 272.076 247.92 271.929 249.315C271.909 249.535 271.881 249.768 271.848 249.98L271.823 250.18C271.704 251.127 271.579 252.053 271.428 252.963C271.325 253.511 271.223 254.057 271.129 254.591C271.027 255.139 270.912 255.677 270.804 256.203C270.507 257.583 270.173 258.993 269.829 260.452C268.849 264.467 268.017 267.943 268.007 272.963C268.011 276.939 268.344 278.769 269.465 279.419Z" fill="#26B6A6"/>
<path d="M204.679 319.713L176.316 303.339L176.421 187.063C176.408 182.671 177.639 177.947 179.656 173.711L208.007 190.079C205.936 194.372 204.68 199.172 204.683 203.612L204.679 319.713Z" fill="#26B6A6"/>
<path d="M269.465 279.419L241.184 262.841L241.192 262.827C240.091 262.173 239.737 260.347 239.739 256.392C239.739 252.596 240.225 249.687 240.893 246.74C244.099 239.315 249.125 232.793 254.787 229.527C259.472 226.813 263.875 226.719 267.189 229.22C270.516 231.729 272.337 236.54 272.328 242.791C272.333 243.399 272.297 243.985 272.26 244.515L272.255 244.708L272.248 244.812C272.24 244.949 272.237 245.108 272.229 245.247C272.183 246.592 272.076 247.92 271.929 249.315C271.909 249.535 271.881 249.768 271.848 249.98L271.823 250.18C271.704 251.127 271.579 252.053 271.428 252.963C271.325 253.511 271.223 254.057 271.129 254.591C271.027 255.139 270.912 255.677 270.804 256.203C270.507 257.583 270.173 258.993 269.829 260.452C268.849 264.467 268.017 267.943 268.007 272.963C268.011 276.939 268.344 278.769 269.465 279.419Z" fill="#17282F"/>
<path d="M204.679 319.713L176.316 303.339L176.421 187.063C176.408 182.671 177.639 177.947 179.656 173.711L208.007 190.079C205.936 194.372 204.68 199.172 204.683 203.612L204.679 319.713Z" fill="#17282F"/>
<path d="M204.678 319.713L204.682 203.612C204.68 199.172 205.936 194.372 208.006 190.079L179.656 173.711C179.736 173.543 179.808 173.388 179.886 173.22C180.006 172.951 180.14 172.689 180.278 172.448C180.465 172.093 180.653 171.737 180.853 171.391C181.093 170.976 181.332 170.561 181.598 170.163L181.752 169.896L181.866 169.729C182.102 169.349 182.361 168.964 182.625 168.599L182.677 168.54L182.926 168.203C183.062 167.996 183.213 167.797 183.376 167.608C183.526 167.409 183.677 167.211 183.84 167.02L183.974 166.848C184.221 166.545 184.468 166.241 184.741 165.953L185.058 165.62L185.288 165.377L185.434 165.213L185.706 164.96L185.714 164.948C185.884 164.777 186.045 164.621 186.206 164.465L186.352 164.336C186.498 164.205 186.63 164.068 186.769 163.952L186.908 163.836L186.981 163.772C187.104 163.683 187.213 163.585 187.336 163.496C187.474 163.38 187.618 163.285 187.749 163.181C187.888 163.065 188.018 162.963 188.149 162.86C188.308 162.739 188.481 162.624 188.646 162.524C188.936 162.299 189.245 162.103 189.56 161.928L276.537 111.845L304.913 128.228L304.901 153.777C305.033 153.64 305.173 153.489 305.306 153.352C307.708 150.765 309.786 148.525 313.158 146.356L313.209 146.332L313.254 146.285L313.361 146.223C313.672 145.993 313.968 145.789 314.21 145.645C316.346 144.417 318.198 144.543 319.672 145.447L347.954 161.776C348.101 161.861 348.249 161.945 348.38 162.057L348.61 162.244C349.505 163.009 350.168 164.176 350.54 165.693C350.617 166.023 350.68 166.379 350.733 166.748C350.812 167.292 350.85 167.903 350.848 168.525C350.85 171.484 349.982 174.78 348.404 177.789C346.818 180.813 344.72 183.183 342.498 184.467C342.206 184.636 341.906 184.784 341.444 184.999L341.38 185.015L341.322 185.053C338.062 186.717 335.993 186.877 333.59 187.057C330.589 187.285 327.178 187.544 321.741 190.696C320.145 191.609 318.686 192.621 317.268 193.781L317.109 193.903C316.454 194.452 315.825 195.015 315.273 195.569L315.185 195.661L315.149 195.693C313.862 196.964 312.7 198.361 311.646 199.908L311.622 199.949C311.176 200.599 310.748 201.279 310.329 202.035L310.121 202.396L310.08 202.497C309.738 203.12 309.416 203.772 309.114 204.417L309.06 204.511C308.996 204.652 308.925 204.807 308.866 204.969C308.564 205.649 308.278 206.359 308.021 207.083C307.972 207.197 307.932 207.299 307.889 207.435C307.574 208.287 307.301 209.163 307.072 209.992L307 210.271C306.802 211.013 306.62 211.763 306.456 212.541C306.401 212.759 306.352 212.999 306.31 213.224L306.272 213.415C306.162 213.976 306.066 214.544 305.961 215.125C305.906 215.468 305.844 215.823 305.801 216.173C305.729 216.701 305.648 217.243 305.572 217.805L305.542 218.073C305.512 218.341 305.474 218.623 305.45 218.912C305.389 219.481 305.341 220.06 305.292 220.637L305.273 220.948C305.24 221.16 305.228 221.367 305.206 221.587L305.201 221.689L305.202 221.78L304.902 231.159L304.898 231.228L304.901 231.284L304.9 261.845L296.848 266.5L289.285 270.865L281.964 275.087C276.878 278.031 273.338 279.533 271.178 279.695C270.99 279.711 270.83 279.708 270.672 279.705C270.217 279.692 269.829 279.592 269.486 279.412L269.492 279.433L269.465 279.419C268.344 278.769 268.01 276.939 268.006 272.963C268.017 267.943 268.849 264.467 269.829 260.452C270.173 258.993 270.506 257.583 270.804 256.203C270.912 255.677 271.026 255.139 271.129 254.591C271.222 254.057 271.325 253.511 271.428 252.963C271.578 252.053 271.704 251.127 271.822 250.18L271.848 249.98C271.881 249.768 271.909 249.535 271.929 249.315C272.076 247.92 272.182 246.592 272.229 245.247C272.237 245.108 272.24 244.949 272.248 244.812L272.254 244.708L272.26 244.515C272.297 243.985 272.333 243.399 272.328 242.791C272.337 236.54 270.516 231.729 267.189 229.22C263.874 226.719 259.472 226.813 254.786 229.527C249.121 232.796 244.076 239.311 240.893 246.74C240.237 248.215 239.669 249.723 239.197 251.251C239.028 251.759 238.873 252.275 238.738 252.785C238.564 253.396 238.417 253.989 238.277 254.604L238.194 254.931C238.057 255.509 237.937 256.119 237.846 256.707C237.61 257.98 237.445 259.256 237.354 260.523C237.31 260.907 237.288 261.285 237.292 261.68C237.265 262.128 237.252 262.584 237.245 263.025C237.254 263.815 237.281 264.632 237.34 265.272C237.578 271.309 238.734 274.739 239.754 277.787C240.442 279.805 241.076 281.704 241.385 284.503L241.41 284.767L241.433 284.851L241.44 284.961L241.457 285.239C241.53 286.225 241.576 287.196 241.577 288.213C241.576 294.788 241.573 298.405 227.613 306.473L204.678 319.713Z" fill="#273E47"/>
<path d="M319.68 145.44L347.96 161.767C346.488 160.919 344.569 160.995 342.491 162.208C342.24 162.343 341.943 162.56 341.629 162.767L341.532 162.861L341.472 162.891L341.428 162.929C338.061 165.103 335.981 167.327 333.576 169.924C330.573 173.147 327.168 176.804 321.729 179.955C321.54 180.061 321.359 180.151 321.168 180.256L320.952 180.368L320.797 180.452C320.365 180.676 319.949 180.911 319.563 181.096C319.296 181.223 319.048 181.316 318.817 181.419L318.568 181.512L318.413 181.595C318.104 181.719 317.769 181.849 317.481 181.941C317.199 182.057 316.917 182.133 316.637 182.208L316.527 182.252C316.204 182.324 315.873 182.413 315.576 182.479C315.255 182.551 314.96 182.575 314.656 182.616C314.363 182.64 314.068 182.664 313.784 182.672C313.499 182.68 313.223 182.672 312.957 182.647C312.692 182.623 312.428 182.557 312.171 182.516C311.924 182.46 311.66 182.395 311.431 182.305C311.193 182.232 310.967 182.101 310.748 181.996L310.625 181.948C310.431 181.836 310.228 181.74 310.06 181.62C309.875 181.492 309.7 181.348 309.551 181.197L309.447 181.116L309.336 181.008C309.193 180.883 309.033 180.748 308.884 180.597C308.72 180.396 308.557 180.193 308.403 179.975L308.327 179.844C308.041 179.443 307.768 178.984 307.52 178.517L307.448 178.345C307.341 178.156 307.229 177.94 307.143 177.717C307.04 177.485 306.939 177.212 306.839 176.939L306.789 176.76L306.733 176.597C306.655 176.359 306.568 176.136 306.484 175.872C306.379 175.532 306.292 175.159 306.207 174.785C306.133 174.463 306.036 174.148 305.972 173.811C305.896 173.421 305.812 173.007 305.753 172.584C305.691 172.247 305.636 171.892 305.583 171.537C305.533 171.1 305.468 170.653 305.412 170.189C305.375 169.844 305.339 169.457 305.295 169.088C305.248 168.608 305.211 168.113 305.183 167.601C305.149 167.323 305.135 167.013 305.12 166.703L305.107 166.501L305.095 166.3C305.064 165.831 305.043 165.344 305.015 164.832L305.013 164.724L305.015 164.681L305.001 164.631L304.912 159.3L304.908 159.083L304.901 158.799L304.909 153.783C305.035 153.64 305.177 153.507 305.301 153.364C307.707 150.765 309.797 148.525 313.153 146.369L313.199 146.331L313.267 146.284L313.372 146.215C313.669 145.999 313.967 145.783 314.216 145.647C316.347 144.421 318.196 144.54 319.68 145.44Z" fill="#040606"/>
<path d="M208.019 190.087L179.644 173.703C179.723 173.535 179.793 173.38 179.887 173.22C180.007 172.951 180.14 172.689 180.279 172.448C180.465 172.093 180.653 171.737 180.853 171.391C181.093 170.976 181.332 170.561 181.599 170.163C181.683 170.016 181.768 169.868 181.867 169.729C182.103 169.349 182.361 168.964 182.625 168.599L182.677 168.54L182.927 168.203C183.063 167.996 183.213 167.797 183.376 167.608C183.565 167.341 183.767 167.085 183.975 166.848C184.221 166.545 184.468 166.241 184.741 165.953L185.059 165.62L185.288 165.377C185.428 165.228 185.561 165.091 185.707 164.96L185.715 164.948C185.884 164.777 186.045 164.621 186.207 164.465L186.352 164.336C186.529 164.152 186.712 163.991 186.908 163.836L186.981 163.772C187.104 163.683 187.213 163.585 187.336 163.496C187.592 163.269 187.875 163.057 188.149 162.86C188.308 162.739 188.481 162.624 188.647 162.524C188.936 162.299 189.245 162.103 189.56 161.928L276.524 111.839L304.9 128.221L266.672 150.293L217.82 178.512C217.448 178.724 217.081 178.957 216.728 179.2C216.396 179.436 216.064 179.672 215.751 179.936C215.569 180.063 215.403 180.199 215.249 180.341C214.923 180.599 214.607 180.897 214.292 181.197C213.911 181.548 213.549 181.927 213.188 182.307C212.411 183.159 211.664 184.081 210.968 185.069C210.697 185.448 210.425 185.825 210.18 186.219C209.388 187.437 208.653 188.741 208.019 190.087Z" fill="#33535F"/>
<path d="M166.213 218.82C167.6 218.917 168.965 218.461 170.067 217.612C173.017 215.333 175.217 215.516 178.38 214.149C180.857 213.079 181.864 211.757 182.36 212.203C182.999 212.776 183.748 214.472 182.303 216.372C181.575 217.328 180.768 217.92 179.016 219.245C179.016 219.245 182.712 219.168 187.607 217.492C194.24 215.221 197.437 216.196 194.407 224.616C192.508 229.892 187.712 232.888 174.66 232.557C170.9 232.461 164.969 231.54 160.28 230.681C147.337 228.131 121.27 224.225 116.723 218.103C103.854 200.779 92.0636 186.476 90.4354 173.541C89.0688 162.683 95.7776 156.619 101.938 156.627C105.449 160.315 107.582 164.712 110.801 175.077C110.801 175.077 127.556 205.065 129.238 207.244C133.457 209.555 163.465 218.388 166.213 218.82Z" fill="#F6879F"/>
<path d="M408.048 107.723C410.292 109.101 412.708 109.629 415.713 111.824C418.361 113.755 419.485 114.507 422.452 115.225C425.668 116.004 450.96 107.46 455.651 103.845C465.171 96.5093 473.408 82.68 477.989 77.4333C481.764 73.112 486.049 66.608 490.701 66.5786C498.392 68.908 496.651 80.3466 490.215 90.6493C484.896 99.1666 474.781 109.931 463.333 117.439C457.785 121.077 432.233 127.673 423.744 128.228C421.161 128.397 419.253 128.976 414.333 129.675C412.349 129.956 410.183 130.327 408.208 130.003C405.701 129.591 403.228 128.893 400.936 127.784C398.049 126.387 395.451 124.313 393.691 121.633C392.721 120.159 392.008 118.489 391.813 116.736C391.617 114.983 391.968 113.14 392.963 111.684C393.164 111.388 393.401 111.1 393.723 110.944C394.304 110.661 394.992 110.867 395.603 111.079C399.015 112.261 402.516 114.047 406.019 114.86C408.979 115.547 411.163 115.623 410.875 115.087C410.588 114.551 408.82 114.267 406.804 112.549C404.876 110.908 403.964 108.149 404.969 107.141C405.976 106.133 405.804 106.343 408.048 107.723Z" fill="#F6879F"/>
<path d="M491.188 63.8787C496.869 66.664 499.175 70.9 496.651 80.3467C494.385 88.8267 485.692 103.288 478.852 110.367C478.852 110.367 467.151 104.821 460.92 97.6147C467.091 88.1787 470.053 82.6293 475.848 74.6493C481.641 66.668 487.719 62.924 491.188 63.8787Z" fill="#DADBD8"/>
</g>
<defs>
<clipPath id="clip0">
<rect width="610.373" height="539.507" fill="white"/>
</clipPath>
</defs>
</svg>
