<svg width="120" height="121" viewBox="0 0 120 121" fill="none" xmlns="http://www.w3.org/2000/svg">
<g clip-path="url(#clip0)">
<path d="M85.647 34.8542V24.3412C85.647 22.0056 83.5999 20.1121 81.0749 20.1121H42.719C40.194 20.1121 38.147 22.0056 38.147 24.3412V86.9923C38.147 89.3279 40.194 91.2214 42.719 91.2214H81.0749C83.5999 91.2214 85.647 89.3279 85.647 86.9923V66.7957V34.8542Z" fill="#72D8FF"/>
<path d="M85.6475 29.3621H38.1475V80.5146H85.6475V29.3621Z" fill="white"/>
<path d="M91.8215 62.138C94.8481 62.138 97.3015 59.8686 97.3015 57.069C97.3015 54.2694 94.8481 52 91.8215 52V62.138Z" fill="#FF5D5D"/>
<path d="M64.6169 63.9299H55.6422C51.5489 63.9299 48.2305 60.8605 48.2305 57.0741C48.2305 53.2878 51.5488 50.2183 55.6422 50.2183H64.6169V63.9299Z" fill="#FFB954"/>
<path d="M64.6161 63.9334V73.6495H58.2373V63.9299L64.6161 63.9334Z" fill="#6A80FF"/>
<path d="M64.616 63.9332L64.6167 50.218L91.8213 40.0835V74.0544L64.616 63.9332Z" fill="#ADE5FF"/>
<path d="M84.8396 71.457L91.8212 74.0544V40.0835L84.8396 42.6843V71.457Z" fill="#D8D8E4"/>
<path d="M46.897 29.9019V33.8968C46.897 36.4511 49.1356 38.5218 51.897 38.5218C54.6584 38.5218 56.897 36.4511 56.897 33.8968V29.9019H46.897Z" fill="white"/>
<path d="M38.147 29.9019L36.897 33.8968C36.897 36.4511 39.1356 38.5218 41.897 38.5218C44.6584 38.5218 46.897 36.4511 46.897 33.8968V29.9019H38.147Z" fill="#5A54E0"/>
<path d="M66.897 29.9019V33.8968C66.897 36.4511 69.1356 38.5218 71.897 38.5218C74.6584 38.5218 76.8969 36.4511 76.8969 33.8968V29.9019H66.897Z" fill="white"/>
<path d="M56.897 29.9019V33.8968C56.897 36.4511 59.1356 38.5218 61.897 38.5218C64.6584 38.5218 66.897 36.4511 66.897 33.8968V29.9019H56.897Z" fill="#5A54E0"/>
<path d="M76.897 29.9019V33.8968C76.897 36.4511 79.1356 38.5218 81.897 38.5218C84.6584 38.5218 86.897 36.4511 86.897 33.8968L85.647 29.9019H76.897Z" fill="#5A54E0"/>
<path d="M58.6157 26.1824H65.1782C66.041 26.1824 66.7407 25.5353 66.7407 24.7371C66.7407 23.9388 66.041 23.2917 65.1782 23.2917H58.6157C57.7529 23.2917 57.0532 23.9388 57.0532 24.7371C57.0532 25.5353 57.7528 26.1824 58.6157 26.1824Z" fill="black"/>
<path d="M61.897 87.1404C62.3079 87.1404 62.711 86.9857 63.0015 86.7169C63.2921 86.4481 63.4595 86.0752 63.4595 85.6951C63.4595 85.315 63.2923 84.9421 63.0015 84.6732C62.711 84.403 62.3079 84.2498 61.897 84.2498C61.486 84.2498 61.0829 84.403 60.7923 84.6732C60.5017 84.9421 60.3345 85.315 60.3345 85.6951C60.3345 86.0752 60.5015 86.4481 60.7923 86.7169C61.0829 86.9856 61.486 87.1404 61.897 87.1404Z" fill="black"/>
<path d="M84.8391 63.6292C84.4282 63.6292 84.025 63.7838 83.7344 64.0526C83.4438 64.3215 83.2766 64.693 83.2766 65.0745C83.2766 65.4546 83.4436 65.8275 83.7344 66.0963C84.025 66.365 84.4282 66.5198 84.8391 66.5198C85.2516 66.5198 85.6532 66.3651 85.9436 66.0963C86.2358 65.8275 86.4016 65.4546 86.4016 65.0745C86.4016 64.6929 86.2358 64.3215 85.9436 64.0526C85.6532 63.7838 85.2516 63.6292 84.8391 63.6292Z" fill="black"/>
<path d="M93.3834 50.7184V40.0837C93.3834 39.6035 93.1256 39.1546 92.6955 38.8859C92.2653 38.6173 91.7191 38.5636 91.2373 38.743L87.209 40.2437V37.4542C87.9942 36.4538 88.459 35.2247 88.459 33.8966C88.459 33.7607 88.4383 33.6254 88.3973 33.4948L87.1834 29.6153C87.1992 29.5329 87.2089 29.4485 87.2089 29.3619V24.3412C87.2089 21.2122 84.457 18.6667 81.0745 18.6667H42.7184C39.3359 18.6667 36.5839 21.2122 36.5839 24.3412V29.3621C36.5839 29.4486 36.5936 29.533 36.6094 29.6154L35.3955 33.4949C35.3545 33.6256 35.3337 33.7609 35.3337 33.8967C35.3337 35.2248 35.7986 36.4538 36.5837 37.4544V86.9924C36.5839 90.1213 39.3359 92.6667 42.7184 92.6667H81.0745C84.457 92.6667 87.209 90.1213 87.209 86.9923V73.8966L91.238 75.3956C91.4259 75.4655 91.6239 75.5 91.8208 75.5C92.1283 75.5 92.4336 75.4161 92.6958 75.2523C93.1258 74.9836 93.3834 74.5347 93.3834 74.0547V63.4198C96.5169 62.7605 98.8634 60.1644 98.8634 57.0693C98.8634 53.9739 96.5169 51.3778 93.3834 50.7184ZM75.3339 33.8967C75.3339 35.65 73.7919 37.0764 71.8964 37.0764C70.0009 37.0764 68.4589 35.65 68.4589 33.8967V31.3469H75.3339V33.8967ZM65.3339 33.8967C65.3339 35.65 63.7919 37.0764 61.8964 37.0764C60.0009 37.0764 58.4589 35.65 58.4589 33.8967V31.3469H65.3339V33.8967ZM55.3339 33.8967C55.3339 35.65 53.7919 37.0764 51.8964 37.0764C50.0009 37.0764 48.4589 35.65 48.4589 33.8967V31.3469H55.3339V33.8967ZM45.3339 33.8967C45.3339 35.65 43.7919 37.0764 41.8964 37.0764C40.0686 37.0764 38.5692 35.7501 38.4647 34.083L39.3208 31.3471H45.3337L45.3339 33.8967ZM78.4589 31.3469H84.4719L85.328 34.0829C85.2234 35.7499 83.7241 37.0763 81.8962 37.0763C80.0008 37.0763 78.4587 35.6499 78.4587 33.8966V31.3469H78.4589ZM42.7184 21.5574H81.0745C82.7339 21.5574 84.084 22.8061 84.084 24.3412V27.9167H39.7091V24.3412C39.7089 22.8061 41.0591 21.5574 42.7184 21.5574ZM84.0839 79.0688H46.2714C45.4086 79.0688 44.7089 79.716 44.7089 80.5141C44.7089 81.3122 45.4086 81.9594 46.2714 81.9594H84.0839V86.9923C84.0839 88.5272 82.7337 89.7761 81.0744 89.7761H42.7184C41.0591 89.7761 39.7089 88.5272 39.7089 86.9923V39.6189C40.3936 39.8435 41.1295 39.9669 41.8964 39.9669C43.898 39.9669 45.6917 39.1328 46.8964 37.8219C48.1011 39.1328 49.8948 39.9669 51.8964 39.9669C53.898 39.9669 55.6917 39.1328 56.8964 37.8219C58.1011 39.1328 59.8948 39.9669 61.8964 39.9669C63.898 39.9669 65.6917 39.1328 66.8964 37.8219C68.1011 39.1328 69.8948 39.9669 71.8964 39.9669C73.898 39.9669 75.6917 39.1328 76.8964 37.8219C78.1011 39.1328 79.8948 39.9669 81.8964 39.9669C82.6633 39.9669 83.3992 39.8435 84.0839 39.6189V41.4077L64.3137 48.7728H55.6417C50.6933 48.7728 46.6673 52.4966 46.6673 57.0739C46.6673 61.6512 50.6933 65.3751 55.6417 65.3751H56.6742V73.6493C56.6742 74.4474 57.3739 75.0946 58.2367 75.0946H64.6155C65.4783 75.0946 66.178 74.4474 66.178 73.6493V66.0723L84.0839 72.7339V79.0688ZM63.0531 62.4846H55.6417C52.4164 62.4846 49.7923 60.0575 49.7923 57.074C49.7923 54.0906 52.4164 51.6635 55.6417 51.6635H63.0539L63.0531 62.4846ZM59.7992 65.3752H63.053V72.2042H59.7992V65.3752ZM90.2584 71.9155L66.1791 62.9572V51.1944L83.2769 44.8249V59.7619C83.2769 60.56 83.9766 61.2072 84.8394 61.2072C85.7022 61.2072 86.4019 60.56 86.4019 59.7619V43.6605L90.2586 42.2238V71.9155H90.2584ZM93.3834 60.3912V53.7471C94.768 54.3064 95.7384 55.5847 95.7384 57.0693C95.7384 58.5536 94.768 59.8318 93.3834 60.3912Z" fill="black"/>
<path d="M113.77 55.6667H108.771C107.909 55.6667 107.209 56.314 107.209 57.1121C107.209 57.9102 107.909 58.5574 108.771 58.5574H113.77C114.633 58.5574 115.332 57.9102 115.332 57.1121C115.332 56.314 114.633 55.6667 113.77 55.6667Z" fill="black"/>
<path d="M102.199 56.0902C101.908 56.3591 101.741 56.7319 101.741 57.1121C101.741 57.4922 101.908 57.8651 102.199 58.1338C102.489 58.4026 102.892 58.5574 103.303 58.5574C103.714 58.5574 104.117 58.4027 104.408 58.1338C104.698 57.8651 104.866 57.4922 104.866 57.1121C104.866 56.7319 104.699 56.3591 104.408 56.0902C104.117 55.8214 103.714 55.6667 103.303 55.6667C102.891 55.6667 102.489 55.8213 102.199 56.0902Z" fill="black"/>
<path d="M102.358 50.366C102.758 50.366 103.158 50.225 103.463 49.9427L106.515 47.12C107.125 46.5556 107.125 45.6404 106.515 45.0759C105.904 44.5115 104.915 44.5115 104.305 45.0759L101.253 47.8986C100.643 48.463 100.643 49.3781 101.253 49.9427C101.559 50.225 101.958 50.366 102.358 50.366Z" fill="black"/>
<path d="M103.476 64.0523C102.866 63.4881 101.877 63.4881 101.266 64.0523C100.656 64.6167 100.656 65.5319 101.266 66.0964L104.42 69.0135C104.725 69.2956 105.125 69.4368 105.525 69.4368C105.925 69.4368 106.324 69.2956 106.63 69.0135C107.24 68.4491 107.24 67.5339 106.63 66.9694L103.476 64.0523Z" fill="black"/>
</g>
<circle cx="60" cy="60.6667" r="60" fill="#22621D" fill-opacity="0.4"/>
<defs>
<clipPath id="clip0">
<rect width="80" height="74" fill="white" transform="translate(35.3333 18.6667)"/>
</clipPath>
</defs>
</svg>
