<svg width="39" height="39" viewBox="0 0 39 39" fill="none" xmlns="http://www.w3.org/2000/svg">
<path d="M33.0268 18.4768C33.7952 19.8388 32.8738 21.5493 31.3379 21.61C25.7296 21.8347 20.0113 23.2682 14.62 26.0905L12.8373 27.1434C12.8373 27.1517 12.8127 27.1004 17.1526 34.8252C17.5508 35.5321 17.3144 36.4349 16.6246 36.8433L15.2185 37.6739C14.5287 38.0815 13.6457 37.8396 13.2475 37.1327L8.91865 29.4591L8.216 29.8749C6.83553 30.6899 5.07048 30.2061 4.27328 28.7933L1.02682 23.0385C0.230423 21.6256 0.703131 19.8191 2.0836 19.0032L8.4876 15.2189C13.3817 11.9787 17.529 7.68846 20.6378 2.64165C21.4575 1.31079 23.3651 1.34933 24.1335 2.71135L26.9112 7.63631C28.5072 6.6933 30.5487 7.25336 31.4701 8.88682C32.3914 10.5203 31.8442 12.6088 30.2482 13.5518L33.0268 18.4768Z" fill="#C1E4C3"/>
<path d="M31.47 8.88672C32.3914 10.5202 31.8441 12.6088 30.2481 13.5518L26.9111 7.63619C28.5071 6.69318 30.5486 7.25325 31.47 8.88672Z" fill="#D1E7FF"/>
<path d="M24.1335 2.71132C24.5168 3.39143 24.4922 4.23514 24.068 4.88934C20.6459 10.1666 16.0592 14.9352 10.4497 18.6497L2.94649 23.0835C2.43132 23.3885 2.02351 23.8108 1.73828 24.2988L1.02682 23.0384C0.230423 21.6255 0.703131 19.8191 2.0836 19.0032L8.4876 15.2188C13.3817 11.9787 17.529 7.68842 20.6378 2.64162C21.4574 1.31076 23.3651 1.34938 24.1335 2.71132V2.71132Z" fill="#E8F3FF"/>
<path d="M8.4876 15.2188L14.62 26.0904C13.3911 26.8161 9.44311 29.1486 8.21599 29.8747C6.83552 30.6898 5.07048 30.206 4.27328 28.7931L1.02682 23.0383C0.230423 21.6254 0.703131 19.819 2.0836 19.0031L8.4876 15.2188Z" fill="#C1E4C3"/>
<path d="M10.4296 18.6619C2.28098 23.4765 2.82099 23.1416 2.55811 23.3509C2.06305 23.7451 1.34053 23.5941 1.02669 23.0382C0.2303 21.6254 0.703009 19.8189 2.08348 19.003L8.48748 15.2188L10.4296 18.6619Z" fill="#D1E7FF"/>
<path d="M14.0046 29.2213C11.7247 30.5724 13.4021 29.5781 10.0899 31.5345L8.91858 29.4591L12.8373 27.1443L14.0046 29.2213Z" fill="#B9DCFF"/>
<path d="M31.2705 12.6136C31.0061 12.9851 30.6624 13.3073 30.2481 13.5517L26.9111 7.63627C27.3254 7.3911 27.77 7.24842 28.2163 7.19922C28.3842 7.49704 31.1239 12.3539 31.2705 12.6136V12.6136Z" fill="#B9DCFF"/>
<path d="M31.0977 13.7452C33.5992 11.6541 32.7351 7.51862 29.6094 6.66155C28.7927 6.43761 27.9472 6.48418 27.1721 6.78635L24.6885 2.38367C23.6779 0.592041 21.1713 0.544563 20.0952 2.29142C17.0404 7.25031 12.9708 11.4679 8.13922 14.6685C7.86409 14.8504 7.7621 15.2262 7.9249 15.5322C7.95102 15.5811 12.0649 22.8729 12.0921 22.9212C12.269 23.2347 12.6608 23.3425 12.9677 23.1613C13.2742 22.9801 13.3792 22.5789 13.2023 22.2652L9.34447 15.4263C13.9515 12.2742 18.0317 8.10115 21.1796 2.99113C21.7426 2.07707 23.0513 2.10544 23.5783 3.03967L32.4713 18.8043C32.999 19.7398 32.3664 20.9127 31.313 20.9547C25.4036 21.1904 19.6179 22.7373 14.3281 25.5063C14.3056 25.518 8.30812 29.0625 7.8951 29.3065C6.82301 29.9401 5.44735 29.5628 4.8285 28.4655L1.58195 22.7102C0.963022 21.613 1.33165 20.2051 2.40366 19.5716L6.31104 17.2627C6.61758 17.0816 6.72262 16.6804 6.54563 16.3666C6.36865 16.0528 5.97654 15.9454 5.67008 16.1265L1.7627 18.4354C0.0785755 19.4305 -0.500533 21.6425 0.471805 23.3662L3.71843 29.1215C4.69085 30.8453 6.85209 31.4378 8.53622 30.4427L8.68404 30.3553L12.6924 37.4609C13.2681 38.4816 14.5412 38.8311 15.539 38.2416L16.9449 37.4109C17.9424 36.8215 18.2836 35.5184 17.7077 34.4974L14.8668 29.4615C14.6898 29.1478 14.2978 29.0403 13.9913 29.2214C13.6847 29.4026 13.5797 29.8038 13.7567 30.1175L16.5975 35.1534C16.8191 35.5463 16.6879 36.0478 16.3039 36.2746L14.8981 37.1054C14.5142 37.3322 14.0242 37.1978 13.8026 36.8049L9.79427 29.6993L14.9264 26.6667C19.9484 24.0406 25.5353 22.498 31.363 22.2657C33.3827 22.185 34.5907 19.9369 33.5815 18.1483L31.0977 13.7452ZM30.9147 9.21439C31.5474 10.3362 31.3201 11.7282 30.4442 12.5867L27.8255 7.94436C28.9735 7.59972 30.2717 8.0745 30.9147 9.21439ZM37.1837 6.29788L35.5253 7.27786C35.2186 7.45908 34.8267 7.35142 34.6498 7.03777C34.4727 6.72403 34.5778 6.3228 34.8844 6.14167L36.5428 5.16168C36.8496 4.98046 37.2414 5.08812 37.4183 5.40178C37.5953 5.71551 37.4903 6.11674 37.1837 6.29788ZM30.0516 2.55899L30.4561 1.01443C30.5477 0.664448 30.899 0.456905 31.2411 0.550549C31.5831 0.644358 31.786 1.00409 31.6943 1.35399L31.2899 2.89855C31.1984 3.24763 30.8478 3.45623 30.5048 3.36243C30.1629 3.26862 29.96 2.90896 30.0516 2.55899V2.55899ZM38.4347 13.3026C38.3579 13.5957 38.099 13.7889 37.8159 13.7889C37.6999 13.7889 37.781 13.8025 36.1404 13.3525C35.7985 13.2587 35.5955 12.8991 35.6872 12.5491C35.7788 12.1991 36.1303 11.9917 36.4722 12.0852L37.9814 12.4991C38.3233 12.5929 38.5263 12.9526 38.4347 13.3026Z" fill="#262F56"/>
</svg>
