<svg width="28" height="26" viewBox="0 0 28 26" fill="none" xmlns="http://www.w3.org/2000/svg">
<path fill-rule="evenodd" clip-rule="evenodd" d="M27.04 1.85714C27.04 2.88281 26.2085 3.71429 25.1829 3.71429H1.85714C0.831471 3.71429 0 2.88281 0 1.85714V1.85714C0 0.831471 0.831474 0 1.85715 0H25.1829C26.2085 0 27.04 0.831471 27.04 1.85714V1.85714Z" fill="#97786F"/>
<path fill-rule="evenodd" clip-rule="evenodd" d="M20.28 13C20.28 14.0257 19.4485 14.8572 18.4229 14.8572H1.85714C0.831471 14.8572 0 14.0257 0 13V13C0 11.9744 0.831469 11.1429 1.85714 11.1429H18.4229C19.4485 11.1429 20.28 11.9744 20.28 13V13Z" fill="#97786F"/>
<path fill-rule="evenodd" clip-rule="evenodd" d="M13.52 24.1428C13.52 25.1685 12.6885 26 11.6629 26H1.85714C0.831471 26 0 25.1685 0 24.1428V24.1428C0 23.1172 0.831473 22.2857 1.85714 22.2857H11.6629C12.6885 22.2857 13.52 23.1172 13.52 24.1428V24.1428Z" fill="#97786F"/>
</svg>
