<svg width="250" height="250" viewBox="0 0 250 250" fill="none" xmlns="http://www.w3.org/2000/svg">
<path d="M232.391 20.1637H77.7344C74.4866 20.1674 71.3729 21.4724 69.0763 23.7923C66.7798 26.1123 65.488 29.2578 65.4844 32.5387V141.671C65.488 144.952 66.7798 148.097 69.0763 150.417C71.3729 152.737 74.4866 154.042 77.7344 154.046H136.942L135.092 166.541C134.791 168.507 133.806 170.299 132.315 171.598C130.824 172.896 128.924 173.615 126.955 173.626H126.168C123.845 173.629 121.618 174.562 119.975 176.222C118.333 177.881 117.409 180.131 117.406 182.477C117.406 182.888 117.567 183.281 117.854 183.571C118.142 183.861 118.531 184.024 118.937 184.024H191.188C191.594 184.024 191.983 183.861 192.271 183.571C192.558 183.281 192.719 182.888 192.719 182.477C192.716 180.131 191.792 177.881 190.15 176.222C188.507 174.562 186.28 173.629 183.957 173.626H183.17C181.201 173.615 179.301 172.896 177.81 171.598C176.319 170.299 175.334 168.507 175.033 166.541L173.183 154.046H232.391C235.638 154.042 238.752 152.737 241.049 150.417C243.345 148.097 244.637 144.952 244.641 141.671V32.5387C244.637 29.2578 243.345 26.1123 241.049 23.7923C238.752 21.4724 235.638 20.1674 232.391 20.1637V20.1637Z" fill="#E6E7E8"/>
<path d="M71.6094 146.311H226.266C232.185 146.311 236.984 141.463 236.984 135.483V26.3528C236.984 20.3726 232.185 15.5247 226.266 15.5247H71.6094C65.6896 15.5247 60.8906 20.3726 60.8906 26.3528V135.483C60.8906 141.463 65.6896 146.311 71.6094 146.311Z" fill="#214456"/>
<path d="M226.266 15.5231H71.6094C68.7666 15.5231 66.0402 16.6639 64.0301 18.6946C62.0199 20.7252 60.8906 23.4794 60.8906 26.3512V30.9918C60.8906 28.12 62.0199 25.3659 64.0301 23.3352C66.0402 21.3045 68.7666 20.1637 71.6094 20.1637H226.266C229.108 20.1637 231.835 21.3045 233.845 23.3352C235.855 25.3659 236.984 28.12 236.984 30.9918V26.3512C236.984 23.4794 235.855 20.7252 233.845 18.6946C231.835 16.6639 229.108 15.5231 226.266 15.5231Z" fill="white"/>
<path d="M79.7004 126.997H218.176C222.404 126.997 225.832 123.534 225.832 119.262V34.5246C225.832 30.2531 222.404 26.7903 218.176 26.7903H79.7004C75.472 26.7903 72.0442 30.2531 72.0442 34.5246V119.262C72.0442 123.534 75.472 126.997 79.7004 126.997Z" fill="#D4FBFF"/>
<path d="M177.832 168.986H177.047C174.709 168.984 172.45 168.135 170.679 166.593C168.909 165.051 167.745 162.918 167.4 160.583L165.288 146.312H132.593L130.481 160.583C130.136 162.918 128.972 165.051 127.202 166.593C125.431 168.135 123.172 168.984 120.834 168.986H120.043C118.125 168.986 116.286 169.755 114.93 171.125C113.574 172.495 112.812 174.353 112.812 176.29H185.063C185.063 174.353 184.301 172.495 182.945 171.125C181.589 169.755 179.75 168.986 177.832 168.986V168.986Z" fill="#C6C9CB"/>
<path d="M148.938 131.471C147.992 131.47 147.068 131.753 146.281 132.284C145.495 132.814 144.882 133.568 144.52 134.451C144.158 135.333 144.063 136.304 144.247 137.241C144.431 138.178 144.887 139.039 145.555 139.714C146.224 140.39 147.075 140.85 148.003 141.036C148.93 141.223 149.892 141.127 150.765 140.762C151.639 140.396 152.385 139.777 152.911 138.983C153.436 138.189 153.717 137.255 153.717 136.3C153.717 135.666 153.593 135.038 153.353 134.452C153.113 133.866 152.761 133.334 152.317 132.885C151.874 132.437 151.347 132.081 150.767 131.838C150.187 131.596 149.565 131.471 148.938 131.471V131.471Z" fill="#C6C9CB"/>
<path d="M218.176 25.2419H79.699C77.2632 25.2448 74.9279 26.2236 73.2056 27.9635C71.4832 29.7035 70.5143 32.0625 70.5115 34.5232V119.264C70.5143 121.725 71.4832 124.084 73.2056 125.824C74.9279 127.564 77.2632 128.542 79.699 128.545H218.176C220.612 128.542 222.947 127.564 224.669 125.824C226.392 124.084 227.361 121.725 227.364 119.264V34.5232C227.361 32.0625 226.392 29.7035 224.669 27.9635C222.947 26.2236 220.612 25.2448 218.176 25.2419V25.2419ZM224.301 119.263C224.301 120.904 223.656 122.477 222.507 123.638C221.358 124.798 219.8 125.45 218.176 125.45H79.699C78.0745 125.45 76.5166 124.798 75.3679 123.638C74.2193 122.477 73.574 120.904 73.574 119.263V34.5232C73.576 32.8828 74.222 31.3102 75.3702 30.1502C76.5184 28.9903 78.0751 28.3377 79.699 28.3357H218.176C219.8 28.3377 221.357 28.9903 222.505 30.1502C223.653 31.3102 224.299 32.8828 224.301 34.5232V119.263Z" fill="#3A2C60"/>
<path d="M236.984 70.0815C236.578 70.0815 236.189 70.2445 235.902 70.5346C235.614 70.8247 235.453 71.2182 235.453 71.6284V86.3237C235.453 86.734 235.614 87.1275 235.902 87.4176C236.189 87.7076 236.578 87.8706 236.984 87.8706C237.39 87.8706 237.78 87.7076 238.067 87.4176C238.354 87.1275 238.516 86.734 238.516 86.3237V71.6284C238.516 71.2182 238.354 70.8247 238.067 70.5346C237.78 70.2445 237.39 70.0815 236.984 70.0815Z" fill="#3A2C60"/>
<path d="M226.266 13.9763H71.6094C68.3616 13.98 65.2479 15.285 62.9513 17.6049C60.6548 19.9249 59.363 23.0704 59.3594 26.3513V135.483C59.363 138.764 60.6548 141.91 62.9513 144.23C65.2479 146.55 68.3616 147.855 71.6094 147.858H130.817L128.967 160.354C128.666 162.32 127.682 164.112 126.19 165.411C124.699 166.709 122.799 167.428 120.83 167.439H120.043C117.72 167.442 115.493 168.375 113.85 170.034C112.208 171.694 111.284 173.943 111.281 176.29C111.281 176.7 111.442 177.094 111.729 177.384C112.017 177.674 112.406 177.837 112.812 177.837H185.063C185.469 177.837 185.858 177.674 186.146 177.384C186.433 177.094 186.594 176.7 186.594 176.29C186.591 173.943 185.667 171.694 184.025 170.034C182.382 168.375 180.155 167.442 177.832 167.439H177.045C175.076 167.428 173.176 166.709 171.685 165.411C170.193 164.112 169.209 162.32 168.908 160.354L167.058 147.858H226.266C229.513 147.855 232.627 146.55 234.924 144.23C237.22 141.91 238.512 138.764 238.516 135.483V92.7045C238.516 92.2943 238.354 91.9008 238.067 91.6107C237.78 91.3206 237.39 91.1577 236.984 91.1577C236.578 91.1577 236.189 91.3206 235.902 91.6107C235.614 91.9008 235.453 92.2943 235.453 92.7045V135.483C235.45 137.944 234.481 140.303 232.759 142.043C231.037 143.783 228.701 144.762 226.266 144.765H71.6094C69.1736 144.762 66.8383 143.783 65.116 142.043C63.3936 140.303 62.4247 137.944 62.4219 135.483V26.3513C62.4247 23.8907 63.3936 21.5316 65.116 19.7917C66.8383 18.0517 69.1736 17.0729 71.6094 17.0701H226.266C228.701 17.0729 231.037 18.0517 232.759 19.7917C234.481 21.5316 235.45 23.8907 235.453 26.3513V64.2807C235.453 64.691 235.614 65.0844 235.902 65.3745C236.189 65.6646 236.578 65.8276 236.984 65.8276C237.39 65.8276 237.78 65.6646 238.067 65.3745C238.354 65.0844 238.516 64.691 238.516 64.2807V26.3513C238.512 23.0704 237.22 19.9249 234.924 17.6049C232.627 15.285 229.513 13.98 226.266 13.9763V13.9763ZM163.962 147.858L165.878 160.812C166.291 163.509 167.643 165.969 169.689 167.75C171.736 169.531 174.344 170.518 177.045 170.532H177.832C179.077 170.534 180.286 170.946 181.277 171.706C182.269 172.467 182.987 173.533 183.323 174.743H114.552C114.888 173.533 115.606 172.467 116.598 171.706C117.589 170.946 118.798 170.534 120.043 170.532H120.83C123.531 170.518 126.139 169.531 128.186 167.75C130.232 165.969 131.584 163.509 131.997 160.812L133.913 147.858H163.962Z" fill="#3A2C60"/>
<path d="M218.176 25.2419H79.699C77.2632 25.2448 74.9279 26.2236 73.2056 27.9635C71.4832 29.7035 70.5143 32.0625 70.5115 34.5232V119.264C70.5143 121.725 71.4832 124.084 73.2056 125.824C74.9279 127.564 77.2632 128.542 79.699 128.545H218.176C220.612 128.542 222.947 127.564 224.669 125.824C226.392 124.084 227.361 121.725 227.364 119.264V34.5232C227.361 32.0625 226.392 29.7035 224.669 27.9635C222.947 26.2236 220.612 25.2448 218.176 25.2419V25.2419ZM224.301 119.263C224.301 120.904 223.656 122.477 222.507 123.638C221.358 124.798 219.8 125.45 218.176 125.45H79.699C78.0745 125.45 76.5166 124.798 75.3679 123.638C74.2193 122.477 73.574 120.904 73.574 119.263V34.5232C73.576 32.8828 74.222 31.3102 75.3702 30.1502C76.5184 28.9903 78.0751 28.3377 79.699 28.3357H218.176C219.8 28.3377 221.357 28.9903 222.505 30.1502C223.653 31.3102 224.299 32.8828 224.301 34.5232V119.263Z" fill="#3A2C60"/>
<path d="M236.984 70.0815C236.578 70.0815 236.189 70.2445 235.902 70.5346C235.614 70.8247 235.453 71.2182 235.453 71.6284V86.3237C235.453 86.734 235.614 87.1275 235.902 87.4175C236.189 87.7076 236.578 87.8706 236.984 87.8706C237.39 87.8706 237.78 87.7076 238.067 87.4175C238.354 87.1275 238.516 86.734 238.516 86.3237V71.6284C238.516 71.2182 238.354 70.8247 238.067 70.5346C237.78 70.2445 237.39 70.0815 236.984 70.0815Z" fill="#3A2C60"/>
<path d="M226.266 13.9763H71.6094C68.3616 13.98 65.2479 15.285 62.9513 17.6049C60.6548 19.9249 59.363 23.0704 59.3594 26.3513V135.483C59.363 138.764 60.6548 141.91 62.9513 144.23C65.2479 146.55 68.3616 147.855 71.6094 147.858H130.817L128.967 160.354C128.666 162.32 127.682 164.112 126.19 165.411C124.699 166.709 122.799 167.428 120.83 167.439H120.043C117.72 167.442 115.493 168.375 113.85 170.034C112.208 171.694 111.284 173.943 111.281 176.29C111.281 176.7 111.442 177.094 111.729 177.384C112.017 177.674 112.406 177.837 112.812 177.837H185.063C185.469 177.837 185.858 177.674 186.146 177.384C186.433 177.094 186.594 176.7 186.594 176.29C186.591 173.943 185.667 171.694 184.025 170.034C182.382 168.375 180.155 167.442 177.832 167.439H177.045C175.076 167.428 173.176 166.709 171.685 165.411C170.193 164.112 169.209 162.32 168.908 160.354L167.058 147.858H226.266C229.513 147.855 232.627 146.55 234.924 144.23C237.22 141.91 238.512 138.764 238.516 135.483V92.7045C238.516 92.2943 238.354 91.9008 238.067 91.6107C237.78 91.3206 237.39 91.1577 236.984 91.1577C236.578 91.1577 236.189 91.3206 235.902 91.6107C235.614 91.9008 235.453 92.2943 235.453 92.7045V135.483C235.45 137.944 234.481 140.303 232.759 142.043C231.037 143.783 228.701 144.762 226.266 144.765H71.6094C69.1736 144.762 66.8383 143.783 65.116 142.043C63.3936 140.303 62.4247 137.944 62.4219 135.483V26.3513C62.4247 23.8907 63.3936 21.5316 65.116 19.7917C66.8383 18.0517 69.1736 17.0729 71.6094 17.0701H226.266C228.701 17.0729 231.037 18.0517 232.759 19.7917C234.481 21.5316 235.45 23.8907 235.453 26.3513V64.2807C235.453 64.691 235.614 65.0844 235.902 65.3745C236.189 65.6646 236.578 65.8276 236.984 65.8276C237.39 65.8276 237.78 65.6646 238.067 65.3745C238.354 65.0844 238.516 64.691 238.516 64.2807V26.3513C238.512 23.0704 237.22 19.9249 234.924 17.6049C232.627 15.285 229.513 13.98 226.266 13.9763V13.9763ZM163.962 147.858L165.878 160.812C166.291 163.509 167.643 165.969 169.689 167.75C171.736 169.531 174.344 170.518 177.045 170.532H177.832C179.077 170.534 180.286 170.946 181.277 171.706C182.269 172.467 182.987 173.533 183.323 174.743H114.552C114.888 173.533 115.606 172.467 116.598 171.706C117.589 170.946 118.798 170.534 120.043 170.532H120.83C123.531 170.518 126.139 169.531 128.186 167.75C130.232 165.969 131.584 163.509 131.997 160.812L133.913 147.858H163.962Z" fill="#3A2C60"/>
<path d="M15.1836 204.054H148.535C153.639 204.054 157.777 199.745 157.777 194.429V97.4245C157.777 92.1088 153.639 87.7995 148.535 87.7995H15.1836C10.0793 87.7995 5.94139 92.1088 5.94139 97.4245V194.429C5.94139 199.745 10.0793 204.054 15.1836 204.054Z" fill="#214456"/>
<path d="M148.535 87.7983H15.1836C12.7324 87.7983 10.3816 88.8124 8.64838 90.6174C6.91513 92.4225 5.94141 94.8706 5.94141 97.4233V101.548C5.94141 98.9956 6.91513 96.5475 8.64838 94.7424C10.3816 92.9374 12.7324 91.9233 15.1836 91.9233H148.535C150.986 91.9233 153.337 92.9374 155.07 94.7424C156.804 96.5475 157.777 98.9956 157.777 101.548V97.4233C157.777 94.8706 156.804 92.4225 155.07 90.6174C153.337 88.8124 150.986 87.7983 148.535 87.7983Z" fill="white"/>
<path d="M22.1599 186.886H141.56C145.206 186.886 148.161 183.808 148.161 180.011V104.689C148.161 100.892 145.206 97.8136 141.56 97.8136H22.1599C18.514 97.8136 15.5584 100.892 15.5584 104.689V180.011C15.5584 183.808 18.514 186.886 22.1599 186.886Z" fill="#D4FBFF"/>
<path d="M81.8594 190.863C81.0441 190.863 80.247 191.114 79.569 191.586C78.891 192.057 78.3624 192.727 78.0502 193.512C77.738 194.296 77.6562 195.159 77.8151 195.992C77.974 196.825 78.3665 197.59 78.9429 198.19C79.5193 198.791 80.2538 199.2 81.0534 199.366C81.8531 199.531 82.6819 199.447 83.4352 199.122C84.1885 198.797 84.8323 198.247 85.2853 197.541C85.7383 196.835 85.9801 196.005 85.9801 195.156C85.9803 194.592 85.8738 194.034 85.6668 193.513C85.4598 192.992 85.1563 192.519 84.7737 192.12C84.391 191.722 83.9367 191.405 83.4366 191.19C82.9366 190.974 82.4007 190.863 81.8594 190.863V190.863Z" fill="white"/>
<path d="M141.56 96.4373H22.1587C20.0584 96.4398 18.0449 97.3098 16.5598 98.8564C15.0747 100.403 14.2393 102.5 14.2368 104.687V180.012C14.2393 182.2 15.0747 184.297 16.5598 185.843C18.0449 187.39 20.0584 188.26 22.1587 188.262H141.56C143.66 188.26 145.674 187.39 147.159 185.843C148.644 184.297 149.479 182.2 149.482 180.012V104.687C149.479 102.5 148.644 100.403 147.159 98.8564C145.674 97.3098 143.66 96.4398 141.56 96.4373V96.4373ZM146.841 180.011C146.841 181.47 146.285 182.869 145.294 183.9C144.304 184.932 142.96 185.511 141.56 185.511H22.1587C20.758 185.511 19.4147 184.932 18.4243 183.9C17.4339 182.869 16.8774 181.47 16.8774 180.011V104.687C16.8792 103.229 17.4362 101.831 18.4262 100.8C19.4163 99.7691 20.7586 99.1891 22.1587 99.1873H141.56C142.96 99.1891 144.302 99.7691 145.292 100.8C146.282 101.831 146.839 103.229 146.841 104.687V180.011Z" fill="#3A2C60"/>
<path d="M157.777 136.295C157.427 136.295 157.091 136.44 156.844 136.697C156.596 136.955 156.457 137.305 156.457 137.67V150.732C156.457 151.097 156.596 151.447 156.844 151.704C157.091 151.962 157.427 152.107 157.777 152.107C158.128 152.107 158.463 151.962 158.711 151.704C158.959 151.447 159.098 151.097 159.098 150.732V137.67C159.098 137.305 158.959 136.955 158.711 136.697C158.463 136.44 158.128 136.295 157.777 136.295Z" fill="#3A2C60"/>
<path d="M15.1836 86.4233H148.535C151.336 86.4266 154.02 87.5866 156 89.6488C157.981 91.711 159.095 94.507 159.098 97.4233V131.138C159.098 131.503 158.959 131.853 158.711 132.111C158.463 132.368 158.128 132.513 157.777 132.513C157.427 132.513 157.091 132.368 156.844 132.111C156.596 131.853 156.457 131.503 156.457 131.138V97.4233C156.455 95.2361 155.619 93.1391 154.134 91.5925C152.649 90.0459 150.635 89.1759 148.535 89.1733H15.1836C13.0833 89.1759 11.0698 90.0459 9.58468 91.5925C8.09957 93.1391 7.26416 95.2361 7.26172 97.4233V194.43C7.26416 196.617 8.09957 198.714 9.58468 200.26C11.0698 201.807 13.0833 202.677 15.1836 202.68H148.535C150.635 202.677 152.649 201.807 154.134 200.26C155.619 198.714 156.455 196.617 156.457 194.43V156.404C156.457 156.039 156.596 155.69 156.844 155.432C157.091 155.174 157.427 155.029 157.777 155.029C158.128 155.029 158.463 155.174 158.711 155.432C158.959 155.69 159.098 156.039 159.098 156.404V194.43C159.095 197.346 157.981 200.142 156 202.204C154.02 204.266 151.336 205.426 148.535 205.43H70.304H15.1836C12.3832 205.426 9.69842 204.266 7.71825 202.204C5.73808 200.142 4.62424 197.346 4.62109 194.43V97.4233C4.62424 94.507 5.73808 91.711 7.71825 89.6488C9.69842 87.5866 12.3832 86.4266 15.1836 86.4233Z" fill="#3A2C60"/>
<path d="M141.56 96.4373H22.1587C20.0584 96.4398 18.0449 97.3098 16.5598 98.8564C15.0747 100.403 14.2393 102.5 14.2368 104.687V180.013C14.2393 182.2 15.0747 184.297 16.5598 185.843C18.0449 187.39 20.0584 188.26 22.1587 188.263H141.56C143.66 188.26 145.674 187.39 147.159 185.843C148.644 184.297 149.479 182.2 149.482 180.013V104.687C149.479 102.5 148.644 100.403 147.159 98.8564C145.674 97.3098 143.66 96.4398 141.56 96.4373V96.4373ZM146.841 180.011C146.841 181.47 146.285 182.869 145.294 183.9C144.304 184.932 142.96 185.511 141.56 185.511H22.1587C20.758 185.511 19.4147 184.932 18.4243 183.9C17.4339 182.869 16.8774 181.47 16.8774 180.011V104.687C16.8792 103.229 17.4362 101.831 18.4262 100.8C19.4163 99.7691 20.7586 99.1891 22.1587 99.1873H141.56C142.96 99.1891 144.302 99.7691 145.292 100.8C146.282 101.831 146.839 103.229 146.841 104.687V180.011Z" fill="#3A2C60"/>
<path d="M157.777 136.295C157.427 136.295 157.091 136.439 156.844 136.697C156.596 136.955 156.457 137.305 156.457 137.67V150.732C156.457 151.097 156.596 151.446 156.844 151.704C157.091 151.962 157.427 152.107 157.777 152.107C158.128 152.107 158.463 151.962 158.711 151.704C158.959 151.446 159.098 151.097 159.098 150.732V137.67C159.098 137.305 158.959 136.955 158.711 136.697C158.463 136.439 158.128 136.295 157.777 136.295Z" fill="#3A2C60"/>
<path d="M161.638 127.016H122.685C119.479 127.016 116.88 129.722 116.88 133.061V215.501C116.88 218.84 119.479 221.547 122.685 221.547H161.638C164.844 221.547 167.443 218.84 167.443 215.501V133.061C167.443 129.722 164.844 127.016 161.638 127.016Z" fill="#214456"/>
<path d="M116.88 135.978H167.443V208.73H116.88V135.978Z" fill="#D4FBFF"/>
<path d="M116.88 135.978H167.443V138.556H116.88V135.978Z" fill="white"/>
<path d="M149.208 130.613H135.117C134.649 130.613 134.27 131.008 134.27 131.495V131.681C134.27 132.168 134.649 132.563 135.117 132.563H149.208C149.675 132.563 150.054 132.168 150.054 131.681V131.495C150.054 131.008 149.675 130.613 149.208 130.613Z" fill="#B6E6FF"/>
<path d="M153.797 130.518C153.594 130.517 153.395 130.58 153.226 130.698C153.057 130.815 152.925 130.982 152.847 131.178C152.769 131.374 152.748 131.589 152.788 131.797C152.828 132.004 152.925 132.195 153.069 132.345C153.213 132.495 153.396 132.597 153.596 132.639C153.795 132.68 154.002 132.659 154.19 132.578C154.378 132.497 154.538 132.359 154.651 132.183C154.764 132.007 154.825 131.8 154.825 131.588C154.825 131.448 154.798 131.309 154.747 131.179C154.695 131.049 154.619 130.931 154.524 130.831C154.429 130.732 154.315 130.653 154.191 130.599C154.066 130.545 153.932 130.518 153.797 130.518V130.518Z" fill="#B6E6FF"/>
<path d="M146.928 212.225H137.397C136.261 212.225 135.34 213.184 135.34 214.367V214.821C135.34 216.003 136.261 216.962 137.397 216.962H146.928C148.063 216.962 148.984 216.003 148.984 214.821V214.367C148.984 213.184 148.063 212.225 146.928 212.225Z" fill="white"/>
<path d="M116.88 167.762C117.098 167.762 117.308 167.672 117.463 167.51C117.618 167.349 117.705 167.131 117.705 166.903V159.958C117.705 159.73 117.618 159.512 117.463 159.35C117.308 159.189 117.098 159.099 116.88 159.099C116.661 159.099 116.451 159.189 116.296 159.35C116.141 159.512 116.054 159.73 116.054 159.958V166.903C116.054 167.131 116.141 167.349 116.296 167.51C116.451 167.672 116.661 167.762 116.88 167.762V167.762Z" fill="#3A2C60"/>
<path d="M161.637 126.156H122.687C120.929 126.158 119.244 126.887 118.001 128.181C116.757 129.476 116.058 131.231 116.056 133.062V155.805C116.056 156.033 116.143 156.251 116.298 156.412C116.453 156.574 116.662 156.664 116.881 156.664C117.1 156.664 117.31 156.574 117.465 156.412C117.62 156.251 117.706 156.033 117.706 155.805V136.837H166.619V207.871H117.705V171.059C117.705 170.831 117.618 170.612 117.463 170.451C117.308 170.29 117.098 170.199 116.88 170.199C116.661 170.199 116.451 170.29 116.296 170.451C116.141 170.612 116.054 170.831 116.054 171.059V215.5C116.056 217.332 116.756 219.087 117.999 220.382C119.243 221.677 120.929 222.405 122.687 222.406H161.637C163.395 222.404 165.08 221.676 166.323 220.381C167.566 219.086 168.266 217.331 168.268 215.5V133.062C168.266 131.231 167.566 129.476 166.323 128.181C165.08 126.887 163.395 126.159 161.637 126.156V126.156ZM117.705 135.119V133.062C117.706 131.687 118.232 130.368 119.166 129.395C120.1 128.423 121.367 127.876 122.687 127.875H161.637C162.957 127.877 164.223 128.424 165.157 129.396C166.091 130.368 166.616 131.687 166.617 133.062V135.119H117.705ZM161.637 220.687H122.687C121.367 220.686 120.101 220.139 119.167 219.166C118.233 218.194 117.708 216.876 117.706 215.5V209.59H166.619V215.5C166.618 216.876 166.092 218.195 165.158 219.167C164.224 220.14 162.957 220.686 161.637 220.687V220.687Z" fill="#3A2C60"/>
</svg>
