<svg width="100" height="100" viewBox="0 0 100 100" fill="none" xmlns="http://www.w3.org/2000/svg">
<circle cx="50" cy="50" r="50" fill="#C8E2E2"/>
<g clip-path="url(#clip0)">
<path d="M56.9598 61.368C53.1023 64.3646 48.2477 65.7782 43.3845 65.3211C38.5213 64.864 34.0152 62.5706 30.7836 58.9077C27.552 55.2448 25.838 50.488 25.9906 45.6057C26.1431 40.7234 28.1508 36.0829 31.6048 32.6289C35.0587 29.175 39.6993 27.1673 44.5815 27.0147C49.4638 26.8622 54.2206 28.5762 57.8835 31.8078C61.5464 35.0393 63.8399 39.5455 64.297 44.4087C64.7541 49.2719 63.3404 54.1265 60.3438 57.984L73.1838 70.776L69.7758 74.184L56.9838 61.368H56.9598ZM45.1998 60.6C47.0908 60.6 48.9634 60.2275 50.7105 59.5038C52.4575 58.7802 54.045 57.7195 55.3821 56.3823C56.7193 55.0452 57.78 53.4577 58.5037 51.7106C59.2273 49.9635 59.5998 48.091 59.5998 46.2C59.5998 44.3089 59.2273 42.4364 58.5037 40.6893C57.78 38.9423 56.7193 37.3548 55.3821 36.0176C54.045 34.6805 52.4575 33.6198 50.7105 32.8961C48.9634 32.1724 47.0908 31.8 45.1998 31.8C41.3807 31.8 37.718 33.3171 35.0175 36.0176C32.317 38.7182 30.7998 42.3809 30.7998 46.2C30.7998 50.0191 32.317 53.6818 35.0175 56.3823C37.718 59.0828 41.3807 60.6 45.1998 60.6Z" fill="#16154D"/>
</g>
<defs>
<clipPath id="clip0">
<rect width="48" height="48" fill="white" transform="translate(26 27)"/>
</clipPath>
</defs>
</svg>
