<svg width="48" height="40" viewBox="0 0 48 40" fill="none" xmlns="http://www.w3.org/2000/svg">
<path d="M43.2 34.4H48V36.8C48 37.4366 47.7471 38.047 47.2971 38.4971C46.847 38.9472 46.2365 39.2 45.6 39.2H2.4C1.76348 39.2 1.15303 38.9472 0.702944 38.4971C0.252856 38.047 0 37.4366 0 36.8V34.4H4.8V5.60005C4.8 2.96005 6.96 0.800049 9.6 0.800049H38.4C39.673 0.800049 40.8939 1.30576 41.7941 2.20594C42.6943 3.10611 43.2 4.32701 43.2 5.60005V34.4ZM9.6 5.60005V27.2H38.4V5.60005H9.6ZM19.2 32V34.4H28.8V32H19.2Z" fill="#16154D"/>
</svg>
