<svg width="380" height="191" viewBox="0 0 380 191" fill="none" xmlns="http://www.w3.org/2000/svg">
<g clip-path="url(#clip0)">
<path d="M0 258.438H380V-3.05176e-05H0V258.438Z" fill="white"/>
<path d="M54.3015 205.379C53.504 205.125 52.709 204.848 51.9191 204.549L51.7433 205.034C52.5413 205.336 53.3444 205.615 54.1505 205.872L54.3015 205.379ZM50.2784 203.894C49.5039 203.568 48.7362 203.221 47.9772 202.852L47.7597 203.319C48.5266 203.691 49.3026 204.042 50.0852 204.372L50.2784 203.894ZM46.4002 202.05C45.6564 201.654 44.9229 201.237 44.2021 200.799L43.9431 201.243C44.672 201.686 45.4135 202.108 46.1656 202.508L46.4002 202.05ZM42.7063 199.85C42.0017 199.383 41.3115 198.895 40.6384 198.388L40.3374 198.803C41.019 199.317 41.7173 199.81 42.43 200.283L42.7063 199.85ZM39.2449 197.289C38.5912 196.75 37.9561 196.191 37.3419 195.613L36.9983 195.992C37.6208 196.579 38.2642 197.145 38.9264 197.691L39.2449 197.289ZM36.0784 194.363C35.4896 193.752 34.924 193.121 34.3839 192.472L33.9975 192.806C34.5458 193.465 35.1199 194.105 35.717 194.726L36.0784 194.363ZM33.2825 191.074C32.7647 190.38 32.2854 189.68 31.8432 188.976L31.4165 189.256C31.8662 189.971 32.3535 190.682 32.8793 191.387L33.2825 191.074ZM30.9403 187.44C30.5253 186.683 30.1514 185.92 29.8171 185.154L29.3542 185.364C29.6948 186.145 30.0756 186.921 30.4982 187.692L30.9403 187.44ZM29.1569 183.496C28.8648 182.686 28.6152 181.872 28.4062 181.057L27.916 181.188C28.1291 182.019 28.3836 182.849 28.6813 183.674L29.1569 183.496ZM28.0211 179.311C27.8647 178.468 27.7501 177.624 27.6755 176.779L27.171 176.826C27.247 177.687 27.3638 178.547 27.5231 179.407L28.0211 179.311ZM27.5765 174.992C27.5718 174.78 27.5694 174.567 27.5694 174.356C27.5694 173.716 27.5912 173.076 27.6341 172.437L27.1287 172.402C27.0849 173.052 27.0627 173.703 27.0627 174.356C27.0627 174.572 27.0651 174.788 27.07 175.004L27.5765 174.992ZM27.8079 170.658C27.9156 169.816 28.0586 168.976 28.2356 168.139L27.7404 168.03C27.5605 168.88 27.415 169.734 27.3054 170.591L27.8079 170.658ZM28.6532 166.398C28.8729 165.578 29.1242 164.763 29.4051 163.953L28.9275 163.781C28.6425 164.602 28.3876 165.43 28.1645 166.262L28.6532 166.398ZM30.0319 162.277C30.3474 161.489 30.69 160.708 31.0583 159.935L30.6027 159.709C30.2296 160.492 29.8824 161.283 29.5628 162.081L30.0319 162.277ZM31.8614 158.336C32.2574 157.587 32.677 156.845 33.1186 156.112L32.6871 155.841C32.2406 156.582 31.8161 157.332 31.4155 158.091L31.8614 158.336ZM34.07 154.598C34.5339 153.89 35.0178 153.19 35.5203 152.501L35.114 152.193C34.6064 152.889 34.1173 153.595 33.6486 154.312L34.07 154.598ZM36.5956 151.08C37.1183 150.412 37.658 149.756 38.2134 149.111L37.8328 148.77C37.2723 149.42 36.7274 150.083 36.1998 150.757L36.5956 151.08ZM39.3985 147.779C39.9727 147.154 40.5613 146.542 41.1625 145.943L40.8087 145.573C40.202 146.177 39.6081 146.795 39.0288 147.426L39.3985 147.779ZM42.445 144.705C43.0653 144.124 43.6974 143.558 44.3399 143.006L44.0137 142.611C43.3657 143.167 42.728 143.738 42.1022 144.324L42.445 144.705ZM45.7103 141.867C46.3719 141.333 47.043 140.816 47.7217 140.317L47.4252 139.897C46.7404 140.402 46.0635 140.923 45.3962 141.462L45.7103 141.867ZM49.1685 139.286C49.8687 138.804 50.576 138.34 51.2884 137.896L51.0244 137.455C50.3051 137.903 49.5914 138.371 48.8848 138.858L49.1685 139.286ZM52.8083 136.983C53.5455 136.557 54.2868 136.153 55.0301 135.771L54.8026 135.31C54.0512 135.695 53.3029 136.103 52.5586 136.533L52.8083 136.983ZM56.6195 134.992C57.1667 134.736 57.7149 134.494 58.2631 134.264C58.4891 134.169 58.7146 134.074 58.9395 133.978L58.7445 133.501C58.5205 133.596 58.2955 133.691 58.0706 133.785C57.5163 134.018 56.962 134.264 56.4082 134.522L56.6195 134.992ZM60.5745 133.269C61.3548 132.923 62.127 132.569 62.889 132.204L62.6737 131.736C61.9172 132.099 61.1491 132.45 60.3724 132.795L60.5745 133.269ZM64.489 131.413C65.2521 131.024 66.0019 130.621 66.7366 130.201L66.4894 129.75C65.7623 130.165 65.019 130.565 64.2621 130.951L64.489 131.413ZM68.2743 129.284C69.0034 128.829 69.7148 128.354 70.4049 127.857L70.1125 127.435C69.4321 127.925 68.7304 128.393 68.0099 128.843L68.2743 129.284ZM71.8352 126.767C72.5045 126.228 73.15 125.663 73.7686 125.069L73.4211 124.692C72.8141 125.276 72.1797 125.831 71.5211 126.361L71.8352 126.767ZM75.0287 123.776C75.6053 123.142 76.153 122.477 76.6693 121.778L76.2645 121.467C75.7593 122.152 75.2228 122.803 74.6573 123.424L75.0287 123.776ZM77.6913 120.28C78.1447 119.559 78.5663 118.805 78.9539 118.014L78.5009 117.783C78.1214 118.558 77.7085 119.296 77.2646 120.001L77.6913 120.28ZM79.6946 116.354C80.0113 115.57 80.2965 114.752 80.5489 113.899L80.064 113.75C79.8162 114.587 79.5365 115.389 79.226 116.157L79.6946 116.354ZM81.0074 112.134C81.1938 111.275 81.322 110.414 81.3985 109.552L80.8939 109.505C80.8194 110.347 80.6943 111.186 80.5124 112.022L81.0074 112.134ZM81.4862 107.726C81.4867 107.657 81.4872 107.588 81.4872 107.519C81.4872 106.721 81.4477 105.922 81.3747 105.124L80.8706 105.171C80.942 105.956 80.9805 106.738 80.9805 107.519C80.9805 107.586 80.98 107.654 80.9795 107.721L81.4862 107.726ZM81.1543 103.315C81.0261 102.464 80.864 101.614 80.675 100.764L80.181 100.878C80.3675 101.718 80.5271 102.556 80.6537 103.394L81.1543 103.315ZM80.2464 99.0006C80.028 98.17 79.7883 97.3404 79.5335 96.5129L79.0501 96.6675C79.303 97.4893 79.5406 98.3122 79.7569 99.1345L80.2464 99.0006ZM78.9817 94.7891C78.7117 93.973 78.4305 93.1584 78.1447 92.3464L77.6679 92.5211C77.9532 93.331 78.2329 94.142 78.5019 94.9545L78.9817 94.7891ZM77.5398 90.6453C77.2489 89.8333 76.9571 89.0239 76.6708 88.2186L76.1946 88.3943C76.4813 89.2017 76.7732 90.0111 77.064 90.8226L77.5398 90.6453ZM76.0745 86.5181C75.7923 85.7004 75.5207 84.8868 75.2648 84.0784L74.7825 84.2371C75.0399 85.0512 75.3135 85.8689 75.5962 86.6897L76.0745 86.5181ZM74.7455 82.3572C74.5074 81.524 74.2915 80.696 74.1051 79.8747L73.6116 79.991C73.8006 80.8237 74.0189 81.661 74.2591 82.5019L74.7455 82.3572ZM73.7519 78.1173C73.604 77.2634 73.4915 76.4173 73.414 75.5799L72.9098 75.629C72.9884 76.4803 73.1029 77.3399 73.2534 78.2072L73.7519 78.1173ZM73.2995 73.7921C73.2873 73.4349 73.2812 73.0798 73.2812 72.7263C73.2812 72.2254 73.2934 71.7282 73.3182 71.234L72.812 71.2082C72.7872 71.7106 72.7746 72.2166 72.7746 72.7263C72.7746 73.086 72.7806 73.4473 72.7933 73.8102L73.2995 73.7921ZM73.4606 69.4503C73.5548 68.5964 73.6855 67.7544 73.8507 66.9254L73.3542 66.8225C73.186 67.666 73.0527 68.523 72.957 69.3924L73.4606 69.4503ZM74.2535 65.1835C74.4719 64.3565 74.7247 63.5434 75.011 62.7459L74.5352 62.5681C74.2439 63.3801 73.9865 64.2071 73.7646 65.0491L74.2535 65.1835ZM75.6646 61.0821C75.9995 60.299 76.3668 59.532 76.7651 58.782L76.3192 58.5359C75.9149 59.2983 75.541 60.0783 75.2005 60.8753L75.6646 61.0821ZM77.6451 57.2324C78.0849 56.5072 78.5536 55.8001 79.0501 55.1122L78.6418 54.8056C78.1376 55.505 77.6614 56.2234 77.2145 56.9605L77.6451 57.2324ZM80.1283 53.699C80.6588 53.041 81.2146 52.4032 81.7947 51.785L81.4289 51.4273C80.8402 52.0548 80.2758 52.7025 79.7372 53.3703L80.1283 53.699ZM83.0411 50.5238C83.6486 49.9398 84.2784 49.3764 84.9285 48.8347L84.6078 48.4341C83.9486 48.9836 83.3102 49.5552 82.6941 50.1476L83.0411 50.5238ZM86.3152 47.7353C86.9866 47.2287 87.6772 46.7449 88.3845 46.2834L88.1119 45.8482C87.3949 46.3154 86.6947 46.8065 86.0143 47.3197L86.3152 47.7353ZM89.8867 45.3535C90.6107 44.9287 91.3505 44.5265 92.1039 44.1487L91.8805 43.685C91.1169 44.0675 90.3675 44.4748 89.6339 44.9059L89.8867 45.3535ZM93.6989 43.3945C94.465 43.0534 95.2437 42.7371 96.0331 42.4461L95.8608 41.9597C95.0613 42.2549 94.2724 42.5753 93.4962 42.9211L93.6989 43.3945ZM97.6995 41.8744C98.498 41.6207 99.3062 41.3927 100.121 41.1916L100.002 40.6892C99.1759 40.8929 98.3577 41.1239 97.549 41.3808L97.6995 41.8744ZM101.839 40.8091C102.66 40.6463 103.488 40.5104 104.32 40.4024L104.256 39.8896C103.413 39.9992 102.574 40.1367 101.743 40.3016L101.839 40.8091ZM106.068 40.2168C106.902 40.1481 107.739 40.1077 108.578 40.0959L108.571 39.579C107.72 39.5909 106.872 39.6322 106.028 39.7015L106.068 40.2168ZM110.34 40.1036C111.201 40.1191 112.039 40.1507 112.857 40.1982L112.886 39.6824C112.06 39.6343 111.216 39.6022 110.349 39.5867L110.34 40.1036ZM114.615 40.3269C115.468 40.4034 116.301 40.498 117.115 40.6107L117.183 40.0984C116.361 39.9847 115.521 39.8891 114.659 39.8121L114.615 40.3269ZM118.855 40.8841C119.694 41.0319 120.515 41.1999 121.319 41.388L121.433 40.8841C120.619 40.6939 119.789 40.5238 118.941 40.3745L118.855 40.8841ZM123.026 41.8228C123.841 42.0481 124.643 42.2947 125.433 42.5624L125.593 42.0714C124.794 41.8005 123.983 41.5514 123.159 41.324L123.026 41.8228ZM127.093 43.1604C127.877 43.4597 128.652 43.7807 129.424 44.1218L129.626 43.6478C128.846 43.3031 128.063 42.979 127.271 42.6761L127.093 43.1604ZM131.028 44.8646C131.779 45.2269 132.529 45.6094 133.281 46.011L133.516 45.5535C132.759 45.1483 132.003 44.7627 131.245 44.3973L131.028 44.8646ZM134.834 46.8659C135.557 47.2758 136.285 47.7032 137.02 48.1478L137.278 47.7032C136.54 47.2561 135.807 46.8266 135.079 46.4136L134.834 46.8659ZM138.531 49.0802C139.235 49.5216 139.946 49.9785 140.669 50.4499L140.942 50.0147C140.217 49.5418 139.503 49.0833 138.797 48.6398L138.531 49.0802ZM142.153 51.4299C142.845 51.8905 143.547 52.3639 144.262 52.8508L144.543 52.4208C143.827 51.9333 143.123 51.4589 142.431 50.9973L142.153 51.4299ZM145.732 53.8556C146.418 54.326 147.115 54.8072 147.828 55.2998L148.112 54.8718C147.399 54.3792 146.701 53.8975 146.015 53.4266L145.732 53.8556ZM149.293 56.3134C149.977 56.7868 150.675 57.2696 151.387 57.7617L151.671 57.3337C150.959 56.8416 150.262 56.3589 149.578 55.8854L149.293 56.3134ZM152.855 58.7737C153.457 59.1882 154.07 59.609 154.694 60.0359C154.782 60.0954 154.87 60.1548 154.958 60.2142L155.237 59.7827C155.149 59.7242 155.063 59.6653 154.977 59.6064C154.352 59.18 153.74 58.7592 153.138 58.3452L152.855 58.7737ZM156.464 61.1849C157.175 61.6243 157.912 62.0538 158.672 62.474L158.913 62.0197C158.16 61.6031 157.43 61.1777 156.727 60.743L156.464 61.1849ZM160.249 63.315C160.994 63.6975 161.758 64.0717 162.54 64.4361L162.751 63.9662C161.974 63.6039 161.216 63.2328 160.477 62.8534L160.249 63.315ZM164.167 65.17C164.935 65.506 165.719 65.8332 166.517 66.1516L166.702 65.6704C165.908 65.3535 165.129 65.0284 164.366 64.695L164.167 65.17ZM168.179 66.7946C168.966 67.0897 169.764 67.3766 170.574 67.6547L170.736 67.1652C169.93 66.8881 169.136 66.6028 168.354 66.3098L168.179 66.7946ZM172.263 68.2181C173.063 68.477 173.873 68.7277 174.692 68.9696L174.833 68.4734C174.018 68.2325 173.212 67.9829 172.416 67.7255L172.263 68.2181ZM176.402 69.4606C177.213 69.686 178.032 69.9036 178.857 70.1129L178.979 69.6111C178.158 69.4027 177.343 69.1867 176.535 68.9619L176.402 69.4606ZM180.585 70.5357C181.404 70.7301 182.229 70.9162 183.059 71.0934L183.163 70.5874C182.337 70.4106 181.515 70.2256 180.699 70.0323L180.585 70.5357ZM184.797 71.4516C185.624 71.616 186.456 71.7716 187.29 71.9189L187.376 71.4098C186.546 71.263 185.718 71.1079 184.893 70.9441L184.797 71.4516ZM189.041 72.2146C189.876 72.3495 190.713 72.4751 191.551 72.5924L191.62 72.0802C190.786 71.9639 189.952 71.8383 189.12 71.7039L189.041 72.2146ZM193.314 72.825C194.155 72.9299 194.997 73.0255 195.837 73.1124L195.888 72.5981C195.051 72.5118 194.213 72.4167 193.375 72.3122L193.314 72.825ZM197.609 73.2803C198.456 73.3543 199.3 73.4189 200.143 73.4731L200.175 72.9573C199.336 72.903 198.495 72.8389 197.652 72.7655L197.609 73.2803ZM201.917 73.5734C202.765 73.6148 203.612 73.6458 204.453 73.6665L204.465 73.1496C203.628 73.1289 202.786 73.0984 201.941 73.0576L201.917 73.5734ZM206.229 73.6944C206.458 73.6959 206.687 73.6964 206.915 73.6964C207.535 73.6964 208.153 73.6908 208.767 73.6789L208.757 73.162C208.146 73.1739 207.532 73.1796 206.915 73.1796C206.688 73.1796 206.461 73.179 206.233 73.1775L206.229 73.6944ZM210.543 73.6277C211.396 73.5946 212.241 73.5497 213.078 73.4923L213.044 72.9764C212.212 73.0333 211.372 73.0782 210.524 73.1108L210.543 73.6277ZM214.85 73.3517C215.09 73.33 215.329 73.3067 215.567 73.2829C216.179 73.222 216.781 73.1553 217.373 73.0834L217.314 72.5702C216.725 72.6415 216.126 72.7077 215.518 72.7686C215.281 72.7924 215.043 72.8152 214.805 72.8369L214.85 73.3517ZM219.134 72.8513C219.989 72.7294 220.824 72.596 221.64 72.4523L221.555 71.9432C220.743 72.0858 219.913 72.2182 219.064 72.3396L219.134 72.8513ZM223.387 72.1241C224.233 71.9546 225.059 71.7731 225.868 71.5814L225.753 71.0779C224.95 71.2687 224.13 71.4485 223.289 71.6171L223.387 72.1241ZM227.593 71.1477C228.426 70.927 229.24 70.6944 230.037 70.451L229.891 69.9558C229.1 70.1977 228.292 70.4282 227.465 70.6474L227.593 71.1477ZM231.732 69.9082C232.547 69.6353 233.345 69.3511 234.128 69.0559L233.952 68.5711C233.175 68.8642 232.383 69.1464 231.574 69.4172L231.732 69.9082ZM235.786 68.4067C236.58 68.0842 237.36 67.7508 238.127 67.4076L237.924 66.9341C237.162 67.2748 236.387 67.6061 235.599 67.9265L235.786 68.4067ZM239.746 66.6623C240.517 66.2968 241.277 65.9221 242.03 65.5391L241.804 65.0765C241.055 65.4574 240.299 65.8301 239.532 66.1935L239.746 66.6623ZM243.613 64.7157C244.364 64.3172 245.108 63.9115 245.849 63.4995L245.607 63.0457C244.868 63.4566 244.127 63.8608 243.379 64.2572L243.613 64.7157ZM247.4 62.6265C248.134 62.2083 248.867 61.785 249.602 61.3576L249.35 60.9084C248.617 61.3358 247.886 61.7581 247.153 62.1753L247.4 62.6265ZM251.138 60.4592C251.865 60.0328 252.595 59.6038 253.331 59.1722L253.078 58.7241C252.342 59.1557 251.612 59.5852 250.886 60.0111L251.138 60.4592ZM254.866 58.2749C255.592 57.8531 256.324 57.4303 257.067 57.007L256.82 56.5558C256.075 56.9801 255.342 57.404 254.616 57.8263L254.866 58.2749ZM258.614 56.1335C259.344 55.7257 260.084 55.3189 260.838 54.9126L260.601 54.4557C259.845 54.863 259.102 55.2713 258.371 55.6802L258.614 56.1335ZM262.406 54.081C263.144 53.6949 263.896 53.3108 264.663 52.9294L264.441 52.4647C263.671 52.8477 262.916 53.2333 262.175 53.621L262.406 54.081H262.406ZM266.257 52.1515C266.871 51.8574 267.496 51.5653 268.131 51.2754C268.271 51.2113 268.412 51.1477 268.554 51.0847L268.352 50.6107C268.209 50.6748 268.066 50.7388 267.924 50.804C267.286 51.095 266.659 51.3886 266.042 51.6837L266.257 52.1515ZM270.182 50.3946C270.956 50.0824 271.744 49.7863 272.545 49.5071L272.381 49.0182C271.573 49.2999 270.777 49.5986 269.996 49.9139L270.182 50.3946ZM274.222 48.9541C275.021 48.705 275.829 48.4724 276.647 48.2578L276.521 47.7575C275.696 47.9741 274.88 48.2082 274.074 48.4594L274.222 48.9541ZM278.362 47.8382C279.178 47.6516 280.002 47.4825 280.832 47.3332L280.743 46.824C279.906 46.975 279.075 47.1455 278.251 47.3332L278.362 47.8382ZM282.573 47.0473C283.403 46.9248 284.237 46.8215 285.073 46.7382L285.024 46.2239C284.18 46.3077 283.338 46.4121 282.5 46.5356L282.573 47.0473ZM286.831 46.5925C287.67 46.5377 288.509 46.5025 289.348 46.4891L289.34 45.9722C288.493 45.9862 287.645 46.0208 286.799 46.0766L286.831 46.5925ZM291.111 46.4927C291.952 46.5098 292.791 46.5485 293.626 46.6106L293.663 46.0952C292.818 46.0327 291.971 45.9929 291.121 45.9759L291.111 46.4927ZM295.381 46.7755C296.217 46.8711 297.048 46.9905 297.872 47.1347L297.958 46.625C297.124 46.4793 296.283 46.3583 295.437 46.2622L295.381 46.7755ZM299.602 47.4763C300.423 47.6572 301.237 47.8645 302.041 48.0987L302.18 47.6014C301.365 47.3642 300.541 47.1543 299.708 46.9708L299.602 47.4763ZM303.721 48.6326C304.516 48.907 305.3 49.2094 306.07 49.5407L306.267 49.0647C305.485 48.7282 304.69 48.4212 303.883 48.1426L303.721 48.6326ZM307.671 50.2814C308.424 50.6551 309.161 51.0583 309.882 51.4925L310.14 51.0474C309.407 50.606 308.657 50.1961 307.893 49.8168L307.671 50.2814ZM311.368 52.4476C311.57 52.5867 311.771 52.7278 311.97 52.872C312.462 53.2276 312.928 53.5956 313.37 53.9761L313.697 53.5812C313.244 53.1914 312.767 52.8141 312.264 52.4502C312.061 52.304 311.856 52.1597 311.651 52.0186L311.368 52.4476ZM314.655 55.184C315.253 55.798 315.797 56.4384 316.294 57.1021L316.697 56.7884C316.187 56.1071 315.627 55.4497 315.014 54.8196L314.655 55.184ZM317.29 58.5664C317.736 59.2885 318.133 60.0349 318.488 60.8019L318.947 60.5812C318.584 59.7961 318.176 59.0316 317.719 58.2909L317.29 58.5664H317.29ZM319.173 62.4456C319.468 63.2374 319.724 64.0479 319.946 64.8744L320.435 64.7379C320.209 63.8965 319.948 63.07 319.646 62.2621L319.173 62.4456ZM320.36 66.6158C320.533 67.4448 320.676 68.2873 320.795 69.1407L321.297 69.0683C321.176 68.2041 321.031 67.3502 320.855 66.5082L320.36 66.6158ZM321.007 70.9249C321.092 71.7711 321.156 72.6255 321.203 73.4861L321.709 73.4566C321.661 72.5893 321.597 71.7271 321.511 70.8727L321.007 70.9249ZM321.281 75.2853C321.308 76.1402 321.322 76.9993 321.328 77.8604L321.835 77.8573C321.829 76.9926 321.815 76.1289 321.788 75.2688L321.281 75.2853ZM321.329 79.6648C321.324 80.5254 321.315 81.386 321.303 82.2451L321.81 82.2518C321.821 81.3927 321.831 80.5306 321.836 79.6674L321.329 79.6648ZM321.278 84.0521C321.267 84.9183 321.257 85.7805 321.252 86.6364L321.759 86.639C321.764 85.7857 321.773 84.9245 321.785 84.0593L321.278 84.0521ZM321.254 88.4471C321.26 89.3195 321.276 90.1833 321.306 91.0361L321.813 91.0175C321.783 90.1708 321.767 89.3118 321.761 88.4434L321.254 88.4471ZM321.395 92.8488C321.441 93.5714 321.5 94.2841 321.575 94.9855C321.591 95.1354 321.609 95.2853 321.627 95.4347L322.13 95.3716C322.112 95.2243 322.095 95.077 322.079 94.9292C322.004 94.2361 321.946 93.5311 321.901 92.8157L321.395 92.8488ZM321.893 97.236C322.044 98.092 322.231 98.9402 322.457 99.7765L322.945 99.639C322.723 98.8187 322.54 97.986 322.392 97.1445L321.893 97.236ZM322.993 101.518C323.277 102.337 323.604 103.14 323.979 103.926L324.434 103.7C324.069 102.933 323.749 102.146 323.471 101.345L322.993 101.518ZM324.827 105.534C325.26 106.294 325.711 107.026 326.177 107.732L326.597 107.444C326.137 106.746 325.692 106.024 325.265 105.274L324.827 105.534ZM327.204 109.216C327.714 109.92 328.239 110.598 328.777 111.254L329.166 110.922C328.634 110.274 328.115 109.604 327.611 108.909L327.204 109.216ZM329.946 112.623C330.519 113.27 331.105 113.894 331.698 114.501L332.057 114.136C331.468 113.535 330.889 112.917 330.322 112.277L329.946 112.623ZM332.974 115.766C333.593 116.361 334.22 116.941 334.851 117.509L335.186 117.121C334.559 116.557 333.936 115.981 333.322 115.389L332.974 115.766ZM336.195 118.694C336.841 119.254 337.491 119.805 338.141 120.35L338.462 119.951C337.814 119.407 337.167 118.858 336.522 118.3L336.195 118.694ZM339.513 121.495C340.17 122.04 340.825 122.583 341.474 123.126L341.795 122.726C341.145 122.182 340.49 121.639 339.833 121.094L339.513 121.495ZM342.84 124.278C343.489 124.832 344.13 125.389 344.76 125.955L345.094 125.567C344.46 124.997 343.816 124.438 343.165 123.882L342.84 124.278ZM346.072 127.161C346.689 127.744 347.294 128.337 347.882 128.946L348.243 128.584C347.648 127.968 347.038 127.369 346.416 126.782L346.072 127.161ZM349.09 130.248C349.651 130.879 350.194 131.528 350.715 132.199L351.112 131.878C350.583 131.197 350.033 130.539 349.465 129.901L349.09 130.248ZM351.77 133.631C352.248 134.319 352.704 135.032 353.136 135.772L353.571 135.509C353.132 134.755 352.669 134.031 352.182 133.332L351.77 133.631ZM353.986 137.336C354.362 138.079 354.714 138.849 355.039 139.652L355.507 139.454C355.177 138.638 354.819 137.854 354.436 137.099L353.986 137.336ZM355.661 141.324C355.928 142.108 356.171 142.922 356.387 143.768L356.878 143.638C356.658 142.779 356.411 141.952 356.14 141.154L355.661 141.324ZM356.787 145.512C356.951 146.323 357.093 147.163 357.211 148.033L357.713 147.962C357.594 147.081 357.45 146.23 357.283 145.407L356.787 145.512ZM357.413 149.814C357.49 150.64 357.546 151.492 357.579 152.371L358.086 152.351C358.052 151.462 357.995 150.601 357.917 149.765L357.413 149.814ZM357.618 154.168C357.618 154.255 357.618 154.342 357.618 154.429C357.618 155.205 357.573 155.963 357.484 156.704L357.987 156.767C358.078 156.005 358.125 155.226 358.125 154.429C358.125 154.341 358.125 154.254 358.125 154.166L357.618 154.168ZM357.187 158.453C357.004 159.285 356.765 160.094 356.474 160.882L356.948 161.064C357.248 160.255 357.493 159.422 357.682 158.566L357.187 158.453ZM355.782 162.51C355.419 163.267 355.005 164.003 354.546 164.717L354.969 165.001C355.44 164.269 355.864 163.515 356.237 162.737L355.782 162.51ZM353.528 166.169C353.023 166.832 352.478 167.477 351.895 168.103L352.262 168.459C352.856 167.822 353.413 167.164 353.928 166.486L353.528 166.169ZM350.647 169.362C350.043 169.935 349.407 170.492 348.743 171.031L349.059 171.436C349.733 170.888 350.378 170.323 350.992 169.74L350.647 169.362ZM347.341 172.117C346.669 172.612 345.974 173.092 345.258 173.557L345.529 173.993C346.254 173.523 346.958 173.037 347.638 172.536L347.341 172.117ZM343.753 174.495C343.035 174.924 342.299 175.34 341.549 175.742L341.785 176.2C342.542 175.793 343.284 175.374 344.009 174.94L343.753 174.495ZM339.974 176.557C339.223 176.932 338.46 177.294 337.687 177.645L337.892 178.117C338.671 177.764 339.44 177.399 340.197 177.022L339.974 176.557ZM336.063 178.357C335.29 178.685 334.509 179.003 333.721 179.309L333.901 179.792C334.694 179.484 335.48 179.165 336.258 178.834L336.063 178.357ZM332.063 179.934C331.27 180.224 330.472 180.504 329.672 180.773L329.83 181.264C330.634 180.993 331.436 180.713 332.234 180.421L332.063 179.934ZM327.987 181.324C327.179 181.58 326.371 181.826 325.565 182.063L325.705 182.56C326.515 182.323 327.326 182.075 328.138 181.818L327.987 181.324ZM323.86 182.549C323.04 182.775 322.223 182.992 321.413 183.199L321.535 183.701C322.349 183.493 323.169 183.275 323.993 183.047L323.86 182.548V182.549ZM319.692 183.626C318.861 183.826 318.038 184.016 317.225 184.197L317.333 184.702C318.148 184.521 318.975 184.33 319.809 184.129L319.692 183.626ZM315.492 184.571C314.65 184.747 313.821 184.913 313.009 185.068L313.103 185.576C313.917 185.42 314.748 185.254 315.594 185.077L315.492 184.571ZM311.267 185.391C310.41 185.545 309.576 185.686 308.77 185.817L308.85 186.328C309.658 186.197 310.494 186.054 311.354 185.9L311.267 185.391Z" fill="#AEC7EB"/>
<path d="M306.737 186.132C306.31 186.195 305.893 186.256 305.487 186.312L305.555 186.824C305.963 186.768 306.381 186.708 306.81 186.644L306.737 186.132Z" fill="#AEC7EB"/>
<path d="M52.0864 97.7874H59.313V97.2705H52.0864V97.7874Z" fill="#AEC7EB"/>
<path d="M59.313 101.888H66.5397V101.371H59.313V101.888Z" fill="#AEC7EB"/>
<path d="M272.615 65.5825H279.841V65.0657H272.615V65.5825Z" fill="#AEC7EB"/>
<path d="M268.028 69.6829H275.255V69.166H268.028V69.6829Z" fill="#AEC7EB"/>
<path d="M279.041 67.7268H288.861V67.2099H279.041V67.7268Z" fill="#AEC7EB"/>
<path d="M342.063 152.97H347.263V152.453H342.063V152.97Z" fill="#AEC7EB"/>
<path d="M337.348 148.916H344.575V148.399H337.348V148.916Z" fill="#AEC7EB"/>
<path d="M103.125 45.6799H110.351V45.163H103.125V45.6799Z" fill="#AEC7EB"/>
<path d="M91.3535 134.52H103.236V134.003H91.3535V134.52Z" fill="#AEC7EB"/>
<path d="M105.746 134.52H111.914V134.003H105.746V134.52Z" fill="#AEC7EB"/>
<path d="M244.57 118.802H244.317C244.317 119.388 244.084 119.917 243.708 120.302C243.331 120.686 242.812 120.923 242.238 120.923C241.663 120.923 241.144 120.686 240.768 120.302C240.391 119.917 240.159 119.388 240.159 118.802C240.159 118.215 240.391 117.687 240.768 117.302C241.144 116.918 241.663 116.681 242.238 116.681C242.812 116.681 243.331 116.918 243.708 117.302C244.084 117.687 244.317 118.215 244.317 118.802H244.57H244.823C244.823 117.345 243.666 116.164 242.238 116.164C240.809 116.164 239.652 117.345 239.652 118.802C239.652 120.259 240.809 121.439 242.238 121.44C243.666 121.439 244.823 120.259 244.823 118.802H244.57Z" fill="#AEC7EB"/>
<path d="M336.239 102.337H335.986C335.986 102.923 335.753 103.452 335.377 103.836C335 104.221 334.482 104.458 333.907 104.458C333.331 104.458 332.814 104.221 332.437 103.836C332.06 103.452 331.828 102.924 331.828 102.337C331.828 101.75 332.06 101.222 332.437 100.837C332.814 100.453 333.331 100.216 333.907 100.216C334.482 100.216 335 100.453 335.377 100.837C335.753 101.222 335.986 101.75 335.986 102.337H336.239H336.493C336.493 100.88 335.335 99.6994 333.907 99.6989C332.478 99.6989 331.321 100.88 331.321 102.337C331.321 103.794 332.478 104.975 333.907 104.975C335.335 104.975 336.493 103.794 336.493 102.337H336.239Z" fill="#AEC7EB"/>
<path d="M249.649 51.0394H249.396C249.395 51.6255 249.163 52.1543 248.786 52.5388C248.409 52.9234 247.891 53.1601 247.316 53.1601C246.742 53.1601 246.223 52.9234 245.846 52.5388C245.469 52.1543 245.237 51.6255 245.237 51.0394C245.237 50.4527 245.469 49.924 245.846 49.5394C246.223 49.1554 246.741 48.9186 247.316 48.9186C247.891 48.9186 248.409 49.1554 248.787 49.5394C249.163 49.924 249.395 50.4527 249.396 51.0394H249.649H249.902C249.902 49.5823 248.744 48.4018 247.316 48.4018C245.888 48.4018 244.731 49.5823 244.731 51.0394C244.731 52.4959 245.888 53.677 247.316 53.677C248.744 53.677 249.902 52.4959 249.902 51.0394H249.649Z" fill="#AEC7EB"/>
<path d="M295.222 54.6023H294.969C294.968 55.1135 294.562 55.527 294.062 55.528C293.561 55.527 293.155 55.1135 293.155 54.6023C293.155 54.0916 293.561 53.6781 294.062 53.6771C294.562 53.6781 294.968 54.0916 294.969 54.6023H295.222H295.475C295.475 53.8058 294.843 53.1602 294.062 53.1602C293.281 53.1602 292.648 53.8058 292.648 54.6023C292.648 55.3993 293.281 56.0444 294.062 56.0449C294.843 56.0444 295.475 55.3993 295.475 54.6023H295.222Z" fill="#AEC7EB"/>
<path d="M224.278 143.543H224.025C224.024 144.053 223.619 144.467 223.118 144.468C222.618 144.467 222.212 144.053 222.211 143.543C222.212 143.032 222.618 142.619 223.118 142.618C223.619 142.619 224.024 143.032 224.025 143.543H224.278H224.532C224.532 142.746 223.899 142.101 223.118 142.101C222.337 142.101 221.705 142.746 221.705 143.543C221.705 144.339 222.337 144.985 223.118 144.985C223.899 144.985 224.532 144.339 224.532 143.543H224.278Z" fill="#AEC7EB"/>
<path d="M89.4479 58.637H89.1946C89.1941 59.1477 88.7887 59.5612 88.2876 59.5622C87.787 59.5612 87.3817 59.1477 87.3807 58.637C87.3817 58.1258 87.787 57.7123 88.2876 57.7113C88.7887 57.7123 89.1941 58.1258 89.1946 58.637H89.4479H89.7012C89.7012 57.8405 89.0689 57.1949 88.2876 57.1944C87.5069 57.1949 86.8745 57.84 86.874 58.637C86.8745 59.4335 87.5069 60.0791 88.2876 60.0791C89.0689 60.0791 89.7012 59.4335 89.7012 58.637H89.4479Z" fill="#AEC7EB"/>
<path d="M37.0041 132.606H36.7508C36.7497 133.117 36.3446 133.53 35.8437 133.531C35.343 133.53 34.9377 133.117 34.9368 132.606C34.9377 132.095 35.3432 131.682 35.8437 131.681C36.3444 131.682 36.7497 132.095 36.7508 132.606H37.0041H37.2574C37.2572 131.81 36.6249 131.164 35.8437 131.164C35.0627 131.164 34.4304 131.81 34.4302 132.606C34.4304 133.403 35.0629 134.048 35.8437 134.048C36.6247 134.048 37.2572 133.403 37.2574 132.606H37.0041Z" fill="#AEC7EB"/>
<path d="M94.1601 108.356H93.9067C93.9057 108.867 93.5004 109.28 92.9998 109.281C92.4987 109.28 92.0934 108.867 92.0928 108.356C92.0934 107.845 92.4987 107.432 92.9998 107.431C93.5004 107.432 93.9057 107.845 93.9067 108.356H94.1601H94.4134C94.4134 107.559 93.7806 106.914 92.9998 106.914C92.219 106.914 91.5862 107.559 91.5862 108.356C91.5862 109.153 92.219 109.798 92.9998 109.798C93.7806 109.798 94.4134 109.153 94.4134 108.356H94.1601Z" fill="#AEC7EB"/>
<path d="M58.1013 74.4265H58.608V71.6251H58.1013V74.4265Z" fill="#AEC7EB"/>
<path d="M56.9817 73.2842H59.7278V72.7673H56.9817V73.2842Z" fill="#AEC7EB"/>
<path d="M218.755 37.0532H219.262V34.2518H218.755V37.0532Z" fill="#AEC7EB"/>
<path d="M217.635 35.9109H220.381V35.394H217.635V35.9109Z" fill="#AEC7EB"/>
<path d="M305.184 80.3784H305.691V77.577H305.184V80.3784Z" fill="#AEC7EB"/>
<path d="M304.064 79.2363H306.811V78.7195H304.064V79.2363Z" fill="#AEC7EB"/>
<path d="M350.082 117.823H350.589V115.022H350.082V117.823Z" fill="#AEC7EB"/>
<path d="M348.963 116.681H351.709V116.164H348.963V116.681Z" fill="#AEC7EB"/>
<path d="M337.095 166.998H337.602V164.197H337.095V166.998Z" fill="#AEC7EB"/>
<path d="M335.975 165.856H338.721V165.339H335.975V165.856Z" fill="#AEC7EB"/>
<path d="M236.243 129.908C231.678 128.554 229.053 123.682 230.379 119.025C231.706 114.368 236.482 111.69 241.047 113.043C245.612 114.396 248.237 119.269 246.911 123.926C245.584 128.583 240.808 131.261 236.243 129.908ZM235.388 132.91C229.197 131.075 225.637 124.468 227.436 118.152C229.235 111.837 235.712 108.205 241.902 110.04C248.093 111.875 251.653 118.483 249.854 124.798C248.055 131.113 241.579 134.745 235.388 132.91ZM258.745 133.15C259.622 131.575 260.339 129.875 260.857 128.06C261.374 126.244 261.661 124.417 261.747 122.607L256.868 121.918C256.908 120.238 256.72 118.584 256.331 116.992L260.952 115.231C259.987 111.657 258.208 108.355 255.767 105.609L251.833 108.646C250.724 107.457 249.456 106.409 248.044 105.544L250.09 100.971C248.546 100.075 246.88 99.3436 245.099 98.8158C243.319 98.2881 241.528 97.9956 239.755 97.9072L239.079 102.886C237.433 102.845 235.811 103.036 234.25 103.433L232.524 98.7192C229.021 99.7033 225.785 101.519 223.092 104.008L226.069 108.021C224.904 109.152 223.877 110.447 223.028 111.887L218.545 109.801C217.668 111.375 216.951 113.075 216.433 114.891C215.916 116.706 215.629 118.534 215.542 120.343L220.423 121.033C220.383 122.712 220.57 124.367 220.96 125.959L216.338 127.72C217.304 131.293 219.082 134.595 221.523 137.341L225.456 134.305C226.566 135.493 227.834 136.542 229.246 137.407L227.201 141.98C228.745 142.875 230.411 143.607 232.191 144.135C233.97 144.662 235.762 144.955 237.535 145.043L238.211 140.064C239.857 140.106 241.48 139.914 243.04 139.517L244.766 144.231C248.269 143.248 251.506 141.432 254.198 138.943L251.221 134.929C252.386 133.798 253.414 132.504 254.262 131.064L258.745 133.15Z" fill="#E8EFF9"/>
<path d="M253.838 90.3339C251.296 91.1966 248.55 89.7943 247.705 87.2011C246.859 84.6085 248.234 81.807 250.775 80.9443C253.317 80.0817 256.063 81.4839 256.909 84.0771C257.755 86.6698 256.38 89.4712 253.838 90.3339ZM263.685 84.6338C263.608 83.7427 263.433 82.8464 263.143 81.9605C262.855 81.0746 262.469 80.2502 262.007 79.4898L259.834 80.6058C259.389 79.9116 258.858 79.2934 258.262 78.7574L259.656 76.7199C258.281 75.544 256.651 74.7108 254.904 74.2927L254.14 76.6522C253.363 76.4868 252.559 76.4232 251.747 76.4759L251.321 74.0321C250.448 74.1102 249.569 74.2895 248.701 74.5842C247.833 74.8788 247.024 75.2721 246.279 75.744L247.373 77.9604C246.693 78.4147 246.086 78.9564 245.561 79.5643L243.564 78.1423C242.411 79.5446 241.594 81.2079 241.185 82.9901L243.497 83.7691C243.335 84.5625 243.274 85.3822 243.324 86.2103L240.929 86.6444C241.006 87.5355 241.181 88.4318 241.47 89.3177C241.759 90.2037 242.145 91.0281 242.607 91.7884L244.78 90.6725C245.225 91.3666 245.756 91.9848 246.352 92.5208L244.958 94.5583C246.333 95.7347 247.963 96.5674 249.71 96.9856L250.473 94.626C251.251 94.792 252.055 94.855 252.866 94.8028L253.292 97.2461C254.166 97.168 255.044 96.9892 255.913 96.6946C256.781 96.3995 257.589 96.0061 258.335 95.5347L257.241 93.3178C257.921 92.8635 258.527 92.3218 259.053 91.714L261.049 93.1359C262.203 91.7341 263.019 90.0703 263.429 88.2886L261.116 87.5092C261.279 86.7163 261.341 85.8965 261.289 85.0685L263.685 84.6338Z" fill="#E8EFF9"/>
<path d="M128.945 76.6098C125.055 77.9299 120.853 75.7838 119.558 71.8153C118.264 67.8467 120.368 63.5592 124.258 62.2391C128.148 60.9185 132.35 63.065 133.645 67.0336C134.94 71.0022 132.835 75.2892 128.945 76.6098ZM144.015 67.8854C143.898 66.5219 143.629 65.1501 143.187 63.7944C142.745 62.4386 142.155 61.1764 141.447 60.0129L138.122 61.7212C137.44 60.6585 136.628 59.7116 135.715 58.8918L137.849 55.7735C135.745 53.9732 133.25 52.6986 130.576 52.0592L129.407 55.6701C128.218 55.4163 126.987 55.3197 125.745 55.3998L125.093 51.6597C123.756 51.779 122.412 52.0535 121.083 52.5042C119.754 52.9555 118.516 53.5576 117.376 54.2792L119.05 57.672C118.009 58.3672 117.081 59.1962 116.278 60.1271L113.22 57.95C111.456 60.0961 110.206 62.6422 109.579 65.3698L113.119 66.5622C112.871 67.7759 112.775 69.0308 112.854 70.2982L109.188 70.9629C109.305 72.327 109.574 73.6982 110.016 75.0545C110.458 76.4103 111.048 77.6725 111.756 78.8355L115.081 77.1277C115.763 78.1899 116.575 79.1368 117.488 79.9566L115.354 83.0749C117.458 84.8752 119.953 86.1503 122.627 86.7897L123.796 83.1788C124.986 83.4326 126.216 83.5292 127.458 83.4491L128.11 87.1887C129.447 87.0698 130.791 86.7954 132.12 86.3447C133.449 85.8934 134.687 85.2913 135.827 84.5692L134.153 81.1769C135.194 80.4817 136.123 79.6521 136.926 78.7218L139.983 80.8983C141.748 78.7523 142.997 76.2066 143.624 73.4791L140.084 72.2866C140.333 71.0725 140.428 69.818 140.349 68.5507L144.015 67.8854Z" fill="#E8EFF9"/>
<path d="M97.9519 94.304C95.3659 93.5369 93.8783 90.7768 94.6302 88.1387C95.3811 85.5005 98.0872 83.9835 100.673 84.75C103.259 85.5171 104.746 88.2772 103.994 90.9153C103.244 93.5535 100.538 95.0705 97.9519 94.304ZM97.4675 96.0045C93.9604 94.9651 91.9438 91.2224 92.9627 87.6445C93.9817 84.0672 97.6504 82.0101 101.158 83.0495C104.664 84.089 106.681 87.8317 105.662 91.4095C104.643 94.9868 100.974 97.0439 97.4675 96.0045ZM110.698 96.1405C111.195 95.2483 111.602 94.2859 111.895 93.2568C112.188 92.2287 112.35 91.1934 112.399 90.1685L109.635 89.7777C109.657 88.8266 109.552 87.889 109.331 86.9871L111.949 85.99C111.402 83.9654 110.394 82.0948 109.011 80.5391L106.783 82.2592C106.155 81.5862 105.436 80.9924 104.637 80.5024L105.796 77.9118C104.921 77.4047 103.977 76.9902 102.969 76.6909C101.96 76.3922 100.946 76.2262 99.9406 76.1761L99.558 78.9962C98.6253 78.9734 97.7067 79.082 96.8225 79.3068L95.8447 76.6361C93.8606 77.1938 92.0269 78.2219 90.5024 79.6319L92.1886 81.9052C91.5284 82.5466 90.9462 83.2795 90.4654 84.0952L87.9265 82.9136C87.4294 83.8057 87.0226 84.7681 86.7297 85.7972C86.4369 86.8253 86.2742 87.8606 86.2251 88.8856L88.99 89.2763C88.9672 90.2274 89.0736 91.165 89.294 92.0669L86.676 93.064C87.2227 95.0886 88.2305 96.9592 89.6132 98.515L91.8415 96.7948C92.4693 97.4678 93.1882 98.0617 93.9877 98.5517L92.8295 101.142C93.704 101.649 94.6479 102.064 95.6562 102.363C96.6645 102.662 97.6788 102.828 98.684 102.878L99.0666 100.058C99.9993 100.081 100.918 99.9726 101.802 99.7472L102.779 102.418C104.764 101.86 106.598 100.832 108.122 99.4221L106.437 97.1489C107.096 96.5074 107.678 95.7745 108.159 94.9589L110.698 96.1405Z" fill="#E8EFF9"/>
<path d="M160.941 237.815C163.837 232.41 162.818 209.302 161.366 202.064C160.357 197.032 158.287 192.123 155.455 188.106C152.889 184.466 145.219 176.441 140.706 179.702C138.095 181.588 142.049 188.381 143.092 190.421C146.475 197.034 149.156 204.105 151.252 211.377C153.676 219.79 155.51 228.631 156.166 237.478C156.174 237.59 156.181 237.703 156.189 237.815" fill="#DCE6F6"/>
<path d="M161.471 237.815C160.516 224.875 161.128 205.017 166.845 193.8C173.329 181.081 181.781 175.208 183.008 180.165C186.566 194.543 172.288 233.214 168.267 237.815" fill="#B8CFEE"/>
<path d="M144.741 184.022C150.346 189.123 153.223 197.153 154.96 204.956C157.356 215.712 158.509 226.739 158.888 237.824L159.394 237.806C159.015 226.696 157.859 215.636 155.454 204.842C153.704 196.997 150.815 188.866 145.079 183.636L144.741 184.022Z" fill="white"/>
<path d="M179.134 185.504C172.148 201.878 166.248 219.582 165.26 237.801L165.766 237.83C166.748 219.706 172.623 202.057 179.598 185.71L179.134 185.504Z" fill="white"/>
<path d="M300.225 237.774C301.74 217.337 300.052 197.293 307.684 177.927C309.849 172.43 314.785 163.759 321.611 163.463C332.153 163.005 325.698 184.612 323.788 192.698C322.56 197.897 320.729 203.069 318.826 208.042C315.453 216.858 310.38 229.184 306.546 237.774" fill="#B8CFEE"/>
<path d="M294.752 237.774C291.432 229.11 288.185 220.417 284.902 211.74C281.99 204.043 278.601 196.517 276.249 188.61C274.457 182.592 269.829 168.8 276.605 164.561C288.671 157.012 298.313 186.223 299.586 196.598C301.264 210.273 300.902 224.028 301.103 237.774" fill="#DCE6F6"/>
<path d="M285.164 237.774C285.164 237.774 278.113 228.585 274.933 224.275C267.829 214.65 259.07 204.196 260.378 193.375C260.679 190.885 261.573 188.113 264.026 186.64C265.525 185.74 267.388 185.489 269.091 185.655C274.864 186.216 280.035 194.768 282.632 199.152C287.718 207.738 295.593 237.774 295.593 237.774" fill="#B8CFEE"/>
<path d="M279.543 170.731C283.834 179.584 288.084 192.234 291.282 204.725C294.481 217.216 296.629 229.558 296.73 237.777L297.237 237.77C297.132 229.472 294.977 217.114 291.772 204.595C288.566 192.076 284.312 179.407 279.997 170.503L279.543 170.731" fill="white"/>
<path d="M266.166 191.129C269.951 198.547 275.694 210.237 280.491 220.072C282.889 224.99 285.051 229.444 286.613 232.668C287.394 234.28 288.025 235.586 288.461 236.487C288.897 237.389 289.137 237.887 289.138 237.888L289.592 237.66C289.592 237.659 274.191 205.737 266.615 190.891L266.166 191.129Z" fill="white"/>
<path d="M320.941 168.057C314.746 182.156 306.279 212.629 302.863 237.78L303.364 237.851C306.769 212.761 315.24 182.287 321.404 168.269L320.941 168.057Z" fill="white"/>
<path d="M306.844 237.774C306.844 237.774 310.367 221.758 312.807 212.666C315.459 202.779 324.136 187.648 333.257 183.349C335.357 182.359 337.888 181.679 339.918 182.808C341.16 183.499 342.005 184.78 342.463 186.145C344.016 190.77 336.421 205.375 333.81 209.474C328.695 217.501 321.37 230.254 315.562 237.774" fill="#DCE6F6"/>
<path d="M338.06 186.373C332.618 191.198 326.319 201.209 320.851 211.429C315.387 221.649 310.77 232.065 308.747 237.685L309.222 237.863C311.231 232.282 315.844 221.872 321.296 211.677C326.745 201.482 333.051 191.489 338.393 186.764L338.06 186.373Z" fill="white"/>
<path d="M72.8394 227.809C71.4582 220.34 69.1934 205.529 67.4753 196.441C66.6439 192.042 64.2372 186.669 62.7101 182.497C59.9234 174.884 53.1898 161.654 44.8398 162.361C34.4792 163.238 42.8521 182.239 45.4907 189.413C47.1871 194.024 49.4718 198.537 51.8066 202.859C55.9466 210.52 62.0844 221.189 66.6535 228.587" fill="#B8CFEE"/>
<path d="M78.82 219.749C76.2918 213.003 76.9748 204.423 76.9834 197.283C76.9986 184.433 81.3726 166.368 89.575 157.936C92.956 154.459 98.5506 150.594 102.185 155.908C105.627 160.94 101.647 174.617 100.394 180.493C97.9386 192.002 86.1804 213.316 82.7837 224.459L78.82 219.749Z" fill="#B8CFEE"/>
<path d="M95.9248 161.69C90.0885 177.137 82.2539 205.27 80.2485 221.713L80.7512 221.776C82.7439 205.415 90.578 177.273 96.3975 161.876L95.9248 161.69Z" fill="white"/>
<path d="M45.501 166.749C52.8647 178.83 63.6917 204.788 69.4104 227.351L69.9009 227.221C64.1634 204.597 53.3384 178.634 45.9312 166.477L45.501 166.749Z" fill="white"/>
<path d="M73.1343 211.479C76.2417 206.29 79.9277 189.45 80.7688 183.431C81.9508 174.967 82.078 166.026 80.024 157.689C78.6383 152.064 72.2958 135.237 64.3376 142.825C60.6004 146.389 61.1968 165.811 61.6421 171.01C62.5136 181.191 67.6831 199.422 69.4575 209.481L73.1343 211.479Z" fill="#DCE6F6"/>
<path d="M68.5083 147.258C69.9579 151.108 70.9302 156.528 71.5346 162.632C72.1401 168.736 72.3808 175.528 72.3808 182.136C72.3808 193.594 71.6572 204.508 70.8668 210.348L71.3689 210.418C72.1639 204.539 72.8869 193.617 72.8869 182.136C72.8869 175.515 72.6462 168.709 72.0388 162.58C71.4308 156.45 70.4585 151 68.981 147.072L68.5083 147.258Z" fill="white"/>
<path d="M152.957 91.7068C154.511 90.1417 158.285 84.8535 158.713 84.9837C159.142 85.114 157.838 86.9918 158.21 87.0316C158.582 87.0719 160.779 84.3206 161.173 84.5671C161.707 84.9016 159.309 87.596 159.309 87.596C159.309 87.596 162.08 84.7785 162.461 85.205C162.731 85.5073 160.713 87.7573 160.047 88.7156C160.899 87.7702 162.454 86.4057 162.729 86.7256C163 87.0425 161.659 88.6039 160.693 89.8563C161.367 89.1322 162.663 87.8824 162.93 88.1656C163.196 88.4484 159.949 93.491 156.975 97.1707" fill="#F466BA"/>
<path d="M133.163 111.022C146.391 99.4924 155.266 88.9502 155.266 88.9502L160.234 92.3353C160.234 92.3353 151.896 105.522 140.983 116.87L133.163 111.022Z" fill="#F466BA"/>
<path d="M129.212 114.877C131.944 111.377 136.457 107.991 136.457 107.991L144.469 114.599L137.437 123.016" fill="#C11E49"/>
<path d="M143.016 174.829L138.774 231.814L143.792 235.074C143.792 235.074 129.999 235.805 129.551 235.345C129.103 234.884 130.117 231.728 130.117 231.728L127.814 174.694L143.016 174.829Z" fill="#F466BA"/>
<path d="M131.875 174.525L119.364 231.814L124.383 235.074C124.383 235.074 110.59 235.805 110.142 235.345C109.693 234.884 110.707 231.728 110.707 231.728L114.364 174.525H131.875Z" fill="#F466BA"/>
<path d="M118.722 144.973C111.839 157.33 111.852 180.319 111.852 180.319H143.758C143.758 180.319 143.318 160.127 139.755 148.75L118.722 144.973Z" fill="#1F244E"/>
<path d="M129.193 146.088L129.988 180.324L130.368 180.314L129.573 146.079" fill="#293A7B"/>
<path d="M136.266 147.452L136.249 147.493C136.062 147.929 134.363 151.617 129.335 152.948L129.431 153.323C132.193 152.592 133.992 151.164 135.097 149.918C136.201 148.673 136.613 147.609 136.62 147.594L136.266 147.452Z" fill="#293A7B"/>
<path d="M164.654 132.958C166.75 133.58 173.116 134.368 173.213 134.813C173.31 135.259 171.067 135.011 171.214 135.362C171.361 135.713 174.787 136.33 174.768 136.802C174.741 137.44 171.267 136.616 171.267 136.616C171.267 136.616 175.029 137.713 174.849 138.26C174.721 138.647 171.813 137.945 170.668 137.819C171.891 138.117 173.818 138.839 173.677 139.239C173.538 139.635 171.548 139.2 170.005 138.949C170.953 139.198 172.655 139.744 172.542 140.119C172.43 140.494 167.518 139.78 162.919 138.922" fill="#F466BA"/>
<path d="M127.12 111.574C127.12 111.574 127.646 112.95 130.509 112.95C132.511 112.95 133.264 111.88 133.264 111.88C133.264 111.88 134.001 112.554 141.883 123.107C143.552 125.342 143.192 130.162 140.402 134.331C139.742 138.516 139.496 143.393 139.755 148.75H116.943C116.943 148.75 116.545 132.03 118.122 122.911C119.056 117.517 123.02 113.229 127.12 111.574Z" fill="#E12555"/>
<path d="M142.189 118.802C157.389 130.969 167.93 133.609 167.93 133.609L166.69 139.57C166.69 139.57 148.434 137.208 136.443 126.926" fill="#F466BA"/>
<path fill-rule="evenodd" clip-rule="evenodd" d="M133.362 112.283C137.262 112.952 143.246 118.807 143.246 118.807L136.895 128.319C136.895 128.319 134.198 126.414 130.543 123.21" fill="#E12555"/>
<path d="M136.994 127.796C134.621 126.322 132.904 125.046 131.78 124.14C131.218 123.686 130.805 123.326 130.533 123.079C130.396 122.956 130.295 122.861 130.229 122.796C130.163 122.733 130.132 122.701 130.131 122.701L129.864 122.976C129.873 122.986 132.025 125.163 136.796 128.126L136.994 127.796Z" fill="#A21647"/>
<path fill-rule="evenodd" clip-rule="evenodd" d="M135.065 101.268C136.651 103.942 137.307 106.616 135.084 107.988C132.863 109.359 129.29 110.041 127.018 106.233C125.425 103.564 125.948 100.28 128.169 98.9088C130.392 97.5376 133.479 98.5935 135.065 101.268Z" fill="#F466BA"/>
<path d="M133.218 101.952C133.291 102.223 133.501 102.543 133.764 102.533C133.839 102.531 133.894 102.484 133.918 102.414C134.071 101.952 133.064 101.385 133.218 101.952Z" fill="#161A34"/>
<path d="M132.269 101.796C132.658 101.24 133.16 101.019 133.688 100.953C133.757 100.944 133.807 100.88 133.798 100.809C133.79 100.738 133.727 100.688 133.657 100.696C133.081 100.765 132.493 101.025 132.063 101.647C132.023 101.705 132.036 101.786 132.093 101.827C132.15 101.869 132.229 101.855 132.27 101.796" fill="#161A34"/>
<path d="M135.669 104.316L134.198 105.066C134.198 105.066 134.717 106.36 135.512 106.118C136.175 105.916 135.669 104.316 135.669 104.316Z" fill="white"/>
<path fill-rule="evenodd" clip-rule="evenodd" d="M133.362 112.283C133.362 112.283 132.092 112.991 130.509 112.95C128.215 112.892 127.12 111.955 127.12 111.955L128.634 105.358L134.198 105.773L133.362 112.283Z" fill="#F466BA"/>
<path fill-rule="evenodd" clip-rule="evenodd" d="M134.529 101.39C134.529 101.39 136.429 102.686 136.496 103.031C136.563 103.376 135.759 103.875 135.759 103.875" fill="#F466BA"/>
<path d="M129.212 97.0672C129.007 97.1732 128.298 96.9778 128.04 96.9778C127.679 96.9783 127.317 97.0047 126.962 97.0714C124.843 97.4652 123.26 99.2541 122.263 101.095C121.608 102.303 121.057 103.646 119.865 104.413C117.244 106.098 113.805 105.495 110.868 106.503C107.881 107.529 105.592 110.622 106.394 113.923C106.655 115.003 107.212 115.986 107.539 117.048C108.238 119.314 107.911 121.951 109.245 123.898C109.603 124.42 110.065 124.861 110.562 125.247C112.793 126.975 115.828 127.571 118.529 126.808C121.229 126.046 123.532 123.945 124.575 121.292C125.761 118.277 125.39 114.683 127.12 111.955C127.928 110.681 129.134 109.708 129.937 108.431C130.67 107.263 131.056 105.065 131.144 103.659C131.164 103.334 130.594 100.633 130.765 100.633C132.137 100.633 133.894 99.7622 134.706 98.9352C133.672 96.6207 131.033 96.1255 129.212 97.0672Z" fill="#161A34"/>
<path d="M130.693 104.012C130.693 104.012 129.896 103.448 129.372 104.247C128.695 105.279 130.326 106.583 131.111 106.643C131.895 106.703 131.875 105.834 131.875 105.834" fill="#F466BA"/>
<path d="M251.904 155.213H301.512V87.6302H251.904V155.213Z" fill="#DDE7F7"/>
<path d="M301.512 155.213V154.955H252.157V87.8885H301.258V155.213H301.512V154.955V155.213H301.765V87.3716H251.651V155.472H301.765V155.213H301.512Z" fill="#6886CC"/>
<path d="M259.313 155.213H308.921V87.6302H259.313V155.213Z" fill="white"/>
<path d="M308.921 155.213V154.955H259.567V87.8885H308.668V155.213H308.921V154.955V155.213H309.174V87.3716H259.06V155.472H309.174V155.213H308.921Z" fill="#6886CC"/>
<path d="M300.709 101.723H267.927C266.921 101.723 266.106 100.891 266.106 99.8645V94.7464C266.106 93.7204 266.921 92.8882 267.927 92.8882H300.709C301.714 92.8882 302.53 93.7204 302.53 94.7464V99.8645C302.53 100.891 301.714 101.723 300.709 101.723Z" fill="#F1F5FC"/>
<path d="M285.248 149.639H267.927C266.921 149.639 266.106 148.807 266.106 147.781V126.66C266.106 125.634 266.921 124.802 267.927 124.802H285.248C286.254 124.802 287.069 125.634 287.069 126.66V147.781C287.069 148.807 286.254 149.639 285.248 149.639Z" fill="#F1F5FC"/>
<path d="M268.823 110.513C268.823 110.513 268.608 110.513 267.718 110.513C266.827 110.513 266.106 109.547 266.106 108.356C266.106 107.165 266.827 106.199 267.718 106.199C267.886 106.199 268.823 106.199 268.823 106.199V110.513Z" fill="#B8CFEE"/>
<path d="M270.435 108.356C270.435 109.547 269.713 110.513 268.823 110.513C267.932 110.513 267.211 109.547 267.211 108.356C267.211 107.165 267.932 106.199 268.823 106.199C269.713 106.199 270.435 107.165 270.435 108.356Z" fill="#DCE6F6"/>
<path d="M279.521 110.513C279.521 110.513 279.307 110.513 278.416 110.513C277.526 110.513 276.804 109.547 276.804 108.356C276.804 107.165 277.526 106.199 278.416 106.199C278.585 106.199 279.521 106.199 279.521 106.199V110.513Z" fill="#B8CFEE"/>
<path d="M281.133 108.356C281.133 109.547 280.412 110.513 279.521 110.513C278.631 110.513 277.91 109.547 277.91 108.356C277.91 107.165 278.631 106.199 279.521 106.199C280.412 106.199 281.133 107.165 281.133 108.356Z" fill="#DCE6F6"/>
<path d="M290.22 110.513C290.22 110.513 290.005 110.513 289.115 110.513C288.224 110.513 287.502 109.547 287.502 108.356C287.502 107.165 288.224 106.199 289.115 106.199C289.283 106.199 290.22 106.199 290.22 106.199V110.513Z" fill="#B8CFEE"/>
<path d="M291.831 108.356C291.831 109.547 291.11 110.513 290.22 110.513C289.329 110.513 288.608 109.547 288.608 108.356C288.608 107.165 289.329 106.199 290.22 106.199C291.11 106.199 291.831 107.165 291.831 108.356Z" fill="#DCE6F6"/>
<path d="M300.918 110.513C300.918 110.513 300.703 110.513 299.813 110.513C298.923 110.513 298.201 109.547 298.201 108.356C298.201 107.165 298.923 106.199 299.813 106.199C299.982 106.199 300.918 106.199 300.918 106.199V110.513Z" fill="#B8CFEE"/>
<path d="M302.53 108.356C302.53 109.547 301.809 110.513 300.918 110.513C300.028 110.513 299.306 109.547 299.306 108.356C299.306 107.165 300.028 106.199 300.918 106.199C301.809 106.199 302.53 107.165 302.53 108.356Z" fill="#DCE6F6"/>
<path d="M268.823 120.959C268.823 120.959 268.608 120.959 267.718 120.959C266.827 120.959 266.106 119.993 266.106 118.802C266.106 117.611 266.827 116.645 267.718 116.645C267.886 116.645 268.823 116.645 268.823 116.645V120.959Z" fill="#B8CFEE"/>
<path d="M270.435 118.802C270.435 119.993 269.713 120.959 268.823 120.959C267.932 120.959 267.211 119.993 267.211 118.802C267.211 117.611 267.932 116.645 268.823 116.645C269.713 116.645 270.435 117.611 270.435 118.802Z" fill="#DCE6F6"/>
<path d="M279.521 120.959C279.521 120.959 279.307 120.959 278.416 120.959C277.526 120.959 276.804 119.993 276.804 118.802C276.804 117.611 277.526 116.645 278.416 116.645C278.585 116.645 279.521 116.645 279.521 116.645V120.959Z" fill="#B8CFEE"/>
<path d="M281.133 118.802C281.133 119.993 280.412 120.959 279.521 120.959C278.631 120.959 277.91 119.993 277.91 118.802C277.91 117.611 278.631 116.645 279.521 116.645C280.412 116.645 281.133 117.611 281.133 118.802Z" fill="#DCE6F6"/>
<path d="M290.22 120.959C290.22 120.959 290.005 120.959 289.115 120.959C288.224 120.959 287.502 119.993 287.502 118.802C287.502 117.611 288.224 116.645 289.115 116.645C289.283 116.645 290.22 116.645 290.22 116.645V120.959Z" fill="#B8CFEE"/>
<path d="M291.831 118.802C291.831 119.993 291.11 120.959 290.22 120.959C289.329 120.959 288.608 119.993 288.608 118.802C288.608 117.611 289.329 116.645 290.22 116.645C291.11 116.645 291.831 117.611 291.831 118.802Z" fill="#DCE6F6"/>
<path d="M300.918 120.959C300.918 120.959 300.703 120.959 299.813 120.959C298.923 120.959 298.201 119.993 298.201 118.802C298.201 117.611 298.923 116.645 299.813 116.645C299.982 116.645 300.918 116.645 300.918 116.645V120.959Z" fill="#B8CFEE"/>
<path d="M302.53 118.802C302.53 119.993 301.809 120.959 300.918 120.959C300.028 120.959 299.306 119.993 299.306 118.802C299.306 117.611 300.028 116.645 300.918 116.645C301.809 116.645 302.53 117.611 302.53 118.802Z" fill="#DCE6F6"/>
<path d="M63.5259 237.815H147.715V172.004H84.7101L63.5259 197.276V237.815Z" fill="white"/>
<path d="M63.5258 237.816V238.074H147.968V171.746H84.5935L63.2725 197.181V238.074H63.5258V237.816H63.7791V197.372L84.8266 172.263H147.461V237.557H63.5258V237.816H63.7791H63.5258Z" fill="#6886CC"/>
<path d="M123.816 237.815H154.835V172.004H144.572L123.816 197.276V237.815Z" fill="#DDE7F7"/>
<path d="M123.816 237.816V238.074H155.089V171.746H144.454L123.562 197.182V238.074H123.816V237.816H124.069V197.37L144.69 172.263H154.582V237.557H123.816V237.816H124.069H123.816Z" fill="#6886CC"/>
<path d="M129.21 179.384C129.787 179.923 130.967 179.561 131.847 178.574C132.726 177.587 132.971 176.351 132.394 175.812C132.002 175.446 131.198 174.695 131.198 174.695L128.013 178.268C128.013 178.268 128.632 178.845 129.21 179.384Z" fill="#B8CFEE"/>
<path d="M128.089 178.338C128.666 178.876 129.847 178.514 130.726 177.527C131.606 176.541 131.85 175.304 131.273 174.765C130.696 174.226 129.516 174.589 128.636 175.576C127.757 176.562 127.512 177.799 128.089 178.338Z" fill="#DCE6F6"/>
<path d="M119.825 179.384C120.402 179.923 121.583 179.561 122.462 178.574C123.341 177.587 123.586 176.351 123.009 175.812C122.617 175.446 121.813 174.695 121.813 174.695L118.629 178.268C118.629 178.268 119.248 178.845 119.825 179.384Z" fill="#B8CFEE"/>
<path d="M118.704 178.338C119.281 178.876 120.462 178.514 121.342 177.527C122.221 176.541 122.465 175.304 121.889 174.765C121.312 174.226 120.131 174.589 119.252 175.576C118.372 176.562 118.127 177.799 118.704 178.338Z" fill="#DCE6F6"/>
<path d="M100.508 179.384C101.085 179.923 102.266 179.561 103.146 178.574C104.025 177.587 104.269 176.351 103.692 175.812C103.301 175.446 102.497 174.695 102.497 174.695L99.3123 178.268C99.3123 178.268 99.9309 178.845 100.508 179.384Z" fill="#B8CFEE"/>
<path d="M99.3877 178.338C99.9648 178.876 101.145 178.514 102.025 177.527C102.905 176.541 103.149 175.304 102.572 174.765C101.995 174.226 100.815 174.589 99.935 175.576C99.0554 176.562 98.8107 177.799 99.3877 178.338Z" fill="#DCE6F6"/>
<path d="M90.5571 179.384C91.1342 179.923 92.3152 179.561 93.1943 178.574C94.0733 177.587 94.3186 176.351 93.7415 175.812C93.3498 175.446 92.5452 174.695 92.5452 174.695L89.3613 178.268C89.3613 178.268 89.98 178.845 90.5571 179.384Z" fill="#B8CFEE"/>
<path d="M89.4368 178.338C90.0134 178.876 91.1944 178.514 92.074 177.527C92.9531 176.541 93.1978 175.304 92.6207 174.765C92.0441 174.226 90.8631 174.589 89.984 175.576C89.1044 176.562 88.8592 177.799 89.4368 178.338Z" fill="#DCE6F6"/>
<path d="M123.097 192.67H71.6731L75.501 188.249H126.443L123.097 192.67Z" fill="#F1F5FC"/>
<path d="M179.181 161.926V216.888C179.181 218.147 178.682 219.284 177.873 220.109C177.064 220.934 175.95 221.443 174.716 221.443H144.745C143.511 221.443 142.396 220.934 141.588 220.109C140.779 219.284 140.28 218.147 140.28 216.888V215.312H139.773V216.888C139.773 219.689 141.999 221.96 144.745 221.96H174.716C177.462 221.96 179.688 219.689 179.688 216.888V161.926H179.181Z" fill="#6886CC"/>
<path d="M186.609 164.448V227.242C186.609 228.526 186.099 229.687 185.274 230.529C184.448 231.371 183.31 231.891 182.05 231.892H134.399C133.166 231.891 132.051 231.382 131.242 230.558C130.434 229.732 129.935 228.595 129.935 227.337V215.312H129.428V227.337C129.428 230.138 131.654 232.408 134.399 232.409H182.05C184.848 232.408 187.116 230.095 187.116 227.242V164.448H186.609Z" fill="#6886CC"/>
<path d="M200.092 163.397V199.826C200.092 202.627 202.318 204.897 205.064 204.897H242.283C245.029 204.897 247.255 202.627 247.255 199.826V137.419C247.255 136.161 247.754 135.024 248.563 134.199C249.372 133.374 250.486 132.865 251.72 132.865H267.067V132.348H251.72C248.975 132.348 246.749 134.618 246.749 137.419V199.826C246.749 201.084 246.249 202.222 245.441 203.047C244.632 203.871 243.517 204.381 242.283 204.381H205.064C203.83 204.381 202.715 203.871 201.907 203.047C201.098 202.222 200.599 201.084 200.599 199.826V163.397H200.092Z" fill="#6886CC"/>
<path d="M194.108 164.448V215.506C194.109 218.307 196.335 220.579 199.08 220.579H267.415C270.161 220.579 272.386 218.307 272.386 215.506V144.523H271.88V215.506C271.88 216.765 271.381 217.902 270.572 218.728C269.763 219.552 268.649 220.062 267.415 220.062H199.08C197.847 220.062 196.732 219.552 195.923 218.728C195.115 217.902 194.616 216.765 194.615 215.506V164.448H194.108Z" fill="#6886CC"/>
<path d="M145.603 84.5527C145.603 59.539 165.48 39.2609 190 39.2609C214.52 39.2609 234.397 59.539 234.397 84.5527C234.397 94.5238 231.236 103.74 225.884 111.221C219.547 120.964 203.081 131.963 203.081 138.552V146.081C203.081 147.583 201.886 148.802 200.413 148.802H193.279H186.722H179.586C178.114 148.802 176.92 147.583 176.92 146.081V138.552C176.92 131.963 160.453 120.964 154.116 111.221C148.764 103.74 145.603 94.5238 145.603 84.5527Z" fill="#F8D208"/>
<path d="M169.993 86.0155C168.968 86.0155 168.015 86.2734 167.176 86.7851C164.92 88.1615 163.644 92.0857 164.208 95.9142C165.217 102.763 170.863 110.019 183.477 111.873C182.758 104.312 181.526 97.3919 179.464 93.2833C177.705 89.7768 174.904 87.1717 171.973 86.3137C171.292 86.1142 170.629 86.0155 169.993 86.0155ZM210.007 86.0155C209.371 86.0155 208.708 86.1142 208.027 86.3137C205.096 87.1717 202.295 89.7768 200.536 93.2833C198.475 97.3919 197.242 104.312 196.523 111.873C209.137 110.019 214.783 102.763 215.792 95.9142C216.356 92.0857 215.081 88.1615 212.824 86.7851C211.985 86.2734 211.032 86.0155 210.007 86.0155ZM195.041 148.052C194.99 146.916 194.195 128.735 195.622 112.801C193.874 113.012 192.001 113.125 190 113.125C187.999 113.125 186.127 113.012 184.379 112.801C185.805 128.735 185.01 146.916 184.958 148.052L184.175 148.013C184.188 147.734 185.011 128.929 183.553 112.693C170.385 110.825 164.491 103.215 163.433 96.0325C162.814 91.835 164.219 87.6571 166.774 86.0987C168.324 85.1533 170.197 84.9616 172.19 85.5451C175.326 86.4631 178.306 89.2196 180.162 92.9189C182.305 97.1914 183.573 104.285 184.303 111.986C186.069 112.207 187.966 112.326 190 112.326C192.035 112.326 193.931 112.207 195.697 111.986C196.428 104.285 197.694 97.1914 199.839 92.9189C201.694 89.2196 204.675 86.4631 207.81 85.5451C209.804 84.9621 211.677 85.1533 213.227 86.0987C215.781 87.6571 217.186 91.835 216.568 96.0325C215.509 103.215 209.615 110.825 196.447 112.693C194.989 128.929 195.812 147.734 195.825 148.013L195.041 148.052Z" fill="white"/>
<path d="M227.005 87.1516C225.599 87.1516 224.458 85.9881 224.458 84.5528C224.458 68.4371 213.778 54.423 198.486 50.4735C197.122 50.1215 196.296 48.7079 196.641 47.3164C196.986 45.9245 198.371 45.0815 199.736 45.435C217.292 49.9691 229.552 66.0548 229.552 84.5528C229.552 85.9881 228.412 87.1516 227.005 87.1516Z" fill="#FCF181"/>
<path d="M189.145 46.7302C189.145 48.1656 190.285 49.3291 191.692 49.3291C193.099 49.3291 194.239 48.1656 194.239 46.7302C194.239 45.2949 193.099 44.1319 191.692 44.1319C190.285 44.1319 189.145 45.2949 189.145 46.7302Z" fill="#FCF181"/>
<path d="M217.689 120.647C220.873 117.498 223.883 114.297 225.884 111.221C225.894 111.208 225.904 111.194 225.914 111.18C225.904 111.194 225.894 111.208 225.884 111.221C223.883 114.297 220.873 117.498 217.689 120.647Z" fill="#E2CB82"/>
<path d="M176.92 138.552C176.92 131.963 160.453 120.963 154.116 111.221C154.106 111.208 154.096 111.194 154.086 111.18C154.096 111.194 154.106 111.208 154.116 111.221C160.453 120.963 176.92 131.963 176.92 138.552Z" fill="#FCDA83"/>
<path d="M225.925 111.165C225.931 111.156 225.937 111.147 225.944 111.138C225.937 111.147 225.931 111.156 225.925 111.165Z" fill="#E2CB82"/>
<path d="M154.071 111.158C154.067 111.152 154.062 111.146 154.057 111.139C154.062 111.146 154.067 111.152 154.071 111.158Z" fill="#FCDA83"/>
<path d="M225.958 111.119C225.963 111.111 225.968 111.104 225.974 111.097C225.968 111.104 225.963 111.111 225.958 111.119Z" fill="#E2CB82"/>
<path d="M154.038 111.112C154.035 111.108 154.032 111.103 154.029 111.099C154.032 111.103 154.035 111.108 154.038 111.112Z" fill="#FCDA83"/>
<path d="M225.989 111.075C225.994 111.068 225.998 111.062 226.003 111.056C225.998 111.062 225.994 111.069 225.989 111.075Z" fill="#E2CB82"/>
<path d="M154.006 111.067C154.004 111.065 154.002 111.062 154 111.059C154.002 111.062 154.004 111.064 154.006 111.067Z" fill="#FCDA83"/>
<path d="M226.021 111.03C226.024 111.026 226.028 111.021 226.031 111.015C226.028 111.02 226.024 111.026 226.021 111.03Z" fill="#E2CB82"/>
<path d="M153.976 111.024C153.975 111.023 153.974 111.021 153.972 111.019C153.974 111.021 153.975 111.023 153.976 111.024Z" fill="#FCDA83"/>
<path d="M226.05 110.988C226.053 110.984 226.056 110.98 226.059 110.976C226.056 110.98 226.053 110.984 226.05 110.988ZM226.081 110.944C226.083 110.942 226.084 110.94 226.085 110.938C226.084 110.94 226.083 110.942 226.081 110.944Z" fill="#E2CB82"/>
<path d="M200.414 148.802H179.587C178.114 148.802 176.92 147.583 176.92 146.081V138.552C176.92 131.963 160.453 120.964 154.116 111.221C154.106 111.208 154.096 111.194 154.086 111.18C154.081 111.173 154.076 111.166 154.071 111.158C154.066 111.152 154.062 111.146 154.057 111.139C154.051 111.13 154.044 111.121 154.038 111.112C154.035 111.108 154.032 111.103 154.029 111.099C154.021 111.088 154.014 111.078 154.006 111.067C154.004 111.064 154.002 111.062 154 111.059C153.992 111.047 153.984 111.036 153.976 111.024C153.975 111.023 153.973 111.021 153.972 111.02C149.188 104.253 146.195 96.0832 145.688 87.2312C148.469 103.613 160.829 122.103 184.257 124.716C184.658 136.994 184.185 147.802 184.175 148.013L184.958 148.052C184.997 147.198 185.456 136.719 185.076 124.8C186.667 124.951 188.309 125.029 190 125.029C191.689 125.029 193.331 124.954 194.924 124.811C194.544 136.724 195.002 147.198 195.041 148.052L195.825 148.013C195.815 147.802 195.342 137.002 195.742 124.73C219.243 122.23 232.04 104.449 234.312 87.2312C233.806 96.047 230.837 104.187 226.085 110.938C226.084 110.94 226.083 110.942 226.081 110.944C226.074 110.954 226.067 110.965 226.059 110.975C226.056 110.98 226.053 110.984 226.05 110.988C226.044 110.997 226.038 111.006 226.031 111.015C226.028 111.02 226.024 111.026 226.02 111.03C226.014 111.039 226.008 111.047 226.002 111.056C225.998 111.062 225.994 111.068 225.989 111.075C225.983 111.082 225.978 111.089 225.973 111.096C225.968 111.104 225.963 111.111 225.958 111.119C225.953 111.125 225.949 111.131 225.944 111.138C225.937 111.147 225.931 111.156 225.925 111.165C225.921 111.17 225.918 111.175 225.914 111.18C225.904 111.194 225.894 111.208 225.884 111.221C223.883 114.297 220.873 117.498 217.689 120.647C210.791 127.469 203.081 134.043 203.081 138.552V146.081C203.081 147.583 201.886 148.802 200.414 148.802Z" fill="#F9AF0B"/>
<path d="M195.041 148.052C195.002 147.198 194.544 136.724 194.924 124.811C195.197 124.786 195.471 124.759 195.742 124.73C195.342 137.002 195.815 147.802 195.825 148.013L195.041 148.052ZM184.958 148.052L184.175 148.013C184.185 147.802 184.658 136.994 184.257 124.716C184.528 124.746 184.802 124.774 185.076 124.8C185.456 136.719 184.997 147.198 184.958 148.052Z" fill="#FCDA83"/>
<path d="M204.13 141.767H175.87V155.506C175.87 157.75 176.496 159.947 177.675 161.842C179.903 165.423 183.772 167.592 187.929 167.592H192.072C196.229 167.592 200.097 165.423 202.325 161.842C203.504 159.947 204.13 157.75 204.13 155.506V141.767Z" fill="#273148"/>
<path d="M175.868 151.032C175.949 151.035 176.03 151.032 176.113 151.023L204.372 148.035C205.337 147.933 206.01 147.048 205.877 146.059C205.743 145.071 204.851 144.351 203.888 144.454L175.629 147.443C174.664 147.544 173.99 148.429 174.124 149.418C174.246 150.322 175.002 151.001 175.868 151.032Z" fill="#424E77"/>
<path d="M175.868 157.321C175.949 157.323 176.03 157.321 176.113 157.312L204.372 154.323C205.337 154.221 206.01 153.337 205.877 152.348C205.743 151.359 204.851 150.64 203.888 150.742L175.629 153.731C174.664 153.833 173.99 154.717 174.124 155.706C174.246 156.611 175.002 157.29 175.868 157.321Z" fill="#424E77"/>
<path d="M176.997 163.545C177.077 163.548 177.159 163.545 177.241 163.537L204.028 160.703C204.992 160.601 205.666 159.717 205.532 158.728C205.399 157.739 204.505 157.019 203.543 157.122L176.757 159.955C175.792 160.057 175.118 160.941 175.252 161.931C175.374 162.835 176.13 163.514 176.997 163.545Z" fill="#424E77"/>
<path d="M189.24 20.0337V34.2664C189.24 34.6944 189.58 35.0417 190 35.0417C190.42 35.0417 190.76 34.6944 190.76 34.2664V20.0337C190.76 19.6057 190.42 19.2584 190 19.2584C189.58 19.2584 189.24 19.6057 189.24 20.0337Z" fill="#FAB92C"/>
<path d="M215.16 25.7028L209.525 38.7229L215.16 25.7028Z" fill="#FBC941"/>
<path d="M214.464 25.3894L208.83 38.4095C208.66 38.8013 208.834 39.2593 209.218 39.4319C209.602 39.6051 210.051 39.4278 210.22 39.036L215.855 26.0153C216.024 25.6241 215.851 25.1661 215.467 24.993C215.082 24.8203 214.634 24.9976 214.464 25.3894Z" fill="#FAB92C"/>
<path d="M236.365 41.45L226.056 51.0396L236.365 41.45Z" fill="#FBC941"/>
<path d="M235.853 40.8766L225.544 50.4663C225.233 50.7547 225.211 51.2452 225.494 51.5615C225.777 51.8778 226.258 51.9006 226.568 51.6122L236.877 42.0225C237.187 41.7341 237.209 41.2436 236.926 40.9273C236.644 40.611 236.163 40.5882 235.853 40.8766Z" fill="#FAB92C"/>
<path d="M164.84 25.7028L170.475 38.7229L164.84 25.7028Z" fill="#FBC941"/>
<path d="M164.145 26.0154L169.78 39.0361C169.949 39.4273 170.398 39.6051 170.782 39.432C171.166 39.2594 171.34 38.8014 171.17 38.4096L165.536 25.3895C165.366 24.9977 164.917 24.8204 164.533 24.993C164.15 25.1662 163.976 25.6241 164.145 26.0154Z" fill="#FAB92C"/>
<path d="M143.635 41.45L153.944 51.0396L143.635 41.45Z" fill="#FBC941"/>
<path d="M143.123 42.0225L153.432 51.6122C153.742 51.9006 154.223 51.8778 154.505 51.5615C154.788 51.2452 154.766 50.7547 154.456 50.4663L144.147 40.8766C143.837 40.5882 143.356 40.611 143.073 40.9273C142.79 41.2441 142.813 41.7341 143.123 42.0225Z" fill="#FAB92C"/>
<path d="M273.095 144.523C273.095 145.065 272.664 145.504 272.133 145.504C271.603 145.504 271.173 145.065 271.173 144.523C271.173 143.982 271.603 143.543 272.133 143.543C272.664 143.543 273.095 143.982 273.095 144.523Z" fill="#6886CC"/>
<path d="M278.51 144.523C278.51 145.065 278.08 145.504 277.549 145.504C277.018 145.504 276.587 145.065 276.587 144.523C276.587 143.982 277.018 143.543 277.549 143.543C278.08 143.543 278.51 143.982 278.51 144.523Z" fill="#6886CC"/>
<path d="M283.925 144.523C283.925 145.065 283.495 145.504 282.964 145.504C282.433 145.504 282.002 145.065 282.002 144.523C282.002 143.982 282.433 143.543 282.964 143.543C283.495 143.543 283.925 143.982 283.925 144.523Z" fill="#6886CC"/>
<path d="M268.028 132.606C268.028 133.148 267.598 133.586 267.067 133.586C266.536 133.586 266.106 133.148 266.106 132.606C266.106 132.065 266.536 131.625 267.067 131.625C267.598 131.625 268.028 132.065 268.028 132.606Z" fill="#6886CC"/>
<path d="M217.635 190.006C217.635 201.177 226.512 210.233 237.463 210.233C248.414 210.233 257.292 201.177 257.292 190.006C257.292 178.834 248.414 169.778 237.463 169.778C226.512 169.778 217.635 178.834 217.635 190.006Z" fill="#F1416D"/>
<path d="M223.118 190.006C223.118 198.087 229.541 204.639 237.463 204.639C245.385 204.639 251.808 198.087 251.808 190.006C251.808 181.923 245.385 175.372 237.463 175.372C229.541 175.372 223.118 181.923 223.118 190.006Z" fill="white"/>
<path d="M227.61 190.006C227.61 195.557 232.021 200.057 237.463 200.057C242.905 200.057 247.316 195.557 247.316 190.006C247.316 184.454 242.905 179.954 237.463 179.954C232.021 179.954 227.61 184.454 227.61 190.006Z" fill="#F1416D"/>
<path d="M232.301 190.006C232.301 192.913 234.612 195.271 237.463 195.271C240.314 195.271 242.624 192.913 242.624 190.006C242.624 187.097 240.314 184.74 237.463 184.74C234.612 184.74 232.301 187.097 232.301 190.006Z" fill="white"/>
<path d="M236.665 190.82H239.905L236.665 187.514V190.82Z" fill="#1A3453"/>
<path d="M257.68 169.381H261.389V168.427H258.615V165.597H257.68V169.381Z" fill="#1A3453"/>
<path d="M259.378 167.649H263.087V166.695H260.313V163.866H259.378V167.649Z" fill="#1A3453"/>
<path d="M237.904 190.229L260.33 167.352L259.669 166.678L237.243 189.555L237.904 190.229Z" fill="#1A3453"/>
<path d="M84.971 153.914L82.5253 158.652C82.5253 158.652 80.8569 158.652 78.5551 157.493C76.2695 156.342 75.6038 154.756 75.6038 154.756L79.7387 149.176" fill="#F466BA"/>
<path d="M90.171 144.965C92.4455 146.332 88.6885 154.99 86.636 155.538C84.5835 156.086 80.5079 151.995 79.2934 148.528C78.079 145.062 81.9869 143.167 84.2851 142.462C86.5828 141.758 90.171 144.965 90.171 144.965Z" fill="#F466BA"/>
<path d="M88.4838 149.162C88.4062 149.3 88.3343 149.441 88.2679 149.585C88.1863 149.762 88.4447 149.918 88.5268 149.74C88.5983 149.584 88.6641 149.425 88.7224 149.265C88.7746 149.121 88.5562 149.034 88.4838 149.162Z" fill="#243169"/>
<path d="M89.9014 148.21C89.8857 148.181 89.4636 147.57 88.4645 147.571C88.2912 147.571 88.1012 147.589 87.894 147.631C87.7911 147.653 87.7242 147.754 87.745 147.86C87.7653 147.965 87.8656 148.032 87.9684 148.012C88.1524 147.975 88.317 147.959 88.4645 147.959C88.8855 147.96 89.1647 148.084 89.343 148.203C89.4322 148.263 89.495 148.322 89.5345 148.365L89.5766 148.414L89.5852 148.425C89.6435 148.515 89.7615 148.538 89.8487 148.479C89.9358 148.42 89.9596 148.299 89.9014 148.21Z" fill="#243169"/>
<path d="M86.484 152.531L87.931 153.585C87.931 153.585 87.3656 154.701 86.8488 154.267C86.332 153.833 86.484 152.531 86.484 152.531Z" fill="white"/>
<path d="M92.2133 146.862C91.1802 146.522 90.0447 145.881 89.2624 145.48C88.2172 145.701 87.1309 146.701 87.103 147.834C87.0969 148.089 87.0716 148.435 86.8238 148.471C86.6531 148.495 86.5122 148.325 86.4641 148.156C86.4165 147.987 86.4226 147.802 86.3547 147.641C86.2169 147.313 85.7933 147.181 85.4619 147.297C85.1311 147.413 84.8934 147.719 84.7582 148.048C84.4126 148.89 84.1046 149.908 84.8924 150.615C85.015 150.724 85.1584 150.819 85.2375 150.965C85.4087 151.282 85.2066 151.666 85.0044 151.963C84.3777 152.882 83.4353 153.914 81.5869 153.914C80.2873 153.914 78.1284 152.166 77.9861 151.292C77.9734 151.214 76.7295 145.861 79.0379 142.457C80.2757 140.631 82.4554 139.301 84.7283 139.496C86.1322 139.615 87.3579 140.459 88.0454 141.005C91.8358 141.716 92.6485 145.701 92.2133 146.862Z" fill="#202131"/>
<path d="M90.0241 150.022C90.0241 150.022 90.3595 152.619 89.8579 152.902C89.3563 153.186 88.2979 152.447 88.2979 152.447" fill="#F466BA"/>
<path d="M54.1845 189.961C51.6486 196.878 55.7876 206.92 55.7876 206.92L57.9693 223.094L37.2759 222.164L37.4807 236.204C37.4807 236.204 59.6768 237.815 65.0459 237.815C70.4146 237.815 72.4899 236.589 74.0656 233.381C76.413 228.599 73.0391 202.167 73.0391 201.729L69.3551 184.75" fill="#212228"/>
<path d="M116.492 186.384H115.415V174.374H116.492V186.384Z" fill="#6886CC"/>
<path d="M117.939 173.158C117.939 174.277 117.05 175.184 115.953 175.184C114.857 175.184 113.968 174.277 113.968 173.158C113.968 172.04 114.857 171.133 115.953 171.133C117.05 171.133 117.939 172.04 117.939 173.158Z" fill="#6886CC"/>
<path d="M105.989 176.606L109.984 176.907C109.984 176.907 113.054 175.85 114.277 175.823C115.027 175.807 115.415 176.21 115.415 176.21C115.415 176.21 115.415 176.622 115.415 177.442C115.415 178.262 116.492 178.623 116.492 178.066V177.389C116.504 177.434 118.704 178.501 117.415 179.516C118.02 179.643 118.341 180.51 117.193 181.105C117.557 181.359 117.979 182.062 117.137 182.626C117.511 183.205 116.751 183.844 116.148 183.977C115.006 184.229 105.867 184.034 105.867 184.034" fill="#F466BA"/>
<path d="M82.6789 158.208C89.2407 167.468 85.7158 170.469 80.9998 194.091C65.248 194.091 53.1924 191.312 53.1924 191.312C53.1924 191.312 56.9437 178.915 63.8962 165.119C67.2113 158.541 72.7229 155.265 75.8419 154.429" fill="#515FB5"/>
<path d="M72.7229 168.619C72.7229 168.619 82.8628 184.82 87.6817 185.539C95.3329 186.679 107.985 186.359 107.985 186.359L108.74 174.962C108.74 174.962 92.4763 174.123 91.805 173.734C89.6263 172.47 82.6789 158.208 82.6789 158.208" fill="#515FB5"/>
<path d="M83.6411 182.433C83.6411 182.433 83.5509 182.357 83.3822 182.205C82.1991 181.144 77.2267 176.443 73.7798 169.633L73.4424 169.811C77.4233 177.673 83.3882 182.722 83.3984 182.732L83.6411 182.433Z" fill="#293A7B"/>
<path d="M106.205 174.819L105.247 186.384L105.626 186.417L106.584 174.852" fill="#293A7B"/>
<path d="M321.574 156.95C321.328 159.164 319.585 165.459 319.95 165.722C320.315 165.986 320.957 163.779 321.218 164.053C321.477 164.326 320.715 167.788 321.149 167.952C321.737 168.174 322.332 164.585 322.332 164.585C322.332 164.585 321.872 168.549 322.437 168.591C322.837 168.621 323.323 165.612 323.651 164.486C323.448 165.752 323.358 167.844 323.774 167.866C324.186 167.888 324.56 165.846 324.929 164.298C324.787 165.287 324.625 167.099 325.008 167.137C325.39 167.176 326.639 162.277 327.637 157.618" fill="#F466BA"/>
<path d="M328.638 126.579C328.638 126.579 332.15 132.943 332.658 136.849C333.907 146.471 326.081 162.771 326.081 162.771C326.081 162.771 320.393 161.188 320.393 160.46C320.393 159.732 324.357 142.605 324.357 142.605L318.673 129.219" fill="#F466BA"/>
<path d="M311.562 105.682L312.325 112.857C312.325 112.857 308.108 116.505 304.376 112.419L304.832 107.695L311.562 105.682Z" fill="#F466BA"/>
<path d="M305.679 98.4933C305.679 98.4933 301.113 104.907 302.978 107.311C304.354 109.084 307.964 109.286 309.079 108.589C309.319 107.275 312.278 102.934 311.803 101.968C309.991 98.2768 305.679 98.4933 305.679 98.4933Z" fill="#F466BA"/>
<path d="M312.784 99.6026C312.637 97.178 310.293 96.4683 305.795 96.7422C305.193 96.7784 304.121 96.3613 303.842 96.9071C303.477 97.6251 303.412 99.077 304.118 99.7308C304.59 100.167 304.905 100.262 305.526 100.409C306.341 100.603 307.171 101.395 306.738 102.266C306.624 102.494 306.355 102.881 306.525 103.069C306.611 103.164 306.902 103.269 307.013 103.33C307.337 103.507 307.317 104.009 307.115 104.322C306.913 104.635 307.004 104.982 306.8 105.294C306.32 106.034 306.89 107.396 307.638 107.848C308.3 108.248 310.471 108.916 312.06 108.075C313.439 107.346 314.267 105.363 314.278 101.795C314.282 100.428 313.285 99.5096 312.784 99.6026Z" fill="#202131"/>
<path d="M306.175 103.266C306.917 102.307 307.517 102.459 307.845 102.986C308.281 103.688 307.405 105.147 306.998 105.396C306.171 105.901 305.501 105.848 305.438 105.163" fill="#F466BA"/>
<path d="M304.346 101.797C304.134 101.978 303.936 102.304 304.053 102.545C304.086 102.612 304.15 102.645 304.222 102.638C304.699 102.59 304.789 101.421 304.346 101.797Z" fill="#273148"/>
<path d="M304.342 101.091C304.473 101.138 304.656 101.228 304.818 101.345C304.981 101.463 305.122 101.61 305.188 101.755L305.532 101.59C305.422 101.354 305.234 101.172 305.038 101.029C304.842 100.887 304.635 100.786 304.469 100.725L304.342 101.091Z" fill="#273148"/>
<path d="M304.397 105.218L303.355 104.649C303.355 104.649 302.67 105.955 303.155 106.231C303.692 106.536 304.397 105.218 304.397 105.218Z" fill="white"/>
<path d="M324.469 158.435C324.469 158.435 327.038 163.892 324.974 174.334C326.024 197.648 328.757 228.989 328.757 228.989L313.065 228.933C313.065 228.933 309.866 195.243 307.964 178.454C305.845 159.752 304.519 136.849 304.519 136.849" fill="#4268BB"/>
<path d="M315.788 228.914C315.788 228.914 312.588 195.224 310.686 178.431L310.309 178.476C311.259 186.868 312.534 199.488 313.572 210.008C314.091 215.269 314.55 220.005 314.88 223.425C315.044 225.136 315.177 226.517 315.268 227.471C315.36 228.425 315.409 228.95 315.409 228.951L315.788 228.914Z" fill="#243267"/>
<path d="M294.505 159.48C294.505 159.48 292.838 184.058 292.838 195.852C292.838 207.648 292.095 228.989 292.095 228.989H307.957L313.858 173.202C318.691 167.296 318.338 154.48 317.173 149.491L301.446 145.109L294.505 159.48Z" fill="#4268BB"/>
<path d="M310.806 203.857L314.047 173.222L313.858 173.202L313.999 173.331C318.105 168.655 318.1 162.792 318.102 162.771H317.722C317.722 162.771 317.722 162.855 317.714 163.02C317.661 164.176 317.218 169.094 313.716 173.072L313.675 173.119L310.428 203.815L310.806 203.857Z" fill="#243267"/>
<path d="M297.625 157.001L293.872 228.979L294.251 229L298.005 157.021" fill="#243267"/>
<path d="M308.229 163.691L315.933 163.848L315.941 163.46L308.237 163.303" fill="#243267"/>
<path d="M321.432 163.443L324.361 163.381L324.353 162.993L321.424 163.055" fill="#243267"/>
<path d="M281.133 122.042C278.983 119.56 273.212 110.122 272.563 110.271C271.915 110.42 273.662 113.34 273.106 113.361C272.552 113.381 269.565 109.074 268.956 109.399C268.13 109.84 271.421 114.084 271.421 114.084C271.421 114.084 270.132 112.281 269.525 112.875C269.094 113.296 269.322 114.178 270.213 115.669C269.616 114.906 269.051 114.771 268.612 115.217C268.178 115.66 268.608 116.473 269.143 117.295C268.721 116.756 268.105 116.485 267.947 117.047C267.74 117.781 269.485 121.59 273.615 127.803" fill="#F466BA"/>
<path d="M312.247 112.126C312.247 112.126 321.335 112.516 324.061 123.067C325.29 127.825 326.081 160.448 326.081 160.448L292.872 160.221C292.872 160.221 293.314 130.728 294.057 124.342C295.415 112.672 304.422 111.945 304.422 111.945C304.422 111.945 304.832 112.977 308.352 112.977C311.873 112.977 312.247 112.126 312.247 112.126Z" fill="#D8C7BA"/>
<path d="M312.247 112.127C323.033 112.127 329.675 127.242 329.675 127.242L322.893 130.717" fill="#D8C7BA"/>
<path d="M297.998 133.573C297.998 133.573 292.242 142.023 287.595 142.482C281.348 143.098 270.235 121.883 270.235 121.883L277.245 117.052L286.846 129.372L290.121 124.379" fill="#F466BA"/>
<path d="M304.422 111.945C295.135 112.466 288.337 126.579 288.337 126.579L299.212 134.542L305.384 126.329" fill="#D8C7BA"/>
<path d="M298.979 134.38L304.24 127.4L303.938 127.164L298.678 134.143" fill="#7E6064"/>
<path d="M325.162 129.624C324.555 125.157 323.072 121.358 323.069 121.35L322.716 121.493C322.716 121.494 322.739 121.551 322.78 121.662C323.068 122.44 324.262 125.816 324.786 129.677L325.162 129.624Z" fill="#7E6064"/>
<path d="M303.953 102.337C303.953 102.337 302.458 103.07 302.533 103.349C302.608 103.629 303.057 104.306 303.057 104.306" fill="#F466BA"/>
</g>
<defs>
<clipPath id="clip0">
<rect width="380" height="258.438" fill="white"/>
</clipPath>
</defs>
</svg>
