<svg width="80" height="80" viewBox="0 0 80 80" fill="none" xmlns="http://www.w3.org/2000/svg">
<path d="M80 40C80 62.0914 62.0914 80 40 80C17.9086 80 0 62.0914 0 40C0 17.9086 17.9086 0 40 0C62.0914 0 80 17.9086 80 40Z" fill="#62CBE6" fill-opacity="0.4"/>
<path d="M52.7505 14.6875H29.7021C27.5351 14.6875 25.7783 16.374 25.7783 18.4544V63.4206C25.7783 65.501 27.5351 67.1875 29.7021 67.1875H52.7505C54.9175 67.1875 56.6743 65.501 56.6743 63.4206V18.4544C56.6743 16.374 54.9175 14.6875 52.7505 14.6875Z" fill="#E6E7E8"/>
<path d="M50.7978 13.2812H27.7485C25.8514 13.2812 24.3135 14.7577 24.3135 16.5789V61.5461C24.3135 63.3673 25.8514 64.8437 27.7485 64.8437H50.7978C52.695 64.8437 54.2329 63.3673 54.2329 61.5461V16.5789C54.2329 14.7577 52.695 13.2812 50.7978 13.2812Z" fill="#6DC9F7"/>
<path d="M24.3135 18.1699H54.2329V57.8529H24.3135V18.1699Z" fill="#D4FBFF"/>
<path d="M24.3135 18.1699H54.2329V19.5762H24.3135V18.1699Z" fill="white"/>
<path d="M43.4424 15.2434H35.1045C34.8278 15.2434 34.6035 15.4587 34.6035 15.7243V15.8261C34.6035 16.0917 34.8278 16.307 35.1045 16.307H43.4424C43.7191 16.307 43.9434 16.0917 43.9434 15.8261V15.7243C43.9434 15.4587 43.7191 15.2434 43.4424 15.2434Z" fill="#0089EF"/>
<path d="M46.1582 15.1914C46.0379 15.1913 45.9202 15.2255 45.8201 15.2896C45.7199 15.3537 45.6419 15.4449 45.5958 15.5516C45.5496 15.6583 45.5375 15.7758 45.5609 15.8891C45.5844 16.0025 45.6423 16.1066 45.7273 16.1883C45.8124 16.27 45.9208 16.3257 46.0388 16.3483C46.1569 16.3708 46.2792 16.3593 46.3904 16.3151C46.5016 16.2709 46.5967 16.1961 46.6636 16.1C46.7304 16.0039 46.7661 15.891 46.7661 15.7755C46.7662 15.6988 46.7505 15.6229 46.72 15.552C46.6895 15.4811 46.6447 15.4167 46.5882 15.3625C46.5318 15.3083 46.4647 15.2652 46.391 15.2359C46.3172 15.2065 46.2381 15.1914 46.1582 15.1914Z" fill="#0089EF"/>
<path d="M42.0933 59.7593H36.4536C35.7816 59.7593 35.2368 60.2823 35.2368 60.9274V61.1749C35.2368 61.82 35.7816 62.343 36.4536 62.343H42.0933C42.7653 62.343 43.3101 61.82 43.3101 61.1749V60.9274C43.3101 60.2823 42.7653 59.7593 42.0933 59.7593Z" fill="#0089EF"/>
<path d="M35.9141 31.4939V31.5122C35.9136 31.6906 35.8671 31.866 35.7787 32.0229C35.6902 32.1798 35.5626 32.3131 35.4073 32.411C35.2519 32.5089 35.0737 32.5682 34.8886 32.5837C34.7035 32.5992 34.5173 32.5704 34.3467 32.4998L28.0264 29.8702C27.7384 29.7502 27.4933 29.5521 27.321 29.3002C27.1487 29.0483 27.0568 28.7535 27.0566 28.4522V28.4358C27.0566 28.1344 27.1483 27.8397 27.3206 27.5878C27.493 27.3359 27.7383 27.1379 28.0264 27.0183L34.3467 24.3905C34.5171 24.32 34.703 24.2912 34.8878 24.3065C35.0726 24.3218 35.2506 24.3809 35.4059 24.4784C35.5611 24.5759 35.6888 24.7088 35.7775 24.8652C35.8661 25.0217 35.9131 25.1968 35.9141 25.3748V25.4044C35.9138 25.6218 35.8451 25.8341 35.7169 26.0134C35.5887 26.1927 35.4071 26.3305 35.1958 26.4089L29.7422 28.4245L35.2036 30.487C35.4138 30.5667 35.5941 30.7055 35.7208 30.8851C35.8476 31.0648 35.9149 31.2769 35.9141 31.4939Z" fill="#FA759E"/>
<path d="M40.9081 21.9602C40.6394 21.8978 40.3558 21.9404 40.1199 22.0787C39.8839 22.217 39.7148 22.4396 39.6498 22.6975L36.8705 33.7221C36.8369 33.8502 36.8302 33.9835 36.8507 34.1142C36.8711 34.2449 36.9183 34.3704 36.9896 34.4835C37.0609 34.5965 37.1548 34.6949 37.2659 34.773C37.377 34.851 37.5031 34.9071 37.637 34.9381C37.7708 34.969 37.9097 34.9742 38.0456 34.9534C38.1816 34.9325 38.3118 34.886 38.4289 34.8165C38.546 34.747 38.6476 34.656 38.7279 34.5486C38.8081 34.4412 38.8654 34.3196 38.8963 34.1908L41.6756 23.1677C41.7404 22.9099 41.6959 22.6379 41.552 22.4115C41.4081 22.1851 41.1765 22.0228 40.9081 21.9602Z" fill="#FA759E"/>
<path d="M50.5229 29.8492L44.2017 32.4915C44.031 32.5625 43.8446 32.5917 43.6592 32.5764C43.4739 32.5611 43.2954 32.5019 43.1399 32.404C42.9843 32.3061 42.8564 32.1727 42.7679 32.0156C42.6793 31.8586 42.6327 31.6829 42.6323 31.5044V31.4894C42.6326 31.273 42.7006 31.0618 42.8275 30.883C42.9545 30.7043 43.1345 30.5664 43.3442 30.4872L48.8223 28.4219L43.3491 26.3894C43.1382 26.3108 42.9569 26.1729 42.829 25.9937C42.7011 25.8146 42.6325 25.6025 42.6323 25.3853C42.6327 25.207 42.6791 25.0316 42.7674 24.8748C42.8557 24.718 42.9831 24.5846 43.1383 24.4867C43.2935 24.3887 43.4715 24.3292 43.6565 24.3135C43.8414 24.2978 44.0276 24.3264 44.1982 24.3967L50.5181 27.0156C50.8065 27.1354 51.0522 27.3335 51.2248 27.5856C51.3975 27.8377 51.4896 28.1328 51.4897 28.4345C51.4891 28.735 51.3974 29.0288 51.2257 29.28C51.054 29.5312 50.8098 29.729 50.5229 29.8492Z" fill="#FA759E"/>
<path d="M42.1152 38.125H38.791C38.6615 38.125 38.5373 38.0756 38.4457 37.9877C38.3542 37.8998 38.3027 37.7806 38.3027 37.6563C38.3027 37.5319 38.3542 37.4127 38.4457 37.3248C38.5373 37.2369 38.6615 37.1875 38.791 37.1875H42.1152C42.2447 37.1875 42.3689 37.2369 42.4605 37.3248C42.5521 37.4127 42.6035 37.5319 42.6035 37.6563C42.6035 37.7806 42.5521 37.8998 42.4605 37.9877C42.3689 38.0756 42.2447 38.125 42.1152 38.125Z" fill="#FA759E"/>
<path d="M35.8613 38.125H27.6421C27.5126 38.125 27.3884 38.0756 27.2968 37.9877C27.2053 37.8998 27.1538 37.7806 27.1538 37.6563C27.1538 37.5319 27.2053 37.4127 27.2968 37.3248C27.3884 37.2369 27.5126 37.1875 27.6421 37.1875H35.8613C35.9908 37.1875 36.115 37.2369 36.2066 37.3248C36.2982 37.4127 36.3496 37.5319 36.3496 37.6563C36.3496 37.7806 36.2982 37.8998 36.2066 37.9877C36.115 38.0756 35.9908 38.125 35.8613 38.125Z" fill="#FA759E"/>
<path d="M24.3135 35.5065C24.443 35.5065 24.5672 35.4571 24.6587 35.3692C24.7503 35.2813 24.8018 35.162 24.8018 35.0377V31.2498C24.8018 31.1254 24.7503 31.0062 24.6587 30.9183C24.5672 30.8304 24.443 30.781 24.3135 30.781C24.184 30.781 24.0598 30.8304 23.9682 30.9183C23.8766 31.0062 23.8252 31.1254 23.8252 31.2498V35.0377C23.8252 35.162 23.8766 35.2813 23.9682 35.3692C24.0598 35.4571 24.184 35.5065 24.3135 35.5065Z" fill="#3A2C60"/>
<path d="M50.7969 12.8125H27.75C26.7097 12.8136 25.7123 13.2108 24.9767 13.917C24.2411 14.6232 23.8273 15.5807 23.8262 16.5794V28.9844C23.8262 29.1087 23.8776 29.2279 23.9692 29.3158C24.0608 29.4037 24.185 29.4531 24.3145 29.4531C24.444 29.4531 24.5681 29.4037 24.6597 29.3158C24.7513 29.2279 24.8027 29.1087 24.8027 28.9844V18.6386H53.7451V57.3841H24.8018V37.3047C24.8018 37.1804 24.7503 37.0611 24.6587 36.9732C24.5672 36.8853 24.443 36.8359 24.3135 36.8359C24.184 36.8359 24.0598 36.8853 23.9682 36.9732C23.8766 37.0611 23.8252 37.1804 23.8252 37.3047V61.5456C23.8264 62.5445 24.2403 63.5021 24.9761 64.2083C25.7119 64.9145 26.7095 65.3116 27.75 65.3125H50.7969C51.8371 65.3113 52.8344 64.914 53.57 64.2078C54.3056 63.5017 54.7194 62.5443 54.7207 61.5456V16.5794C54.7194 15.5807 54.3056 14.6233 53.57 13.9172C52.8344 13.211 51.8371 12.8137 50.7969 12.8125ZM24.8018 17.7011V16.5794C24.8027 15.8291 25.1136 15.1098 25.6663 14.5793C26.2191 14.0489 26.9684 13.7506 27.75 13.75H50.7969C51.5783 13.7509 52.3274 14.0492 52.8799 14.5797C53.4324 15.1101 53.7432 15.8292 53.7441 16.5794V17.7011H24.8018ZM50.7969 64.375H27.75C26.9686 64.3741 26.2195 64.0758 25.667 63.5453C25.1144 63.0149 24.8036 62.2958 24.8027 61.5456V58.3216H53.7451V61.5456C53.7442 62.2959 53.4333 63.0152 52.8805 63.5457C52.3278 64.0761 51.5784 64.3744 50.7969 64.375Z" fill="#3A2C60"/>
<path d="M36.4023 25.375C36.402 25.1188 36.3353 24.8668 36.2084 24.6415C36.0815 24.4162 35.8983 24.2246 35.6753 24.0841C35.4522 23.9435 35.1963 23.8583 34.9305 23.8361C34.6647 23.814 34.3973 23.8555 34.1524 23.957L27.832 26.5867C27.4564 26.7449 27.1368 27.0046 26.9125 27.3343C26.6881 27.6639 26.5686 28.0492 26.5686 28.443C26.5686 28.8367 26.6881 29.222 26.9125 29.5517C27.1368 29.8813 27.4564 30.1411 27.832 30.2992L34.1524 32.9284C34.3973 33.03 34.6647 33.0715 34.9305 33.0493C35.1963 33.0272 35.4522 32.942 35.6753 32.8014C35.8983 32.6608 36.0815 32.4693 36.2084 32.244C36.3353 32.0187 36.402 31.7666 36.4023 31.5105V31.4922C36.4037 31.1815 36.3069 30.8778 36.1247 30.621C35.9425 30.3643 35.6835 30.1666 35.3818 30.0541L31.085 28.4308L35.3687 26.8464C35.676 26.7306 35.9394 26.5279 36.124 26.2651C36.3086 26.0023 36.4057 25.6919 36.4023 25.375ZM35.02 25.9717L29.5669 27.9873C29.4751 28.0212 29.396 28.081 29.3402 28.1587C29.2843 28.2365 29.2543 28.3286 29.2539 28.4231C29.2535 28.5175 29.2829 28.6099 29.3381 28.6881C29.3934 28.7662 29.4719 28.8265 29.5635 28.8611L35.0244 30.9236C35.1431 30.9678 35.245 31.0456 35.3167 31.1466C35.3884 31.2476 35.4264 31.3671 35.4258 31.4894V31.5077C35.4254 31.6084 35.3991 31.7074 35.3491 31.7959C35.2991 31.8845 35.227 31.9597 35.1393 32.015C35.0516 32.0702 34.951 32.1038 34.8466 32.1126C34.7421 32.1214 34.6369 32.1052 34.5405 32.0655L28.2202 29.4409C28.0194 29.3554 27.8488 29.2157 27.7291 29.0389C27.6093 28.8621 27.5456 28.6557 27.5456 28.4448C27.5456 28.2339 27.6093 28.0276 27.7291 27.8508C27.8488 27.674 28.0194 27.5343 28.2202 27.4487L34.5405 24.8191C34.6206 24.7854 34.707 24.7679 34.7944 24.7675C34.9175 24.768 35.0377 24.8032 35.1401 24.8687C35.2379 24.9331 35.3157 25.0215 35.3654 25.1248C35.4151 25.2281 35.4349 25.3423 35.4226 25.4555C35.4103 25.5686 35.3664 25.6765 35.2955 25.7677C35.2247 25.8589 35.1295 25.93 35.02 25.9736V25.9717Z" fill="#3A2C60"/>
<path d="M41.0239 21.5044C40.8285 21.459 40.6256 21.451 40.427 21.4808C40.2284 21.5106 40.0378 21.5777 39.8662 21.6783C39.6945 21.7788 39.5452 21.9109 39.4268 22.0668C39.3083 22.2228 39.223 22.3996 39.1757 22.5872L36.3959 33.6113C36.3008 33.9902 36.3662 34.3899 36.5778 34.7225C36.7893 35.0552 37.1298 35.2936 37.5244 35.3855C37.6422 35.4126 37.763 35.4263 37.8842 35.4263C38.2278 35.4269 38.5616 35.3162 38.8314 35.112C39.1013 34.9078 39.2914 34.6222 39.371 34.3013L42.1503 23.2768C42.2457 22.8982 42.1806 22.4987 41.9694 22.1661C41.7582 21.8336 41.4181 21.5951 41.0239 21.503V21.5044ZM41.2011 23.0574L38.4223 34.0819C38.3859 34.218 38.2956 34.3351 38.1707 34.4082C38.0458 34.4814 37.8961 34.5049 37.7534 34.4738C37.6107 34.4405 37.4876 34.3542 37.4111 34.2339C37.3346 34.1136 37.3109 33.9691 37.3452 33.8321L40.1245 22.8075C40.1417 22.7397 40.1727 22.6757 40.2158 22.6194C40.2589 22.5631 40.3131 22.5155 40.3754 22.4794C40.4615 22.4286 40.5605 22.4016 40.6616 22.4016C40.7055 22.4016 40.7493 22.4068 40.7919 22.4171C40.9347 22.4503 41.0578 22.5365 41.1344 22.6568C41.2109 22.7772 41.2346 22.9217 41.2001 23.0588L41.2011 23.0574Z" fill="#3A2C60"/>
<path d="M51.9784 28.4327C51.9786 28.0393 51.8587 27.6545 51.6335 27.3258C51.4083 26.9972 51.0877 26.7391 50.7113 26.5835L44.3915 23.9688C44.1939 23.8802 43.9796 23.831 43.7616 23.8243C43.5436 23.8175 43.3265 23.8534 43.1233 23.9296C42.9202 24.0058 42.7353 24.1208 42.5798 24.2676C42.4243 24.4144 42.3015 24.59 42.2187 24.7838C42.136 24.9775 42.0952 25.1853 42.0986 25.3947C42.102 25.604 42.1497 25.8105 42.2387 26.0017C42.3277 26.1928 42.4562 26.3646 42.6164 26.5067C42.7767 26.6488 42.9653 26.7581 43.1708 26.8282L47.4765 28.4257L43.1649 30.0508C42.9686 30.1285 42.7901 30.2425 42.6396 30.3864C42.4891 30.5303 42.3696 30.7012 42.288 30.8894C42.2063 31.0776 42.1641 31.2794 42.1637 31.4833C42.1632 31.6872 42.2047 31.8892 42.2855 32.0777C42.3664 32.2662 42.4852 32.4376 42.6351 32.582C42.785 32.7265 42.963 32.8412 43.1591 32.9196C43.3551 32.998 43.5654 33.0385 43.7777 33.0389C43.9901 33.0393 44.2005 32.9996 44.3969 32.9219L50.7182 30.2796C51.0926 30.1228 51.4113 29.8646 51.6351 29.5365C51.859 29.2085 51.9783 28.8249 51.9784 28.4327ZM50.328 29.4171L44.0067 32.0618C43.9108 32.1034 43.8054 32.121 43.7004 32.1128C43.5954 32.1046 43.4943 32.0709 43.4066 32.0149C43.3093 31.9522 43.2315 31.8653 43.1817 31.7635C43.1318 31.6617 43.1118 31.5488 43.1237 31.4368C43.1355 31.3249 43.1789 31.2182 43.2492 31.1281C43.3194 31.038 43.4138 30.968 43.5224 30.9255L49.0004 28.8607C49.0918 28.8261 49.1703 28.7659 49.2255 28.6878C49.2807 28.6098 49.3101 28.5176 49.3099 28.4232C49.3096 28.3289 49.2797 28.2368 49.224 28.159C49.1684 28.0813 49.0896 28.0215 48.998 27.9874L43.5258 25.9525C43.4069 25.9077 43.3047 25.8297 43.2325 25.7286C43.1603 25.6275 43.1212 25.5079 43.1205 25.3853C43.1205 25.2243 43.1869 25.0698 43.3052 24.9556C43.4235 24.8414 43.5841 24.7768 43.7519 24.776C43.8389 24.7762 43.925 24.7936 44.0048 24.8271L50.3241 27.4446C50.5242 27.5283 50.6944 27.6662 50.8141 27.8413C50.9339 28.0164 50.9978 28.2213 50.9983 28.4308C50.9987 28.6402 50.9355 28.8453 50.8165 29.0209C50.6975 29.1965 50.5277 29.3349 50.328 29.4194V29.4171Z" fill="#3A2C60"/>
<path d="M50.9043 40.4688H45.3823C45.2528 40.4688 45.1286 40.5181 45.0371 40.606C44.9455 40.694 44.894 40.8132 44.894 40.9375C44.894 41.0618 44.9455 41.181 45.0371 41.269C45.1286 41.3569 45.2528 41.4062 45.3823 41.4062H50.9043C51.0338 41.4062 51.158 41.3569 51.2496 41.269C51.3411 41.181 51.3926 41.0618 51.3926 40.9375C51.3926 40.8132 51.3411 40.694 51.2496 40.606C51.158 40.5181 51.0338 40.4688 50.9043 40.4688Z" fill="#3A2C60"/>
<path d="M31.0601 41.4062H42.8599C42.9894 41.4062 43.1136 41.3569 43.2051 41.269C43.2967 41.181 43.3481 41.0618 43.3481 40.9375C43.3481 40.8132 43.2967 40.694 43.2051 40.606C43.1136 40.5181 42.9894 40.4688 42.8599 40.4688H31.0601C30.9306 40.4688 30.8064 40.5181 30.7148 40.606C30.6232 40.694 30.5718 40.8132 30.5718 40.9375C30.5718 41.0618 30.6232 41.181 30.7148 41.269C30.8064 41.3569 30.9306 41.4062 31.0601 41.4062Z" fill="#3A2C60"/>
<path d="M50.9043 43.75H40.0547C39.9252 43.75 39.801 43.7994 39.7094 43.8873C39.6179 43.9752 39.5664 44.0944 39.5664 44.2187C39.5664 44.3431 39.6179 44.4623 39.7094 44.5502C39.801 44.6381 39.9252 44.6875 40.0547 44.6875H50.9043C51.0338 44.6875 51.158 44.6381 51.2496 44.5502C51.3411 44.4623 51.3926 44.3431 51.3926 44.2187C51.3926 44.0944 51.3411 43.9752 51.2496 43.8873C51.158 43.7994 51.0338 43.75 50.9043 43.75Z" fill="#3A2C60"/>
<path d="M31.0601 44.6875H37.082C37.2115 44.6875 37.3357 44.6381 37.4273 44.5502C37.5189 44.4623 37.5703 44.3431 37.5703 44.2187C37.5703 44.0944 37.5189 43.9752 37.4273 43.8873C37.3357 43.7994 37.2115 43.75 37.082 43.75H31.0601C30.9306 43.75 30.8064 43.7994 30.7148 43.8873C30.6232 43.9752 30.5718 44.0944 30.5718 44.2187C30.5718 44.3431 30.6232 44.4623 30.7148 44.5502C30.8064 44.6381 30.9306 44.6875 31.0601 44.6875Z" fill="#3A2C60"/>
<path d="M50.9043 47.0312H31.0601C30.9306 47.0312 30.8064 47.0806 30.7148 47.1685C30.6232 47.2564 30.5718 47.3757 30.5718 47.5C30.5718 47.6243 30.6232 47.7435 30.7148 47.8314C30.8064 47.9194 30.9306 47.9687 31.0601 47.9687H50.9043C51.0338 47.9687 51.158 47.9194 51.2496 47.8314C51.3411 47.7435 51.3926 47.6243 51.3926 47.5C51.3926 47.3757 51.3411 47.2564 51.2496 47.1685C51.158 47.0806 51.0338 47.0312 50.9043 47.0312Z" fill="#3A2C60"/>
<path d="M50.9043 50.3125H47.0591C46.9296 50.3125 46.8054 50.3619 46.7138 50.4498C46.6222 50.5377 46.5708 50.6569 46.5708 50.7812C46.5708 50.9056 46.6222 51.0248 46.7138 51.1127C46.8054 51.2006 46.9296 51.25 47.0591 51.25H50.9043C51.0338 51.25 51.158 51.2006 51.2496 51.1127C51.3411 51.0248 51.3926 50.9056 51.3926 50.7812C51.3926 50.6569 51.3411 50.5377 51.2496 50.4498C51.158 50.3619 51.0338 50.3125 50.9043 50.3125Z" fill="#3A2C60"/>
<path d="M31.0601 50.3125C30.9306 50.3125 30.8064 50.3619 30.7148 50.4498C30.6232 50.5377 30.5718 50.6569 30.5718 50.7812C30.5718 50.9056 30.6232 51.0248 30.7148 51.1127C30.8064 51.2006 30.9306 51.25 31.0601 51.25H44.6099C44.7394 51.25 44.8636 51.2006 44.9551 51.1127C45.0467 51.0248 45.0981 50.9056 45.0981 50.7812C45.0981 50.6569 45.0467 50.5377 44.9551 50.4498C44.8636 50.3619 44.7394 50.3125 44.6099 50.3125H31.0601Z" fill="#3A2C60"/>
<path d="M42.1152 54.5312H37.082C36.9525 54.5312 36.8283 54.4819 36.7368 54.394C36.6452 54.306 36.5938 54.1868 36.5938 54.0625C36.5938 53.9382 36.6452 53.819 36.7368 53.731C36.8283 53.6431 36.9525 53.5938 37.082 53.5938H42.1152C42.2447 53.5938 42.3689 53.6431 42.4605 53.731C42.5521 53.819 42.6035 53.9382 42.6035 54.0625C42.6035 54.1868 42.5521 54.306 42.4605 54.394C42.3689 54.4819 42.2447 54.5312 42.1152 54.5312Z" fill="#FA759E"/>
<path d="M35.1289 54.5312H27.6421C27.5126 54.5312 27.3884 54.4819 27.2968 54.394C27.2053 54.306 27.1538 54.1868 27.1538 54.0625C27.1538 53.9382 27.2053 53.819 27.2968 53.731C27.3884 53.6431 27.5126 53.5938 27.6421 53.5938H35.1289C35.2584 53.5938 35.3826 53.6431 35.4742 53.731C35.5657 53.819 35.6172 53.9382 35.6172 54.0625C35.6172 54.1868 35.5657 54.306 35.4742 54.394C35.3826 54.4819 35.2584 54.5312 35.1289 54.5312Z" fill="#FA759E"/>
</svg>
