<svg width="933" height="787" viewBox="0 0 933 787" fill="none" xmlns="http://www.w3.org/2000/svg">
<path style="mix-blend-mode:color-dodge" d="M710.748 468.946L610.734 413.265C603.182 409.064 598.84 402.296 598.84 394.711C598.84 386.528 603.922 378.998 612.79 374.036L708.702 320.65C715.821 316.851 723.779 314.898 731.847 314.97C738.583 314.824 745.246 316.385 751.217 319.507L851.242 375.178C858.794 379.39 863.135 386.158 863.135 393.677C863.135 401.871 858.054 409.402 849.185 414.353L753.273 467.749C746.152 471.543 738.196 473.495 730.128 473.43C723.393 473.591 716.727 472.049 710.748 468.946V468.946ZM709.474 321.967L613.563 375.353C605.195 380.021 600.396 387.072 600.396 394.711C600.396 401.752 604.444 408.041 611.517 411.97L711.531 467.651C717.264 470.647 723.661 472.144 730.128 472.004C737.923 472.086 745.614 470.216 752.501 466.563L848.412 413.167C856.781 408.509 861.579 401.458 861.579 393.808C861.579 386.778 857.531 380.489 850.458 376.55L750.444 320.879C744.711 317.883 738.314 316.386 731.847 316.526C724.052 316.444 716.361 318.314 709.474 321.967V321.967Z" fill="url(#paint0_linear)"/>
<path style="mix-blend-mode:color-dodge" d="M730.128 468.5C737.295 468.57 744.365 466.846 750.695 463.484L846.606 410.098C853.821 406.072 857.967 400.119 857.967 393.775C857.967 388.03 854.572 382.894 848.652 379.542L748.638 323.871C743.457 321.186 737.681 319.854 731.847 319.997C724.68 319.922 717.609 321.647 711.281 325.014L615.369 378.4C608.155 382.426 604.009 388.378 604.009 394.722C604.009 400.479 607.404 405.669 613.323 408.966L713.338 464.637C718.52 467.318 724.295 468.647 730.128 468.5V468.5Z" fill="url(#paint1_linear)"/>
<path style="mix-blend-mode:color-dodge" d="M848.652 393.765L748.638 338.094C743.457 335.409 737.682 334.076 731.848 334.22C724.68 334.145 717.609 335.869 711.281 339.236L615.37 392.622C611.386 394.69 608.081 397.859 605.848 401.752C604.64 399.605 603.999 397.186 603.987 394.722C603.987 388.367 608.133 382.415 615.348 378.4L711.259 325.014C717.587 321.647 724.659 319.922 731.826 319.997C737.66 319.854 743.435 321.186 748.616 323.871L848.631 379.542C854.55 382.807 857.945 388.03 857.945 393.775C857.93 396.302 857.287 398.785 856.074 401.001C854.332 397.937 851.759 395.428 848.652 393.765V393.765Z" fill="url(#paint2_linear)"/>
<path style="mix-blend-mode:color-dodge" d="M612.932 391.871V276.296C613.378 278.407 614.956 280.388 617.709 281.922L717.734 337.549C725.025 341.608 737.876 341.097 746.298 336.461L842.21 283.076C846.225 280.834 848.522 278.037 849.044 275.284V390.87C849.784 394.352 847.455 398.226 842.21 401.142L746.298 454.539C737.876 459.218 725.025 459.741 717.734 455.627L617.709 399.945C613.9 397.856 612.377 394.885 612.932 391.871Z" fill="url(#paint3_linear)"/>
<path d="M617.709 281.922L717.734 337.549C725.025 341.608 737.876 341.097 746.299 336.461L842.21 283.075C850.633 278.385 851.558 271.225 844.256 267.166L744.242 211.495C736.951 207.436 724.1 207.948 715.677 212.638L619.766 266.024C611.343 270.703 610.418 277.863 617.709 281.922Z" fill="url(#paint4_linear)"/>
<path style="mix-blend-mode:color-dodge" d="M729.954 442.906C730.356 442.912 730.744 442.759 731.033 442.479C731.323 442.2 731.49 441.818 731.499 441.415V353.154C731.466 352.765 731.289 352.402 731.001 352.138C730.714 351.874 730.338 351.728 729.948 351.728C729.558 351.728 729.182 351.874 728.895 352.138C728.608 352.402 728.43 352.765 728.397 353.154V441.415C728.409 441.819 728.578 442.201 728.87 442.48C729.161 442.759 729.55 442.912 729.954 442.906Z" fill="url(#paint5_linear)"/>
<path style="mix-blend-mode:color-dodge" d="M846.018 436.367C847.497 437.083 849.119 437.455 850.763 437.455C852.406 437.455 854.028 437.083 855.507 436.367C858.13 434.908 858.13 432.536 855.507 431.078C854.028 430.362 852.406 429.989 850.763 429.989C849.119 429.989 847.497 430.362 846.018 431.078C843.396 432.536 843.396 434.908 846.018 436.367ZM826.257 447.368C827.738 448.086 829.362 448.459 831.007 448.459C832.653 448.459 834.277 448.086 835.757 447.368C838.379 445.91 838.379 443.538 835.757 442.079C834.277 441.361 832.653 440.988 831.007 440.988C829.362 440.988 827.738 441.361 826.257 442.079C823.635 443.538 823.635 445.91 826.257 447.368ZM865.769 425.365C867.247 426.09 868.872 426.466 870.519 426.466C872.165 426.466 873.79 426.09 875.269 425.365C877.891 423.907 877.891 421.546 875.269 420.087C873.788 419.369 872.164 418.996 870.519 418.996C868.873 418.996 867.249 419.369 865.769 420.087C863.146 421.546 863.146 423.907 865.769 425.365V425.365ZM766.995 480.361C768.473 481.083 770.095 481.459 771.74 481.459C773.384 481.459 775.007 481.083 776.484 480.361C779.107 478.903 779.107 476.542 776.484 475.084C775.005 474.367 773.383 473.995 771.74 473.995C770.096 473.995 768.474 474.367 766.995 475.084C764.373 476.531 764.373 478.892 766.995 480.361V480.361ZM806.507 458.337C807.986 459.053 809.608 459.426 811.251 459.426C812.895 459.426 814.517 459.053 815.996 458.337C818.618 456.879 818.618 454.517 815.996 453.059C814.519 452.334 812.896 451.957 811.251 451.957C809.606 451.957 807.983 452.334 806.507 453.059C803.895 454.539 803.895 456.9 806.507 458.337ZM786.746 469.338C788.226 470.056 789.85 470.43 791.495 470.43C793.141 470.43 794.765 470.056 796.245 469.338C798.868 467.88 798.868 465.508 796.245 464.05C794.765 463.331 793.141 462.958 791.495 462.958C789.85 462.958 788.226 463.331 786.746 464.05C784.123 465.53 784.123 467.902 786.746 469.36V469.338Z" fill="url(#paint6_linear)"/>
<path style="mix-blend-mode:color-dodge" d="M658.636 333.86C660.116 334.579 661.74 334.952 663.385 334.952C665.031 334.952 666.655 334.579 668.135 333.86C670.758 332.402 670.758 330.041 668.135 328.572C666.655 327.854 665.031 327.481 663.385 327.481C661.74 327.481 660.116 327.854 658.636 328.572C656.013 330.041 656.013 332.402 658.636 333.86ZM638.885 344.862C640.364 345.578 641.986 345.951 643.63 345.951C645.273 345.951 646.895 345.578 648.374 344.862C650.997 343.404 650.997 341.032 648.374 339.573C646.895 338.857 645.273 338.485 643.63 338.485C641.986 338.485 640.364 338.857 638.885 339.573C636.317 341.032 636.317 343.404 638.885 344.862ZM678.397 322.859C679.873 323.584 681.496 323.961 683.141 323.961C684.786 323.961 686.409 323.584 687.886 322.859C690.508 321.401 690.508 319.04 687.886 317.581C686.407 316.865 684.785 316.493 683.141 316.493C681.498 316.493 679.876 316.865 678.397 317.581C675.774 319.05 675.774 321.401 678.397 322.859V322.859ZM579.612 377.812C581.093 378.53 582.717 378.903 584.362 378.903C586.008 378.903 587.632 378.53 589.112 377.812C591.735 376.343 591.735 373.981 589.112 372.523C587.632 371.805 586.008 371.432 584.362 371.432C582.717 371.432 581.093 371.805 579.612 372.523C576.99 374.025 576.99 376.386 579.612 377.812ZM619.124 355.809C620.604 356.527 622.228 356.9 623.874 356.9C625.519 356.9 627.143 356.527 628.624 355.809C631.246 354.351 631.246 351.989 628.624 350.531C627.145 349.807 625.52 349.43 623.874 349.43C622.227 349.43 620.602 349.807 619.124 350.531C616.501 352.033 616.501 354.394 619.124 355.852V355.809ZM599.374 366.81C600.853 367.527 602.475 367.899 604.118 367.899C605.761 367.899 607.384 367.527 608.863 366.81C611.485 365.352 611.485 362.98 608.863 361.522C607.384 360.805 605.761 360.433 604.118 360.433C602.475 360.433 600.853 360.805 599.374 361.522C596.751 363.024 596.751 365.396 599.374 366.854V366.81Z" fill="url(#paint7_linear)"/>
<path d="M611.049 338.866C611.593 339.095 611.811 339.737 611.854 340.64C611.854 340.901 609.09 339.095 609.188 340.02C609.188 340.281 611.212 353.263 606.925 357.561C606.714 357.752 606.448 357.869 606.165 357.894C605.882 357.92 605.599 357.853 605.358 357.703L604.183 357.061C602.822 356.408 601.919 353.415 600.69 348.943C599.34 344.013 598.513 340.901 604.15 337.691C605.76 336.777 606.685 336.603 607.208 336.842L611.049 338.866Z" fill="#010101"/>
<path d="M600.69 348.943C602.322 354.895 603.389 358.236 605.728 356.908C608.068 355.58 608.59 350.673 607.785 344.938C607.088 339.889 609.776 334.524 604.15 337.724C598.524 340.923 599.319 344.013 600.69 348.943Z" fill="#39365F"/>
<path d="M564.411 310.878L575.967 314.948L580.657 320.095C586.173 322.497 591.206 325.882 595.51 330.085C595.51 330.085 598.002 333.589 606.218 337.637C606.218 337.637 606.218 343.175 601.104 344.068L568.176 325.797C567.052 325.188 566.092 324.317 565.376 323.258C564.66 322.199 564.21 320.984 564.062 319.714C563.802 316.766 563.919 313.797 564.411 310.878V310.878Z" fill="#CC8A67"/>
<path d="M588.709 366.985C588.709 367.55 588.285 368.073 587.502 368.53C587.273 368.671 587.502 365.439 586.751 365.983C586.533 366.136 575.793 374.199 569.797 372.708C569.528 372.636 569.292 372.473 569.13 372.247C568.967 372.021 568.888 371.746 568.905 371.468V370.195C568.818 368.737 571.081 366.495 574.52 363.274C578.296 359.716 580.711 357.496 586.37 360.641C587.991 361.544 588.633 362.218 588.644 362.817L588.709 366.985Z" fill="#010101"/>
<path d="M574.519 363.241C569.938 367.529 567.446 370.075 569.796 371.381C572.147 372.687 576.837 370.717 581.646 367.213C585.869 364.133 592.028 363.763 586.369 360.608C580.711 357.452 578.295 359.683 574.519 363.241Z" fill="#39365F"/>
<path d="M579.111 361.185L579.449 321.51L590.602 325.003L590.711 332.228C591.256 338.088 590.676 343.997 589.003 349.639C589.003 349.639 587.055 353.459 587.447 362.349C587.447 362.327 582.441 365.058 579.111 361.185Z" fill="#E0AB86"/>
<path d="M548.676 305.612C549.751 306.081 550.966 306.117 552.068 305.711C553.169 305.305 554.07 304.49 554.584 303.435L572.246 265.817C572.484 265.301 572.616 264.744 572.636 264.176C572.655 263.609 572.56 263.043 572.357 262.513C572.154 261.982 571.847 261.498 571.454 261.088C571.062 260.678 570.591 260.351 570.069 260.126V260.126C568.995 259.657 567.782 259.621 566.682 260.027C565.583 260.433 564.683 261.248 564.171 262.302L546.51 299.92C546.27 300.435 546.136 300.992 546.115 301.56C546.094 302.127 546.188 302.693 546.39 303.224C546.592 303.754 546.898 304.239 547.291 304.649C547.683 305.059 548.154 305.387 548.676 305.612Z" fill="#CC8A67"/>
<path d="M597.849 312.26V326.907C597.849 326.907 580.047 332.696 563.311 312.26V298.114L597.849 312.26Z" fill="url(#paint8_linear)"/>
<path d="M589.786 316.798C589.611 316.902 589.413 316.962 589.209 316.972C586.227 317.2 575.498 314.948 564.769 303.283C563.902 302.373 563.386 301.185 563.311 299.931V266.818C563.311 264.315 564.235 262.574 565.726 261.758L573.79 257.22C575.259 256.382 577.304 256.48 579.546 257.732L590.547 263.858C594.998 266.328 598.633 272.4 598.633 277.352V310.639C598.667 310.952 598.612 311.269 598.473 311.552C598.334 311.835 598.118 312.073 597.849 312.238L589.786 316.798Z" fill="url(#paint9_linear)"/>
<path d="M586.663 265.937C586.619 266.432 586.441 266.905 586.148 267.306C585.854 267.707 585.456 268.02 584.998 268.211C583.744 268.824 582.367 269.142 580.971 269.142C579.576 269.142 578.199 268.824 576.945 268.211C576.488 268.018 576.091 267.705 575.798 267.304C575.505 266.904 575.326 266.431 575.28 265.937V258.722C575.326 258.228 575.505 257.755 575.798 257.355C576.091 256.954 576.488 256.641 576.945 256.448C578.199 255.835 579.576 255.517 580.971 255.517C582.367 255.517 583.744 255.835 584.998 256.448C585.456 256.639 585.854 256.952 586.148 257.353C586.441 257.754 586.619 258.227 586.663 258.722V265.937Z" fill="#CA9170"/>
<path d="M617.034 313.284C617.549 313.042 618.011 312.7 618.39 312.276C618.77 311.852 619.06 311.356 619.242 310.817C619.425 310.279 619.498 309.708 619.455 309.141C619.412 308.574 619.255 308.021 618.993 307.516L599.591 270.431C599.029 269.405 598.094 268.635 596.978 268.283C595.863 267.93 594.655 268.021 593.606 268.538V268.538C593.09 268.78 592.629 269.124 592.249 269.549C591.869 269.973 591.579 270.47 591.395 271.009C591.211 271.548 591.138 272.119 591.179 272.687C591.221 273.255 591.376 273.809 591.636 274.316L611.038 311.434C611.611 312.451 612.552 313.21 613.667 313.554C614.783 313.898 615.988 313.801 617.034 313.284V313.284Z" fill="#E6AA84"/>
<path d="M566.499 243.107L560.873 264.163C560.765 264.616 560.785 265.089 560.932 265.531C561.079 265.973 561.346 266.365 561.703 266.664C562.06 266.962 562.493 267.155 562.954 267.221C563.415 267.286 563.885 267.222 564.311 267.036L577.261 261.845C577.797 261.64 578.244 261.253 578.522 260.751C578.801 260.25 578.894 259.666 578.784 259.103L574.54 238.427C574.423 237.937 574.164 237.493 573.796 237.148C573.428 236.804 572.968 236.574 572.471 236.489C571.975 236.403 571.464 236.465 571.002 236.666C570.54 236.868 570.147 237.2 569.872 237.622L566.793 242.475C566.665 242.671 566.566 242.883 566.499 243.107V243.107Z" fill="#7A4A9E"/>
<path d="M586.195 255.708C586.195 257.514 587.512 258.243 589.133 257.34C589.976 256.816 590.682 256.099 591.191 255.247C591.7 254.395 591.998 253.434 592.061 252.443C592.061 250.648 590.744 249.919 589.133 250.811C588.287 251.332 587.579 252.049 587.067 252.901C586.556 253.753 586.257 254.716 586.195 255.708V255.708Z" fill="#E6AA84"/>
<path d="M581.049 262.215C589.703 262.215 596.718 255.453 596.718 247.111C596.718 238.77 589.703 232.007 581.049 232.007C572.394 232.007 565.379 238.77 565.379 247.111C565.379 255.453 572.394 262.215 581.049 262.215Z" fill="#E6AA84"/>
<path d="M596.271 249.124C596.271 249.124 583.039 256.132 576.586 237.916C576.586 237.916 573.126 245.609 564.519 243.912C564.626 240.4 565.971 237.038 568.317 234.422C570.662 231.805 573.857 230.102 577.337 229.613C577.337 229.613 600.004 227.426 596.271 249.124Z" fill="#7A4A9E"/>
<path d="M588.981 249.723L583.355 270.779C583.252 271.232 583.276 271.706 583.424 272.146C583.573 272.587 583.841 272.978 584.197 273.276C584.554 273.575 584.987 273.768 585.447 273.837C585.907 273.905 586.377 273.845 586.805 273.663L599.743 268.461C600.28 268.258 600.728 267.871 601.007 267.369C601.286 266.867 601.378 266.282 601.266 265.719L597.022 245.044C596.905 244.554 596.646 244.109 596.278 243.764C595.91 243.42 595.45 243.191 594.953 243.105C594.457 243.019 593.946 243.081 593.484 243.282C593.022 243.484 592.629 243.816 592.354 244.238L589.275 249.092C589.149 249.288 589.05 249.5 588.981 249.723V249.723Z" fill="#7A4A9E"/>
<path d="M772.001 261.454L780.347 286.721C780.666 287.72 780.63 288.799 780.246 289.774C779.861 290.75 779.151 291.563 778.236 292.075L752.337 307.081C751.598 307.495 750.764 307.713 749.916 307.713C749.068 307.713 748.235 307.495 747.495 307.081L681.704 270.605C680.971 270.216 680.359 269.632 679.935 268.919C679.511 268.205 679.291 267.388 679.3 266.558C679.309 265.728 679.546 264.916 679.985 264.211C680.425 263.507 681.05 262.937 681.791 262.564L706.188 249.712C707.031 249.27 707.721 248.583 708.168 247.743L715.274 234.13C715.582 233.563 716 233.064 716.503 232.66C717.005 232.256 717.584 231.957 718.203 231.778C718.823 231.6 719.472 231.547 720.112 231.622C720.753 231.697 721.372 231.898 721.934 232.214L769.814 258.875C770.841 259.429 771.621 260.35 772.001 261.454V261.454Z" fill="url(#paint10_linear)"/>
<path d="M681.704 270.594L747.495 307.081C748.235 307.495 749.069 307.713 749.916 307.713C750.764 307.713 751.598 307.495 752.338 307.081L778.236 292.129C779.197 291.577 779.929 290.702 780.304 289.659V289.779C780.626 290.776 780.593 291.855 780.21 292.831C779.827 293.807 779.118 294.62 778.204 295.133L752.305 310.084C751.565 310.499 750.732 310.717 749.884 310.717C749.036 310.717 748.202 310.499 747.463 310.084L681.672 273.619C680.718 273.107 679.981 272.269 679.593 271.258C679.206 270.248 679.194 269.132 679.561 268.113C679.944 269.177 680.707 270.061 681.704 270.594V270.594Z" fill="url(#paint11_linear)"/>
<path d="M630.223 186.827L858.739 314.034C864.637 317.299 869.468 313.806 869.468 306.21V152.005C869.468 144.388 864.637 135.519 858.739 132.233L630.223 5.02541C624.325 1.76089 619.493 5.25393 619.493 12.8494V167.055C619.493 174.639 624.346 183.54 630.223 186.827Z" fill="#10120C"/>
<path d="M864.039 303.631V148.523C864.039 144.507 861.503 139.817 858.38 138.087L630.604 11.3041C627.481 9.56303 624.945 11.402 624.945 15.4283V170.537C624.945 174.552 627.481 179.242 630.604 180.972L858.38 307.755C861.503 309.496 864.039 307.657 864.039 303.631Z" fill="white"/>
<path d="M628.808 1.4124C630.68 0.454809 633.063 0.574506 635.664 2.02178L864.18 129.24C870.078 132.505 874.909 141.428 874.909 149.012V303.217C874.909 307.494 873.375 310.476 870.981 311.683L865.54 314.643C867.902 313.425 869.414 310.454 869.414 306.21V152.005C869.414 144.388 864.583 135.519 858.685 132.233L630.168 5.02513C627.6 3.58874 625.228 3.44728 623.367 4.38311L628.808 1.4124Z" fill="url(#paint12_linear)"/>
<path d="M857.477 288.06C857.477 295.122 852.286 298.016 845.942 294.48L643.042 181.538C636.698 178.002 631.507 169.34 631.507 162.278V51.6104L857.477 177.392V288.06Z" fill="url(#paint13_linear)"/>
<path d="M643.042 24.5798L845.942 137.521C852.286 141.058 857.477 149.72 857.477 156.782V177.392L631.507 51.61V31C631.507 23.9377 636.698 21.0432 643.042 24.5798Z" fill="url(#paint14_linear)"/>
<path d="M706.449 82.9822L839.598 157.098C842.231 158.567 844.364 157.011 844.364 153.626C844.364 150.242 842.188 146.314 839.598 144.845L706.449 70.7293C703.815 69.2603 701.683 70.8164 701.683 74.2006C701.683 77.5848 703.783 81.524 706.449 82.9822Z" fill="white"/>
<path d="M649.179 61.447L678.015 77.4976V44.0471L649.179 27.9966V61.447Z" fill="#8ECDF1"/>
<path d="M790.631 191.321L844.485 221.289C847.684 223.074 850.274 221.18 850.274 217.067V187.969C850.274 183.856 847.684 179.079 844.485 177.294L790.631 147.315C787.367 145.53 784.831 147.424 784.831 151.537V180.635C784.831 184.748 787.421 189.558 790.631 191.321Z" fill="url(#paint15_linear)"/>
<path d="M788.204 197.403L846.911 230.092V227.459L788.204 194.781V197.403Z" fill="#C3C2C2"/>
<path d="M788.204 201.898L846.911 234.587V231.953L788.204 199.275V201.898Z" fill="#C3C2C2"/>
<path d="M788.204 206.392L846.911 239.081V236.447L788.204 203.77V206.392Z" fill="#C3C2C2"/>
<path d="M717.571 150.645L771.413 180.624C774.623 182.409 777.213 180.515 777.213 176.402V147.304C777.213 143.18 774.623 138.403 771.413 136.618L717.571 106.65C714.306 104.865 711.771 106.759 711.771 110.872V139.97C711.771 144.083 714.36 148.86 717.571 150.645Z" fill="url(#paint16_linear)"/>
<path d="M715.144 156.738L773.85 189.416V186.783L715.144 154.105V156.738Z" fill="#C3C2C2"/>
<path d="M731.369 170.264L773.851 193.91V191.277L731.369 167.631V170.264Z" fill="#C3C2C2"/>
<path d="M737.017 177.903L773.851 198.405V195.771L737.017 175.27V177.903Z" fill="#C3C2C2"/>
<path d="M642.084 116.074L700.791 148.752V146.118L642.084 113.44V116.074Z" fill="#C3C2C2"/>
<path d="M642.084 120.567L700.791 153.245V150.612L642.084 117.934V120.567Z" fill="#C3C2C2"/>
<path d="M667.602 139.262L700.791 157.739V155.106L667.602 136.629V139.262Z" fill="#C3C2C2"/>
<path d="M677.004 192.822L811.938 267.906C816.965 270.714 821.089 267.71 821.089 261.236V246.622C821.089 240.147 816.965 232.562 811.938 229.766L677.004 154.627C671.977 151.831 667.863 154.823 667.863 161.298V175.912C667.874 182.376 671.977 189.96 677.004 192.822Z" fill="url(#paint17_linear)"/>
<path d="M681.356 161.722L690.443 169.056L688.125 170.569L697.799 185.891L703.512 182.278C703.173 181.455 702.989 180.577 702.968 179.688C702.968 177.065 704.883 175.999 707.244 177.305C708.477 178.068 709.508 179.115 710.252 180.359C710.996 181.603 711.431 183.007 711.521 184.454C711.54 185.129 711.362 185.794 711.009 186.369L720.052 200.864C720.816 200.806 721.578 200.992 722.228 201.397C723.102 201.907 723.867 202.584 724.481 203.388L730.607 201.016C730.607 198.394 732.522 197.327 734.884 198.644C736.117 199.404 737.149 200.449 737.893 201.691C738.637 202.934 739.072 204.337 739.16 205.782C739.206 206.265 739.13 206.752 738.94 207.199C738.75 207.645 738.452 208.037 738.072 208.34L746.647 225.119L744.721 225.75L735.95 208.59C735.573 208.49 735.207 208.348 734.862 208.165C733.355 207.238 732.155 205.887 731.412 204.281L726.091 206.348C726.333 207.049 726.465 207.783 726.483 208.525C726.483 211.158 724.568 212.224 722.207 210.908C720.974 210.145 719.942 209.097 719.198 207.853C718.454 206.609 718.019 205.205 717.93 203.758C717.913 203.115 718.071 202.48 718.387 201.919L709.29 187.381C708.571 187.401 707.862 187.216 707.244 186.848C706.497 186.406 705.827 185.844 705.264 185.183L697.929 189.819L686.449 171.668L684.131 173.181L681.356 161.722Z" fill="#ABDAC5"/>
<path d="M757.245 204.77V204.313L805.995 231.453V229.244L807.639 230.158V262.661L757.245 234.619V232.791L805.995 259.93V246.23L757.245 219.091V218.634L805.995 245.773V239.07L757.245 211.931V211.474L805.995 238.613V235.522L757.245 208.383V207.926L805.995 235.065V231.91L757.245 204.77Z" fill="#C3C2C2"/>
<path d="M795.57 254.13L800.195 256.698V235.392L795.57 232.824V254.13Z" fill="#6663AC"/>
<path d="M757.615 232.998L762.229 235.566V221.441L757.615 218.873V232.998Z" fill="#922683"/>
<path d="M776.593 243.564L781.207 246.132V224.825L776.593 222.257V243.564Z" fill="#8ECDF1"/>
<path d="M786.082 248.841L790.707 251.409V223.171L786.082 220.592V248.841Z" fill="#ABDAC5"/>
<path d="M767.104 238.275L771.717 240.854V216.098L767.104 213.53V238.275Z" fill="#4D2C85"/>
<g style="mix-blend-mode:overlay" opacity="0.6">
<g style="mix-blend-mode:overlay" opacity="0.6">
<path d="M624.945 78.9122V46.4629L742.936 243.499L713.784 227.263L624.945 78.9122Z" fill="white"/>
</g>
<g style="mix-blend-mode:overlay" opacity="0.6">
<path d="M624.945 16.6794V15.4498C624.945 11.4235 627.481 9.58451 630.604 11.3256L714.393 57.9756L863.331 306.689C862.374 308.441 860.524 308.985 858.359 307.777L769.662 258.406L624.945 16.6794Z" fill="white"/>
</g>
<g style="mix-blend-mode:overlay" opacity="0.6">
<path d="M864.05 218.623V283.532L736.244 70.0977L794.548 102.558L864.05 218.623Z" fill="white"/>
</g>
</g>
<path d="M628.264 118.097L682.117 148.077C685.317 149.861 687.917 147.968 687.917 143.855V114.757C687.917 110.633 685.317 105.855 682.117 104.071L628.264 74.1026C625.064 72.318 622.475 74.2114 622.475 78.3247V107.422C622.475 111.536 625.064 116.313 628.264 118.097Z" fill="url(#paint18_linear)"/>
<path d="M640.669 65.6908C641.274 65.4028 641.943 65.2774 642.611 65.327C643.279 65.3766 643.922 65.5995 644.478 65.9737L698.342 95.9746C701.607 97.7592 704.142 102.504 704.142 106.65V135.747C704.142 138.152 703.25 139.795 701.879 140.394L685.915 148.381C687.134 147.696 687.907 146.118 687.907 143.876V114.757C687.907 110.632 685.306 105.855 682.107 104.071L628.264 74.1023C627.752 73.7574 627.165 73.5399 626.551 73.468C625.938 73.396 625.316 73.4717 624.738 73.6888L640.669 65.6908Z" fill="url(#paint19_linear)"/>
<path d="M688.418 208.938L657.568 191.767L626.729 208.938L657.568 226.273L688.418 208.938Z" fill="#CCD8EF"/>
<path d="M657.568 226.273V295.502L626.729 277.569V208.938L657.568 226.273Z" fill="#EDF2FA"/>
<path d="M688.418 208.938L657.568 226.273V295.502L688.418 277.732V208.938Z" fill="#C0CEEA"/>
<path d="M690.268 367.67C690.333 368.269 689.844 368.758 689.017 369.281C688.777 369.422 689.017 366.071 688.233 366.626C688.005 366.789 676.807 375.19 670.561 373.644C670.282 373.566 670.037 373.395 669.867 373.16C669.697 372.925 669.612 372.639 669.625 372.349V370.989C669.538 369.466 671.9 367.126 675.48 363.764C679.419 360.053 681.943 357.746 687.841 361.022C689.528 361.968 690.203 362.665 690.203 363.263L690.268 367.67Z" fill="#010101"/>
<path d="M675.491 363.764C670.725 368.247 668.124 370.892 670.572 372.252C673.021 373.612 677.907 371.566 682.923 367.899C687.276 364.7 693.805 364.297 687.852 361.011C681.9 357.725 679.419 360.053 675.491 363.764Z" fill="#4A4B67"/>
<path d="M680.225 361.217L680.54 325.895C680.554 325.052 680.825 324.233 681.317 323.549C681.809 322.864 682.499 322.346 683.293 322.065L686.155 320.977L698.212 328.692L692.325 331.586C692.894 337.947 692.286 344.359 690.53 350.499C690.53 350.499 688.506 354.481 688.908 363.753C688.908 363.774 682.477 365.7 680.225 361.217Z" fill="url(#paint20_linear)"/>
<path d="M707.864 376.114C707.929 376.713 707.428 377.203 706.612 377.736C706.373 377.877 706.612 374.471 705.829 375.081C705.6 375.244 694.403 383.645 688.146 382.089C687.867 382.012 687.622 381.841 687.454 381.605C687.285 381.369 687.203 381.083 687.221 380.794V379.444C687.134 377.91 689.485 375.581 693.076 372.219C697.015 368.508 699.528 366.19 705.426 369.477C707.113 370.412 707.798 371.12 707.798 371.718L707.864 376.114Z" fill="#010101"/>
<path d="M693.076 372.219C688.299 376.691 685.698 379.346 688.146 380.707C690.595 382.067 695.491 380.021 700.508 376.354C704.861 373.155 711.39 372.763 705.426 369.477C699.463 366.19 697.015 368.508 693.076 372.219Z" fill="#4A4B67"/>
<path d="M697.864 370.075L698.212 328.724L712.359 333.164L709.932 339.9C710.496 346.002 709.886 352.156 708.137 358.029C708.137 358.029 706.113 362.011 706.515 371.272C706.548 371.283 701.336 374.123 697.864 370.075Z" fill="url(#paint21_linear)"/>
<path d="M710.552 286.612C710.552 286.612 694.752 272.77 704.393 248.134L711.792 273.706L710.552 286.612Z" fill="#434A91"/>
<path d="M691.813 320.367C692.979 320.711 694.233 320.587 695.309 320.023C696.386 319.458 697.2 318.497 697.581 317.342L710.312 275.73C710.48 275.159 710.532 274.559 710.465 273.967C710.398 273.375 710.213 272.803 709.921 272.283C709.629 271.764 709.235 271.309 708.764 270.944C708.293 270.579 707.754 270.312 707.178 270.159C706.011 269.818 704.757 269.942 703.679 270.506C702.602 271.071 701.785 272.03 701.4 273.184L688.734 314.807C688.568 315.374 688.516 315.969 688.581 316.556C688.646 317.144 688.827 317.712 689.114 318.229C689.4 318.746 689.786 319.202 690.249 319.569C690.713 319.936 691.244 320.207 691.813 320.367V320.367Z" fill="url(#paint22_linear)"/>
<path d="M704.763 309.257L683.293 322.021C683.293 322.021 690.758 320.258 709.964 339.845L731.075 328.104L704.763 309.257Z" fill="url(#paint23_linear)"/>
<path d="M728.299 329.932C728.119 330.046 727.913 330.109 727.701 330.117C724.588 330.357 713.402 328.006 702.216 315.851C701.311 314.9 700.774 313.658 700.703 312.347V277.841C700.703 275.241 701.661 273.423 703.217 272.575L711.628 267.852C713.152 266.971 715.285 267.068 717.624 268.374L729.094 274.762C733.729 277.341 737.527 283.674 737.527 288.832V323.534C737.562 323.86 737.503 324.189 737.359 324.484C737.214 324.779 736.99 325.026 736.711 325.199L728.299 329.932Z" fill="url(#paint24_linear)"/>
<path d="M733.566 333.197C734.776 333.214 735.943 332.753 736.814 331.913C737.684 331.073 738.187 329.923 738.213 328.713V285.524C738.187 284.314 737.684 283.164 736.814 282.324C735.943 281.485 734.776 281.023 733.566 281.041V281.041C732.357 281.023 731.19 281.485 730.319 282.324C729.449 283.164 728.946 284.314 728.92 285.524V328.67C728.927 329.272 729.053 329.868 729.29 330.422C729.528 330.975 729.872 331.477 730.304 331.897C730.736 332.318 731.246 332.649 731.806 332.872C732.366 333.095 732.964 333.205 733.566 333.197V333.197Z" fill="url(#paint25_linear)"/>
<path d="M727.027 276.905C726.987 277.422 726.804 277.918 726.498 278.337C726.193 278.756 725.777 279.081 725.297 279.278C723.989 279.917 722.552 280.249 721.097 280.249C719.641 280.249 718.204 279.917 716.896 279.278C716.416 279.081 716 278.756 715.695 278.337C715.389 277.918 715.206 277.422 715.166 276.905V269.386C715.206 268.869 715.389 268.374 715.695 267.955C716 267.536 716.416 267.21 716.896 267.014C718.206 266.38 719.642 266.051 721.097 266.051C722.551 266.051 723.987 266.38 725.297 267.014C725.777 267.21 726.193 267.536 726.498 267.955C726.804 268.374 726.987 268.869 727.027 269.386V276.905Z" fill="#CA9170"/>
<path d="M704.763 257.395C704.648 260.645 705.507 263.856 707.229 266.615C708.951 269.374 711.459 271.555 714.429 272.88C717.4 274.204 720.698 274.611 723.902 274.048C727.105 273.484 730.067 271.977 732.408 269.719C734.749 267.461 736.362 264.555 737.04 261.374C737.718 258.193 737.43 254.882 736.213 251.866C734.996 248.849 732.906 246.265 730.211 244.445C727.516 242.625 724.338 241.651 721.086 241.649C716.834 241.576 712.727 243.193 709.667 246.145C706.607 249.098 704.843 253.143 704.763 257.395Z" fill="url(#paint26_linear)"/>
<path d="M716.254 286.612C716.254 286.612 728.409 273.706 719.976 249.799L704.872 254.848C704.872 254.848 699.659 242.421 716.776 238.83C716.776 238.83 728.18 236.436 732.152 245.522C732.152 245.522 741.326 246.241 737.854 264.413C737.833 264.38 737.332 281.595 716.254 286.612Z" fill="#434A91"/>
<path style="mix-blend-mode:color-dodge" d="M1078.7 480.058C1087.15 310.954 856.05 161.981 562.524 147.317C268.998 132.653 24.1997 257.851 15.7517 426.955C7.30359 596.058 238.405 745.032 531.931 759.695C825.457 774.359 1070.26 649.161 1078.7 480.058Z" fill="url(#paint27_radial)" fill-opacity="0.15"/>
<path d="M680.932 207.143C681.04 208.927 678.255 211.419 674.011 213.78C668.363 216.925 666.393 220.897 659.397 217.045C657.405 215.957 656.567 215.054 656.513 214.281V210.102C656.328 208.165 661.159 206.958 665.218 204.662C670.855 201.528 676.927 199.808 679.822 201.397C680.126 201.529 680.388 201.742 680.58 202.012C680.771 202.283 680.886 202.601 680.91 202.931L680.932 207.143Z" fill="#010101"/>
<path d="M674.055 209.558C679.691 206.413 682.76 203.029 679.865 201.43C676.971 199.83 670.899 201.527 665.262 204.694C659.625 207.861 652.465 208.949 659.44 212.834C666.416 216.718 668.407 212.703 674.055 209.558Z" fill="#5D449B"/>
<path d="M665.294 196.728C665.403 198.513 662.618 201.005 658.374 203.366C652.737 206.511 650.756 210.483 643.759 206.631C641.768 205.543 640.93 204.629 640.887 203.867V199.677C640.691 197.74 645.522 196.533 649.592 194.236C655.229 191.103 661.301 189.394 664.195 190.972C664.499 191.104 664.762 191.317 664.953 191.587C665.145 191.858 665.259 192.176 665.284 192.506L665.294 196.728Z" fill="#010101"/>
<path d="M658.374 199.145C664.011 196.011 667.079 192.616 664.185 191.016C661.29 189.416 655.218 191.114 649.581 194.28C643.945 197.447 636.795 198.535 643.76 202.42C650.724 206.305 652.737 202.289 658.374 199.145Z" fill="#5D449B"/>
<path d="M661.432 158.403C661.994 158.218 662.513 157.921 662.958 157.531C663.404 157.141 663.766 156.665 664.024 156.132C664.281 155.599 664.43 155.02 664.459 154.429C664.489 153.837 664.399 153.246 664.196 152.69L651.823 119.915C651.369 118.789 650.496 117.883 649.389 117.386C648.282 116.889 647.025 116.84 645.882 117.249C645.319 117.435 644.8 117.733 644.355 118.124C643.909 118.516 643.547 118.992 643.289 119.526C643.032 120.06 642.884 120.64 642.854 121.232C642.825 121.824 642.914 122.416 643.118 122.972L655.501 155.715C655.947 156.846 656.816 157.758 657.922 158.26C659.029 158.762 660.288 158.813 661.432 158.403V158.403Z" fill="#F1C969"/>
<path d="M642.693 128.99L638.7 118.413C638.387 117.552 638.249 116.637 638.296 115.723C638.342 114.808 638.572 113.912 638.97 113.087C639.369 112.262 639.929 111.526 640.617 110.921C641.305 110.316 642.107 109.856 642.976 109.566C644.742 108.936 646.683 109.013 648.393 109.782C650.103 110.551 651.449 111.951 652.15 113.69L656.143 124.257C656.143 124.257 653.727 131.885 642.693 128.99Z" fill="url(#paint28_linear)"/>
<path d="M656.763 208.166C656.542 207.751 656.43 207.286 656.437 206.816V160.177C656.437 157.228 659.593 154.812 663.445 154.812C667.297 154.812 670.453 157.228 670.453 160.177V210.886C670.45 211.256 670.328 211.615 670.104 211.909C669.881 212.203 669.568 212.417 669.212 212.518C666.524 213.302 660.148 214.423 656.763 208.166Z" fill="url(#paint29_linear)"/>
<path d="M641.594 197.382C641.373 196.967 641.261 196.503 641.268 196.033V149.393C641.268 146.445 644.424 144.029 648.276 144.029C652.128 144.029 655.284 146.445 655.284 149.393V200.102C655.281 200.472 655.159 200.831 654.935 201.125C654.712 201.42 654.399 201.633 654.043 201.735C651.355 202.518 645.022 203.639 641.594 197.382Z" fill="url(#paint30_linear)"/>
<path d="M668.145 168.556C667.967 168.666 667.766 168.733 667.558 168.752C664.457 168.981 653.314 166.641 642.171 154.53C641.265 153.588 640.728 152.352 640.658 151.048V116.651C640.658 114.061 641.616 112.298 643.161 111.406L651.54 106.694C653.063 105.823 655.185 105.921 657.514 107.227L668.94 113.582C673.554 116.15 677.33 122.461 677.33 127.598V162.169C677.365 162.492 677.307 162.819 677.165 163.112C677.023 163.404 676.801 163.651 676.524 163.823L668.145 168.556Z" fill="url(#paint31_linear)"/>
<path d="M664.903 115.736C664.863 116.253 664.68 116.748 664.375 117.167C664.069 117.586 663.653 117.912 663.173 118.108C661.872 118.742 660.443 119.071 658.995 119.071C657.547 119.071 656.118 118.742 654.816 118.108C654.338 117.91 653.923 117.583 653.618 117.165C653.312 116.746 653.128 116.252 653.086 115.736V108.249C653.13 107.735 653.315 107.243 653.62 106.826C653.925 106.41 654.339 106.085 654.816 105.888C656.118 105.254 657.547 104.924 658.995 104.924C660.443 104.924 661.872 105.254 663.173 105.888C663.652 106.083 664.067 106.407 664.372 106.824C664.677 107.241 664.861 107.734 664.903 108.249V115.736Z" fill="#CA9170"/>
<path d="M642.726 96.3122C642.764 98.41 643.215 100.48 644.053 102.403C644.892 104.327 646.101 106.066 647.611 107.523C649.122 108.979 650.905 110.123 652.858 110.89C654.811 111.657 656.896 112.032 658.994 111.993C667.982 111.993 675.316 104.974 675.316 96.3122C674.998 92.2142 673.146 88.3871 670.129 85.5954C667.112 82.8037 663.153 81.2529 659.043 81.2529C654.932 81.2529 650.973 82.8037 647.957 85.5954C644.94 88.3871 643.087 92.2142 642.769 96.3122H642.726Z" fill="url(#paint32_linear)"/>
<path d="M671.138 155.922C672.342 155.902 673.489 155.407 674.328 154.545C675.168 153.682 675.633 152.523 675.621 151.319L674.969 133.451C674.942 132.852 674.798 132.265 674.544 131.721C674.29 131.178 673.931 130.691 673.488 130.286C673.046 129.882 672.527 129.569 671.964 129.365C671.4 129.161 670.801 129.071 670.202 129.099V129.099C668.998 129.116 667.849 129.61 667.009 130.473C666.168 131.336 665.705 132.497 665.719 133.702L666.372 151.569C666.428 152.778 666.962 153.915 667.855 154.731C668.749 155.547 669.929 155.975 671.138 155.922Z" fill="url(#paint33_linear)"/>
<path d="M663.39 139.295L663.02 128.054C663 126.192 663.717 124.398 665.016 123.064C666.315 121.731 668.09 120.966 669.952 120.937V120.937C671.814 120.854 673.633 121.509 675.015 122.761C676.396 124.012 677.228 125.757 677.329 127.619L677.699 138.859C677.699 138.859 672.879 145.399 663.39 139.295Z" fill="url(#paint34_linear)"/>
<path d="M694.513 140.851C693.966 139.765 693.022 138.932 691.876 138.527C690.73 138.121 689.472 138.174 688.364 138.674L669.028 147.38C668.485 147.615 667.995 147.957 667.587 148.385C667.179 148.813 666.862 149.318 666.653 149.871C666.443 150.424 666.348 151.013 666.371 151.604C666.393 152.195 666.535 152.775 666.786 153.31V153.31C667.334 154.397 668.281 155.23 669.428 155.635C670.576 156.041 671.836 155.987 672.945 155.487L692.271 146.781C692.813 146.546 693.303 146.204 693.711 145.776C694.119 145.349 694.437 144.843 694.646 144.29C694.855 143.737 694.951 143.148 694.928 142.557C694.905 141.966 694.764 141.386 694.513 140.851Z" fill="url(#paint35_linear)"/>
<path fill-rule="evenodd" clip-rule="evenodd" d="M649.821 110.611C654.957 113.494 658.874 111.307 660.267 109.218C663.782 103.962 664.37 107.466 666.459 104.996C669.201 100.643 668.635 94.7342 672.389 91.9376C677.83 88.0093 676.35 80.1962 662.117 76.7032C642.987 72.0023 635.457 95.2021 647.394 108.674C648.06 109.48 648.886 110.14 649.821 110.611Z" fill="#2F1B0E"/>
<path d="M664.674 105.649C666.056 106.976 667.569 106.584 668.069 104.778C668.29 103.777 668.263 102.737 667.989 101.749C667.716 100.761 667.206 99.8543 666.502 99.1086C665.12 97.781 663.608 98.1728 663.107 99.9791C662.89 100.98 662.918 102.02 663.191 103.007C663.464 103.995 663.973 104.901 664.674 105.649V105.649Z" fill="#E0AB86"/>
<defs>
<linearGradient id="paint0_linear" x1="625.304" y1="462.069" x2="916.086" y2="275.437" gradientUnits="userSpaceOnUse">
<stop offset="0.07" stop-color="#8ECDF1"/>
<stop offset="0.17" stop-color="#85C0E1" stop-opacity="0.93"/>
<stop offset="0.36" stop-color="#6E9EB7" stop-opacity="0.75"/>
<stop offset="0.63" stop-color="#496673" stop-opacity="0.45"/>
<stop offset="0.96" stop-color="#161B17" stop-opacity="0.05"/>
<stop offset="1" stop-color="#10120C" stop-opacity="0"/>
</linearGradient>
<linearGradient id="paint1_linear" x1="88437.9" y1="100166" x2="77419" y2="69794" gradientUnits="userSpaceOnUse">
<stop offset="0.07" stop-color="#8ECDF1"/>
<stop offset="0.17" stop-color="#85C0E1" stop-opacity="0.93"/>
<stop offset="0.36" stop-color="#6E9EB7" stop-opacity="0.75"/>
<stop offset="0.63" stop-color="#496673" stop-opacity="0.45"/>
<stop offset="0.96" stop-color="#161B17" stop-opacity="0.05"/>
<stop offset="1" stop-color="#10120C" stop-opacity="0"/>
</linearGradient>
<linearGradient id="paint2_linear" x1="606.74" y1="396.866" x2="901.788" y2="338.823" gradientUnits="userSpaceOnUse">
<stop offset="0.07" stop-color="#4D5BA9"/>
<stop offset="0.2" stop-color="#475499" stop-opacity="0.9"/>
<stop offset="0.46" stop-color="#374170" stop-opacity="0.64"/>
<stop offset="0.82" stop-color="#1E222F" stop-opacity="0.22"/>
<stop offset="1" stop-color="#10120C" stop-opacity="0"/>
</linearGradient>
<linearGradient id="paint3_linear" x1="730.999" y1="496.14" x2="730.999" y2="259.429" gradientUnits="userSpaceOnUse">
<stop stop-color="#8ECDF1"/>
<stop offset="0.08" stop-color="#89C6E8" stop-opacity="0.96"/>
<stop offset="0.22" stop-color="#7BB1CF" stop-opacity="0.85"/>
<stop offset="0.4" stop-color="#6591A7" stop-opacity="0.68"/>
<stop offset="0.61" stop-color="#47636F" stop-opacity="0.43"/>
<stop offset="0.85" stop-color="#202A29" stop-opacity="0.13"/>
<stop offset="0.94" stop-color="#10120C" stop-opacity="0"/>
</linearGradient>
<linearGradient id="paint4_linear" x1="686.079" y1="346.929" x2="785.93" y2="185.978" gradientUnits="userSpaceOnUse">
<stop offset="0.07" stop-color="#8ECDF1"/>
<stop offset="0.18" stop-color="#7DB2E0"/>
<stop offset="0.42" stop-color="#5C7EBF"/>
<stop offset="0.63" stop-color="#4559A8"/>
<stop offset="0.79" stop-color="#364199"/>
<stop offset="0.9" stop-color="#313994"/>
</linearGradient>
<linearGradient id="paint5_linear" x1="1659.37" y1="59645.3" x2="1659.37" y2="51027.1" gradientUnits="userSpaceOnUse">
<stop offset="0.07" stop-color="#8ECDF1"/>
<stop offset="0.17" stop-color="#85C0E1" stop-opacity="0.93"/>
<stop offset="0.36" stop-color="#6E9EB7" stop-opacity="0.75"/>
<stop offset="0.63" stop-color="#496673" stop-opacity="0.45"/>
<stop offset="0.96" stop-color="#161B17" stop-opacity="0.05"/>
<stop offset="1" stop-color="#10120C" stop-opacity="0"/>
</linearGradient>
<linearGradient id="paint6_linear" x1="30460.6" y1="42866.1" x2="23593.4" y2="34935.3" gradientUnits="userSpaceOnUse">
<stop offset="0.07" stop-color="#8ECDF1"/>
<stop offset="0.17" stop-color="#85C0E1" stop-opacity="0.93"/>
<stop offset="0.36" stop-color="#6E9EB7" stop-opacity="0.75"/>
<stop offset="0.63" stop-color="#496673" stop-opacity="0.45"/>
<stop offset="0.96" stop-color="#161B17" stop-opacity="0.05"/>
<stop offset="1" stop-color="#10120C" stop-opacity="0"/>
</linearGradient>
<linearGradient id="paint7_linear" x1="49594.2" y1="36849.1" x2="42733.5" y2="28919.3" gradientUnits="userSpaceOnUse">
<stop offset="0.07" stop-color="#8ECDF1"/>
<stop offset="0.17" stop-color="#85C0E1" stop-opacity="0.93"/>
<stop offset="0.36" stop-color="#6E9EB7" stop-opacity="0.75"/>
<stop offset="0.63" stop-color="#496673" stop-opacity="0.45"/>
<stop offset="0.96" stop-color="#161B17" stop-opacity="0.05"/>
<stop offset="1" stop-color="#10120C" stop-opacity="0"/>
</linearGradient>
<linearGradient id="paint8_linear" x1="559.513" y1="312.869" x2="599.732" y2="312.869" gradientUnits="userSpaceOnUse">
<stop offset="0.07" stop-color="#79BB94"/>
<stop offset="0.33" stop-color="#70AA96"/>
<stop offset="0.84" stop-color="#587F9A"/>
<stop offset="1" stop-color="#506F9C"/>
</linearGradient>
<linearGradient id="paint9_linear" x1="16703.7" y1="30315.9" x2="15397.8" y2="30315.9" gradientUnits="userSpaceOnUse">
<stop offset="0.07" stop-color="#79BB94"/>
<stop offset="0.33" stop-color="#70AA96"/>
<stop offset="0.84" stop-color="#587F9A"/>
<stop offset="1" stop-color="#506F9C"/>
</linearGradient>
<linearGradient id="paint10_linear" x1="720.715" y1="294.11" x2="758.333" y2="225.772" gradientUnits="userSpaceOnUse">
<stop stop-color="white"/>
<stop offset="0.31" stop-color="white"/>
<stop offset="0.71" stop-color="#5D5D5C"/>
</linearGradient>
<linearGradient id="paint11_linear" x1="683.108" y1="299.007" x2="756.93" y2="276.808" gradientUnits="userSpaceOnUse">
<stop stop-color="#7C7C7B"/>
<stop offset="0.72" stop-color="#1F211D"/>
<stop offset="1"/>
</linearGradient>
<linearGradient id="paint12_linear" x1="90318.3" y1="67016.9" x2="18484.5" y2="138627" gradientUnits="userSpaceOnUse">
<stop stop-color="#7C7C7B"/>
<stop offset="0.72" stop-color="#1F211D"/>
<stop offset="1"/>
</linearGradient>
<linearGradient id="paint13_linear" x1="630.974" y1="45.2336" x2="869.763" y2="315.536" gradientUnits="userSpaceOnUse">
<stop stop-color="#F2F2F2"/>
<stop offset="0.26" stop-color="#EFF0F1"/>
<stop offset="0.47" stop-color="#E5E8EF"/>
<stop offset="0.66" stop-color="#D3DBEA"/>
<stop offset="0.84" stop-color="#BBC9E4"/>
<stop offset="1" stop-color="#A1B5DD"/>
</linearGradient>
<linearGradient id="paint14_linear" x1="631.812" y1="28.1381" x2="874.953" y2="179.188" gradientUnits="userSpaceOnUse">
<stop stop-color="#A8DFF4"/>
<stop offset="0.21" stop-color="#A6DCF2"/>
<stop offset="0.38" stop-color="#9FD2EC"/>
<stop offset="0.54" stop-color="#93C0E3"/>
<stop offset="0.69" stop-color="#82A8D5"/>
<stop offset="0.83" stop-color="#6D89C3"/>
<stop offset="0.97" stop-color="#5263AE"/>
<stop offset="1" stop-color="#4D5BA9"/>
</linearGradient>
<linearGradient id="paint15_linear" x1="17020.5" y1="28152.8" x2="12722.7" y2="32403.9" gradientUnits="userSpaceOnUse">
<stop stop-color="#A8DFF4"/>
<stop offset="0.21" stop-color="#A6DCF2"/>
<stop offset="0.38" stop-color="#9FD2EC"/>
<stop offset="0.54" stop-color="#93C0E3"/>
<stop offset="0.69" stop-color="#82A8D5"/>
<stop offset="0.83" stop-color="#6D89C3"/>
<stop offset="0.97" stop-color="#5263AE"/>
<stop offset="1" stop-color="#4D5BA9"/>
</linearGradient>
<linearGradient id="paint16_linear" x1="21457.8" y1="25147.7" x2="17080.9" y2="29471.9" gradientUnits="userSpaceOnUse">
<stop stop-color="#A8DFF4"/>
<stop offset="0.21" stop-color="#A6DCF2"/>
<stop offset="0.38" stop-color="#9FD2EC"/>
<stop offset="0.54" stop-color="#93C0E3"/>
<stop offset="0.69" stop-color="#82A8D5"/>
<stop offset="0.83" stop-color="#6D89C3"/>
<stop offset="0.97" stop-color="#5263AE"/>
<stop offset="1" stop-color="#4D5BA9"/>
</linearGradient>
<linearGradient id="paint17_linear" x1="674.773" y1="146.423" x2="851.144" y2="310.443" gradientUnits="userSpaceOnUse">
<stop stop-color="white"/>
<stop offset="0.31" stop-color="#FCFCFE"/>
<stop offset="0.57" stop-color="#F2F5FB"/>
<stop offset="0.8" stop-color="#E0E8F5"/>
<stop offset="1" stop-color="#CCD8EF"/>
</linearGradient>
<linearGradient id="paint18_linear" x1="27251.8" y1="22869.9" x2="22122" y2="26881.3" gradientUnits="userSpaceOnUse">
<stop stop-color="#A8DFF4"/>
<stop offset="0.21" stop-color="#A6DCF2"/>
<stop offset="0.38" stop-color="#9FD2EC"/>
<stop offset="0.54" stop-color="#93C0E3"/>
<stop offset="0.69" stop-color="#82A8D5"/>
<stop offset="0.83" stop-color="#6D89C3"/>
<stop offset="0.97" stop-color="#5263AE"/>
<stop offset="1" stop-color="#4D5BA9"/>
</linearGradient>
<linearGradient id="paint19_linear" x1="689.887" y1="143.745" x2="653.586" y2="65.4078" gradientUnits="userSpaceOnUse">
<stop stop-color="#16183C"/>
<stop offset="0.53" stop-color="#272660"/>
<stop offset="0.97" stop-color="#4D5BA9"/>
</linearGradient>
<linearGradient id="paint20_linear" x1="678.756" y1="358.192" x2="695.6" y2="319.377" gradientUnits="userSpaceOnUse">
<stop offset="0.07" stop-color="#ECC2B6"/>
<stop offset="0.32" stop-color="#E5B6A5"/>
<stop offset="0.81" stop-color="#D4977A"/>
<stop offset="1" stop-color="#CC8A67"/>
</linearGradient>
<linearGradient id="paint21_linear" x1="5521.17" y1="25213.4" x2="4860.25" y2="24748.5" gradientUnits="userSpaceOnUse">
<stop offset="0.07" stop-color="#ECC2B6"/>
<stop offset="0.32" stop-color="#E5B6A5"/>
<stop offset="0.81" stop-color="#D4977A"/>
<stop offset="1" stop-color="#CC8A67"/>
</linearGradient>
<linearGradient id="paint22_linear" x1="8090.2" y1="26969.3" x2="6997.62" y2="25852" gradientUnits="userSpaceOnUse">
<stop offset="0.07" stop-color="#ECC2B6"/>
<stop offset="0.32" stop-color="#E5B6A5"/>
<stop offset="0.81" stop-color="#D4977A"/>
<stop offset="1" stop-color="#CC8A67"/>
</linearGradient>
<linearGradient id="paint23_linear" x1="686.47" y1="327.897" x2="730.89" y2="320.868" gradientUnits="userSpaceOnUse">
<stop offset="0.07" stop-color="#A8DFF4"/>
<stop offset="0.23" stop-color="#9CCEEA"/>
<stop offset="0.55" stop-color="#7EA2D1"/>
<stop offset="0.99" stop-color="#4E5CAA"/>
<stop offset="1" stop-color="#4D5BA9"/>
</linearGradient>
<linearGradient id="paint24_linear" x1="703.434" y1="319.312" x2="730.922" y2="285.067" gradientUnits="userSpaceOnUse">
<stop offset="0.07" stop-color="#FCF7C2"/>
<stop offset="0.25" stop-color="#F9F0B1"/>
<stop offset="0.61" stop-color="#F0DD85"/>
<stop offset="1" stop-color="#E6C54F"/>
</linearGradient>
<linearGradient id="paint25_linear" x1="3602.61" y1="26435.8" x2="2988.63" y2="26573.4" gradientUnits="userSpaceOnUse">
<stop offset="0.07" stop-color="#ECC2B6"/>
<stop offset="0.32" stop-color="#E5B6A5"/>
<stop offset="0.81" stop-color="#D4977A"/>
<stop offset="1" stop-color="#CC8A67"/>
</linearGradient>
<linearGradient id="paint26_linear" x1="11323.6" y1="15872.3" x2="10496" y2="15509.7" gradientUnits="userSpaceOnUse">
<stop offset="0.07" stop-color="#ECC2B6"/>
<stop offset="0.32" stop-color="#E5B6A5"/>
<stop offset="0.81" stop-color="#D4977A"/>
<stop offset="1" stop-color="#CC8A67"/>
</linearGradient>
<radialGradient id="paint27_radial" cx="0" cy="0" r="1" gradientUnits="userSpaceOnUse" gradientTransform="translate(552.475 453.223) rotate(-143.397) scale(401.814 249.969)">
<stop stop-color="#CE872A"/>
<stop offset="0.17" stop-color="#CB852A" stop-opacity="0.98"/>
<stop offset="0.31" stop-color="#C27F28" stop-opacity="0.93"/>
<stop offset="0.45" stop-color="#B27626" stop-opacity="0.85"/>
<stop offset="0.57" stop-color="#9B6822" stop-opacity="0.73"/>
<stop offset="0.69" stop-color="#7E561D" stop-opacity="0.58"/>
<stop offset="0.81" stop-color="#5B4018" stop-opacity="0.39"/>
<stop offset="0.92" stop-color="#322711" stop-opacity="0.18"/>
<stop offset="1" stop-color="#10120C" stop-opacity="0"/>
</radialGradient>
<linearGradient id="paint28_linear" x1="635.642" y1="130.067" x2="651.246" y2="115.453" gradientUnits="userSpaceOnUse">
<stop offset="0.07" stop-color="#6A59A6"/>
<stop offset="0.44" stop-color="#5A4895"/>
<stop offset="1" stop-color="#3B2875"/>
</linearGradient>
<linearGradient id="paint29_linear" x1="663.445" y1="209.384" x2="663.445" y2="169.677" gradientUnits="userSpaceOnUse">
<stop offset="0.07" stop-color="#7C9DD1"/>
<stop offset="0.27" stop-color="#6F8CC2"/>
<stop offset="0.68" stop-color="#4E6199"/>
<stop offset="1" stop-color="#303975"/>
</linearGradient>
<linearGradient id="paint30_linear" x1="648.276" y1="198.786" x2="648.276" y2="156.01" gradientUnits="userSpaceOnUse">
<stop offset="0.07" stop-color="#4D5BA9"/>
<stop offset="0.34" stop-color="#444F98"/>
<stop offset="0.86" stop-color="#2E2F6D"/>
<stop offset="1" stop-color="#272660"/>
</linearGradient>
<linearGradient id="paint31_linear" x1="642.116" y1="160.308" x2="669.604" y2="124.866" gradientUnits="userSpaceOnUse">
<stop offset="0.07" stop-color="#6A59A6"/>
<stop offset="0.84" stop-color="#60489D"/>
<stop offset="1" stop-color="#5D449B"/>
</linearGradient>
<linearGradient id="paint32_linear" x1="12790.9" y1="10135.9" x2="11903.1" y2="9654.88" gradientUnits="userSpaceOnUse">
<stop offset="0.07" stop-color="#ECC2B6"/>
<stop offset="0.32" stop-color="#E5B6A5"/>
<stop offset="0.81" stop-color="#D4977A"/>
<stop offset="1" stop-color="#CC8A67"/>
</linearGradient>
<linearGradient id="paint33_linear" x1="4177.78" y1="10239.2" x2="4177.78" y2="9559.48" gradientUnits="userSpaceOnUse">
<stop offset="0.07" stop-color="#ECC2B6"/>
<stop offset="0.32" stop-color="#E5B6A5"/>
<stop offset="0.81" stop-color="#D4977A"/>
<stop offset="1" stop-color="#CC8A67"/>
</linearGradient>
<linearGradient id="paint34_linear" x1="6036.29" y1="7712.02" x2="5778.59" y2="7611.05" gradientUnits="userSpaceOnUse">
<stop offset="0.07" stop-color="#6A59A6"/>
<stop offset="0.44" stop-color="#5A4895"/>
<stop offset="1" stop-color="#3B2875"/>
</linearGradient>
<linearGradient id="paint35_linear" x1="10950.6" y1="6742.7" x2="10290.5" y2="6430.62" gradientUnits="userSpaceOnUse">
<stop offset="0.07" stop-color="#ECC2B6"/>
<stop offset="0.32" stop-color="#E5B6A5"/>
<stop offset="0.81" stop-color="#D4977A"/>
<stop offset="1" stop-color="#CC8A67"/>
</linearGradient>
</defs>
</svg>
