<svg width="659" height="673" viewBox="0 0 659 673" fill="none" xmlns="http://www.w3.org/2000/svg">
<path d="M114.552 231.79C106.641 236.35 100.231 247.449 100.231 256.579C100.231 265.709 106.641 269.409 114.552 264.849C122.463 260.29 128.872 249.18 128.872 240.05C128.872 230.92 122.408 227.22 114.552 231.79ZM114.552 259.169C109.361 262.161 105.15 259.735 105.15 253.728C105.15 247.721 109.361 240.452 114.552 237.405C119.742 234.359 123.954 236.84 123.954 242.846C123.954 248.853 119.688 256.176 114.552 259.169V259.169Z" fill="#62CBE6"/>
<path d="M108.491 293.381C108.343 296.095 107.558 298.737 106.199 301.091C104.839 303.444 102.944 305.445 100.667 306.929C96.3142 309.432 92.832 307.408 92.832 302.413C92.979 299.696 93.7652 297.052 95.1266 294.696C96.488 292.34 98.3862 290.339 100.667 288.854C104.987 286.362 108.491 288.386 108.491 293.381Z" fill="#4D5BA9"/>
<path d="M116.609 201.05C116.462 203.764 115.676 206.405 114.317 208.759C112.957 211.113 111.062 213.113 108.785 214.597C104.432 217.1 100.95 215.076 100.95 210.081C101.097 207.364 101.883 204.72 103.245 202.364C104.606 200.008 106.504 198.007 108.785 196.523C113.105 194.031 116.609 196.055 116.609 201.05Z" fill="#4D5BA9"/>
<path d="M78.5371 263.118L67.3779 282.446L78.5358 288.888L89.695 269.56L78.5371 263.118Z" fill="#4379BD"/>
<path d="M82.9953 228.842L76.4663 232.607V225.077C76.4663 223.684 75.4978 223.129 74.2899 223.814C73.6563 224.226 73.129 224.782 72.7508 225.436C72.3726 226.09 72.1543 226.825 72.1136 227.579V235.11L65.5846 238.875C64.9516 239.287 64.4246 239.843 64.0465 240.497C63.6684 241.151 63.4497 241.885 63.4082 242.64C63.4082 244.022 64.3876 244.577 65.5846 243.891L72.1136 240.115V247.656C72.1136 249.038 73.0821 249.604 74.2899 248.908C74.9233 248.498 75.4507 247.944 75.829 247.292C76.2073 246.639 76.4257 245.906 76.4663 245.153V237.612L82.9953 233.847C83.6275 233.436 84.154 232.882 84.5321 232.23C84.9102 231.578 85.1293 230.846 85.1717 230.093C85.1717 228.711 84.1923 228.145 82.9953 228.842Z" fill="#C5DFF4"/>
<path d="M441.352 96.9878C433.452 101.547 427.043 112.657 427.043 121.787C427.043 130.917 433.452 134.617 441.352 130.047C449.252 125.476 455.673 114.377 455.673 105.258C455.673 96.139 449.263 92.4501 441.352 96.9878ZM441.352 124.366C436.162 127.37 431.951 124.943 431.951 118.925C431.951 112.908 436.162 105.639 441.352 102.603C446.543 99.5667 450.754 102.026 450.754 108.044C450.754 114.061 446.543 121.374 441.352 124.366Z" fill="#C1D9F1"/>
<path d="M430.884 149.449C430.738 152.165 429.953 154.808 428.593 157.163C427.234 159.519 425.338 161.521 423.06 163.007C418.708 165.499 415.236 163.475 415.236 158.491C415.383 155.776 416.168 153.132 417.527 150.777C418.887 148.421 420.782 146.419 423.06 144.933C427.38 142.441 430.884 144.454 430.884 149.449Z" fill="#62CBE6"/>
<path d="M442.549 65.3216C442.402 68.0373 441.617 70.6801 440.257 73.0357C438.898 75.3914 437.003 77.3936 434.725 78.8802C430.373 81.3722 426.901 79.3482 426.901 74.3534C427.051 71.6381 427.837 68.996 429.196 66.6406C430.555 64.2853 432.449 62.2827 434.725 60.7948C439.045 58.3029 442.549 60.3269 442.549 65.3216Z" fill="#4D5BA9"/>
<path d="M400.936 119.199L389.776 138.527L400.934 144.969L412.093 125.641L400.936 119.199Z" fill="#4379BD"/>
<path d="M416.259 84.4409L409.73 88.2168V80.6758C409.73 79.2938 408.761 78.7388 407.554 79.4244C406.922 79.8358 406.396 80.39 406.018 81.0421C405.64 81.6942 405.42 82.4261 405.377 83.1786V90.7196L398.848 94.4847C398.215 94.8942 397.687 95.4479 397.309 96.1004C396.931 96.753 396.713 97.4858 396.672 98.2389C396.672 99.6318 397.64 100.187 398.848 99.4903L405.377 95.7252V103.266C405.377 104.648 406.357 105.203 407.554 104.518C408.186 104.107 408.712 103.553 409.09 102.901C409.468 102.248 409.688 101.516 409.73 100.763V93.2224L416.259 89.4574C416.891 89.0465 417.418 88.4926 417.796 87.8403C418.174 87.1881 418.393 86.4559 418.435 85.7032C418.424 84.3103 417.456 83.7444 416.259 84.4409Z" fill="#C5DFF4"/>
<path d="M161.833 581.258V147.076C161.833 135.106 169.135 121.134 178.156 115.933L364.233 8.51895C373.233 3.31748 380.556 8.83453 380.556 20.8371V455.019C380.556 466.988 373.265 480.971 364.233 486.162L178.156 593.587C169.135 598.777 161.833 593.26 161.833 581.258Z" fill="url(#paint0_linear)"/>
<path d="M374.909 7.6811L374.571 7.49609C374.687 7.55107 374.8 7.61286 374.909 7.6811V7.6811Z" fill="#ABBCE1"/>
<path d="M166.284 593.576C163.531 591.269 161.833 587.047 161.833 581.258V147.076C161.833 135.106 169.135 121.134 178.156 115.933L364.234 8.51909C368.162 6.24481 371.775 6.01629 374.593 7.43092L364.658 1.77242C361.698 -0.556272 357.574 -0.686855 353.004 1.95741L166.926 109.371C157.927 114.572 150.604 128.512 150.604 140.515V574.696C150.604 581.889 153.237 586.666 157.274 588.352L166.284 593.576Z" fill="#ABBCE1"/>
<path style="mix-blend-mode:screen" d="M362.656 7.96437L176.578 115.378C167.579 120.579 160.256 134.519 160.256 146.522V580.703C160.256 585.785 161.583 589.68 163.782 592.118L166.273 593.543C163.52 591.236 161.823 587.014 161.823 581.225V147.044C161.823 135.074 169.124 121.102 178.145 115.9L364.223 8.48668C366.686 6.87526 369.666 6.24982 372.569 6.73472C369.795 5.51597 366.367 5.80978 362.656 7.96437ZM374.626 7.47469C374.739 7.5371 374.848 7.60614 374.953 7.68145V7.68145L374.626 7.47469Z" fill="url(#paint1_linear)"/>
<path d="M362.983 17.3658L330.871 35.8647L326.061 47.9435C323.71 53.8305 319.532 59.0428 314.918 61.6762L227.418 112.189C222.847 114.834 218.614 114.507 216.275 111.33L211.454 104.801L179.353 123.299C173.608 126.618 168.95 134.693 168.95 141.32V578.548C168.95 585.175 173.608 587.874 179.353 584.555L362.983 478.643C368.728 475.378 373.385 467.26 373.385 460.623V23.4051C373.385 16.7673 368.728 14.1012 362.983 17.3658Z" fill="url(#paint2_linear)"/>
<path d="M299.596 61.6329L242.739 94.4632C241.716 95.0508 240.889 94.4631 240.889 93.0594C240.9 92.3666 241.074 91.6861 241.395 91.0721C241.716 90.4581 242.176 89.9276 242.739 89.5228L299.596 56.6926C300.619 56.105 301.446 56.6926 301.446 58.0964C301.436 58.7895 301.263 59.4706 300.942 60.0848C300.62 60.6991 300.159 61.2293 299.596 61.6329V61.6329Z" fill="#A5B8DF"/>
<path d="M157.176 261.171L156.904 261.008C156.332 260.6 155.864 260.064 155.537 259.442C155.21 258.82 155.034 258.131 155.021 257.428V217.59C155.021 216.219 155.87 215.577 156.904 216.176L157.176 216.328C157.747 216.739 158.214 217.278 158.541 217.901C158.868 218.525 159.045 219.215 159.059 219.919V259.746C159.059 261.117 158.21 261.77 157.176 261.171Z" fill="#7B97C9"/>
<path d="M155.097 261.171L154.814 261.008C154.242 260.6 153.774 260.064 153.447 259.442C153.12 258.82 152.944 258.131 152.932 257.428V217.59C152.932 216.219 153.78 215.577 154.814 216.176L155.097 216.328C155.665 216.742 156.129 217.281 156.453 217.904C156.778 218.527 156.954 219.217 156.969 219.919V259.746C156.99 261.117 156.12 261.77 155.097 261.171Z" fill="#90A9D6"/>
<path d="M340.348 14.678C342.144 15.7118 342.144 17.3876 340.348 18.4322C339.337 18.9472 338.219 19.2157 337.084 19.2157C335.949 19.2157 334.83 18.9472 333.819 18.4322C332.024 17.344 332.024 15.7118 333.819 14.678C334.83 14.163 335.949 13.8945 337.084 13.8945C338.219 13.8945 339.337 14.163 340.348 14.678V14.678Z" fill="#90A9D6"/>
<path d="M340.348 14.678C339.337 14.163 338.218 13.8945 337.083 13.8945C335.948 13.8945 334.83 14.163 333.819 14.678C333.415 14.9037 333.065 15.2158 332.796 15.5921C332.926 15.4941 333.046 15.3962 333.188 15.3092C334.199 14.7941 335.317 14.5257 336.452 14.5257C337.587 14.5257 338.706 14.7941 339.717 15.3092C341.044 16.0818 341.382 17.2026 340.739 18.1493C342.111 17.1046 341.98 15.6247 340.348 14.678Z" fill="#7B97C9"/>
<g style="mix-blend-mode:overlay" opacity="0.32">
<g style="mix-blend-mode:overlay" opacity="0.32">
<path d="M373.331 230.191V84.5063L168.896 288.942V434.626L373.331 230.191Z" fill="white"/>
</g>
<g style="mix-blend-mode:overlay" opacity="0.32">
<path d="M168.896 246.133L373.331 41.6976V23.4054C373.331 16.7676 368.673 14.0798 362.928 17.3987L346.496 26.8767L326.43 46.9535L326.006 48.0417C323.656 53.9287 319.477 59.1411 314.863 61.7744L307.246 66.1815L168.896 204.532V246.133Z" fill="white"/>
</g>
<g style="mix-blend-mode:overlay" opacity="0.32">
<path d="M373.331 346.582V262.891L168.896 467.337V551.017L373.331 346.582Z" fill="white"/>
</g>
<g style="mix-blend-mode:overlay" opacity="0.32">
<path d="M373.331 421.927V402.786L208.07 568.047L253.36 541.898L373.331 421.927Z" fill="white"/>
</g>
</g>
<path style="mix-blend-mode:overlay" d="M314.918 61.7415L227.417 112.255C222.847 114.899 218.614 114.572 216.275 111.395L211.454 104.866L179.353 123.365C176.202 125.336 173.621 128.097 171.866 131.374C173.355 129.419 175.201 127.765 177.307 126.499L209.419 108L214.229 114.529C216.579 117.695 220.758 118.022 225.372 115.388L312.872 64.8754C316.697 62.4805 319.85 59.1514 322.034 55.2016C320.118 57.8308 317.699 60.0537 314.918 61.7415V61.7415ZM362.982 17.3658L330.87 35.8647L329.88 38.3675L360.893 20.4562C366.638 17.1372 371.296 19.825 371.296 26.4629V463.746C371.177 467.278 370.174 470.723 368.379 473.768C371.402 470.029 373.155 465.425 373.385 460.623V23.4051C373.385 16.7673 368.728 14.1012 362.982 17.3658Z" fill="url(#paint3_linear)"/>
<path d="M244.142 265.916L187.775 298.463C183.847 300.726 180.647 298.321 180.647 293.076C180.647 287.831 183.847 281.738 187.775 279.463L244.142 246.916C248.082 244.653 251.27 247.058 251.27 252.303C251.27 257.548 248.082 263.641 244.142 265.916Z" fill="#C5DFF4"/>
<path d="M264.306 280.704L187.775 324.884C183.847 327.158 180.647 324.753 180.647 319.497C180.647 314.252 183.847 308.159 187.775 305.895L264.306 261.704C268.245 259.43 271.434 261.846 271.434 267.091C271.434 272.347 268.245 278.441 264.306 280.704Z" fill="#C5DFF4"/>
<path d="M230.682 326.571L187.775 351.338C183.847 353.612 180.647 351.196 180.647 345.897C180.647 340.652 183.847 334.558 187.775 332.284L230.682 307.517C234.621 305.243 237.809 307.658 237.809 312.903C237.809 318.203 234.621 324.297 230.682 326.571Z" fill="#C5DFF4"/>
<path d="M353.537 458.348L191.921 551.659C185.642 555.293 180.495 551.398 180.495 543.019V454.724C180.495 446.345 185.642 436.508 191.921 432.885L353.537 339.574C359.826 335.939 364.973 339.835 364.973 348.214V436.508C364.973 444.887 359.826 454.724 353.537 458.348Z" fill="url(#paint4_linear)"/>
<path d="M365.202 84.5604V76.5079C365.202 69.5871 360.338 66.7796 354.32 70.24L191.334 164.334C185.338 167.806 180.452 176.228 180.452 183.149V191.201L365.202 84.5604Z" fill="#4379BD"/>
<path d="M199.68 169.819C199.607 171.342 199.174 172.826 198.418 174.15C197.661 175.474 196.602 176.6 195.327 177.436C192.912 178.829 190.975 177.697 190.975 174.912C191.049 173.389 191.483 171.905 192.239 170.582C192.995 169.258 194.053 168.132 195.327 167.294C197.721 165.901 199.68 167.033 199.68 169.819Z" fill="#62CBE6"/>
<path d="M215.045 161.005C214.97 162.527 214.537 164.011 213.781 165.334C213.025 166.658 211.966 167.784 210.693 168.622C208.277 170.015 206.34 168.883 206.34 166.097C206.413 164.574 206.845 163.09 207.602 161.766C208.358 160.442 209.417 159.316 210.693 158.48C213.087 157.033 215.045 158.164 215.045 161.005Z" fill="#62CBE6"/>
<path d="M230.409 152.082C230.335 153.604 229.902 155.088 229.145 156.411C228.389 157.735 227.331 158.861 226.057 159.699C223.641 161.092 221.704 159.96 221.704 157.174C221.777 155.651 222.21 154.167 222.966 152.843C223.723 151.519 224.782 150.393 226.057 149.557C228.451 148.164 230.409 149.296 230.409 152.082Z" fill="#62CBE6"/>
<path d="M209.081 223.684L224.316 242.868C212.128 258.734 196.023 264.958 186.926 257.297C183.107 254.033 180.887 248.668 180.571 241.878L209.081 223.684Z" fill="white"/>
<path d="M209.082 223.684L180.528 241.878C180.06 231.627 183.977 219.179 191.072 208.449C197.906 198.101 206.927 190.483 215.502 187.774L209.082 223.684Z" fill="#62CBE6"/>
<path d="M224.306 232.541L230.737 196.632C236.939 194.706 242.489 195.544 246.504 198.895C256.385 207.252 254.503 229.299 242.326 247.743C241.419 249.107 240.48 250.424 239.507 251.693L224.306 232.541Z" fill="#4379BD"/>
<path d="M230.737 196.664L215.502 187.807L209.082 223.684L224.316 232.541L230.737 196.664Z" fill="#354EA1"/>
<path d="M244.861 197.741L229.724 188.938C225.883 186.522 220.943 186.12 215.502 187.85L230.736 196.708C236.134 194.988 241.03 195.38 244.861 197.741Z" fill="#4D5BA9"/>
<path d="M224.294 242.835L239.528 251.726L224.294 232.541L209.06 223.684L224.294 242.868V242.835Z" fill="#4D5BA9"/>
<path d="M365.202 320.792L181.91 426.617V422.515L365.202 316.701V320.792Z" fill="#C5DFF4"/>
<path d="M365.202 268.734L181.91 374.559V370.457L365.202 264.632V268.734Z" fill="#C5DFF4"/>
<path d="M289.312 350.532L256.167 369.662C253.49 371.218 251.313 369.575 251.313 365.995V352.284C251.313 348.704 253.49 344.558 256.167 343.013L289.312 323.872C292 322.327 294.166 323.97 294.166 327.539V341.261C294.166 344.83 292 348.987 289.312 350.532Z" fill="#C1D9F1"/>
<path d="M350.48 315.221L317.334 334.351C314.646 335.907 312.48 334.264 312.48 330.684V316.973C312.48 313.393 314.657 309.247 317.334 307.702L350.48 288.561C353.156 287.015 355.333 288.658 355.333 292.228V305.95C355.333 309.519 353.156 313.676 350.48 315.221Z" fill="#C1D9F1"/>
<path d="M207.841 416.726C208.347 417.088 208.954 417.283 209.576 417.283C210.199 417.283 210.806 417.088 211.312 416.726L244.458 397.585C247.146 396.04 249.311 391.883 249.311 388.314V374.505C249.383 373.799 249.286 373.086 249.026 372.425C248.767 371.764 248.353 371.175 247.82 370.707L231.628 359.14C231.122 358.777 230.515 358.583 229.893 358.583C229.27 358.583 228.663 358.777 228.157 359.14L195.011 378.281C192.323 379.826 190.158 383.972 190.158 387.552V401.263C190.087 401.969 190.186 402.681 190.445 403.342C190.704 404.002 191.117 404.591 191.649 405.061L207.841 416.726Z" fill="#9DC0E5"/>
<path d="M244.458 397.487L211.312 416.628C208.635 418.173 206.459 416.53 206.459 412.961V399.239C206.459 395.669 208.635 391.513 211.312 389.967L244.458 370.826C247.146 369.281 249.311 370.924 249.311 374.505V388.215C249.311 391.785 247.146 395.942 244.458 397.487Z" fill="#C1D9F1"/>
<path d="M358.597 157.925L264.72 212.149C261.216 214.173 258.365 212.018 258.365 207.35V183.084C258.365 178.405 261.216 172.964 264.72 170.94L358.575 116.76C362.09 114.725 364.93 116.879 364.93 121.559V145.77C364.952 150.471 362.112 155.901 358.597 157.925Z" fill="#C5DFF4"/>
<path d="M300.13 181.212L264.612 201.724C263.763 202.214 263.077 201.724 263.077 200.571V200.473C263.087 199.9 263.231 199.338 263.497 198.832C263.764 198.325 264.145 197.889 264.612 197.556L300.13 177.044C300.978 176.555 301.664 177.044 301.664 178.198V178.296C301.654 178.868 301.51 179.43 301.244 179.937C300.977 180.443 300.596 180.88 300.13 181.212V181.212Z" fill="url(#paint5_linear)"/>
<path d="M310.141 167.404L264.612 193.65C263.763 194.14 263.077 193.65 263.077 192.497V192.399C263.087 191.825 263.231 191.262 263.497 190.753C263.763 190.245 264.145 189.806 264.612 189.472L310.141 163.192C310.989 162.703 311.675 163.192 311.675 164.346V164.433C311.674 165.014 311.534 165.587 311.267 166.104C311.001 166.62 310.614 167.066 310.141 167.404V167.404Z" fill="url(#paint6_linear)"/>
<path d="M310.141 159.373L264.612 185.663C263.763 186.142 263.077 185.663 263.077 184.499V184.412C263.085 183.837 263.228 183.273 263.495 182.765C263.761 182.256 264.144 181.818 264.612 181.484L310.141 155.205C310.989 154.715 311.675 155.205 311.675 156.358V156.445C311.667 157.02 311.524 157.584 311.257 158.092C310.991 158.601 310.608 159.04 310.141 159.373Z" fill="url(#paint7_linear)"/>
<path d="M378.565 163.453L355.332 176.86V155.14L378.565 141.733V163.453Z" fill="url(#paint8_linear)"/>
<path d="M378.565 141.733L378.412 141.82L355.561 128.414V128.24L332.328 141.657V163.366L355.332 176.859V155.139L378.565 141.733Z" fill="#C0CDE9"/>
<path d="M376.802 264.186L329.695 291.39C325.473 293.828 322.078 291.238 322.078 285.601V233.913C322.078 228.276 325.506 221.736 329.695 219.288L376.802 192.083C381.035 189.646 384.42 192.236 384.42 197.872V249.528C384.42 255.197 380.981 261.748 376.802 264.186Z" fill="#4379BD"/>
<path d="M321.99 285.601V233.913C321.99 228.276 325.418 221.736 329.608 219.288L376.715 192.083C377.411 191.597 378.22 191.295 379.066 191.208C379.911 191.12 380.765 191.249 381.546 191.583V191.583L362.47 180.788C361.679 180.413 360.803 180.256 359.93 180.333C359.058 180.409 358.222 180.717 357.508 181.223L310.401 208.428C306.179 210.865 302.784 217.416 302.784 223.053V274.708C302.784 277.908 303.872 280.149 305.603 280.998L324.689 291.793C323.035 290.889 321.99 288.713 321.99 285.601Z" fill="#4D5BA9"/>
<path d="M357.454 240.137C361.589 235.784 364.517 229.429 364.517 223.956C364.517 216.73 359.446 213.803 353.2 217.427C346.954 221.05 341.872 229.81 341.872 237.014C341.872 242.455 344.799 245.491 348.945 245.045C339.293 252.825 331.948 266.667 331.534 278.604L374.931 253.576C374.441 242.15 367.107 236.775 357.454 240.137Z" fill="url(#paint9_linear)"/>
<path d="M431.211 321.685L364.898 358.682C361.96 360.38 356.78 360.162 353.385 358.204L314.776 335.896C311.381 333.937 311.011 330.945 313.949 329.258L380.328 292.26C383.266 290.563 388.446 290.78 391.83 292.739L430.471 315.047C433.757 317.005 434.127 319.998 431.211 321.685Z" fill="white"/>
<path d="M433.115 500.026V319.389C432.982 319.896 432.742 320.369 432.409 320.775C432.077 321.181 431.66 321.51 431.189 321.739L364.875 358.737C363.218 359.565 361.371 359.94 359.521 359.825V541.55C361.371 541.665 363.218 541.29 364.875 540.462L431.189 503.464C431.84 503.179 432.381 502.689 432.729 502.068C433.077 501.448 433.212 500.73 433.115 500.026V500.026Z" fill="url(#paint10_linear)"/>
<path style="mix-blend-mode:color-dodge" d="M353.362 358.204L314.776 335.896C314.111 335.579 313.522 335.124 313.047 334.561C312.572 333.998 312.223 333.34 312.022 332.632V513.269C311.729 514.727 312.665 516.337 314.776 517.556L353.417 539.864C355.308 540.894 357.422 541.447 359.576 541.474V359.749C357.409 359.75 355.276 359.22 353.362 358.204V358.204Z" fill="url(#paint11_linear)"/>
<path d="M353.362 358.204L314.776 335.896C314.111 335.579 313.522 335.124 313.047 334.561C312.572 333.998 312.223 333.34 312.022 332.632V513.269C311.729 514.727 312.665 516.337 314.776 517.556L353.417 539.864C355.308 540.894 357.422 541.447 359.576 541.474V359.749C357.409 359.75 355.276 359.22 353.362 358.204V358.204Z" fill="#C0CDE9"/>
<path d="M469.797 373.427L403.419 411.513C400.481 413.211 395.301 412.993 391.917 411.034L369.859 397.878C366.464 395.92 366.094 392.927 369.032 391.23L435.095 353.339C438.033 351.642 443.213 351.86 446.597 353.818L468.916 366.789C472.365 368.748 472.735 371.74 469.797 373.427Z" fill="white"/>
<path d="M471.724 377.552V371.022C471.591 371.53 471.351 372.003 471.018 372.409C470.686 372.814 470.269 373.143 469.798 373.373L403.419 411.459C401.768 412.293 399.922 412.669 398.076 412.547V420.088C399.922 420.21 401.767 419.834 403.419 419L469.798 380.914C470.436 380.633 470.967 380.154 471.314 379.549C471.66 378.944 471.804 378.244 471.724 377.552V377.552Z" fill="url(#paint12_linear)"/>
<path style="mix-blend-mode:color-dodge" d="M391.971 411.034L369.913 397.878C369.247 397.563 368.657 397.109 368.182 396.546C367.706 395.982 367.358 395.324 367.16 394.614V401.143C366.856 402.601 367.802 404.211 369.913 405.43L391.971 418.597C393.865 419.619 395.978 420.168 398.13 420.197V412.656C395.975 412.625 393.861 412.069 391.971 411.034V411.034Z" fill="url(#paint13_linear)"/>
<path d="M391.971 411.034L369.913 397.878C369.247 397.563 368.657 397.109 368.182 396.546C367.706 395.982 367.358 395.324 367.16 394.614V401.143C366.856 402.601 367.802 404.211 369.913 405.43L391.971 418.597C393.865 419.619 395.978 420.168 398.13 420.197V412.656C395.975 412.625 393.861 412.069 391.971 411.034V411.034Z" fill="#C0CDE9"/>
<path d="M498.144 412.928L431.766 451.014C428.828 452.712 423.659 452.494 420.264 450.536L398.261 437.401C394.866 435.443 394.496 432.45 397.434 430.753L463.497 392.862C466.435 391.165 471.615 391.382 474.999 393.341L497.317 406.312C500.712 408.249 501.082 411.285 498.144 412.928Z" fill="white"/>
<path d="M500.071 417.085V410.556C499.938 411.063 499.697 411.536 499.365 411.942C499.032 412.348 498.616 412.677 498.144 412.906L431.766 450.992C430.114 451.827 428.269 452.202 426.423 452.08V459.621C428.269 459.743 430.114 459.367 431.766 458.533L498.144 420.447C498.782 420.166 499.314 419.688 499.66 419.083C500.007 418.478 500.151 417.777 500.071 417.085V417.085Z" fill="url(#paint14_linear)"/>
<path style="mix-blend-mode:color-dodge" d="M420.329 450.536L398.261 437.401C397.595 437.086 397.004 436.632 396.529 436.069C396.054 435.505 395.706 434.846 395.508 434.137V440.666C395.203 442.124 396.15 443.734 398.261 444.953L420.329 458.077C422.223 459.098 424.336 459.647 426.488 459.676V452.135C424.336 452.111 422.221 451.562 420.329 450.536V450.536Z" fill="url(#paint15_linear)"/>
<path d="M420.329 450.536L398.261 437.401C397.595 437.086 397.004 436.632 396.529 436.069C396.054 435.505 395.706 434.846 395.508 434.137V440.666C395.203 442.124 396.15 443.734 398.261 444.953L420.329 458.077C422.223 459.098 424.336 459.647 426.488 459.676V452.135C424.336 452.111 422.221 451.562 420.329 450.536V450.536Z" fill="#C0CDE9"/>
<path d="M526.491 452.429L460.112 490.515C457.174 492.213 452.005 491.995 448.61 490.036L426.553 476.88C423.158 474.922 422.788 471.929 425.726 470.232L491.789 432.341C494.727 430.644 499.907 430.861 503.291 432.82L525.609 445.791C529.059 447.75 529.429 450.742 526.491 452.429Z" fill="white"/>
<path d="M528.417 456.586V450.057C528.285 450.564 528.044 451.037 527.712 451.443C527.379 451.849 526.963 452.177 526.491 452.407L460.113 490.493C458.461 491.327 456.616 491.703 454.77 491.581V499.122C456.616 499.244 458.461 498.868 460.113 498.034L526.491 459.948C527.129 459.667 527.66 459.189 528.007 458.584C528.353 457.978 528.497 457.278 528.417 456.586Z" fill="url(#paint16_linear)"/>
<path style="mix-blend-mode:color-dodge" d="M448.621 490.036L426.564 476.88C425.898 476.565 425.307 476.11 424.832 475.547C424.357 474.984 424.009 474.325 423.811 473.615V480.144C423.506 481.602 424.453 483.213 426.564 484.432L448.621 497.577C450.515 498.599 452.628 499.147 454.78 499.176V491.635C452.628 491.612 450.513 491.062 448.621 490.036Z" fill="url(#paint17_linear)"/>
<path d="M448.621 490.036L426.564 476.88C425.898 476.565 425.307 476.11 424.832 475.547C424.357 474.984 424.009 474.325 423.811 473.615V480.144C423.506 481.602 424.453 483.213 426.564 484.432L448.621 497.577C450.515 498.599 452.628 499.147 454.78 499.176V491.635C452.628 491.612 450.513 491.062 448.621 490.036Z" fill="#C0CDE9"/>
<path d="M554.839 491.929L488.514 530.015C485.587 531.713 480.407 531.495 477.012 529.536L454.955 516.38C451.56 514.422 451.19 511.429 454.128 509.732L520.191 471.841C523.129 470.144 528.309 470.361 531.704 472.32L554.012 485.291C557.439 487.25 557.777 490.242 554.839 491.929Z" fill="white"/>
<path d="M556.764 496.086V489.557C556.632 490.065 556.391 490.538 556.058 490.943C555.726 491.349 555.31 491.678 554.838 491.908L488.514 529.994C486.862 530.828 485.017 531.204 483.171 531.082V538.623C485.017 538.744 486.862 538.369 488.514 537.535L554.838 499.449C555.476 499.167 556.007 498.689 556.354 498.084C556.701 497.479 556.844 496.779 556.764 496.086Z" fill="url(#paint18_linear)"/>
<path style="mix-blend-mode:color-dodge" d="M477.012 529.537L454.954 516.381C454.288 516.066 453.697 515.611 453.222 515.048C452.747 514.485 452.399 513.826 452.201 513.116V519.645C451.897 521.103 452.843 522.714 454.954 523.933L477.012 537.1C478.906 538.121 481.019 538.67 483.171 538.699V531.158C481.016 531.128 478.902 530.571 477.012 529.537V529.537Z" fill="url(#paint19_linear)"/>
<path d="M477.012 529.537L454.954 516.381C454.288 516.066 453.697 515.611 453.222 515.048C452.747 514.485 452.399 513.826 452.201 513.116V519.645C451.897 521.103 452.843 522.714 454.954 523.933L477.012 537.1C478.906 538.121 481.019 538.67 483.171 538.699V531.158C481.016 531.128 478.902 530.571 477.012 529.537V529.537Z" fill="#C0CDE9"/>
<path d="M583.185 531.43L516.872 569.516C513.934 571.214 508.754 570.996 505.359 569.038L483.302 555.882C479.907 553.923 479.537 550.93 482.475 549.233L548.538 511.397C551.476 509.699 556.656 509.917 560.051 511.876L582.358 524.847C585.732 526.751 586.123 529.744 583.185 531.43Z" fill="white"/>
<path d="M585.111 535.587V529.058C584.978 529.565 584.738 530.038 584.405 530.444C584.073 530.85 583.656 531.179 583.185 531.408L516.871 569.494C515.215 570.327 513.367 570.703 511.518 570.582V578.123C513.367 578.244 515.215 577.868 516.871 577.035L583.185 538.949C583.823 538.668 584.354 538.19 584.701 537.585C585.047 536.98 585.191 536.279 585.111 535.587V535.587Z" fill="url(#paint20_linear)"/>
<path style="mix-blend-mode:color-dodge" d="M505.358 569.07L483.301 555.914C482.635 555.599 482.044 555.145 481.569 554.581C481.094 554.018 480.746 553.359 480.548 552.649V559.178C480.243 560.637 481.19 562.247 483.301 563.466L505.358 576.633C507.253 577.655 509.366 578.203 511.518 578.232V570.691C509.363 570.661 507.249 570.104 505.358 569.07Z" fill="url(#paint21_linear)"/>
<path d="M505.358 569.07L483.301 555.914C482.635 555.599 482.044 555.145 481.569 554.581C481.094 554.018 480.746 553.359 480.548 552.649V559.178C480.243 560.637 481.19 562.247 483.301 563.466L505.358 576.633C507.253 577.655 509.366 578.203 511.518 578.232V570.691C509.363 570.661 507.249 570.104 505.358 569.07Z" fill="#C0CDE9"/>
<path d="M358.52 333.317C358.423 334.906 360.828 337.148 364.484 339.259C369.348 342.066 371.078 345.625 377.085 342.153C378.815 341.163 379.533 340.369 379.577 339.683V335.94C379.74 334.199 375.572 333.122 372.068 331.098C367.204 328.29 361.97 326.745 359.467 328.203C359.201 328.325 358.972 328.517 358.806 328.759C358.639 329 358.541 329.282 358.52 329.574V333.317Z" fill="#010101"/>
<path d="M364.484 335.483C359.62 332.664 356.975 329.639 359.467 328.203C361.959 326.767 367.204 328.29 372.068 331.097C376.932 333.905 383.102 334.906 377.085 338.377C371.067 341.849 369.348 338.29 364.484 335.483Z" fill="#2B215E"/>
<path d="M372.035 324.002C371.948 325.591 374.353 327.822 378.01 329.944C382.874 332.751 384.604 336.31 390.611 332.838C392.33 331.837 393.059 331.054 393.092 330.357V326.625C393.266 324.884 389.098 323.807 385.594 321.783C380.73 318.975 375.485 317.43 372.993 318.888C372.726 319.011 372.497 319.203 372.328 319.444C372.16 319.685 372.059 319.966 372.035 320.259V324.002Z" fill="#010101"/>
<path d="M378.01 326.157C373.146 323.349 370.49 320.324 372.993 318.888C375.496 317.452 380.73 318.975 385.594 321.783C390.458 324.59 396.628 325.591 390.611 329.062C384.593 332.534 382.874 328.975 378.01 326.157Z" fill="#2B215E"/>
<path d="M366.693 212.302C367.589 211.738 368.673 211.553 369.705 211.787C370.738 212.022 371.635 212.657 372.199 213.553L388.772 239.952C389.336 240.848 389.521 241.932 389.287 242.964C389.052 243.997 388.417 244.894 387.521 245.458V245.458C386.625 246.022 385.541 246.207 384.509 245.973C383.476 245.738 382.579 245.103 382.015 244.207L365.42 217.808C365.142 217.363 364.954 216.867 364.867 216.35C364.781 215.832 364.797 215.302 364.915 214.791C365.033 214.279 365.251 213.796 365.556 213.369C365.862 212.942 366.248 212.579 366.693 212.302Z" fill="#ECC2B6"/>
<path d="M377.574 241.203L382.928 249.724C383.804 251.107 385.191 252.088 386.787 252.453C388.383 252.818 390.059 252.537 391.448 251.671V251.671C392.83 250.794 393.809 249.406 394.172 247.81C394.535 246.214 394.252 244.54 393.385 243.151L388.032 234.631C388.032 234.631 381.318 232.106 377.574 241.203Z" fill="#4379BD"/>
<path d="M379.403 334.231C379.591 333.857 379.684 333.442 379.675 333.023V291.303C379.675 288.658 376.954 286.504 373.635 286.504C370.305 286.504 367.585 288.68 367.585 291.303V336.669C367.585 336.996 367.691 337.315 367.887 337.578C368.083 337.841 368.359 338.033 368.673 338.127C370.98 338.834 376.475 339.835 379.403 334.231Z" fill="#303975"/>
<path d="M392.961 324.449C393.142 324.073 393.227 323.658 393.211 323.241L392.297 281.52C392.297 278.887 389.468 276.787 386.149 276.852C382.819 276.928 380.153 279.148 380.208 281.781L381.198 327.147C381.206 327.471 381.316 327.783 381.511 328.041C381.706 328.298 381.977 328.488 382.286 328.584C384.648 329.237 390.165 330.118 392.961 324.449Z" fill="#4D5BA9"/>
<path d="M369.576 298.8C369.73 298.897 369.906 298.953 370.088 298.964C372.765 299.17 382.373 297.081 391.993 286.243C392.774 285.387 393.236 284.288 393.299 283.131V252.411C393.299 250.094 392.461 248.472 391.122 247.721L383.897 243.499C382.58 242.716 380.752 242.814 378.739 243.978L368.88 249.669C366.776 251.045 365.024 252.897 363.767 255.074C362.51 257.252 361.783 259.695 361.643 262.205V293.131C361.613 293.418 361.662 293.707 361.785 293.968C361.908 294.229 362.1 294.451 362.34 294.611L369.576 298.8Z" fill="#C1D9F1"/>
<path d="M372.373 251.541C372.408 251.995 372.565 252.43 372.828 252.802C373.09 253.173 373.448 253.467 373.864 253.652C374.981 254.221 376.217 254.517 377.471 254.517C378.725 254.517 379.961 254.221 381.078 253.652C381.495 253.469 381.855 253.176 382.117 252.804C382.38 252.432 382.536 251.995 382.569 251.541V244.794C382.534 244.341 382.377 243.905 382.114 243.534C381.852 243.162 381.494 242.868 381.078 242.683C379.961 242.115 378.725 241.818 377.471 241.818C376.217 241.818 374.981 242.115 373.864 242.683C373.45 242.87 373.093 243.164 372.831 243.536C372.569 243.907 372.411 244.341 372.373 244.794V251.541Z" fill="#CA9170"/>
<path d="M377.477 248.19C385.229 248.19 391.514 241.905 391.514 234.152C391.514 226.4 385.229 220.115 377.477 220.115C369.724 220.115 363.439 226.4 363.439 234.152C363.439 241.905 369.724 248.19 377.477 248.19Z" fill="#ECC2B6"/>
<path d="M336.093 231.91C336.787 231.111 337.769 230.618 338.824 230.538C339.88 230.459 340.924 230.799 341.73 231.486L364.277 251.922C365.079 252.614 365.574 253.596 365.654 254.653C365.733 255.709 365.391 256.754 364.701 257.559C364.008 258.358 363.026 258.851 361.97 258.931C360.915 259.01 359.87 258.67 359.065 257.983L336.54 237.547C335.737 236.856 335.24 235.876 335.156 234.821C335.073 233.765 335.409 232.719 336.093 231.91V231.91Z" fill="#ECC2B6"/>
<path d="M353.95 256.427L361.567 262.956C362.81 264.019 364.424 264.547 366.055 264.425C367.686 264.303 369.202 263.54 370.273 262.303V262.303C371.333 261.059 371.859 259.446 371.737 257.816C371.615 256.186 370.854 254.67 369.62 253.598L362.003 247.069C362.003 247.069 354.821 246.634 353.95 256.427Z" fill="#4379BD"/>
<path fill-rule="evenodd" clip-rule="evenodd" d="M385.388 246.97C380.959 249.549 377.575 247.591 376.378 245.73C373.342 241.029 372.841 244.163 371.035 241.954C368.673 238.069 369.207 232.77 365.92 230.321C361.208 226.807 362.503 219.81 374.778 216.676C391.286 212.475 397.782 233.259 387.488 245.273C386.918 245.983 386.202 246.562 385.388 246.97V246.97Z" fill="#B16027"/>
<path d="M372.569 242.509C371.383 243.695 370.077 243.347 369.642 241.726C369.454 240.833 369.479 239.909 369.716 239.027C369.952 238.146 370.393 237.333 371.002 236.655C372.188 235.479 373.494 235.828 373.929 237.438C374.119 238.331 374.095 239.256 373.859 240.137C373.622 241.018 373.18 241.831 372.569 242.509V242.509Z" fill="#ECC2B6"/>
<path d="M159.526 322.054L19.881 402.71C8.94481 409.021 0 424.473 0 437.14V453.908C0 466.531 8.94481 471.7 19.881 465.389L123.823 405.365L117.512 438.195L153.422 388.248L159.494 384.744C170.43 378.433 179.375 362.981 179.375 350.314V333.546C179.407 320.966 170.462 315.754 159.526 322.054Z" fill="url(#paint22_linear)"/>
<path d="M157.622 349.433L21.7634 427.869C20.3488 428.685 19.1953 427.869 19.1953 425.932C19.2113 424.972 19.4518 424.029 19.8978 423.178C20.3438 422.328 20.9827 421.594 21.7634 421.035L157.622 342.599C159.026 341.783 160.179 342.654 160.179 344.536C160.163 345.495 159.923 346.437 159.479 347.287C159.035 348.137 158.399 348.872 157.622 349.433V349.433Z" fill="url(#paint23_linear)"/>
<path d="M87.9682 407.302L21.4263 445.726C20.1967 446.433 19.25 445.726 19.25 444.039V443.136C19.2576 442.306 19.4582 441.49 19.8359 440.752C20.2137 440.013 20.7582 439.373 21.4263 438.881L87.9682 400.469C89.187 399.761 90.1445 400.523 90.1445 402.155V403.048C90.1345 403.877 89.9327 404.692 89.5552 405.43C89.1776 406.168 88.6345 406.809 87.9682 407.302Z" fill="url(#paint24_linear)"/>
<path d="M238.952 410.479C238.952 410.991 239.311 411.426 240.04 411.851C240.225 411.981 240.04 409.108 240.682 409.587C240.867 409.729 250.084 416.9 255.22 415.572C255.452 415.502 255.653 415.357 255.793 415.16C255.933 414.963 256.003 414.725 255.993 414.484V413.33C256.069 412.025 254.132 410.066 251.183 407.171C247.919 404.005 245.873 402.035 241.02 404.832C239.627 405.637 239.072 406.236 239.072 406.747L238.952 410.479Z" fill="#010101"/>
<path d="M251.118 407.15C255.036 410.969 257.179 413.222 255.166 414.386C253.153 415.551 249.127 413.799 245.003 410.686C241.379 407.955 236.102 407.618 240.955 404.81C245.808 402.003 247.876 403.983 251.118 407.15Z" fill="#4A4B67"/>
<path d="M247.211 404.973L246.95 374.842C246.943 374.133 246.723 373.444 246.32 372.861C245.916 372.279 245.347 371.832 244.687 371.577L242.336 370.674L232.423 377.257L237.265 379.727C236.797 385.151 237.295 390.615 238.734 395.865C238.734 395.865 240.399 399.26 240.073 407.16C240.073 407.149 245.361 408.803 247.211 404.973Z" fill="#E0AB86"/>
<path d="M224.458 417.683C224.458 418.195 224.817 418.63 225.546 419.065C225.742 419.185 225.546 416.323 226.188 416.802C226.384 416.932 235.59 424.103 240.726 422.787C240.957 422.717 241.159 422.572 241.299 422.375C241.439 422.178 241.509 421.94 241.499 421.699V420.545C241.564 419.239 239.627 417.281 236.678 414.375C233.414 411.22 231.368 409.239 226.515 412.047C225.133 412.841 224.567 413.439 224.567 413.951L224.458 417.683Z" fill="#010101"/>
<path d="M236.645 414.354C240.573 418.184 242.706 420.437 240.693 421.601C238.68 422.765 234.653 421.013 230.529 417.89C226.916 415.159 221.628 414.822 226.481 412.025C231.334 409.228 233.402 411.198 236.645 414.354Z" fill="#4A4B67"/>
<path d="M232.706 412.537L232.423 377.247L220.758 381.034L222.749 386.779C222.287 391.981 222.789 397.223 224.229 402.242C224.229 402.242 225.894 405.638 225.568 413.549C225.546 413.549 229.898 415.986 232.706 412.537Z" fill="#E0AB86"/>
<path d="M222.282 341.337C222.282 341.337 235.274 329.519 227.353 308.507L221.259 330.325L222.282 341.337Z" fill="#7A4A9E"/>
<path d="M237.657 370.13C236.685 370.414 235.639 370.3 234.75 369.815C233.861 369.33 233.2 368.512 232.913 367.541L222.488 332.044C222.205 331.072 222.318 330.026 222.803 329.137C223.289 328.248 224.106 327.587 225.078 327.3V327.3C226.049 327.016 227.093 327.128 227.982 327.611C228.871 328.094 229.532 328.909 229.822 329.879L240.236 365.375C240.52 366.348 240.409 367.393 239.926 368.284C239.443 369.174 238.627 369.838 237.657 370.13V370.13Z" fill="#E0AB86"/>
<path d="M227.036 360.685L244.686 371.566C244.686 371.566 238.549 370.065 222.749 386.801L205.338 376.779L227.036 360.685Z" fill="#7C3E98"/>
<path d="M207.678 378.291C207.827 378.38 207.995 378.433 208.168 378.444C210.725 378.651 219.92 376.637 229.126 366.267C229.876 365.448 230.319 364.394 230.377 363.286V333.85C230.377 331.674 229.583 330.074 228.31 329.356L221.389 325.319C220.127 324.579 218.375 324.666 216.449 325.776L207.014 331.217C205.004 332.532 203.329 334.299 202.125 336.378C200.922 338.457 200.222 340.789 200.083 343.187V372.785C200.053 373.062 200.101 373.341 200.22 373.593C200.339 373.844 200.525 374.058 200.757 374.211L207.678 378.291Z" fill="#FEFDEC"/>
<path d="M208.723 333.056C208.753 333.491 208.902 333.91 209.153 334.267C209.405 334.623 209.749 334.905 210.148 335.08C211.217 335.623 212.399 335.906 213.598 335.906C214.796 335.906 215.978 335.623 217.047 335.08C217.447 334.905 217.791 334.623 218.042 334.267C218.293 333.91 218.442 333.491 218.473 333.056V326.636C218.443 326.2 218.295 325.781 218.043 325.424C217.792 325.067 217.447 324.786 217.047 324.612C215.978 324.069 214.796 323.786 213.598 323.786C212.399 323.786 211.217 324.069 210.148 324.612C209.748 324.786 209.403 325.067 209.152 325.424C208.901 325.781 208.752 326.2 208.723 326.636V333.056Z" fill="#CA9170"/>
<path d="M213.597 329.846C221.019 329.846 227.036 323.829 227.036 316.407C227.036 308.985 221.019 302.968 213.597 302.968C206.175 302.968 200.158 308.985 200.158 316.407C200.158 323.829 206.175 329.846 213.597 329.846Z" fill="#E0AB86"/>
<path d="M217.581 341.337C217.581 341.337 207.58 330.325 214.523 309.922L226.961 314.209C226.961 314.209 231.248 303.599 217.167 300.542C217.167 300.542 207.787 298.507 204.522 306.255C204.522 306.255 196.981 306.864 199.832 322.37C199.832 322.37 200.246 337.05 217.581 341.337Z" fill="#7A4A9E"/>
<path d="M250.28 369.967L224.969 384.527L205.556 373.939L231.454 359.118L250.28 369.967Z" fill="#C0CDE9"/>
<path d="M250.28 369.967L254.262 344.58L226.155 360.783L224.969 384.527L250.28 369.967Z" fill="url(#paint25_linear)"/>
<path d="M229.975 371.022C229.592 371.355 229.146 371.609 228.664 371.768C228.181 371.927 227.672 371.988 227.166 371.949C226.66 371.909 226.166 371.77 225.714 371.538C225.263 371.306 224.861 370.986 224.534 370.598L200.594 342.599C200.268 342.218 200.021 341.776 199.866 341.298C199.711 340.821 199.651 340.318 199.691 339.818C199.73 339.318 199.867 338.83 200.095 338.383C200.323 337.936 200.637 337.538 201.019 337.213C201.402 336.88 201.848 336.626 202.33 336.467C202.813 336.308 203.322 336.247 203.828 336.286C204.334 336.326 204.828 336.465 205.279 336.697C205.731 336.929 206.132 337.249 206.46 337.637L230.399 365.636C231.055 366.407 231.378 367.407 231.299 368.417C231.219 369.426 230.743 370.363 229.975 371.022V371.022Z" fill="#E0AB86"/>
<path d="M427.261 395.604C426.804 395.811 426.629 396.366 426.586 397.139C426.586 397.356 428.893 395.811 428.762 396.595C428.762 396.823 427.076 408.02 430.645 411.731C430.82 411.89 431.042 411.988 431.278 412.01C431.513 412.031 431.75 411.976 431.951 411.851L432.919 411.307C434.062 410.741 434.813 408.151 435.835 404.299C436.924 400.044 437.631 397.356 432.952 394.592C431.613 393.809 430.852 393.624 430.416 393.863L427.261 395.604Z" fill="#10120C"/>
<path d="M435.879 404.299C434.518 409.435 433.637 412.319 431.689 411.165C429.741 410.012 429.306 405.79 429.97 400.817C430.557 396.464 428.316 391.839 432.995 394.592C437.674 397.345 437 400.044 435.879 404.299Z" fill="#4A4B67"/>
<path d="M466.033 371.468L456.424 374.983L452.528 379.412C447.915 381.503 443.725 384.425 440.167 388.03C440.167 388.03 438.099 391.055 431.266 394.559C431.266 394.559 431.266 399.336 435.52 400.109L462.91 384.352C463.852 383.806 464.653 383.046 465.246 382.133C465.84 381.219 466.21 380.179 466.327 379.096C466.544 376.551 466.445 373.989 466.033 371.468V371.468Z" fill="#CC8A67"/>
<path d="M445.836 419.86C445.836 420.349 446.184 420.774 446.848 421.187C447.033 421.307 446.848 418.532 447.468 419.011C447.653 419.141 456.587 426.095 461.614 424.811C461.84 424.735 462.034 424.588 462.168 424.391C462.301 424.195 462.367 423.96 462.354 423.723V422.635C462.42 421.372 460.548 419.446 457.686 416.66C454.541 413.592 452.528 411.677 447.827 414.397C446.478 415.17 445.945 415.757 445.934 416.247L445.836 419.86Z" fill="#2B215E"/>
<path d="M457.642 416.628C461.44 420.338 463.519 422.526 461.571 423.646C459.623 424.767 455.716 423.081 451.712 420.056C448.197 417.4 443.083 417.074 447.784 414.364C452.484 411.655 454.498 413.559 457.642 416.628Z" fill="#4A4B67"/>
<path d="M453.823 414.854L453.54 380.642L444.269 383.645L444.182 389.881C443.73 394.924 444.213 400.008 445.607 404.876C445.607 404.876 447.229 408.14 446.902 415.844C446.892 415.844 451.048 418.206 453.823 414.854Z" fill="#E0AB86"/>
<path d="M479.09 366.92C478.194 367.32 477.177 367.351 476.259 367.007C475.341 366.663 474.595 365.971 474.182 365.081L459.503 332.632C459.097 331.737 459.063 330.718 459.408 329.798C459.753 328.878 460.448 328.132 461.342 327.724V327.724C462.237 327.318 463.256 327.284 464.176 327.629C465.096 327.974 465.842 328.669 466.25 329.563L480.94 362.012C481.342 362.909 481.373 363.928 481.026 364.847C480.68 365.767 479.984 366.512 479.09 366.92V366.92Z" fill="#CC8A67"/>
<path d="M480.56 363.231L457.566 349.956V331.413L480.56 344.689V363.231Z" fill="#C0CDE9"/>
<path d="M474.9 358.225V344.155L475.39 344.438V358.508L474.9 358.225Z" fill="url(#paint26_linear)"/>
<path d="M473.791 353.416V343.514L474.281 343.797V353.699L473.791 353.416Z" fill="url(#paint27_linear)"/>
<path d="M472.67 355.853V342.872L473.17 343.154V356.136L472.67 355.853Z" fill="url(#paint28_linear)"/>
<path d="M471.561 356.3V342.229L472.061 342.512V356.582L471.561 356.3Z" fill="url(#paint29_linear)"/>
<path d="M470.45 346.745V341.587L470.951 341.87V347.028L470.45 346.745Z" fill="url(#paint30_linear)"/>
<path d="M438.229 372.655V385.289C438.229 385.289 453.04 390.294 466.957 372.655V360.424L438.229 372.655Z" fill="url(#paint31_linear)"/>
<path d="M444.944 376.572C445.088 376.663 445.253 376.715 445.423 376.724C447.904 376.92 456.827 374.973 465.75 364.918C466.473 364.12 466.899 363.098 466.958 362.023V333.48C466.958 331.304 466.185 329.824 464.956 329.128L458.241 325.21C457.023 324.481 455.325 324.568 453.464 325.646L444.302 330.934C442.351 332.213 440.727 333.931 439.561 335.951C438.395 337.972 437.719 340.238 437.588 342.567V371.284C437.56 371.549 437.606 371.817 437.719 372.058C437.832 372.3 438.009 372.506 438.23 372.655L444.944 376.572Z" fill="#B8B7DC"/>
<path d="M447.533 332.708C447.565 333.129 447.711 333.533 447.954 333.878C448.198 334.223 448.53 334.495 448.915 334.667C449.952 335.192 451.099 335.466 452.261 335.466C453.424 335.466 454.57 335.192 455.608 334.667C455.993 334.495 456.325 334.223 456.568 333.878C456.812 333.533 456.957 333.129 456.989 332.708V326.484C456.958 326.063 456.813 325.658 456.57 325.313C456.326 324.968 455.994 324.695 455.608 324.525C454.57 323.999 453.424 323.725 452.261 323.725C451.099 323.725 449.952 323.999 448.915 324.525C448.529 324.695 448.196 324.968 447.953 325.313C447.709 325.658 447.564 326.063 447.533 326.484V332.708Z" fill="#CA9170"/>
<path d="M422.288 373.547C421.413 373.1 420.75 372.325 420.445 371.392C420.139 370.458 420.215 369.441 420.656 368.563L436.793 336.582C437.012 336.148 437.315 335.762 437.683 335.445C438.052 335.128 438.48 334.887 438.941 334.735C439.403 334.584 439.89 334.525 440.375 334.561C440.86 334.598 441.332 334.73 441.766 334.95C442.643 335.395 443.307 336.169 443.613 337.104C443.92 338.038 443.842 339.056 443.398 339.933L427.272 371.904C426.826 372.781 426.052 373.446 425.119 373.753C424.185 374.061 423.167 373.987 422.288 373.547V373.547Z" fill="#E6AA84"/>
<path d="M464.313 313.012L468.992 331.174C469.069 331.552 469.044 331.945 468.92 332.311C468.795 332.677 468.575 333.003 468.282 333.255C467.99 333.508 467.635 333.678 467.255 333.748C466.875 333.819 466.483 333.786 466.12 333.655L455.357 329.182C454.912 328.985 454.545 328.644 454.317 328.214C454.088 327.784 454.01 327.29 454.095 326.81L457.621 308.953C457.727 308.552 457.945 308.19 458.25 307.909C458.554 307.628 458.933 307.439 459.341 307.366C459.749 307.293 460.17 307.338 460.553 307.496C460.937 307.654 461.267 307.918 461.506 308.257L464.063 312.435C464.171 312.616 464.255 312.81 464.313 313.012V313.012Z" fill="#2B215E"/>
<path d="M447.925 323.883C447.925 325.439 446.837 326.059 445.487 325.286C444.781 324.821 444.192 324.197 443.769 323.464C443.346 322.731 443.1 321.909 443.05 321.064C443.05 319.519 444.138 318.888 445.487 319.661C446.194 320.126 446.782 320.75 447.205 321.483C447.629 322.216 447.875 323.038 447.925 323.883V323.883Z" fill="#E6AA84"/>
<path d="M452.224 329.498C459.417 329.498 465.249 323.666 465.249 316.472C465.249 309.278 459.417 303.447 452.224 303.447C445.03 303.447 439.198 309.278 439.198 316.472C439.198 323.666 445.03 329.498 452.224 329.498Z" fill="#E6AA84"/>
<path d="M439.546 318.202C439.546 318.202 450.558 324.242 455.868 308.539C455.868 308.539 458.741 315.177 465.901 313.708C465.901 313.708 465.901 303.381 455.237 301.368C455.292 301.379 436.445 299.486 439.546 318.202Z" fill="#2B215E"/>
<path d="M445.617 318.725L450.286 336.875C450.388 337.257 450.382 337.661 450.266 338.039C450.151 338.417 449.932 338.756 449.633 339.015C449.335 339.275 448.97 339.446 448.579 339.508C448.188 339.57 447.788 339.522 447.424 339.367L436.662 334.884C436.209 334.699 435.836 334.362 435.605 333.931C435.375 333.5 435.302 333.002 435.399 332.523L438.925 314.655C439.031 314.254 439.249 313.892 439.554 313.61C439.859 313.329 440.237 313.141 440.645 313.068C441.054 312.995 441.474 313.04 441.858 313.197C442.241 313.355 442.571 313.619 442.81 313.958L445.367 318.148C445.479 318.327 445.563 318.521 445.617 318.725V318.725Z" fill="#2B215E"/>
<path d="M653.754 670.629C653.754 672.131 654.842 672.74 656.115 671.989C656.799 671.541 657.368 670.938 657.776 670.229C658.185 669.52 658.421 668.725 658.466 667.909C658.466 666.396 657.378 665.798 656.115 666.549C655.428 666.995 654.856 667.597 654.446 668.306C654.035 669.015 653.798 669.811 653.754 670.629V670.629Z" fill="#ECC2B6"/>
<defs>
<linearGradient id="paint0_linear" x1="389.784" y1="0.956152" x2="150.287" y2="606.819" gradientUnits="userSpaceOnUse">
<stop stop-color="#C5DFF4"/>
<stop offset="0.06" stop-color="#C3DCF2"/>
<stop offset="0.65" stop-color="#ADC2E4"/>
<stop offset="1" stop-color="#A5B8DF"/>
</linearGradient>
<linearGradient id="paint1_linear" x1="330.011" y1="-85.4009" x2="102.365" y2="538.253" gradientUnits="userSpaceOnUse">
<stop stop-color="#C1D9F1"/>
<stop offset="1" stop-color="white" stop-opacity="0"/>
</linearGradient>
<linearGradient id="paint2_linear" x1="393.495" y1="-22.9946" x2="13.8528" y2="982.587" gradientUnits="userSpaceOnUse">
<stop stop-color="#E6F2FB"/>
<stop offset="0.04" stop-color="#E4F0FA"/>
<stop offset="0.64" stop-color="#CAD7EE"/>
<stop offset="1" stop-color="#C0CDE9"/>
</linearGradient>
<linearGradient id="paint3_linear" x1="272.62" y1="15.9729" x2="272.62" y2="510.461" gradientUnits="userSpaceOnUse">
<stop stop-color="#ABBCE1"/>
<stop offset="1" stop-color="white" stop-opacity="0"/>
</linearGradient>
<linearGradient id="paint4_linear" x1="187.927" y1="383.384" x2="388.086" y2="530.276" gradientUnits="userSpaceOnUse">
<stop stop-color="#62CBE6"/>
<stop offset="0.03" stop-color="#61C8E5"/>
<stop offset="0.46" stop-color="#519DCF"/>
<stop offset="0.8" stop-color="#4783C2"/>
<stop offset="1" stop-color="#4379BD"/>
</linearGradient>
<linearGradient id="paint5_linear" x1="46852.9" y1="7962.49" x2="45068" y2="10631.2" gradientUnits="userSpaceOnUse">
<stop stop-color="white"/>
<stop offset="0.12" stop-color="#F5F7FC" stop-opacity="0.84"/>
<stop offset="0.37" stop-color="#E2E8F5" stop-opacity="0.55"/>
<stop offset="0.59" stop-color="#D4DDF0" stop-opacity="0.31"/>
<stop offset="0.77" stop-color="#C9D4EC" stop-opacity="0.14"/>
<stop offset="0.91" stop-color="#C2CFEA" stop-opacity="0.04"/>
<stop offset="1" stop-color="#C0CDE9" stop-opacity="0"/>
</linearGradient>
<linearGradient id="paint6_linear" x1="58805.1" y1="9655.48" x2="56628.9" y2="12986.3" gradientUnits="userSpaceOnUse">
<stop stop-color="white"/>
<stop offset="0.12" stop-color="#F5F7FC" stop-opacity="0.84"/>
<stop offset="0.37" stop-color="#E2E8F5" stop-opacity="0.55"/>
<stop offset="0.59" stop-color="#D4DDF0" stop-opacity="0.31"/>
<stop offset="0.77" stop-color="#C9D4EC" stop-opacity="0.14"/>
<stop offset="0.91" stop-color="#C2CFEA" stop-opacity="0.04"/>
<stop offset="1" stop-color="#C0CDE9" stop-opacity="0"/>
</linearGradient>
<linearGradient id="paint7_linear" x1="58625.7" y1="9529.15" x2="56449.9" y2="12859.5" gradientUnits="userSpaceOnUse">
<stop stop-color="white"/>
<stop offset="0.12" stop-color="#F5F7FC" stop-opacity="0.84"/>
<stop offset="0.37" stop-color="#E2E8F5" stop-opacity="0.55"/>
<stop offset="0.59" stop-color="#D4DDF0" stop-opacity="0.31"/>
<stop offset="0.77" stop-color="#C9D4EC" stop-opacity="0.14"/>
<stop offset="0.91" stop-color="#C2CFEA" stop-opacity="0.04"/>
<stop offset="1" stop-color="#C0CDE9" stop-opacity="0"/>
</linearGradient>
<linearGradient id="paint8_linear" x1="26826" y1="10832.8" x2="25952.8" y2="11812.9" gradientUnits="userSpaceOnUse">
<stop stop-color="#E6F2FB"/>
<stop offset="0.04" stop-color="#E4F0FA"/>
<stop offset="0.64" stop-color="#CAD7EE"/>
<stop offset="1" stop-color="#C0CDE9"/>
</linearGradient>
<linearGradient id="paint9_linear" x1="54827.4" y1="23482.5" x2="51550.4" y2="29210.3" gradientUnits="userSpaceOnUse">
<stop stop-color="white"/>
<stop offset="0.12" stop-color="#F5F7FC" stop-opacity="0.84"/>
<stop offset="0.37" stop-color="#E2E8F5" stop-opacity="0.55"/>
<stop offset="0.59" stop-color="#D4DDF0" stop-opacity="0.31"/>
<stop offset="0.77" stop-color="#C9D4EC" stop-opacity="0.14"/>
<stop offset="0.91" stop-color="#C2CFEA" stop-opacity="0.04"/>
<stop offset="1" stop-color="#C0CDE9" stop-opacity="0"/>
</linearGradient>
<linearGradient id="paint10_linear" x1="98333.9" y1="115396" x2="78439.8" y2="121314" gradientUnits="userSpaceOnUse">
<stop stop-color="#E6F2FB"/>
<stop offset="0.04" stop-color="#E4F0FA"/>
<stop offset="0.64" stop-color="#CAD7EE"/>
<stop offset="1" stop-color="#C0CDE9"/>
</linearGradient>
<linearGradient id="paint11_linear" x1="58784.1" y1="146796" x2="58784.1" y2="94963.3" gradientUnits="userSpaceOnUse">
<stop offset="0.07" stop-color="#8ECDF1"/>
<stop offset="0.17" stop-color="#85C0E1" stop-opacity="0.93"/>
<stop offset="0.36" stop-color="#6E9EB7" stop-opacity="0.75"/>
<stop offset="0.63" stop-color="#496673" stop-opacity="0.45"/>
<stop offset="0.96" stop-color="#161B17" stop-opacity="0.05"/>
<stop offset="1" stop-color="#10120C" stop-opacity="0"/>
</linearGradient>
<linearGradient id="paint12_linear" x1="100028" y1="25190.5" x2="95144.3" y2="30187.4" gradientUnits="userSpaceOnUse">
<stop stop-color="#E6F2FB"/>
<stop offset="0.04" stop-color="#E4F0FA"/>
<stop offset="0.64" stop-color="#CAD7EE"/>
<stop offset="1" stop-color="#C0CDE9"/>
</linearGradient>
<linearGradient id="paint13_linear" x1="39810.7" y1="14593.7" x2="39810.7" y2="13816.7" gradientUnits="userSpaceOnUse">
<stop offset="0.07" stop-color="#8ECDF1"/>
<stop offset="0.17" stop-color="#85C0E1" stop-opacity="0.93"/>
<stop offset="0.36" stop-color="#6E9EB7" stop-opacity="0.75"/>
<stop offset="0.63" stop-color="#496673" stop-opacity="0.45"/>
<stop offset="0.96" stop-color="#161B17" stop-opacity="0.05"/>
<stop offset="1" stop-color="#10120C" stop-opacity="0"/>
</linearGradient>
<linearGradient id="paint14_linear" x1="101910" y1="27041.8" x2="97026.4" y2="32038.8" gradientUnits="userSpaceOnUse">
<stop stop-color="#E6F2FB"/>
<stop offset="0.04" stop-color="#E4F0FA"/>
<stop offset="0.64" stop-color="#CAD7EE"/>
<stop offset="1" stop-color="#C0CDE9"/>
</linearGradient>
<linearGradient id="paint15_linear" x1="40661.5" y1="15536.1" x2="40661.5" y2="14760.5" gradientUnits="userSpaceOnUse">
<stop offset="0.07" stop-color="#8ECDF1"/>
<stop offset="0.17" stop-color="#85C0E1" stop-opacity="0.93"/>
<stop offset="0.36" stop-color="#6E9EB7" stop-opacity="0.75"/>
<stop offset="0.63" stop-color="#496673" stop-opacity="0.45"/>
<stop offset="0.96" stop-color="#161B17" stop-opacity="0.05"/>
<stop offset="1" stop-color="#10120C" stop-opacity="0"/>
</linearGradient>
<linearGradient id="paint16_linear" x1="103792" y1="28893.1" x2="98908.5" y2="33889.6" gradientUnits="userSpaceOnUse">
<stop stop-color="#E6F2FB"/>
<stop offset="0.04" stop-color="#E4F0FA"/>
<stop offset="0.64" stop-color="#CAD7EE"/>
<stop offset="1" stop-color="#C0CDE9"/>
</linearGradient>
<linearGradient id="paint17_linear" x1="41484.2" y1="16516.3" x2="41484.2" y2="15740" gradientUnits="userSpaceOnUse">
<stop offset="0.07" stop-color="#8ECDF1"/>
<stop offset="0.17" stop-color="#85C0E1" stop-opacity="0.93"/>
<stop offset="0.36" stop-color="#6E9EB7" stop-opacity="0.75"/>
<stop offset="0.63" stop-color="#496673" stop-opacity="0.45"/>
<stop offset="0.96" stop-color="#161B17" stop-opacity="0.05"/>
<stop offset="1" stop-color="#10120C" stop-opacity="0"/>
</linearGradient>
<linearGradient id="paint18_linear" x1="105596" y1="30744" x2="100713" y2="35737.4" gradientUnits="userSpaceOnUse">
<stop stop-color="#E6F2FB"/>
<stop offset="0.04" stop-color="#E4F0FA"/>
<stop offset="0.64" stop-color="#CAD7EE"/>
<stop offset="1" stop-color="#C0CDE9"/>
</linearGradient>
<linearGradient id="paint19_linear" x1="42320.6" y1="17498.2" x2="42320.6" y2="16721.2" gradientUnits="userSpaceOnUse">
<stop offset="0.07" stop-color="#8ECDF1"/>
<stop offset="0.17" stop-color="#85C0E1" stop-opacity="0.93"/>
<stop offset="0.36" stop-color="#6E9EB7" stop-opacity="0.75"/>
<stop offset="0.63" stop-color="#496673" stop-opacity="0.45"/>
<stop offset="0.96" stop-color="#161B17" stop-opacity="0.05"/>
<stop offset="1" stop-color="#10120C" stop-opacity="0"/>
</linearGradient>
<linearGradient id="paint20_linear" x1="107477" y1="32595.1" x2="102593" y2="37588" gradientUnits="userSpaceOnUse">
<stop stop-color="#E6F2FB"/>
<stop offset="0.04" stop-color="#E4F0FA"/>
<stop offset="0.64" stop-color="#CAD7EE"/>
<stop offset="1" stop-color="#C0CDE9"/>
</linearGradient>
<linearGradient id="paint21_linear" x1="43157.4" y1="18466.4" x2="43157.4" y2="17689.4" gradientUnits="userSpaceOnUse">
<stop offset="0.07" stop-color="#8ECDF1"/>
<stop offset="0.17" stop-color="#85C0E1" stop-opacity="0.93"/>
<stop offset="0.36" stop-color="#6E9EB7" stop-opacity="0.75"/>
<stop offset="0.63" stop-color="#496673" stop-opacity="0.45"/>
<stop offset="0.96" stop-color="#161B17" stop-opacity="0.05"/>
<stop offset="1" stop-color="#10120C" stop-opacity="0"/>
</linearGradient>
<linearGradient id="paint22_linear" x1="70.3069" y1="543.084" x2="118.023" y2="175.412" gradientUnits="userSpaceOnUse">
<stop stop-color="#4379BD" stop-opacity="0"/>
<stop offset="0.04" stop-color="#477BBE" stop-opacity="0.04"/>
<stop offset="0.71" stop-color="#98A6D3" stop-opacity="0.72"/>
<stop offset="1" stop-color="#B8B7DC"/>
</linearGradient>
<linearGradient id="paint23_linear" x1="143508" y1="43558" x2="130247" y2="64342.8" gradientUnits="userSpaceOnUse">
<stop stop-color="white"/>
<stop offset="0.12" stop-color="#F5F7FC" stop-opacity="0.84"/>
<stop offset="0.37" stop-color="#E2E8F5" stop-opacity="0.55"/>
<stop offset="0.59" stop-color="#D4DDF0" stop-opacity="0.31"/>
<stop offset="0.77" stop-color="#C9D4EC" stop-opacity="0.14"/>
<stop offset="0.91" stop-color="#C2CFEA" stop-opacity="0.04"/>
<stop offset="1" stop-color="#C0CDE9" stop-opacity="0"/>
</linearGradient>
<linearGradient id="paint24_linear" x1="72318.2" y1="23539.5" x2="65081.3" y2="34236.5" gradientUnits="userSpaceOnUse">
<stop stop-color="white"/>
<stop offset="0.12" stop-color="#F5F7FC" stop-opacity="0.84"/>
<stop offset="0.37" stop-color="#E2E8F5" stop-opacity="0.55"/>
<stop offset="0.59" stop-color="#D4DDF0" stop-opacity="0.31"/>
<stop offset="0.77" stop-color="#C9D4EC" stop-opacity="0.14"/>
<stop offset="0.91" stop-color="#C2CFEA" stop-opacity="0.04"/>
<stop offset="1" stop-color="#C0CDE9" stop-opacity="0"/>
</linearGradient>
<linearGradient id="paint25_linear" x1="260.519" y1="338.225" x2="222.999" y2="383.896" gradientUnits="userSpaceOnUse">
<stop stop-color="white"/>
<stop offset="0.61" stop-color="#DAE2F2"/>
<stop offset="1" stop-color="#C0CDE9"/>
</linearGradient>
<linearGradient id="paint26_linear" x1="1077.4" y1="7383.88" x2="1042.54" y2="7388.54" gradientUnits="userSpaceOnUse">
<stop stop-color="white"/>
<stop offset="0.12" stop-color="#F5F7FC" stop-opacity="0.84"/>
<stop offset="0.37" stop-color="#E2E8F5" stop-opacity="0.55"/>
<stop offset="0.59" stop-color="#D4DDF0" stop-opacity="0.31"/>
<stop offset="0.77" stop-color="#C9D4EC" stop-opacity="0.14"/>
<stop offset="0.91" stop-color="#C2CFEA" stop-opacity="0.04"/>
<stop offset="1" stop-color="#C0CDE9" stop-opacity="0"/>
</linearGradient>
<linearGradient id="paint27_linear" x1="1075.52" y1="5335.02" x2="1041.22" y2="5341.49" gradientUnits="userSpaceOnUse">
<stop stop-color="white"/>
<stop offset="0.12" stop-color="#F5F7FC" stop-opacity="0.84"/>
<stop offset="0.37" stop-color="#E2E8F5" stop-opacity="0.55"/>
<stop offset="0.59" stop-color="#D4DDF0" stop-opacity="0.31"/>
<stop offset="0.77" stop-color="#C9D4EC" stop-opacity="0.14"/>
<stop offset="0.91" stop-color="#C2CFEA" stop-opacity="0.04"/>
<stop offset="1" stop-color="#C0CDE9" stop-opacity="0"/>
</linearGradient>
<linearGradient id="paint28_linear" x1="1087.24" y1="6841.05" x2="1051.76" y2="6846.3" gradientUnits="userSpaceOnUse">
<stop stop-color="white"/>
<stop offset="0.12" stop-color="#F5F7FC" stop-opacity="0.84"/>
<stop offset="0.37" stop-color="#E2E8F5" stop-opacity="0.55"/>
<stop offset="0.59" stop-color="#D4DDF0" stop-opacity="0.31"/>
<stop offset="0.77" stop-color="#C9D4EC" stop-opacity="0.14"/>
<stop offset="0.91" stop-color="#C2CFEA" stop-opacity="0.04"/>
<stop offset="1" stop-color="#C0CDE9" stop-opacity="0"/>
</linearGradient>
<linearGradient id="paint29_linear" x1="1085.64" y1="7369.88" x2="1050.05" y2="7374.75" gradientUnits="userSpaceOnUse">
<stop stop-color="white"/>
<stop offset="0.12" stop-color="#F5F7FC" stop-opacity="0.84"/>
<stop offset="0.37" stop-color="#E2E8F5" stop-opacity="0.55"/>
<stop offset="0.59" stop-color="#D4DDF0" stop-opacity="0.31"/>
<stop offset="0.77" stop-color="#C9D4EC" stop-opacity="0.14"/>
<stop offset="0.91" stop-color="#C2CFEA" stop-opacity="0.04"/>
<stop offset="1" stop-color="#C0CDE9" stop-opacity="0"/>
</linearGradient>
<linearGradient id="paint30_linear" x1="1083.49" y1="3002.72" x2="1051.41" y2="3014.29" gradientUnits="userSpaceOnUse">
<stop stop-color="white"/>
<stop offset="0.12" stop-color="#F5F7FC" stop-opacity="0.84"/>
<stop offset="0.37" stop-color="#E2E8F5" stop-opacity="0.55"/>
<stop offset="0.59" stop-color="#D4DDF0" stop-opacity="0.31"/>
<stop offset="0.77" stop-color="#C9D4EC" stop-opacity="0.14"/>
<stop offset="0.91" stop-color="#C2CFEA" stop-opacity="0.04"/>
<stop offset="1" stop-color="#C0CDE9" stop-opacity="0"/>
</linearGradient>
<linearGradient id="paint31_linear" x1="438.229" y1="373.188" x2="466.957" y2="373.188" gradientUnits="userSpaceOnUse">
<stop offset="0.07" stop-color="#6A59A6"/>
<stop offset="0.44" stop-color="#5A4895"/>
<stop offset="1" stop-color="#3B2875"/>
</linearGradient>
</defs>
</svg>
