<svg width="681" height="791" viewBox="0 0 681 791" fill="none" xmlns="http://www.w3.org/2000/svg">
<path d="M114.552 231.791C106.641 236.35 100.232 247.45 100.232 256.579C100.232 265.709 106.641 269.409 114.552 264.849C122.463 260.29 128.872 249.18 128.872 240.05C128.872 230.92 122.409 227.22 114.552 231.791ZM114.552 259.169C109.361 262.162 105.15 259.735 105.15 253.728C105.15 247.722 109.361 240.453 114.552 237.406C119.743 234.359 123.954 236.84 123.954 242.847C123.954 248.853 119.688 256.177 114.552 259.169Z" fill="#62CBE6"/>
<path d="M108.491 293.381C108.344 296.095 107.558 298.737 106.199 301.09C104.839 303.444 102.944 305.445 100.667 306.929C96.3143 309.432 92.8322 307.408 92.8322 302.413C92.9791 299.696 93.7653 297.052 95.1267 294.696C96.4881 292.34 98.3863 290.338 100.667 288.854C104.987 286.362 108.491 288.386 108.491 293.381Z" fill="#4D5BA9"/>
<path d="M116.609 201.05C116.461 203.764 115.676 206.405 114.317 208.759C112.957 211.113 111.062 213.113 108.785 214.597C104.432 217.1 100.95 215.076 100.95 210.081C101.097 207.364 101.883 204.72 103.245 202.364C104.606 200.008 106.504 198.007 108.785 196.523C113.105 194.031 116.609 196.055 116.609 201.05Z" fill="#4D5BA9"/>
<path d="M78.5371 263.118L67.3779 282.446L78.5358 288.888L89.695 269.56L78.5371 263.118Z" fill="#4379BD"/>
<path d="M82.9951 228.842L76.466 232.607V225.077C76.466 223.684 75.4976 223.129 74.2897 223.814C73.6561 224.226 73.1287 224.782 72.7506 225.436C72.3724 226.091 72.154 226.825 72.1133 227.579V235.11L65.5843 238.875C64.9513 239.287 64.4244 239.843 64.0463 240.497C63.6682 241.151 63.4495 241.885 63.408 242.64C63.408 244.022 64.3873 244.577 65.5843 243.891L72.1133 240.115V247.656C72.1133 249.038 73.0818 249.604 74.2897 248.908C74.9231 248.498 75.4505 247.944 75.8288 247.292C76.207 246.639 76.4254 245.907 76.466 245.153V237.612L82.9951 233.847C83.6273 233.437 84.1537 232.883 84.5318 232.23C84.91 231.578 85.1291 230.846 85.1714 230.093C85.1714 228.711 84.1921 228.145 82.9951 228.842Z" fill="#C5DFF4"/>
<path d="M441.352 96.9877C433.452 101.547 427.043 112.657 427.043 121.787C427.043 130.917 433.452 134.617 441.352 130.046C449.252 125.476 455.673 114.377 455.673 105.258C455.673 96.1389 449.263 92.45 441.352 96.9877ZM441.352 124.366C436.162 127.369 431.951 124.943 431.951 118.925C431.951 112.908 436.162 105.639 441.352 102.603C446.543 99.5666 450.754 102.026 450.754 108.044C450.754 114.061 446.543 121.374 441.352 124.366Z" fill="#C1D9F1"/>
<path d="M430.884 149.449C430.737 152.164 429.953 154.808 428.593 157.163C427.234 159.519 425.338 161.521 423.06 163.007C418.707 165.499 415.236 163.475 415.236 158.491C415.383 155.775 416.168 153.132 417.527 150.777C418.886 148.421 420.782 146.419 423.06 144.933C427.38 142.441 430.884 144.454 430.884 149.449Z" fill="#62CBE6"/>
<path d="M442.55 65.3217C442.402 68.0374 441.617 70.6802 440.258 73.0358C438.898 75.3915 437.003 77.3937 434.726 78.8804C430.373 81.3723 426.902 79.3483 426.902 74.3536C427.051 71.6383 427.837 68.9962 429.196 66.6408C430.555 64.2854 432.449 62.2828 434.726 60.7949C439.046 58.303 442.55 60.327 442.55 65.3217Z" fill="#4D5BA9"/>
<path d="M400.935 119.199L389.776 138.527L400.934 144.969L412.093 125.641L400.935 119.199Z" fill="#4379BD"/>
<path d="M416.259 84.441L409.73 88.217V80.6759C409.73 79.2939 408.762 78.739 407.554 79.4245C406.922 79.836 406.396 80.3901 406.018 81.0422C405.64 81.6943 405.421 82.4262 405.377 83.1787V90.7198L398.848 94.4848C398.215 94.8944 397.688 95.448 397.309 96.1006C396.931 96.7531 396.713 97.4859 396.672 98.239C396.672 99.6319 397.64 100.187 398.848 99.4904L405.377 95.7254V103.266C405.377 104.648 406.357 105.203 407.554 104.518C408.186 104.107 408.712 103.553 409.09 102.901C409.469 102.248 409.688 101.516 409.73 100.764V93.2226L416.259 89.4575C416.891 89.0467 417.418 88.4927 417.796 87.8404C418.174 87.1882 418.393 86.456 418.435 85.7033C418.425 84.3104 417.456 83.7446 416.259 84.441Z" fill="#C5DFF4"/>
<path d="M161.833 581.258V147.076C161.833 135.106 169.135 121.134 178.156 115.933L364.233 8.51902C373.233 3.31754 380.556 8.83459 380.556 20.8372V455.019C380.556 466.988 373.265 480.971 364.233 486.162L178.156 593.587C169.135 598.777 161.833 593.26 161.833 581.258Z" fill="url(#paint0_linear)"/>
<path d="M374.909 7.68128L374.571 7.49628C374.687 7.55125 374.8 7.61304 374.909 7.68128Z" fill="#ABBCE1"/>
<path d="M166.284 593.576C163.531 591.269 161.833 587.047 161.833 581.258V147.076C161.833 135.106 169.135 121.134 178.156 115.933L364.234 8.51909C368.162 6.24481 371.775 6.01629 374.593 7.43092L364.658 1.77242C361.698 -0.556272 357.574 -0.686855 353.004 1.95741L166.926 109.371C157.927 114.572 150.604 128.512 150.604 140.515V574.696C150.604 581.889 153.237 586.666 157.274 588.352L166.284 593.576Z" fill="#ABBCE1"/>
<path style="mix-blend-mode:screen" d="M362.656 7.96418L176.578 115.378C167.579 120.579 160.255 134.519 160.255 146.521V580.703C160.255 585.784 161.583 589.68 163.781 592.118L166.273 593.543C163.52 591.236 161.822 587.014 161.822 581.225V147.044C161.822 135.074 169.124 121.102 178.145 115.9L364.223 8.4865C366.686 6.87507 369.666 6.24964 372.569 6.73454C369.794 5.51579 366.366 5.8096 362.656 7.96418ZM374.626 7.47451C374.738 7.53692 374.847 7.60596 374.952 7.68126L374.626 7.47451Z" fill="url(#paint1_linear)"/>
<path d="M362.982 17.3659L330.87 35.8649L326.06 47.9436C323.71 53.8307 319.531 59.043 314.917 61.6764L227.417 112.189C222.847 114.834 218.614 114.507 216.274 111.33L211.454 104.801L179.353 123.3C173.607 126.619 168.95 134.693 168.95 141.32V578.548C168.95 585.175 173.607 587.874 179.353 584.555L362.982 478.643C368.728 475.378 373.385 467.261 373.385 460.623V23.4053C373.385 16.7675 368.728 14.1014 362.982 17.3659Z" fill="url(#paint2_linear)"/>
<path d="M299.596 61.6328L242.739 94.463C241.716 95.0506 240.889 94.463 240.889 93.0593C240.901 92.3665 241.074 91.686 241.395 91.072C241.717 90.458 242.177 89.9275 242.739 89.5227L299.596 56.6925C300.619 56.1049 301.446 56.6925 301.446 58.0962C301.436 58.7894 301.263 59.4705 300.942 60.0847C300.621 60.699 300.16 61.2292 299.596 61.6328Z" fill="#A5B8DF"/>
<path d="M157.176 261.171L156.904 261.008C156.332 260.6 155.864 260.064 155.537 259.442C155.21 258.82 155.034 258.13 155.021 257.428V217.59C155.021 216.219 155.87 215.577 156.904 216.175L157.176 216.328C157.747 216.739 158.214 217.278 158.541 217.901C158.867 218.524 159.045 219.215 159.059 219.919V259.746C159.059 261.117 158.21 261.77 157.176 261.171Z" fill="#7B97C9"/>
<path d="M155.097 261.171L154.815 261.008C154.243 260.6 153.775 260.064 153.448 259.442C153.121 258.82 152.944 258.13 152.932 257.428V217.59C152.932 216.219 153.781 215.577 154.815 216.175L155.097 216.328C155.665 216.742 156.129 217.281 156.454 217.904C156.778 218.527 156.955 219.216 156.969 219.919V259.746C156.991 261.117 156.12 261.77 155.097 261.171Z" fill="#90A9D6"/>
<path d="M340.348 14.6782C342.143 15.712 342.143 17.3878 340.348 18.4324C339.337 18.9474 338.218 19.2159 337.083 19.2159C335.949 19.2159 334.83 18.9474 333.819 18.4324C332.023 17.3442 332.023 15.712 333.819 14.6782C334.83 14.1632 335.949 13.8947 337.083 13.8947C338.218 13.8947 339.337 14.1632 340.348 14.6782Z" fill="#90A9D6"/>
<path d="M340.348 14.6782C339.337 14.1632 338.218 13.8947 337.084 13.8947C335.949 13.8947 334.83 14.1632 333.819 14.6782C333.415 14.9039 333.066 15.216 332.796 15.5923C332.927 15.4943 333.047 15.3964 333.188 15.3093C334.199 14.7943 335.318 14.5259 336.453 14.5259C337.587 14.5259 338.706 14.7943 339.717 15.3093C341.045 16.0819 341.382 17.2028 340.74 18.1495C342.111 17.1048 341.98 15.6249 340.348 14.6782Z" fill="#7B97C9"/>
<g style="mix-blend-mode:overlay" opacity="0.32">
<g style="mix-blend-mode:overlay" opacity="0.32">
<path d="M373.331 230.191V84.5063L168.895 288.942V434.626L373.331 230.191Z" fill="white"/>
</g>
<g style="mix-blend-mode:overlay" opacity="0.32">
<path d="M168.895 246.133L373.331 41.6976V23.4054C373.331 16.7675 368.673 14.0797 362.928 17.3986L346.496 26.8766L326.43 46.9535L326.006 48.0416C323.655 53.9286 319.477 59.141 314.863 61.7744L307.246 66.1815L168.895 204.532V246.133Z" fill="white"/>
</g>
<g style="mix-blend-mode:overlay" opacity="0.32">
<path d="M373.331 346.582V262.89L168.895 467.336V551.017L373.331 346.582Z" fill="white"/>
</g>
<g style="mix-blend-mode:overlay" opacity="0.32">
<path d="M373.331 421.927V402.786L208.07 568.047L253.36 541.898L373.331 421.927Z" fill="white"/>
</g>
</g>
<path style="mix-blend-mode:overlay" d="M314.918 61.7417L227.418 112.255C222.847 114.899 218.614 114.573 216.275 111.395L211.454 104.866L179.353 123.365C176.202 125.337 173.621 128.098 171.866 131.374C173.355 129.419 175.201 127.765 177.307 126.499L209.419 108L214.229 114.529C216.579 117.696 220.758 118.022 225.372 115.389L312.872 64.8756C316.697 62.4807 319.851 59.1516 322.034 55.2018C320.118 57.831 317.699 60.0539 314.918 61.7417ZM362.982 17.3659L330.87 35.8649L329.88 38.3677L360.893 20.4564C366.639 17.1374 371.296 19.8252 371.296 26.4631V463.746C371.177 467.278 370.174 470.724 368.38 473.768C371.402 470.029 373.155 465.425 373.385 460.623V23.4053C373.385 16.7675 368.728 14.1014 362.982 17.3659Z" fill="url(#paint3_linear)"/>
<path d="M244.143 265.916L187.775 298.463C183.847 300.726 180.648 298.321 180.648 293.076C180.648 287.831 183.847 281.738 187.775 279.463L244.143 246.916C248.082 244.653 251.27 247.058 251.27 252.303C251.27 257.548 248.082 263.641 244.143 265.916Z" fill="#C5DFF4"/>
<path d="M264.307 280.704L187.775 324.884C183.847 327.158 180.648 324.753 180.648 319.497C180.648 314.252 183.847 308.159 187.775 305.895L264.307 261.704C268.246 259.43 271.434 261.846 271.434 267.091C271.434 272.347 268.246 278.441 264.307 280.704Z" fill="#C5DFF4"/>
<path d="M230.682 326.571L187.775 351.338C183.847 353.612 180.648 351.196 180.648 345.897C180.648 340.652 183.847 334.558 187.775 332.284L230.682 307.517C234.621 305.243 237.81 307.658 237.81 312.903C237.81 318.203 234.621 324.296 230.682 326.571Z" fill="#C5DFF4"/>
<path d="M353.537 458.348L191.921 551.659C185.642 555.294 180.495 551.398 180.495 543.019V454.725C180.495 446.346 185.642 436.509 191.921 432.885L353.537 339.574C359.826 335.94 364.974 339.835 364.974 348.214V436.509C364.974 444.888 359.826 454.725 353.537 458.348Z" fill="url(#paint4_linear)"/>
<path d="M365.202 84.5606V76.5081C365.202 69.5873 360.338 66.7798 354.32 70.2402L191.334 164.335C185.338 167.806 180.452 176.228 180.452 183.149V191.202L365.202 84.5606Z" fill="#4379BD"/>
<path d="M199.68 169.819C199.607 171.342 199.174 172.826 198.418 174.15C197.661 175.474 196.602 176.6 195.327 177.436C192.911 178.829 190.974 177.698 190.974 174.912C191.049 173.389 191.482 171.906 192.239 170.582C192.995 169.258 194.053 168.132 195.327 167.295C197.721 165.902 199.68 167.033 199.68 169.819Z" fill="#62CBE6"/>
<path d="M215.045 161.005C214.97 162.527 214.537 164.011 213.781 165.334C213.024 166.658 211.966 167.784 210.692 168.622C208.276 170.015 206.34 168.883 206.34 166.097C206.413 164.574 206.845 163.09 207.602 161.766C208.358 160.442 209.417 159.316 210.692 158.48C213.086 157.033 215.045 158.165 215.045 161.005Z" fill="#62CBE6"/>
<path d="M230.41 152.082C230.335 153.604 229.902 155.088 229.146 156.411C228.389 157.735 227.331 158.861 226.057 159.699C223.641 161.092 221.705 159.96 221.705 157.174C221.778 155.651 222.21 154.167 222.967 152.843C223.723 151.519 224.782 150.393 226.057 149.557C228.451 148.164 230.41 149.296 230.41 152.082Z" fill="#62CBE6"/>
<path d="M209.082 223.684L224.316 242.868C212.129 258.734 196.024 264.958 186.927 257.298C183.107 254.033 180.887 248.668 180.572 241.878L209.082 223.684Z" fill="white"/>
<path d="M209.082 223.684L180.528 241.878C180.06 231.627 183.978 219.179 191.073 208.449C197.906 198.101 206.927 190.483 215.502 187.774L209.082 223.684Z" fill="#62CBE6"/>
<path d="M224.305 232.542L230.737 196.632C236.939 194.706 242.489 195.544 246.504 198.895C256.385 207.253 254.502 229.299 242.326 247.744C241.419 249.107 240.479 250.424 239.507 251.694L224.305 232.542Z" fill="#4379BD"/>
<path d="M230.736 196.664L215.502 187.807L209.082 223.684L224.316 232.542L230.736 196.664Z" fill="#354EA1"/>
<path d="M244.861 197.742L229.724 188.938C225.883 186.523 220.943 186.12 215.502 187.85L230.736 196.708C236.134 194.989 241.03 195.38 244.861 197.742Z" fill="#4D5BA9"/>
<path d="M224.294 242.836L239.529 251.726L224.294 232.542L209.06 223.684L224.294 242.868V242.836Z" fill="#4D5BA9"/>
<path d="M365.202 320.792L181.91 426.617V422.515L365.202 316.701V320.792Z" fill="#C5DFF4"/>
<path d="M365.202 268.734L181.91 374.559V370.457L365.202 264.632V268.734Z" fill="#C5DFF4"/>
<path d="M289.313 350.532L256.167 369.662C253.49 371.218 251.314 369.575 251.314 365.995V352.284C251.314 348.704 253.49 344.558 256.167 343.013L289.313 323.872C292.001 322.327 294.166 323.97 294.166 327.539V341.261C294.166 344.83 292.001 348.987 289.313 350.532Z" fill="#C1D9F1"/>
<path d="M350.479 315.221L317.333 334.351C314.645 335.907 312.48 334.264 312.48 330.684V316.973C312.48 313.393 314.656 309.247 317.333 307.701L350.479 288.56C353.156 287.015 355.332 288.658 355.332 292.228V305.949C355.332 309.519 353.156 313.675 350.479 315.221Z" fill="#C1D9F1"/>
<path d="M207.841 416.726C208.347 417.088 208.954 417.283 209.577 417.283C210.199 417.283 210.806 417.088 211.312 416.726L244.458 397.585C247.146 396.04 249.311 391.883 249.311 388.314V374.505C249.384 373.799 249.286 373.086 249.027 372.425C248.768 371.764 248.354 371.175 247.821 370.707L231.629 359.14C231.122 358.777 230.516 358.582 229.893 358.582C229.27 358.582 228.664 358.777 228.157 359.14L195.012 378.281C192.324 379.826 190.158 383.972 190.158 387.552V401.263C190.088 401.969 190.186 402.681 190.445 403.342C190.705 404.002 191.117 404.591 191.649 405.061L207.841 416.726Z" fill="#9DC0E5"/>
<path d="M244.458 397.487L211.313 416.628C208.636 418.173 206.459 416.53 206.459 412.961V399.239C206.459 395.67 208.636 391.513 211.313 389.968L244.458 370.827C247.146 369.282 249.312 370.925 249.312 374.505V388.216C249.312 391.785 247.146 395.942 244.458 397.487Z" fill="#C1D9F1"/>
<path d="M358.597 157.925L264.72 212.149C261.216 214.173 258.365 212.018 258.365 207.35V183.084C258.365 178.405 261.216 172.964 264.72 170.94L358.575 116.76C362.09 114.725 364.93 116.879 364.93 121.559V145.77C364.951 150.471 362.111 155.901 358.597 157.925Z" fill="#C5DFF4"/>
<path d="M300.129 181.212L264.611 201.724C263.763 202.214 263.077 201.724 263.077 200.571V200.473C263.087 199.901 263.23 199.339 263.497 198.832C263.763 198.326 264.145 197.889 264.611 197.557L300.129 177.044C300.978 176.555 301.664 177.044 301.664 178.198V178.296C301.654 178.868 301.51 179.43 301.244 179.937C300.977 180.443 300.595 180.88 300.129 181.212Z" fill="url(#paint5_linear)"/>
<path d="M310.14 167.403L264.611 193.65C263.763 194.14 263.077 193.65 263.077 192.497V192.399C263.087 191.825 263.23 191.261 263.497 190.753C263.763 190.245 264.145 189.806 264.611 189.471L310.14 163.192C310.989 162.702 311.675 163.192 311.675 164.346V164.433C311.674 165.014 311.534 165.587 311.267 166.104C311 166.62 310.614 167.066 310.14 167.403Z" fill="url(#paint6_linear)"/>
<path d="M310.14 159.373L264.611 185.663C263.763 186.142 263.077 185.663 263.077 184.499V184.412C263.085 183.838 263.228 183.273 263.494 182.765C263.761 182.256 264.144 181.818 264.611 181.485L310.14 155.205C310.989 154.715 311.675 155.205 311.675 156.359V156.446C311.667 157.02 311.524 157.584 311.257 158.092C310.991 158.601 310.608 159.04 310.14 159.373Z" fill="url(#paint7_linear)"/>
<path d="M378.565 163.453L355.332 176.86V155.14L378.565 141.733V163.453Z" fill="url(#paint8_linear)"/>
<path d="M378.565 141.733L378.413 141.82L355.561 128.414V128.24L332.328 141.657V163.366L355.332 176.86V155.14L378.565 141.733Z" fill="#C0CDE9"/>
<path d="M376.802 264.185L329.695 291.39C325.473 293.827 322.078 291.237 322.078 285.601V233.912C322.078 228.276 325.505 221.736 329.695 219.287L376.802 192.083C381.035 189.646 384.419 192.235 384.419 197.872V249.528C384.419 255.197 380.981 261.748 376.802 264.185Z" fill="#4379BD"/>
<path d="M321.99 285.601V233.913C321.99 228.276 325.418 221.736 329.608 219.288L376.715 192.083C377.411 191.596 378.22 191.295 379.066 191.208C379.911 191.12 380.765 191.249 381.546 191.583L362.47 180.788C361.679 180.413 360.803 180.256 359.93 180.333C359.058 180.409 358.222 180.717 357.508 181.223L310.401 208.428C306.179 210.865 302.784 217.416 302.784 223.053V274.708C302.784 277.907 303.872 280.149 305.603 280.998L324.689 291.793C323.035 290.889 321.99 288.713 321.99 285.601Z" fill="#4D5BA9"/>
<path d="M357.454 240.137C361.589 235.784 364.516 229.429 364.516 223.956C364.516 216.73 359.446 213.803 353.2 217.427C346.953 221.05 341.872 229.81 341.872 237.014C341.872 242.455 344.799 245.491 348.945 245.045C339.293 252.825 331.947 266.667 331.534 278.604L374.93 253.576C374.441 242.15 367.106 236.775 357.454 240.137Z" fill="url(#paint9_linear)"/>
<path d="M431.211 321.685L364.897 358.683C361.959 360.38 356.78 360.163 353.384 358.204L314.776 335.896C311.381 333.938 311.011 330.945 313.949 329.258L380.328 292.261C383.266 290.563 388.446 290.781 391.83 292.739L430.471 315.047C433.757 317.006 434.127 319.998 431.211 321.685Z" fill="white"/>
<path d="M433.115 500.026V319.389C432.982 319.896 432.742 320.369 432.409 320.775C432.077 321.181 431.66 321.51 431.189 321.739L364.875 358.737C363.218 359.565 361.371 359.94 359.522 359.825V541.55C361.371 541.665 363.218 541.29 364.875 540.462L431.189 503.464C431.841 503.179 432.381 502.689 432.729 502.068C433.077 501.448 433.212 500.73 433.115 500.026Z" fill="url(#paint10_linear)"/>
<path style="mix-blend-mode:color-dodge" d="M353.363 358.204L314.776 335.896C314.111 335.579 313.522 335.124 313.047 334.561C312.573 333.998 312.223 333.34 312.023 332.632V513.269C311.729 514.727 312.665 516.337 314.776 517.556L353.417 539.863C355.308 540.894 357.423 541.446 359.576 541.474V359.749C357.41 359.75 355.276 359.22 353.363 358.204Z" fill="url(#paint11_linear)"/>
<path d="M353.363 358.204L314.776 335.896C314.111 335.579 313.522 335.124 313.047 334.561C312.573 333.998 312.223 333.34 312.023 332.632V513.269C311.729 514.727 312.665 516.337 314.776 517.556L353.417 539.863C355.308 540.894 357.423 541.446 359.576 541.474V359.749C357.41 359.75 355.276 359.22 353.363 358.204Z" fill="#C0CDE9"/>
<path d="M469.798 373.427L403.419 411.513C400.481 413.211 395.301 412.993 391.917 411.035L369.86 397.879C366.465 395.92 366.095 392.927 369.033 391.23L435.096 353.34C438.034 351.642 443.214 351.86 446.598 353.818L468.916 366.789C472.366 368.748 472.736 371.741 469.798 373.427Z" fill="white"/>
<path d="M471.723 377.552V371.022C471.591 371.53 471.35 372.003 471.018 372.409C470.685 372.814 470.269 373.143 469.797 373.373L403.419 411.459C401.767 412.293 399.922 412.669 398.076 412.547V420.088C399.922 420.21 401.767 419.834 403.419 419L469.797 380.914C470.435 380.633 470.966 380.154 471.313 379.549C471.66 378.944 471.803 378.244 471.723 377.552Z" fill="url(#paint12_linear)"/>
<path style="mix-blend-mode:color-dodge" d="M391.971 411.035L369.914 397.879C369.248 397.564 368.657 397.109 368.182 396.546C367.707 395.983 367.359 395.324 367.161 394.614V401.143C366.856 402.601 367.803 404.212 369.914 405.43L391.971 418.597C393.865 419.619 395.978 420.168 398.13 420.197V412.656C395.976 412.625 393.861 412.069 391.971 411.035Z" fill="url(#paint13_linear)"/>
<path d="M391.971 411.035L369.914 397.879C369.248 397.564 368.657 397.109 368.182 396.546C367.707 395.983 367.359 395.324 367.161 394.614V401.143C366.856 402.601 367.803 404.212 369.914 405.43L391.971 418.597C393.865 419.619 395.978 420.168 398.13 420.197V412.656C395.976 412.625 393.861 412.069 391.971 411.035Z" fill="#C0CDE9"/>
<path d="M498.144 412.928L431.766 451.014C428.827 452.712 423.659 452.494 420.263 450.535L398.261 437.401C394.866 435.442 394.496 432.45 397.434 430.752L463.497 392.862C466.435 391.165 471.614 391.382 474.999 393.341L497.317 406.312C500.712 408.249 501.082 411.285 498.144 412.928Z" fill="white"/>
<path d="M500.07 417.085V410.556C499.938 411.063 499.697 411.536 499.365 411.942C499.032 412.348 498.616 412.677 498.144 412.906L431.766 450.992C430.114 451.827 428.269 452.203 426.423 452.081V459.622C428.269 459.743 430.114 459.367 431.766 458.533L498.144 420.447C498.782 420.166 499.313 419.688 499.66 419.083C500.007 418.478 500.15 417.778 500.07 417.085Z" fill="url(#paint14_linear)"/>
<path style="mix-blend-mode:color-dodge" d="M420.329 450.535L398.261 437.401C397.595 437.086 397.004 436.632 396.529 436.069C396.054 435.505 395.706 434.846 395.508 434.137V440.666C395.203 442.124 396.15 443.734 398.261 444.953L420.329 458.076C422.223 459.098 424.336 459.647 426.488 459.676V452.135C424.335 452.111 422.221 451.562 420.329 450.535Z" fill="url(#paint15_linear)"/>
<path d="M420.329 450.535L398.261 437.401C397.595 437.086 397.004 436.632 396.529 436.069C396.054 435.505 395.706 434.846 395.508 434.137V440.666C395.203 442.124 396.15 443.734 398.261 444.953L420.329 458.076C422.223 459.098 424.336 459.647 426.488 459.676V452.135C424.335 452.111 422.221 451.562 420.329 450.535Z" fill="#C0CDE9"/>
<path d="M526.491 452.429L460.113 490.515C457.174 492.212 452.006 491.995 448.61 490.036L426.553 476.88C423.158 474.921 422.788 471.929 425.726 470.231L491.789 432.341C494.727 430.644 499.907 430.861 503.291 432.82L525.61 445.791C529.059 447.75 529.429 450.742 526.491 452.429Z" fill="white"/>
<path d="M528.417 456.586V450.057C528.285 450.564 528.044 451.037 527.712 451.443C527.379 451.849 526.963 452.177 526.491 452.407L460.113 490.493C458.461 491.327 456.616 491.703 454.77 491.581V499.122C456.616 499.244 458.461 498.868 460.113 498.034L526.491 459.948C527.129 459.667 527.66 459.189 528.007 458.584C528.354 457.978 528.497 457.278 528.417 456.586Z" fill="url(#paint16_linear)"/>
<path style="mix-blend-mode:color-dodge" d="M448.622 490.036L426.564 476.88C425.898 476.565 425.307 476.111 424.832 475.547C424.357 474.984 424.009 474.325 423.811 473.615V480.145C423.506 481.603 424.453 483.213 426.564 484.432L448.622 497.577C450.516 498.599 452.629 499.148 454.781 499.177V491.636C452.628 491.612 450.514 491.063 448.622 490.036Z" fill="url(#paint17_linear)"/>
<path d="M448.622 490.036L426.564 476.88C425.898 476.565 425.307 476.111 424.832 475.547C424.357 474.984 424.009 474.325 423.811 473.615V480.145C423.506 481.603 424.453 483.213 426.564 484.432L448.622 497.577C450.516 498.599 452.629 499.148 454.781 499.177V491.636C452.628 491.612 450.514 491.063 448.622 490.036Z" fill="#C0CDE9"/>
<path d="M554.838 491.929L488.514 530.015C485.587 531.713 480.407 531.495 477.012 529.537L454.955 516.381C451.56 514.422 451.19 511.429 454.128 509.732L520.191 471.842C523.129 470.144 528.309 470.362 531.704 472.32L554.011 485.291C557.439 487.25 557.776 490.243 554.838 491.929Z" fill="white"/>
<path d="M556.764 496.086V489.557C556.632 490.065 556.391 490.538 556.059 490.943C555.726 491.349 555.31 491.678 554.838 491.908L488.514 529.994C486.862 530.828 485.017 531.204 483.171 531.082V538.623C485.017 538.744 486.862 538.369 488.514 537.535L554.838 499.449C555.476 499.168 556.007 498.689 556.354 498.084C556.701 497.479 556.844 496.779 556.764 496.086Z" fill="url(#paint18_linear)"/>
<path style="mix-blend-mode:color-dodge" d="M477.012 529.537L454.955 516.381C454.288 516.066 453.698 515.611 453.223 515.048C452.748 514.485 452.399 513.826 452.202 513.116V519.645C451.897 521.103 452.843 522.714 454.955 523.933L477.012 537.1C478.906 538.121 481.019 538.67 483.171 538.699V531.158C481.016 531.128 478.902 530.571 477.012 529.537Z" fill="url(#paint19_linear)"/>
<path d="M477.012 529.537L454.955 516.381C454.288 516.066 453.698 515.611 453.223 515.048C452.748 514.485 452.399 513.826 452.202 513.116V519.645C451.897 521.103 452.843 522.714 454.955 523.933L477.012 537.1C478.906 538.121 481.019 538.67 483.171 538.699V531.158C481.016 531.128 478.902 530.571 477.012 529.537Z" fill="#C0CDE9"/>
<path d="M583.185 531.43L516.872 569.516C513.934 571.214 508.754 570.996 505.359 569.037L483.301 555.881C479.906 553.923 479.536 550.93 482.474 549.233L548.537 511.397C551.475 509.699 556.655 509.917 560.05 511.876L582.358 524.847C585.731 526.751 586.123 529.744 583.185 531.43Z" fill="white"/>
<path d="M585.111 535.587V529.058C584.979 529.565 584.738 530.038 584.405 530.444C584.073 530.85 583.657 531.179 583.185 531.408L516.872 569.494C515.216 570.327 513.367 570.703 511.518 570.583V578.124C513.367 578.244 515.216 577.868 516.872 577.035L583.185 538.949C583.823 538.668 584.354 538.19 584.701 537.585C585.047 536.98 585.191 536.28 585.111 535.587Z" fill="url(#paint20_linear)"/>
<path style="mix-blend-mode:color-dodge" d="M505.359 569.07L483.301 555.914C482.635 555.599 482.044 555.145 481.569 554.582C481.094 554.018 480.746 553.359 480.548 552.65V559.179C480.244 560.637 481.19 562.247 483.301 563.466L505.359 576.633C507.253 577.655 509.366 578.204 511.518 578.233V570.692C509.363 570.661 507.249 570.104 505.359 569.07Z" fill="url(#paint21_linear)"/>
<path d="M505.359 569.07L483.301 555.914C482.635 555.599 482.044 555.145 481.569 554.582C481.094 554.018 480.746 553.359 480.548 552.65V559.179C480.244 560.637 481.19 562.247 483.301 563.466L505.359 576.633C507.253 577.655 509.366 578.204 511.518 578.233V570.692C509.363 570.661 507.249 570.104 505.359 569.07Z" fill="#C0CDE9"/>
<path d="M358.52 333.317C358.423 334.906 360.828 337.148 364.484 339.259C369.348 342.066 371.078 345.624 377.085 342.153C378.815 341.163 379.533 340.369 379.577 339.683V335.94C379.74 334.199 375.572 333.121 372.068 331.097C367.204 328.29 361.97 326.745 359.467 328.203C359.201 328.325 358.972 328.517 358.806 328.758C358.639 329 358.541 329.281 358.52 329.574V333.317Z" fill="#010101"/>
<path d="M364.484 335.483C359.62 332.664 356.975 329.639 359.467 328.203C361.959 326.767 367.204 328.29 372.068 331.097C376.933 333.905 383.102 334.906 377.085 338.377C371.067 341.849 369.348 338.29 364.484 335.483Z" fill="#2B215E"/>
<path d="M372.036 324.003C371.949 325.591 374.354 327.822 378.01 329.944C382.874 332.752 384.604 336.31 390.611 332.839C392.33 331.838 393.059 331.054 393.092 330.358V326.625C393.266 324.884 389.098 323.807 385.594 321.783C380.73 318.975 375.485 317.43 372.993 318.888C372.726 319.011 372.497 319.203 372.329 319.444C372.16 319.685 372.059 319.966 372.036 320.259V324.003Z" fill="#010101"/>
<path d="M378.01 326.157C373.146 323.349 370.491 320.324 372.993 318.888C375.496 317.451 380.73 318.975 385.594 321.782C390.459 324.59 396.629 325.591 390.611 329.062C384.593 332.534 382.874 328.975 378.01 326.157Z" fill="#2B215E"/>
<path d="M366.693 212.302C367.589 211.738 368.672 211.553 369.705 211.787C370.737 212.022 371.635 212.657 372.199 213.553L388.772 239.952C389.336 240.848 389.521 241.932 389.286 242.964C389.051 243.997 388.416 244.894 387.52 245.458C386.624 246.022 385.541 246.207 384.508 245.972C383.476 245.738 382.579 245.103 382.014 244.207L365.42 217.808C365.141 217.363 364.953 216.867 364.867 216.349C364.78 215.832 364.796 215.302 364.915 214.791C365.033 214.279 365.251 213.796 365.556 213.369C365.861 212.942 366.247 212.579 366.693 212.302Z" fill="#ECC2B6"/>
<path d="M377.575 241.203L382.928 249.724C383.804 251.107 385.191 252.088 386.787 252.453C388.383 252.818 390.059 252.537 391.449 251.672C392.831 250.794 393.809 249.406 394.172 247.81C394.535 246.214 394.252 244.54 393.386 243.151L388.032 234.631C388.032 234.631 381.318 232.106 377.575 241.203Z" fill="#4379BD"/>
<path d="M379.403 334.231C379.591 333.857 379.684 333.442 379.675 333.023V291.303C379.675 288.659 376.954 286.504 373.635 286.504C370.305 286.504 367.585 288.68 367.585 291.303V336.669C367.585 336.997 367.691 337.316 367.887 337.578C368.084 337.841 368.359 338.033 368.673 338.127C370.98 338.834 376.475 339.835 379.403 334.231Z" fill="#303975"/>
<path d="M392.961 324.449C393.142 324.073 393.227 323.658 393.212 323.241L392.298 281.52C392.298 278.887 389.468 276.787 386.149 276.852C382.819 276.928 380.154 279.148 380.208 281.781L381.198 327.147C381.207 327.471 381.316 327.783 381.511 328.041C381.706 328.298 381.978 328.488 382.286 328.584C384.648 329.237 390.165 330.118 392.961 324.449Z" fill="#4D5BA9"/>
<path d="M369.577 298.8C369.731 298.897 369.907 298.953 370.088 298.964C372.765 299.17 382.373 297.081 391.993 286.243C392.775 285.387 393.236 284.288 393.299 283.131V252.411C393.299 250.094 392.461 248.472 391.122 247.721L383.897 243.499C382.58 242.716 380.752 242.814 378.739 243.978L368.88 249.669C366.776 251.045 365.025 252.897 363.767 255.074C362.51 257.252 361.783 259.695 361.644 262.205V293.131C361.614 293.418 361.663 293.707 361.785 293.968C361.908 294.229 362.1 294.451 362.34 294.611L369.577 298.8Z" fill="#C1D9F1"/>
<path d="M372.373 251.541C372.408 251.995 372.565 252.43 372.828 252.802C373.09 253.173 373.448 253.467 373.864 253.652C374.981 254.221 376.217 254.517 377.471 254.517C378.725 254.517 379.961 254.221 381.079 253.652C381.496 253.469 381.855 253.176 382.117 252.804C382.38 252.432 382.536 251.995 382.569 251.541V244.794C382.534 244.341 382.377 243.905 382.115 243.534C381.852 243.162 381.494 242.868 381.079 242.683C379.961 242.115 378.725 241.818 377.471 241.818C376.217 241.818 374.981 242.115 373.864 242.683C373.45 242.87 373.093 243.164 372.831 243.536C372.569 243.907 372.411 244.341 372.373 244.794V251.541Z" fill="#CA9170"/>
<path d="M377.476 248.189C385.229 248.189 391.514 241.905 391.514 234.152C391.514 226.399 385.229 220.115 377.476 220.115C369.724 220.115 363.439 226.399 363.439 234.152C363.439 241.905 369.724 248.189 377.476 248.189Z" fill="#ECC2B6"/>
<path d="M336.093 231.91C336.787 231.111 337.769 230.618 338.824 230.538C339.88 230.459 340.924 230.799 341.73 231.486L364.277 251.922C365.079 252.614 365.574 253.596 365.654 254.653C365.733 255.709 365.391 256.754 364.701 257.559C364.008 258.358 363.026 258.851 361.97 258.931C360.915 259.01 359.87 258.67 359.065 257.983L336.539 237.547C335.737 236.856 335.24 235.876 335.156 234.821C335.072 233.765 335.409 232.719 336.093 231.91Z" fill="#ECC2B6"/>
<path d="M353.95 256.427L361.568 262.956C362.811 264.019 364.424 264.547 366.055 264.425C367.686 264.302 369.202 263.54 370.273 262.303C371.333 261.059 371.86 259.446 371.737 257.816C371.615 256.186 370.854 254.67 369.62 253.598L362.003 247.069C362.003 247.069 354.821 246.633 353.95 256.427Z" fill="#4379BD"/>
<path fill-rule="evenodd" clip-rule="evenodd" d="M385.388 246.971C380.959 249.55 377.575 247.591 376.378 245.73C373.342 241.029 372.841 244.163 371.035 241.954C368.673 238.069 369.207 232.77 365.92 230.322C361.208 226.807 362.503 219.81 374.778 216.676C391.286 212.476 397.782 233.26 387.488 245.273C386.918 245.983 386.202 246.562 385.388 246.971Z" fill="#B16027"/>
<path d="M372.569 242.509C371.383 243.695 370.077 243.347 369.642 241.726C369.454 240.833 369.479 239.909 369.715 239.027C369.952 238.146 370.392 237.333 371.002 236.655C372.188 235.479 373.494 235.828 373.929 237.438C374.119 238.331 374.095 239.256 373.858 240.137C373.622 241.018 373.18 241.831 372.569 242.509Z" fill="#ECC2B6"/>
<path d="M549.093 776.367C570.83 776.367 588.452 766.195 588.452 753.646C588.452 741.098 570.83 730.925 549.093 730.925C527.355 730.925 509.733 741.098 509.733 753.646C509.733 766.195 527.355 776.367 549.093 776.367Z" fill="white"/>
<path d="M576.917 769.708C561.552 778.587 536.655 778.587 521.257 769.708C513.64 765.355 509.788 759.544 509.733 753.777V767.803C509.668 773.669 513.509 779.534 521.257 784.006C536.622 792.886 561.519 792.886 576.917 784.006C584.665 779.534 588.506 773.669 588.441 767.803V753.777C588.386 759.501 584.545 765.312 576.917 769.708Z" fill="url(#paint22_linear)"/>
<path d="M524.924 747.378C538.265 739.674 559.909 739.674 573.261 747.378C578.223 750.251 581.346 753.787 582.608 757.487C584.785 751.241 581.629 744.527 573.261 739.685C559.909 731.98 538.265 731.98 524.924 739.685C516.545 744.527 513.433 751.241 515.566 757.487C516.828 753.787 519.951 750.251 524.924 747.378Z" fill="url(#paint23_linear)"/>
<path d="M573.261 747.378C559.909 739.674 538.265 739.674 524.924 747.378C519.951 750.251 516.839 753.777 515.566 757.477C516.839 761.187 519.919 764.724 524.924 767.597C538.265 775.301 559.909 775.301 573.25 767.597C578.223 764.724 581.346 761.187 582.608 757.477C581.379 753.777 578.223 750.251 573.261 747.378Z" fill="#62CBE6"/>
<path d="M546.176 606.122H541.693V601.639C541.661 601.267 541.491 600.92 541.215 600.668C540.94 600.415 540.581 600.275 540.207 600.275C539.834 600.275 539.474 600.415 539.199 600.668C538.924 600.92 538.754 601.267 538.722 601.639V606.122H534.239C533.843 606.122 533.464 606.279 533.185 606.559C532.905 606.838 532.748 607.218 532.748 607.613C532.748 608.008 532.905 608.388 533.185 608.667C533.464 608.947 533.843 609.104 534.239 609.104H538.722V613.587C538.704 613.793 538.73 614 538.796 614.195C538.863 614.391 538.969 614.57 539.109 614.723C539.249 614.875 539.418 614.996 539.608 615.079C539.797 615.162 540.001 615.205 540.207 615.205C540.414 615.205 540.618 615.162 540.807 615.079C540.996 614.996 541.166 614.875 541.306 614.723C541.445 614.57 541.552 614.391 541.618 614.195C541.685 614 541.71 613.793 541.693 613.587V609.104H546.176C546.571 609.104 546.951 608.947 547.23 608.667C547.51 608.388 547.667 608.008 547.667 607.613C547.667 607.218 547.51 606.838 547.23 606.559C546.951 606.279 546.571 606.122 546.176 606.122Z" fill="#62CBE6"/>
<path d="M570.649 643.001H566.144V638.517C566.144 638.122 565.987 637.743 565.708 637.463C565.428 637.184 565.049 637.027 564.654 637.027C564.258 637.027 563.879 637.184 563.599 637.463C563.32 637.743 563.163 638.122 563.163 638.517V643.001H558.68C558.474 642.983 558.267 643.008 558.071 643.075C557.876 643.142 557.696 643.248 557.544 643.388C557.392 643.527 557.271 643.697 557.187 643.886C557.104 644.075 557.062 644.28 557.062 644.486C557.062 644.693 557.104 644.897 557.187 645.086C557.271 645.275 557.392 645.445 557.544 645.584C557.696 645.724 557.876 645.83 558.071 645.897C558.267 645.964 558.474 645.989 558.68 645.971H563.163V650.455C563.163 650.85 563.32 651.229 563.599 651.509C563.879 651.788 564.258 651.945 564.654 651.945C565.049 651.945 565.428 651.788 565.708 651.509C565.987 651.229 566.144 650.85 566.144 650.455V645.971H570.617C570.823 645.989 571.03 645.964 571.225 645.897C571.421 645.83 571.6 645.724 571.752 645.584C571.904 645.445 572.026 645.275 572.109 645.086C572.192 644.897 572.235 644.693 572.235 644.486C572.235 644.28 572.192 644.075 572.109 643.886C572.026 643.697 571.904 643.527 571.752 643.388C571.6 643.248 571.421 643.142 571.225 643.075C571.03 643.008 570.823 642.983 570.617 643.001H570.649Z" fill="#62CBE6"/>
<path d="M541.889 690.347H537.416V685.875C537.416 685.479 537.259 685.1 536.98 684.82C536.7 684.541 536.321 684.384 535.926 684.384C535.53 684.384 535.151 684.541 534.871 684.82C534.592 685.1 534.435 685.479 534.435 685.875V690.347H529.952C529.556 690.347 529.177 690.504 528.897 690.784C528.618 691.063 528.461 691.442 528.461 691.838C528.461 692.233 528.618 692.612 528.897 692.892C529.177 693.172 529.556 693.329 529.952 693.329H534.435V697.812C534.435 698.207 534.592 698.586 534.871 698.866C535.151 699.146 535.53 699.303 535.926 699.303C536.321 699.303 536.7 699.146 536.98 698.866C537.259 698.586 537.416 698.207 537.416 697.812V693.329H541.889C542.284 693.329 542.663 693.172 542.943 692.892C543.223 692.612 543.38 692.233 543.38 691.838C543.38 691.442 543.223 691.063 542.943 690.784C542.663 690.504 542.284 690.347 541.889 690.347Z" fill="#62CBE6"/>
<path d="M562.161 725.56H557.678V721.077C557.678 720.682 557.521 720.302 557.241 720.023C556.962 719.743 556.583 719.586 556.187 719.586C555.792 719.586 555.413 719.743 555.133 720.023C554.853 720.302 554.696 720.682 554.696 721.077V725.56H550.224C550.018 725.543 549.811 725.568 549.616 725.635C549.42 725.701 549.241 725.808 549.089 725.947C548.936 726.087 548.815 726.257 548.732 726.446C548.649 726.635 548.606 726.839 548.606 727.046C548.606 727.252 548.649 727.456 548.732 727.645C548.815 727.834 548.936 728.004 549.089 728.144C549.241 728.283 549.42 728.39 549.616 728.457C549.811 728.523 550.018 728.549 550.224 728.531H554.696V733.014C554.696 733.41 554.853 733.789 555.133 734.068C555.413 734.348 555.792 734.505 556.187 734.505C556.583 734.505 556.962 734.348 557.241 734.068C557.521 733.789 557.678 733.41 557.678 733.014V728.531H562.161C562.367 728.549 562.574 728.523 562.77 728.457C562.965 728.39 563.145 728.283 563.297 728.144C563.449 728.004 563.57 727.834 563.653 727.645C563.737 727.456 563.779 727.252 563.779 727.046C563.779 726.839 563.737 726.635 563.653 726.446C563.57 726.257 563.449 726.087 563.297 725.947C563.145 725.808 562.965 725.701 562.77 725.635C562.574 725.568 562.367 725.543 562.161 725.56Z" fill="#62CBE6"/>
<path d="M556.198 625.731C557.953 625.731 559.376 624.309 559.376 622.554C559.376 620.799 557.953 619.376 556.198 619.376C554.443 619.376 553.021 620.799 553.021 622.554C553.021 624.309 554.443 625.731 556.198 625.731Z" fill="#4379BD"/>
<path d="M571.03 673.905C571.03 674.534 570.844 675.148 570.494 675.671C570.144 676.194 569.647 676.601 569.066 676.841C568.485 677.082 567.846 677.144 567.229 677.02C566.612 676.897 566.046 676.593 565.602 676.148C565.158 675.702 564.856 675.135 564.735 674.518C564.614 673.901 564.678 673.262 564.92 672.681C565.162 672.101 565.571 671.605 566.095 671.258C566.619 670.91 567.235 670.725 567.864 670.727C568.28 670.727 568.693 670.81 569.078 670.969C569.463 671.129 569.812 671.363 570.107 671.659C570.401 671.954 570.634 672.304 570.792 672.69C570.951 673.075 571.032 673.488 571.03 673.905Z" fill="#4379BD"/>
<path d="M547.21 708.955C547.21 709.583 547.024 710.197 546.674 710.72C546.325 711.242 545.829 711.65 545.248 711.89C544.668 712.131 544.029 712.194 543.413 712.071C542.796 711.948 542.23 711.646 541.786 711.201C541.341 710.757 541.039 710.191 540.916 709.574C540.794 708.958 540.856 708.319 541.097 707.739C541.337 707.158 541.745 706.662 542.267 706.313C542.79 705.963 543.404 705.777 544.033 705.777C544.875 705.777 545.683 706.112 546.279 706.708C546.875 707.304 547.21 708.112 547.21 708.955Z" fill="#4379BD"/>
<path d="M557.928 684.416C557.928 685.045 557.742 685.659 557.393 686.182C557.044 686.704 556.547 687.112 555.967 687.352C555.386 687.593 554.747 687.655 554.131 687.533C553.514 687.41 552.948 687.108 552.504 686.663C552.06 686.219 551.757 685.653 551.634 685.036C551.512 684.42 551.575 683.781 551.815 683.201C552.056 682.62 552.463 682.124 552.985 681.774C553.508 681.425 554.122 681.239 554.751 681.239C555.168 681.238 555.582 681.319 555.968 681.478C556.355 681.637 556.705 681.871 557.001 682.166C557.296 682.462 557.53 682.813 557.689 683.199C557.849 683.585 557.93 683.999 557.928 684.416Z" fill="#4379BD"/>
<path d="M533.564 673.905C533.564 674.533 533.378 675.148 533.029 675.67C532.68 676.193 532.183 676.6 531.603 676.84C531.022 677.081 530.383 677.144 529.767 677.021C529.15 676.899 528.584 676.596 528.14 676.152C527.696 675.707 527.393 675.141 527.27 674.525C527.148 673.908 527.211 673.269 527.451 672.689C527.692 672.108 528.099 671.612 528.621 671.263C529.144 670.914 529.758 670.727 530.387 670.727C531.229 670.727 532.038 671.062 532.634 671.658C533.229 672.254 533.564 673.062 533.564 673.905Z" fill="#4379BD"/>
<path d="M545.686 645.242C545.686 645.871 545.5 646.485 545.151 647.007C544.802 647.53 544.306 647.937 543.725 648.178C543.144 648.418 542.505 648.481 541.889 648.359C541.273 648.236 540.707 647.933 540.262 647.489C539.818 647.045 539.515 646.478 539.393 645.862C539.27 645.246 539.333 644.607 539.573 644.026C539.814 643.446 540.221 642.949 540.744 642.6C541.266 642.251 541.881 642.065 542.509 642.065C543.352 642.065 544.16 642.399 544.756 642.995C545.352 643.591 545.686 644.399 545.686 645.242Z" fill="#4379BD"/>
<path d="M567.863 599.169C567.863 599.797 567.677 600.412 567.328 600.934C566.979 601.457 566.483 601.864 565.902 602.105C565.321 602.345 564.683 602.408 564.066 602.285C563.45 602.163 562.884 601.86 562.439 601.416C561.995 600.971 561.692 600.405 561.57 599.789C561.447 599.172 561.51 598.534 561.75 597.953C561.991 597.372 562.398 596.876 562.921 596.527C563.443 596.178 564.058 595.991 564.686 595.991C565.529 595.991 566.337 596.326 566.933 596.922C567.529 597.518 567.863 598.326 567.863 599.169Z" fill="#4379BD"/>
<path d="M535.925 589.549C535.925 590.178 535.739 590.792 535.39 591.315C535.041 591.837 534.545 592.244 533.964 592.485C533.383 592.725 532.745 592.788 532.128 592.666C531.512 592.543 530.946 592.24 530.501 591.796C530.057 591.352 529.754 590.786 529.632 590.169C529.509 589.553 529.572 588.914 529.812 588.333C530.053 587.753 530.46 587.256 530.983 586.907C531.505 586.558 532.12 586.372 532.748 586.372C533.165 586.372 533.579 586.454 533.964 586.614C534.35 586.773 534.7 587.007 534.995 587.302C535.29 587.598 535.524 587.948 535.684 588.333C535.843 588.719 535.925 589.132 535.925 589.549Z" fill="#4379BD"/>
<path d="M530.58 625.297L522.6 633.276L530.58 641.255L538.559 633.276L530.58 625.297Z" fill="#4D5BA9"/>
<path d="M554.762 571.235L546.783 579.214L554.762 587.194L562.741 579.214L554.762 571.235Z" fill="#4D5BA9"/>
<path d="M567.856 690.354L559.877 698.333L567.856 706.312L575.836 698.333L567.856 690.354Z" fill="#4D5BA9"/>
<path d="M545.701 655.627L537.721 663.606L545.701 671.585L553.68 663.606L545.701 655.627Z" fill="#4D5BA9"/>
<path d="M515 752.819C514.63 758.14 517.916 763.527 524.946 767.586C538.287 775.29 559.931 775.29 573.272 767.586C580.301 763.538 583.598 758.151 583.217 752.83V511.506C583.598 506.195 580.301 500.809 573.272 496.75C559.931 489.046 538.287 489.046 524.946 496.75C517.916 500.809 514.63 506.195 515 511.506V752.819Z" fill="url(#paint24_linear)"/>
<path d="M159.526 322.055L19.881 402.71C8.94481 409.022 0 424.474 0 437.14V453.909C0 466.531 8.94481 471.7 19.881 465.389L123.823 405.365L117.512 438.195L153.422 388.248L159.494 384.744C170.43 378.433 179.375 362.981 179.375 350.315V333.546C179.407 320.966 170.462 315.754 159.526 322.055Z" fill="url(#paint25_linear)"/>
<path d="M157.622 349.433L21.7635 427.869C20.3489 428.685 19.1954 427.869 19.1954 425.932C19.2114 424.972 19.452 424.029 19.8979 423.178C20.3439 422.328 20.9828 421.594 21.7635 421.035L157.622 342.599C159.026 341.783 160.179 342.654 160.179 344.536C160.163 345.495 159.923 346.437 159.479 347.287C159.035 348.137 158.399 348.872 157.622 349.433Z" fill="url(#paint26_linear)"/>
<path d="M87.968 407.302L21.4261 445.726C20.1965 446.433 19.2498 445.726 19.2498 444.039V443.136C19.2573 442.306 19.4579 441.49 19.8357 440.751C20.2134 440.013 20.758 439.373 21.4261 438.881L87.968 400.468C89.1867 399.761 90.1443 400.523 90.1443 402.155V403.047C90.1342 403.876 89.9325 404.692 89.5549 405.43C89.1774 406.168 88.6342 406.809 87.968 407.302Z" fill="url(#paint27_linear)"/>
<path d="M238.952 410.479C238.952 410.991 239.311 411.426 240.04 411.851C240.225 411.981 240.04 409.108 240.682 409.587C240.867 409.729 250.084 416.9 255.22 415.572C255.452 415.502 255.653 415.357 255.793 415.16C255.933 414.963 256.003 414.725 255.993 414.484V413.33C256.069 412.025 254.132 410.066 251.183 407.171C247.919 404.005 245.873 402.035 241.019 404.832C239.627 405.637 239.072 406.236 239.072 406.747L238.952 410.479Z" fill="#010101"/>
<path d="M251.118 407.15C255.035 410.969 257.179 413.222 255.166 414.386C253.153 415.55 249.126 413.798 245.002 410.686C241.379 407.955 236.101 407.618 240.954 404.81C245.808 402.003 247.875 403.983 251.118 407.15Z" fill="#4A4B67"/>
<path d="M247.211 404.973L246.95 374.842C246.943 374.134 246.724 373.444 246.32 372.862C245.916 372.28 245.347 371.832 244.687 371.577L242.336 370.674L232.423 377.258L237.265 379.728C236.797 385.151 237.295 390.615 238.734 395.865C238.734 395.865 240.399 399.26 240.073 407.161C240.073 407.15 245.361 408.804 247.211 404.973Z" fill="#E0AB86"/>
<path d="M224.458 417.683C224.458 418.195 224.817 418.63 225.546 419.065C225.742 419.185 225.546 416.323 226.188 416.802C226.384 416.932 235.59 424.103 240.726 422.787C240.957 422.717 241.159 422.572 241.299 422.375C241.438 422.178 241.509 421.94 241.498 421.699V420.545C241.564 419.239 239.627 417.281 236.678 414.375C233.413 411.22 231.368 409.239 226.514 412.047C225.132 412.841 224.566 413.439 224.566 413.951L224.458 417.683Z" fill="#010101"/>
<path d="M236.645 414.354C240.574 418.184 242.706 420.436 240.693 421.601C238.68 422.765 234.654 421.013 230.53 417.89C226.917 415.159 221.628 414.821 226.482 412.025C231.335 409.228 233.402 411.198 236.645 414.354Z" fill="#4A4B67"/>
<path d="M232.706 412.536L232.423 377.247L220.758 381.034L222.749 386.779C222.287 391.981 222.789 397.223 224.229 402.242C224.229 402.242 225.894 405.637 225.568 413.548C225.546 413.548 229.898 415.986 232.706 412.536Z" fill="#E0AB86"/>
<path d="M222.281 341.337C222.281 341.337 235.274 329.52 227.352 308.507L221.259 330.325L222.281 341.337Z" fill="#7A4A9E"/>
<path d="M237.657 370.13C236.685 370.414 235.64 370.3 234.75 369.815C233.861 369.33 233.2 368.512 232.913 367.541L222.488 332.044C222.205 331.072 222.318 330.026 222.803 329.137C223.289 328.248 224.107 327.587 225.078 327.3C226.049 327.016 227.093 327.128 227.982 327.611C228.871 328.094 229.533 328.909 229.822 329.879L240.236 365.375C240.52 366.348 240.409 367.393 239.926 368.284C239.443 369.174 238.627 369.838 237.657 370.13Z" fill="#E0AB86"/>
<path d="M227.037 360.685L244.687 371.566C244.687 371.566 238.549 370.065 222.749 386.801L205.338 376.779L227.037 360.685Z" fill="#7C3E98"/>
<path d="M207.678 378.292C207.827 378.381 207.995 378.433 208.168 378.444C210.725 378.651 219.92 376.638 229.126 366.267C229.876 365.449 230.319 364.395 230.377 363.286V333.851C230.377 331.674 229.583 330.075 228.31 329.356L221.389 325.319C220.127 324.579 218.375 324.666 216.449 325.776L207.014 331.217C205.004 332.532 203.329 334.299 202.125 336.378C200.921 338.457 200.222 340.789 200.083 343.187V372.785C200.053 373.062 200.1 373.342 200.219 373.593C200.338 373.845 200.525 374.058 200.757 374.211L207.678 378.292Z" fill="#FEFDEC"/>
<path d="M208.723 333.056C208.753 333.491 208.902 333.91 209.153 334.267C209.405 334.623 209.748 334.905 210.148 335.08C211.217 335.623 212.399 335.906 213.598 335.906C214.796 335.906 215.978 335.623 217.047 335.08C217.446 334.905 217.791 334.623 218.042 334.267C218.293 333.91 218.442 333.491 218.473 333.056V326.636C218.443 326.2 218.295 325.781 218.043 325.424C217.792 325.067 217.447 324.786 217.047 324.612C215.978 324.069 214.796 323.786 213.598 323.786C212.399 323.786 211.217 324.069 210.148 324.612C209.748 324.786 209.403 325.067 209.152 325.424C208.9 325.781 208.752 326.2 208.723 326.636V333.056Z" fill="#CA9170"/>
<path d="M213.597 329.846C221.02 329.846 227.036 323.829 227.036 316.407C227.036 308.985 221.02 302.968 213.597 302.968C206.175 302.968 200.159 308.985 200.159 316.407C200.159 323.829 206.175 329.846 213.597 329.846Z" fill="#E0AB86"/>
<path d="M217.58 341.337C217.58 341.337 207.58 330.325 214.523 309.921L226.96 314.209C226.96 314.209 231.248 303.599 217.167 300.541C217.167 300.541 207.787 298.507 204.522 306.254C204.522 306.254 196.981 306.864 199.832 322.37C199.832 322.37 200.246 337.05 217.58 341.337Z" fill="#7A4A9E"/>
<path d="M250.28 369.967L224.969 384.527L205.556 373.939L231.455 359.118L250.28 369.967Z" fill="#C0CDE9"/>
<path d="M250.28 369.967L254.263 344.58L226.155 360.783L224.969 384.527L250.28 369.967Z" fill="url(#paint28_linear)"/>
<path d="M229.975 371.022C229.591 371.355 229.146 371.609 228.663 371.768C228.181 371.927 227.672 371.988 227.166 371.949C226.659 371.909 226.166 371.77 225.714 371.538C225.262 371.306 224.861 370.986 224.534 370.598L200.594 342.599C200.268 342.218 200.021 341.776 199.865 341.299C199.71 340.821 199.651 340.318 199.69 339.818C199.73 339.318 199.867 338.83 200.095 338.383C200.323 337.936 200.637 337.538 201.018 337.213C201.402 336.88 201.848 336.626 202.33 336.467C202.812 336.308 203.321 336.247 203.828 336.286C204.334 336.326 204.827 336.465 205.279 336.697C205.731 336.929 206.132 337.249 206.459 337.637L230.399 365.636C231.055 366.407 231.378 367.407 231.299 368.417C231.219 369.426 230.743 370.363 229.975 371.022Z" fill="#E0AB86"/>
<path d="M427.261 395.604C426.804 395.811 426.629 396.366 426.586 397.138C426.586 397.356 428.893 395.811 428.762 396.594C428.762 396.823 427.076 408.02 430.645 411.731C430.82 411.89 431.042 411.988 431.278 412.01C431.513 412.031 431.75 411.975 431.951 411.851L432.919 411.307C434.062 410.741 434.813 408.151 435.835 404.299C436.924 400.044 437.631 397.356 432.952 394.592C431.613 393.809 430.852 393.624 430.416 393.863L427.261 395.604Z" fill="#10120C"/>
<path d="M435.879 404.299C434.519 409.435 433.637 412.319 431.689 411.165C429.741 410.012 429.306 405.79 429.97 400.817C430.558 396.464 428.316 391.839 432.995 394.592C437.674 397.345 437 400.044 435.879 404.299Z" fill="#4A4B67"/>
<path d="M466.032 371.468L456.424 374.983L452.528 379.412C447.914 381.503 443.724 384.425 440.166 388.03C440.166 388.03 438.099 391.056 431.265 394.559C431.265 394.559 431.265 399.336 435.52 400.109L462.909 384.352C463.852 383.806 464.652 383.046 465.246 382.133C465.839 381.22 466.209 380.179 466.326 379.096C466.543 376.551 466.445 373.989 466.032 371.468Z" fill="#CC8A67"/>
<path d="M445.836 419.86C445.836 420.349 446.184 420.774 446.848 421.187C447.033 421.307 446.848 418.532 447.468 419.011C447.653 419.141 456.587 426.095 461.614 424.811C461.839 424.735 462.034 424.588 462.167 424.391C462.301 424.195 462.366 423.96 462.354 423.723V422.635C462.419 421.372 460.548 419.446 457.686 416.66C454.541 413.592 452.528 411.677 447.827 414.397C446.478 415.17 445.944 415.757 445.934 416.247L445.836 419.86Z" fill="#2B215E"/>
<path d="M457.642 416.627C461.44 420.338 463.518 422.525 461.571 423.646C459.623 424.767 455.716 423.08 451.712 420.055C448.197 417.4 443.082 417.074 447.783 414.364C452.484 411.655 454.497 413.559 457.642 416.627Z" fill="#4A4B67"/>
<path d="M453.823 414.854L453.54 380.642L444.268 383.645L444.181 389.881C443.729 394.924 444.212 400.008 445.607 404.876C445.607 404.876 447.228 408.14 446.902 415.844C446.891 415.844 451.048 418.206 453.823 414.854Z" fill="#E0AB86"/>
<path d="M479.09 366.92C478.195 367.32 477.178 367.351 476.26 367.007C475.341 366.663 474.595 365.971 474.183 365.081L459.503 332.632C459.098 331.737 459.063 330.718 459.408 329.798C459.753 328.878 460.448 328.132 461.342 327.724C462.237 327.318 463.256 327.284 464.176 327.629C465.096 327.974 465.842 328.669 466.25 329.563L480.94 362.012C481.342 362.909 481.373 363.928 481.027 364.847C480.68 365.767 479.984 366.512 479.09 366.92Z" fill="#CC8A67"/>
<path d="M480.56 363.231L457.566 349.956V331.413L480.56 344.689V363.231Z" fill="#C0CDE9"/>
<path d="M474.901 358.225V344.155L475.39 344.438V358.508L474.901 358.225Z" fill="url(#paint29_linear)"/>
<path d="M473.791 353.416V343.513L474.281 343.796V353.699L473.791 353.416Z" fill="url(#paint30_linear)"/>
<path d="M472.67 355.853V342.871L473.171 343.154V356.136L472.67 355.853Z" fill="url(#paint31_linear)"/>
<path d="M471.56 356.299V342.229L472.061 342.512V356.582L471.56 356.299Z" fill="url(#paint32_linear)"/>
<path d="M470.45 346.745V341.587L470.951 341.87V347.028L470.45 346.745Z" fill="url(#paint33_linear)"/>
<path d="M438.229 372.655V385.288C438.229 385.288 453.039 390.294 466.957 372.655V360.424L438.229 372.655Z" fill="url(#paint34_linear)"/>
<path d="M444.944 376.572C445.088 376.663 445.253 376.715 445.422 376.724C447.904 376.92 456.826 374.973 465.75 364.918C466.472 364.12 466.899 363.098 466.957 362.023V333.48C466.957 331.304 466.185 329.824 464.955 329.128L458.241 325.21C457.022 324.481 455.325 324.568 453.464 325.646L444.302 330.934C442.35 332.213 440.727 333.931 439.56 335.951C438.394 337.972 437.719 340.238 437.588 342.567V371.284C437.56 371.549 437.605 371.817 437.718 372.058C437.832 372.3 438.008 372.506 438.23 372.655L444.944 376.572Z" fill="#B8B7DC"/>
<path d="M447.533 332.708C447.565 333.129 447.711 333.533 447.954 333.878C448.198 334.223 448.53 334.495 448.915 334.667C449.952 335.192 451.099 335.466 452.261 335.466C453.424 335.466 454.57 335.192 455.608 334.667C455.993 334.495 456.325 334.223 456.568 333.878C456.812 333.533 456.957 333.129 456.989 332.708V326.484C456.958 326.063 456.813 325.658 456.57 325.313C456.326 324.968 455.994 324.695 455.608 324.525C454.57 323.999 453.424 323.725 452.261 323.725C451.099 323.725 449.952 323.999 448.915 324.525C448.529 324.695 448.196 324.968 447.953 325.313C447.709 325.658 447.564 326.063 447.533 326.484V332.708Z" fill="#CA9170"/>
<path d="M422.288 373.547C421.413 373.1 420.75 372.325 420.445 371.392C420.139 370.458 420.215 369.441 420.656 368.563L436.793 336.582C437.012 336.148 437.315 335.762 437.683 335.445C438.052 335.128 438.48 334.887 438.941 334.735C439.403 334.584 439.89 334.525 440.375 334.562C440.86 334.598 441.332 334.73 441.766 334.95C442.643 335.395 443.307 336.169 443.613 337.104C443.92 338.038 443.842 339.056 443.398 339.934L427.272 371.904C426.826 372.781 426.052 373.446 425.119 373.754C424.185 374.061 423.167 373.987 422.288 373.547Z" fill="#E6AA84"/>
<path d="M464.313 313.012L468.992 331.174C469.069 331.552 469.044 331.945 468.919 332.311C468.794 332.677 468.574 333.003 468.282 333.255C467.989 333.508 467.635 333.678 467.255 333.748C466.875 333.819 466.483 333.786 466.119 333.655L455.357 329.182C454.911 328.985 454.545 328.644 454.316 328.214C454.087 327.784 454.009 327.29 454.095 326.81L457.62 308.953C457.726 308.552 457.944 308.19 458.249 307.909C458.554 307.628 458.933 307.439 459.341 307.366C459.749 307.293 460.169 307.338 460.553 307.496C460.936 307.654 461.267 307.918 461.505 308.257L464.062 312.435C464.17 312.616 464.255 312.81 464.313 313.012Z" fill="#2B215E"/>
<path d="M447.925 323.883C447.925 325.439 446.837 326.059 445.487 325.287C444.781 324.821 444.192 324.197 443.769 323.464C443.346 322.731 443.1 321.909 443.05 321.065C443.05 319.519 444.138 318.888 445.487 319.661C446.194 320.126 446.782 320.751 447.205 321.484C447.629 322.216 447.875 323.038 447.925 323.883Z" fill="#E6AA84"/>
<path d="M452.223 329.498C459.417 329.498 465.249 323.666 465.249 316.472C465.249 309.278 459.417 303.447 452.223 303.447C445.03 303.447 439.198 309.278 439.198 316.472C439.198 323.666 445.03 329.498 452.223 329.498Z" fill="#E6AA84"/>
<path d="M439.546 318.203C439.546 318.203 450.558 324.242 455.869 308.54C455.869 308.54 458.741 315.177 465.902 313.708C465.902 313.708 465.902 303.382 455.238 301.368C455.292 301.379 436.445 299.486 439.546 318.203Z" fill="#2B215E"/>
<path d="M445.618 318.725L450.286 336.875C450.389 337.258 450.382 337.661 450.267 338.039C450.151 338.417 449.932 338.756 449.634 339.016C449.335 339.275 448.97 339.446 448.579 339.508C448.189 339.57 447.788 339.522 447.424 339.367L436.662 334.884C436.21 334.699 435.836 334.362 435.606 333.931C435.375 333.5 435.303 333.002 435.4 332.523L438.925 314.655C439.031 314.254 439.249 313.892 439.554 313.611C439.859 313.329 440.238 313.141 440.646 313.068C441.054 312.995 441.474 313.04 441.858 313.198C442.241 313.355 442.572 313.619 442.81 313.959L445.367 318.148C445.479 318.327 445.564 318.521 445.618 318.725Z" fill="#2B215E"/>
<path d="M623.687 712.252C624.552 712.643 625.536 712.677 626.425 712.344C627.314 712.012 628.035 711.341 628.431 710.478L640.009 684.972C640.397 684.105 640.427 683.121 640.093 682.232C639.759 681.344 639.087 680.623 638.225 680.227C637.357 679.836 636.37 679.804 635.479 680.139C634.588 680.473 633.866 681.146 633.469 682.012L621.902 707.508C621.512 708.374 621.48 709.359 621.815 710.249C622.149 711.138 622.822 711.858 623.687 712.252Z" fill="#ECC2B6"/>
<path d="M629.868 685.222L633.6 676.984C634.212 675.648 635.328 674.608 636.705 674.092C638.081 673.576 639.606 673.626 640.945 674.231C642.282 674.843 643.322 675.959 643.838 677.335C644.354 678.712 644.304 680.237 643.698 681.576L639.966 689.803C639.966 689.803 634.297 692.861 629.868 685.222Z" fill="#C0CDE9"/>
<path d="M646.745 712.382C646.923 712.718 647.016 713.091 647.017 713.471V725.636C647.017 728.009 644.634 729.989 641.653 729.989C638.66 729.989 636.212 728.139 636.157 725.767V710.315C636.156 710.024 636.247 709.74 636.417 709.503C636.587 709.267 636.828 709.09 637.104 708.998C639.128 708.356 644.047 707.399 646.745 712.382Z" fill="#2D2D4F"/>
<path d="M672.187 736.562C673.634 737.182 672.665 740.915 672.731 744.56C672.818 749.598 671.74 754.354 669.466 755.714C669.254 755.87 669.004 755.966 668.742 755.993C668.48 756.019 668.215 755.976 667.975 755.866L665.723 754.626C664.417 753.984 663.547 751.024 662.328 746.606C661 741.742 660.152 738.662 665.592 735.452C667.127 734.527 668.008 734.364 668.509 734.581L672.187 736.562Z" fill="#10120C"/>
<path d="M662.382 746.606C663.982 752.493 665.026 755.79 667.246 754.462C669.466 753.135 669.934 748.26 669.129 742.558C668.421 737.563 670.935 732.242 665.592 735.452C660.249 738.662 661.054 741.742 662.382 746.606Z" fill="#1B1B37"/>
<path d="M661.371 742.09C660.988 742.079 660.614 741.975 660.282 741.785L638.203 729.543C636.136 728.4 635.624 725.321 637.115 722.709C638.562 720.098 641.468 718.901 643.514 720.043L668.433 733.841C668.688 733.984 668.892 734.204 669.013 734.47C669.135 734.737 669.168 735.035 669.107 735.321C668.65 737.443 667.04 742.198 661.371 742.09Z" fill="#2D2D4F"/>
<path d="M657.986 760.197C658.149 761.764 654.395 762.732 651.25 764.55C646.897 767.074 642.175 768.445 639.933 767.15C639.693 767.042 639.487 766.87 639.338 766.653C639.188 766.437 639.101 766.183 639.084 765.921V763.352C638.997 761.905 641.163 759.696 644.438 756.497C648.051 752.971 650.358 750.773 655.755 753.896C657.3 754.789 657.931 755.452 657.931 756.018L657.986 760.197Z" fill="#10120C"/>
<path d="M644.492 756.497C640.14 760.752 637.746 763.266 639.987 764.56C642.229 765.855 646.712 763.897 651.304 760.425C655.331 757.389 661.218 757.008 655.809 753.896C650.401 750.784 648.051 752.971 644.492 756.497Z" fill="#1B1B37"/>
<path d="M647.931 753.407C647.76 753.07 647.675 752.697 647.681 752.319V714.886C647.681 712.524 650.129 710.533 653.122 710.533C656.104 710.533 658.563 712.481 658.563 714.886V755.627C658.564 755.921 658.471 756.208 658.296 756.445C658.122 756.682 657.876 756.857 657.594 756.944C655.494 757.542 650.554 758.413 647.931 753.407Z" fill="#47476C"/>
<path d="M654.286 679.161C654.255 679.568 654.114 679.959 653.878 680.292C653.642 680.625 653.321 680.889 652.948 681.054C651.938 681.573 650.819 681.843 649.683 681.843C648.548 681.843 647.429 681.573 646.419 681.054C646.04 680.897 645.713 680.636 645.476 680.301C645.24 679.966 645.102 679.57 645.08 679.161V673.143C645.108 672.734 645.247 672.339 645.483 672.004C645.719 671.668 646.043 671.403 646.419 671.239C647.431 670.726 648.549 670.458 649.683 670.458C650.818 670.458 651.936 670.726 652.948 671.239C653.321 671.407 653.642 671.673 653.878 672.008C654.113 672.343 654.254 672.735 654.286 673.143V679.161Z" fill="#D5A79C"/>
<path d="M678.672 718.661C679.517 718.231 680.157 717.483 680.453 716.582C680.749 715.681 680.676 714.699 680.25 713.852L667.617 688.824C667.185 687.976 666.437 687.334 665.534 687.036C664.631 686.738 663.646 686.81 662.796 687.235C661.948 687.666 661.306 688.415 661.01 689.319C660.715 690.223 660.789 691.207 661.218 692.056L673.874 717.062C674.301 717.908 675.045 718.55 675.943 718.85C676.842 719.15 677.823 719.082 678.672 718.661Z" fill="#ECC2B6"/>
<path d="M661.457 696.909L657.377 688.845C656.72 687.533 656.609 686.014 657.067 684.619C657.526 683.225 658.517 682.068 659.825 681.402C661.138 680.741 662.658 680.626 664.055 681.083C665.452 681.54 666.611 682.531 667.279 683.84L671.349 691.914C671.349 691.914 670.185 698.247 661.457 696.909Z" fill="#C0CDE9"/>
<path d="M636.941 663.545C636.941 666.037 637.68 668.474 639.064 670.546C640.449 672.618 642.417 674.233 644.719 675.187C647.022 676.141 649.556 676.39 652 675.904C654.444 675.418 656.69 674.218 658.452 672.455C660.214 670.693 661.414 668.448 661.901 666.004C662.387 663.559 662.137 661.026 661.184 658.723C660.23 656.42 658.615 654.452 656.542 653.068C654.47 651.683 652.034 650.944 649.542 650.944C647.887 650.943 646.247 651.268 644.718 651.9C643.188 652.533 641.799 653.461 640.628 654.632C639.458 655.802 638.53 657.192 637.897 658.721C637.264 660.251 636.939 661.89 636.941 663.545Z" fill="#ECC2B6"/>
<path fill-rule="evenodd" clip-rule="evenodd" d="M660.054 648.637C670.827 652.337 665.494 668.072 657.638 673.742C653.807 671.652 658.465 667.909 653.285 670.477C652.197 665.417 654.58 666.951 653.165 660.586C647.725 663.448 637.028 659.976 635.374 654.699C637.278 653.85 639.28 648.431 643.742 646.45C649.444 643.926 656.789 645.057 660.054 648.637Z" fill="#CE872A"/>
<path d="M653.753 670.629C653.753 672.131 654.842 672.74 656.115 671.989C656.799 671.541 657.368 670.938 657.776 670.229C658.184 669.52 658.42 668.725 658.465 667.909C658.465 666.396 657.377 665.798 656.115 666.549C655.428 666.995 654.856 667.597 654.445 668.306C654.035 669.015 653.798 669.811 653.753 670.629Z" fill="#ECC2B6"/>
<defs>
<linearGradient id="paint0_linear" x1="389.784" y1="0.956213" x2="150.287" y2="606.819" gradientUnits="userSpaceOnUse">
<stop stop-color="#C5DFF4"/>
<stop offset="0.06" stop-color="#C3DCF2"/>
<stop offset="0.65" stop-color="#ADC2E4"/>
<stop offset="1" stop-color="#A5B8DF"/>
</linearGradient>
<linearGradient id="paint1_linear" x1="330.011" y1="-85.4011" x2="102.365" y2="538.253" gradientUnits="userSpaceOnUse">
<stop stop-color="#C1D9F1"/>
<stop offset="1" stop-color="white" stop-opacity="0"/>
</linearGradient>
<linearGradient id="paint2_linear" x1="393.494" y1="-22.9944" x2="13.8523" y2="982.587" gradientUnits="userSpaceOnUse">
<stop stop-color="#E6F2FB"/>
<stop offset="0.04" stop-color="#E4F0FA"/>
<stop offset="0.64" stop-color="#CAD7EE"/>
<stop offset="1" stop-color="#C0CDE9"/>
</linearGradient>
<linearGradient id="paint3_linear" x1="272.62" y1="15.9731" x2="272.62" y2="510.461" gradientUnits="userSpaceOnUse">
<stop stop-color="#ABBCE1"/>
<stop offset="1" stop-color="white" stop-opacity="0"/>
</linearGradient>
<linearGradient id="paint4_linear" x1="187.928" y1="383.384" x2="388.086" y2="530.277" gradientUnits="userSpaceOnUse">
<stop stop-color="#62CBE6"/>
<stop offset="0.03" stop-color="#61C8E5"/>
<stop offset="0.46" stop-color="#519DCF"/>
<stop offset="0.8" stop-color="#4783C2"/>
<stop offset="1" stop-color="#4379BD"/>
</linearGradient>
<linearGradient id="paint5_linear" x1="46852.9" y1="7962.49" x2="45068" y2="10631.2" gradientUnits="userSpaceOnUse">
<stop stop-color="white"/>
<stop offset="0.12" stop-color="#F5F7FC" stop-opacity="0.84"/>
<stop offset="0.37" stop-color="#E2E8F5" stop-opacity="0.55"/>
<stop offset="0.59" stop-color="#D4DDF0" stop-opacity="0.31"/>
<stop offset="0.77" stop-color="#C9D4EC" stop-opacity="0.14"/>
<stop offset="0.91" stop-color="#C2CFEA" stop-opacity="0.04"/>
<stop offset="1" stop-color="#C0CDE9" stop-opacity="0"/>
</linearGradient>
<linearGradient id="paint6_linear" x1="58805.1" y1="9655.48" x2="56628.9" y2="12986.3" gradientUnits="userSpaceOnUse">
<stop stop-color="white"/>
<stop offset="0.12" stop-color="#F5F7FC" stop-opacity="0.84"/>
<stop offset="0.37" stop-color="#E2E8F5" stop-opacity="0.55"/>
<stop offset="0.59" stop-color="#D4DDF0" stop-opacity="0.31"/>
<stop offset="0.77" stop-color="#C9D4EC" stop-opacity="0.14"/>
<stop offset="0.91" stop-color="#C2CFEA" stop-opacity="0.04"/>
<stop offset="1" stop-color="#C0CDE9" stop-opacity="0"/>
</linearGradient>
<linearGradient id="paint7_linear" x1="58625.7" y1="9529.15" x2="56449.9" y2="12859.5" gradientUnits="userSpaceOnUse">
<stop stop-color="white"/>
<stop offset="0.12" stop-color="#F5F7FC" stop-opacity="0.84"/>
<stop offset="0.37" stop-color="#E2E8F5" stop-opacity="0.55"/>
<stop offset="0.59" stop-color="#D4DDF0" stop-opacity="0.31"/>
<stop offset="0.77" stop-color="#C9D4EC" stop-opacity="0.14"/>
<stop offset="0.91" stop-color="#C2CFEA" stop-opacity="0.04"/>
<stop offset="1" stop-color="#C0CDE9" stop-opacity="0"/>
</linearGradient>
<linearGradient id="paint8_linear" x1="26826" y1="10832.8" x2="25952.8" y2="11812.9" gradientUnits="userSpaceOnUse">
<stop stop-color="#E6F2FB"/>
<stop offset="0.04" stop-color="#E4F0FA"/>
<stop offset="0.64" stop-color="#CAD7EE"/>
<stop offset="1" stop-color="#C0CDE9"/>
</linearGradient>
<linearGradient id="paint9_linear" x1="54827.4" y1="23482.5" x2="51550.4" y2="29210.3" gradientUnits="userSpaceOnUse">
<stop stop-color="white"/>
<stop offset="0.12" stop-color="#F5F7FC" stop-opacity="0.84"/>
<stop offset="0.37" stop-color="#E2E8F5" stop-opacity="0.55"/>
<stop offset="0.59" stop-color="#D4DDF0" stop-opacity="0.31"/>
<stop offset="0.77" stop-color="#C9D4EC" stop-opacity="0.14"/>
<stop offset="0.91" stop-color="#C2CFEA" stop-opacity="0.04"/>
<stop offset="1" stop-color="#C0CDE9" stop-opacity="0"/>
</linearGradient>
<linearGradient id="paint10_linear" x1="98333.9" y1="115396" x2="78439.8" y2="121314" gradientUnits="userSpaceOnUse">
<stop stop-color="#E6F2FB"/>
<stop offset="0.04" stop-color="#E4F0FA"/>
<stop offset="0.64" stop-color="#CAD7EE"/>
<stop offset="1" stop-color="#C0CDE9"/>
</linearGradient>
<linearGradient id="paint11_linear" x1="58784.1" y1="146796" x2="58784.1" y2="94963.3" gradientUnits="userSpaceOnUse">
<stop offset="0.07" stop-color="#8ECDF1"/>
<stop offset="0.17" stop-color="#85C0E1" stop-opacity="0.93"/>
<stop offset="0.36" stop-color="#6E9EB7" stop-opacity="0.75"/>
<stop offset="0.63" stop-color="#496673" stop-opacity="0.45"/>
<stop offset="0.96" stop-color="#161B17" stop-opacity="0.05"/>
<stop offset="1" stop-color="#10120C" stop-opacity="0"/>
</linearGradient>
<linearGradient id="paint12_linear" x1="100028" y1="25190.5" x2="95144.3" y2="30187.4" gradientUnits="userSpaceOnUse">
<stop stop-color="#E6F2FB"/>
<stop offset="0.04" stop-color="#E4F0FA"/>
<stop offset="0.64" stop-color="#CAD7EE"/>
<stop offset="1" stop-color="#C0CDE9"/>
</linearGradient>
<linearGradient id="paint13_linear" x1="39810.7" y1="14593.7" x2="39810.7" y2="13816.7" gradientUnits="userSpaceOnUse">
<stop offset="0.07" stop-color="#8ECDF1"/>
<stop offset="0.17" stop-color="#85C0E1" stop-opacity="0.93"/>
<stop offset="0.36" stop-color="#6E9EB7" stop-opacity="0.75"/>
<stop offset="0.63" stop-color="#496673" stop-opacity="0.45"/>
<stop offset="0.96" stop-color="#161B17" stop-opacity="0.05"/>
<stop offset="1" stop-color="#10120C" stop-opacity="0"/>
</linearGradient>
<linearGradient id="paint14_linear" x1="101910" y1="27041.8" x2="97026.4" y2="32038.8" gradientUnits="userSpaceOnUse">
<stop stop-color="#E6F2FB"/>
<stop offset="0.04" stop-color="#E4F0FA"/>
<stop offset="0.64" stop-color="#CAD7EE"/>
<stop offset="1" stop-color="#C0CDE9"/>
</linearGradient>
<linearGradient id="paint15_linear" x1="40661.5" y1="15536.1" x2="40661.5" y2="14760.5" gradientUnits="userSpaceOnUse">
<stop offset="0.07" stop-color="#8ECDF1"/>
<stop offset="0.17" stop-color="#85C0E1" stop-opacity="0.93"/>
<stop offset="0.36" stop-color="#6E9EB7" stop-opacity="0.75"/>
<stop offset="0.63" stop-color="#496673" stop-opacity="0.45"/>
<stop offset="0.96" stop-color="#161B17" stop-opacity="0.05"/>
<stop offset="1" stop-color="#10120C" stop-opacity="0"/>
</linearGradient>
<linearGradient id="paint16_linear" x1="103792" y1="28893.1" x2="98908.5" y2="33889.6" gradientUnits="userSpaceOnUse">
<stop stop-color="#E6F2FB"/>
<stop offset="0.04" stop-color="#E4F0FA"/>
<stop offset="0.64" stop-color="#CAD7EE"/>
<stop offset="1" stop-color="#C0CDE9"/>
</linearGradient>
<linearGradient id="paint17_linear" x1="41484.2" y1="16516.3" x2="41484.2" y2="15740" gradientUnits="userSpaceOnUse">
<stop offset="0.07" stop-color="#8ECDF1"/>
<stop offset="0.17" stop-color="#85C0E1" stop-opacity="0.93"/>
<stop offset="0.36" stop-color="#6E9EB7" stop-opacity="0.75"/>
<stop offset="0.63" stop-color="#496673" stop-opacity="0.45"/>
<stop offset="0.96" stop-color="#161B17" stop-opacity="0.05"/>
<stop offset="1" stop-color="#10120C" stop-opacity="0"/>
</linearGradient>
<linearGradient id="paint18_linear" x1="105596" y1="30744" x2="100713" y2="35737.4" gradientUnits="userSpaceOnUse">
<stop stop-color="#E6F2FB"/>
<stop offset="0.04" stop-color="#E4F0FA"/>
<stop offset="0.64" stop-color="#CAD7EE"/>
<stop offset="1" stop-color="#C0CDE9"/>
</linearGradient>
<linearGradient id="paint19_linear" x1="42320.6" y1="17498.2" x2="42320.6" y2="16721.2" gradientUnits="userSpaceOnUse">
<stop offset="0.07" stop-color="#8ECDF1"/>
<stop offset="0.17" stop-color="#85C0E1" stop-opacity="0.93"/>
<stop offset="0.36" stop-color="#6E9EB7" stop-opacity="0.75"/>
<stop offset="0.63" stop-color="#496673" stop-opacity="0.45"/>
<stop offset="0.96" stop-color="#161B17" stop-opacity="0.05"/>
<stop offset="1" stop-color="#10120C" stop-opacity="0"/>
</linearGradient>
<linearGradient id="paint20_linear" x1="107477" y1="32595.1" x2="102593" y2="37588" gradientUnits="userSpaceOnUse">
<stop stop-color="#E6F2FB"/>
<stop offset="0.04" stop-color="#E4F0FA"/>
<stop offset="0.64" stop-color="#CAD7EE"/>
<stop offset="1" stop-color="#C0CDE9"/>
</linearGradient>
<linearGradient id="paint21_linear" x1="43157.4" y1="18466.4" x2="43157.4" y2="17689.4" gradientUnits="userSpaceOnUse">
<stop offset="0.07" stop-color="#8ECDF1"/>
<stop offset="0.17" stop-color="#85C0E1" stop-opacity="0.93"/>
<stop offset="0.36" stop-color="#6E9EB7" stop-opacity="0.75"/>
<stop offset="0.63" stop-color="#496673" stop-opacity="0.45"/>
<stop offset="0.96" stop-color="#161B17" stop-opacity="0.05"/>
<stop offset="1" stop-color="#10120C" stop-opacity="0"/>
</linearGradient>
<linearGradient id="paint22_linear" x1="118284" y1="32765.4" x2="111146" y2="33775.8" gradientUnits="userSpaceOnUse">
<stop stop-color="#E6F2FB" stop-opacity="0"/>
<stop offset="0.06" stop-color="#E3EFFA" stop-opacity="0.08"/>
<stop offset="0.32" stop-color="#D7E3F4" stop-opacity="0.4"/>
<stop offset="0.56" stop-color="#CDDAEF" stop-opacity="0.66"/>
<stop offset="0.75" stop-color="#C6D3EC" stop-opacity="0.84"/>
<stop offset="0.91" stop-color="#C2CFEA" stop-opacity="0.96"/>
<stop offset="1" stop-color="#C0CDE9"/>
</linearGradient>
<linearGradient id="paint23_linear" x1="95734.8" y1="20761.5" x2="100028" y2="20761.5" gradientUnits="userSpaceOnUse">
<stop stop-color="#62CBE6"/>
<stop offset="0.03" stop-color="#61C8E5"/>
<stop offset="0.46" stop-color="#519DCF"/>
<stop offset="0.8" stop-color="#4783C2"/>
<stop offset="1" stop-color="#4379BD"/>
</linearGradient>
<linearGradient id="paint24_linear" x1="549.092" y1="532.497" x2="549.092" y2="865.804" gradientUnits="userSpaceOnUse">
<stop stop-color="white" stop-opacity="0"/>
<stop offset="1" stop-color="#62CBE6"/>
</linearGradient>
<linearGradient id="paint25_linear" x1="70.3069" y1="543.084" x2="118.023" y2="175.412" gradientUnits="userSpaceOnUse">
<stop stop-color="#4379BD" stop-opacity="0"/>
<stop offset="0.04" stop-color="#477BBE" stop-opacity="0.04"/>
<stop offset="0.71" stop-color="#98A6D3" stop-opacity="0.72"/>
<stop offset="1" stop-color="#B8B7DC"/>
</linearGradient>
<linearGradient id="paint26_linear" x1="143508" y1="43558" x2="130247" y2="64342.8" gradientUnits="userSpaceOnUse">
<stop stop-color="white"/>
<stop offset="0.12" stop-color="#F5F7FC" stop-opacity="0.84"/>
<stop offset="0.37" stop-color="#E2E8F5" stop-opacity="0.55"/>
<stop offset="0.59" stop-color="#D4DDF0" stop-opacity="0.31"/>
<stop offset="0.77" stop-color="#C9D4EC" stop-opacity="0.14"/>
<stop offset="0.91" stop-color="#C2CFEA" stop-opacity="0.04"/>
<stop offset="1" stop-color="#C0CDE9" stop-opacity="0"/>
</linearGradient>
<linearGradient id="paint27_linear" x1="72318.2" y1="23539.5" x2="65081.3" y2="34236.5" gradientUnits="userSpaceOnUse">
<stop stop-color="white"/>
<stop offset="0.12" stop-color="#F5F7FC" stop-opacity="0.84"/>
<stop offset="0.37" stop-color="#E2E8F5" stop-opacity="0.55"/>
<stop offset="0.59" stop-color="#D4DDF0" stop-opacity="0.31"/>
<stop offset="0.77" stop-color="#C9D4EC" stop-opacity="0.14"/>
<stop offset="0.91" stop-color="#C2CFEA" stop-opacity="0.04"/>
<stop offset="1" stop-color="#C0CDE9" stop-opacity="0"/>
</linearGradient>
<linearGradient id="paint28_linear" x1="260.52" y1="338.225" x2="222.999" y2="383.896" gradientUnits="userSpaceOnUse">
<stop stop-color="white"/>
<stop offset="0.61" stop-color="#DAE2F2"/>
<stop offset="1" stop-color="#C0CDE9"/>
</linearGradient>
<linearGradient id="paint29_linear" x1="1077.4" y1="7383.88" x2="1042.54" y2="7388.54" gradientUnits="userSpaceOnUse">
<stop stop-color="white"/>
<stop offset="0.12" stop-color="#F5F7FC" stop-opacity="0.84"/>
<stop offset="0.37" stop-color="#E2E8F5" stop-opacity="0.55"/>
<stop offset="0.59" stop-color="#D4DDF0" stop-opacity="0.31"/>
<stop offset="0.77" stop-color="#C9D4EC" stop-opacity="0.14"/>
<stop offset="0.91" stop-color="#C2CFEA" stop-opacity="0.04"/>
<stop offset="1" stop-color="#C0CDE9" stop-opacity="0"/>
</linearGradient>
<linearGradient id="paint30_linear" x1="1075.52" y1="5335.02" x2="1041.22" y2="5341.49" gradientUnits="userSpaceOnUse">
<stop stop-color="white"/>
<stop offset="0.12" stop-color="#F5F7FC" stop-opacity="0.84"/>
<stop offset="0.37" stop-color="#E2E8F5" stop-opacity="0.55"/>
<stop offset="0.59" stop-color="#D4DDF0" stop-opacity="0.31"/>
<stop offset="0.77" stop-color="#C9D4EC" stop-opacity="0.14"/>
<stop offset="0.91" stop-color="#C2CFEA" stop-opacity="0.04"/>
<stop offset="1" stop-color="#C0CDE9" stop-opacity="0"/>
</linearGradient>
<linearGradient id="paint31_linear" x1="1087.24" y1="6841.05" x2="1051.76" y2="6846.3" gradientUnits="userSpaceOnUse">
<stop stop-color="white"/>
<stop offset="0.12" stop-color="#F5F7FC" stop-opacity="0.84"/>
<stop offset="0.37" stop-color="#E2E8F5" stop-opacity="0.55"/>
<stop offset="0.59" stop-color="#D4DDF0" stop-opacity="0.31"/>
<stop offset="0.77" stop-color="#C9D4EC" stop-opacity="0.14"/>
<stop offset="0.91" stop-color="#C2CFEA" stop-opacity="0.04"/>
<stop offset="1" stop-color="#C0CDE9" stop-opacity="0"/>
</linearGradient>
<linearGradient id="paint32_linear" x1="1085.64" y1="7369.88" x2="1050.05" y2="7374.75" gradientUnits="userSpaceOnUse">
<stop stop-color="white"/>
<stop offset="0.12" stop-color="#F5F7FC" stop-opacity="0.84"/>
<stop offset="0.37" stop-color="#E2E8F5" stop-opacity="0.55"/>
<stop offset="0.59" stop-color="#D4DDF0" stop-opacity="0.31"/>
<stop offset="0.77" stop-color="#C9D4EC" stop-opacity="0.14"/>
<stop offset="0.91" stop-color="#C2CFEA" stop-opacity="0.04"/>
<stop offset="1" stop-color="#C0CDE9" stop-opacity="0"/>
</linearGradient>
<linearGradient id="paint33_linear" x1="1083.49" y1="3002.72" x2="1051.41" y2="3014.29" gradientUnits="userSpaceOnUse">
<stop stop-color="white"/>
<stop offset="0.12" stop-color="#F5F7FC" stop-opacity="0.84"/>
<stop offset="0.37" stop-color="#E2E8F5" stop-opacity="0.55"/>
<stop offset="0.59" stop-color="#D4DDF0" stop-opacity="0.31"/>
<stop offset="0.77" stop-color="#C9D4EC" stop-opacity="0.14"/>
<stop offset="0.91" stop-color="#C2CFEA" stop-opacity="0.04"/>
<stop offset="1" stop-color="#C0CDE9" stop-opacity="0"/>
</linearGradient>
<linearGradient id="paint34_linear" x1="438.229" y1="373.188" x2="466.957" y2="373.188" gradientUnits="userSpaceOnUse">
<stop offset="0.07" stop-color="#6A59A6"/>
<stop offset="0.44" stop-color="#5A4895"/>
<stop offset="1" stop-color="#3B2875"/>
</linearGradient>
</defs>
</svg>
