<svg width="171" height="300" viewBox="0 0 171 300" fill="none" xmlns="http://www.w3.org/2000/svg">
<path d="M39.3603 285.396C61.0978 285.396 78.7194 275.223 78.7194 262.675C78.7194 250.126 61.0978 239.954 39.3603 239.954C17.6228 239.954 0.000976562 250.126 0.000976562 262.675C0.000976562 275.223 17.6228 285.396 39.3603 285.396Z" fill="white"/>
<path d="M67.1847 278.736C51.8196 287.616 26.9222 287.616 11.5245 278.736C3.90733 274.383 0.0552271 268.572 0.000818411 262.805V276.832C-0.064472 282.697 3.77675 288.562 11.5245 293.035C26.8896 301.914 51.787 301.914 67.1847 293.035C74.9325 288.562 78.7737 282.697 78.7084 276.832V262.805C78.654 268.529 74.8128 274.34 67.1847 278.736Z" fill="url(#paint0_linear)"/>
<path d="M15.1921 256.406C28.5332 248.702 50.177 248.702 63.5289 256.406C68.491 259.279 71.614 262.816 72.8763 266.515C75.0526 260.269 71.8969 253.555 63.5289 248.713C50.177 241.009 28.5332 241.009 15.1921 248.713C6.81321 253.555 3.70106 260.269 5.83388 266.515C7.09616 262.816 10.2192 259.279 15.1921 256.406Z" fill="url(#paint1_linear)"/>
<path d="M63.529 256.407C50.1771 248.702 28.5333 248.702 15.1923 256.407C10.2193 259.279 7.10715 262.805 5.83398 266.505C7.10715 270.216 10.1867 273.752 15.1923 276.625C28.5333 284.329 50.1771 284.329 63.5181 276.625C68.491 273.752 71.6141 270.216 72.8764 266.505C71.6467 262.805 68.4911 259.279 63.529 256.407Z" fill="#62CBE6"/>
<path d="M36.4437 115.151H31.9604V110.667C31.9285 110.295 31.7581 109.949 31.4831 109.696C31.2081 109.444 30.8484 109.304 30.475 109.304C30.1017 109.304 29.7419 109.444 29.4668 109.696C29.1918 109.949 29.0216 110.295 28.9897 110.667V115.151H24.5064C24.111 115.151 23.7318 115.308 23.4522 115.587C23.1727 115.867 23.0156 116.246 23.0156 116.641C23.0156 117.037 23.1727 117.416 23.4522 117.695C23.7318 117.975 24.111 118.132 24.5064 118.132H28.9897V122.615C28.9721 122.821 28.9973 123.028 29.0639 123.224C29.1306 123.419 29.2371 123.599 29.3768 123.751C29.5164 123.903 29.6861 124.024 29.8752 124.107C30.0642 124.191 30.2685 124.233 30.475 124.233C30.6815 124.233 30.8857 124.191 31.0748 124.107C31.2638 124.024 31.4335 123.903 31.5732 123.751C31.7128 123.599 31.8194 123.419 31.886 123.224C31.9526 123.028 31.978 122.821 31.9604 122.615V118.132H36.4437C36.839 118.132 37.2182 117.975 37.4978 117.695C37.7774 117.416 37.9344 117.037 37.9344 116.641C37.9344 116.246 37.7774 115.867 37.4978 115.587C37.2182 115.308 36.839 115.151 36.4437 115.151Z" fill="#62CBE6"/>
<path d="M60.9171 152.029H56.412V147.545C56.412 147.15 56.255 146.771 55.9754 146.491C55.6958 146.212 55.3166 146.055 54.9212 146.055C54.5258 146.055 54.1466 146.212 53.867 146.491C53.5875 146.771 53.4304 147.15 53.4304 147.545V152.029H48.9471C48.7414 152.011 48.5342 152.036 48.3388 152.103C48.1433 152.17 47.9638 152.276 47.8117 152.416C47.6596 152.556 47.5381 152.725 47.455 152.914C47.3719 153.103 47.3291 153.308 47.3291 153.514C47.3291 153.721 47.3719 153.925 47.455 154.114C47.5381 154.303 47.6596 154.473 47.8117 154.612C47.9638 154.752 48.1433 154.858 48.3388 154.925C48.5342 154.992 48.7414 155.017 48.9471 154.999H53.4304V159.483C53.4304 159.878 53.5875 160.257 53.867 160.537C54.1466 160.816 54.5258 160.974 54.9212 160.974C55.3166 160.974 55.6958 160.816 55.9754 160.537C56.255 160.257 56.412 159.878 56.412 159.483V154.999H60.8844C61.0901 155.017 61.2973 154.992 61.4928 154.925C61.6882 154.858 61.8677 154.752 62.0198 154.612C62.172 154.473 62.2934 154.303 62.3765 154.114C62.4596 153.925 62.5024 153.721 62.5024 153.514C62.5024 153.308 62.4596 153.103 62.3765 152.914C62.2934 152.725 62.172 152.556 62.0198 152.416C61.8677 152.276 61.6882 152.17 61.4928 152.103C61.2973 152.036 61.0901 152.011 60.8844 152.029H60.9171Z" fill="#62CBE6"/>
<path d="M32.1565 199.375H27.6842V194.903C27.6842 194.508 27.5271 194.128 27.2475 193.849C26.968 193.569 26.5888 193.412 26.1934 193.412C25.798 193.412 25.4188 193.569 25.1392 193.849C24.8596 194.128 24.7026 194.508 24.7026 194.903V199.375H20.2193C19.8239 199.375 19.4447 199.532 19.1651 199.812C18.8856 200.092 18.7285 200.471 18.7285 200.866C18.7285 201.262 18.8856 201.641 19.1651 201.92C19.4447 202.2 19.8239 202.357 20.2193 202.357H24.7026V206.84C24.7026 207.236 24.8596 207.615 25.1392 207.894C25.4188 208.174 25.798 208.331 26.1934 208.331C26.5888 208.331 26.968 208.174 27.2475 207.894C27.5271 207.615 27.6842 207.236 27.6842 206.84V202.357H32.1565C32.5519 202.357 32.9311 202.2 33.2107 201.92C33.4903 201.641 33.6473 201.262 33.6473 200.866C33.6473 200.471 33.4903 200.092 33.2107 199.812C32.9311 199.532 32.5519 199.375 32.1565 199.375V199.375Z" fill="#62CBE6"/>
<path d="M52.4293 234.588H47.946V230.105C47.946 229.71 47.789 229.33 47.5094 229.051C47.2298 228.771 46.8506 228.614 46.4552 228.614C46.0599 228.614 45.6807 228.771 45.4011 229.051C45.1215 229.33 44.9644 229.71 44.9644 230.105V234.588H40.4921C40.2863 234.571 40.0791 234.596 39.8837 234.663C39.6882 234.729 39.5087 234.836 39.3566 234.975C39.2045 235.115 39.083 235.285 38.9999 235.474C38.9169 235.663 38.874 235.867 38.874 236.074C38.874 236.28 38.9169 236.484 38.9999 236.673C39.083 236.863 39.2045 237.032 39.3566 237.172C39.5087 237.312 39.6882 237.418 39.8837 237.485C40.0791 237.551 40.2863 237.577 40.4921 237.559H44.9644V242.042C44.9644 242.438 45.1215 242.817 45.4011 243.096C45.6807 243.376 46.0599 243.533 46.4552 243.533C46.8506 243.533 47.2298 243.376 47.5094 243.096C47.789 242.817 47.946 242.438 47.946 242.042V237.559H52.4293C52.6351 237.577 52.8422 237.551 53.0377 237.485C53.2331 237.418 53.4126 237.312 53.5648 237.172C53.7169 237.032 53.8383 236.863 53.9214 236.673C54.0045 236.484 54.0474 236.28 54.0474 236.074C54.0474 235.867 54.0045 235.663 53.9214 235.474C53.8383 235.285 53.7169 235.115 53.5648 234.975C53.4126 234.836 53.2331 234.729 53.0377 234.663C52.8422 234.596 52.6351 234.571 52.4293 234.588Z" fill="#62CBE6"/>
<path d="M46.4655 134.76C48.2203 134.76 49.643 133.337 49.643 131.582C49.643 129.827 48.2203 128.405 46.4655 128.405C44.7106 128.405 43.2881 129.827 43.2881 131.582C43.2881 133.337 44.7106 134.76 46.4655 134.76Z" fill="#4379BD"/>
<path d="M61.2974 182.933C61.2974 183.562 61.1107 184.177 60.7611 184.7C60.4115 185.223 59.9145 185.63 59.3333 185.87C58.752 186.11 58.1127 186.172 57.4961 186.049C56.8794 185.925 56.3132 185.622 55.8692 185.176C55.4253 184.731 55.1235 184.164 55.0021 183.547C54.8807 182.929 54.9452 182.29 55.1874 181.71C55.4296 181.129 55.8386 180.634 56.3626 180.286C56.8866 179.938 57.5018 179.754 58.1307 179.756C58.5475 179.756 58.9602 179.838 59.3451 179.998C59.73 180.158 60.0796 180.392 60.3738 180.687C60.668 180.982 60.901 181.333 61.0595 181.718C61.218 182.104 61.2988 182.517 61.2974 182.933V182.933Z" fill="#4379BD"/>
<path d="M37.4779 217.983C37.4779 218.612 37.2916 219.226 36.9425 219.748C36.5933 220.271 36.0971 220.678 35.5165 220.919C34.9359 221.159 34.297 221.222 33.6806 221.1C33.0642 220.977 32.498 220.674 32.0536 220.23C31.6093 219.786 31.3067 219.219 31.1841 218.603C31.0615 217.987 31.1244 217.348 31.3649 216.767C31.6054 216.187 32.0126 215.69 32.5352 215.341C33.0577 214.992 33.6721 214.806 34.3005 214.806C35.1432 214.806 35.9514 215.14 36.5473 215.736C37.1432 216.332 37.4779 217.14 37.4779 217.983Z" fill="#4379BD"/>
<path d="M48.1957 193.445C48.1957 194.073 48.0094 194.688 47.6602 195.21C47.3111 195.733 46.8149 196.14 46.2343 196.381C45.6536 196.621 45.0147 196.684 44.3984 196.561C43.782 196.439 43.2158 196.136 42.7714 195.692C42.327 195.247 42.0245 194.681 41.9019 194.065C41.7793 193.449 41.8422 192.81 42.0827 192.229C42.3232 191.648 42.7304 191.152 43.2529 190.803C43.7755 190.454 44.3899 190.268 45.0183 190.268C45.436 190.266 45.8498 190.347 46.236 190.506C46.6221 190.666 46.9729 190.9 47.2682 191.195C47.5636 191.49 47.7977 191.841 47.9568 192.227C48.116 192.614 48.1971 193.027 48.1957 193.445V193.445Z" fill="#4379BD"/>
<path d="M35.9545 154.271C35.9545 154.899 35.7682 155.513 35.419 156.036C35.0699 156.559 34.5737 156.966 33.993 157.206C33.4124 157.447 32.7735 157.51 32.1571 157.387C31.5408 157.265 30.9746 156.962 30.5302 156.518C30.0858 156.073 29.7833 155.507 29.6607 154.891C29.5381 154.274 29.601 153.635 29.8415 153.055C30.082 152.474 30.4892 151.978 31.0117 151.629C31.5343 151.28 32.1486 151.093 32.7771 151.093C33.6198 151.093 34.4279 151.428 35.0238 152.024C35.6197 152.62 35.9545 153.428 35.9545 154.271Z" fill="#4379BD"/>
<path d="M58.1312 108.197C58.1312 108.825 57.9449 109.44 57.5958 109.962C57.2466 110.485 56.7504 110.892 56.1698 111.133C55.5892 111.373 54.9503 111.436 54.3339 111.313C53.7175 111.191 53.1513 110.888 52.707 110.444C52.2626 109.999 51.96 109.433 51.8374 108.817C51.7148 108.201 51.7777 107.562 52.0182 106.981C52.2587 106.4 52.666 105.904 53.1885 105.555C53.711 105.206 54.3254 105.02 54.9538 105.02C55.7966 105.02 56.6047 105.354 57.2006 105.95C57.7965 106.546 58.1312 107.354 58.1312 108.197V108.197Z" fill="#4379BD"/>
<path d="M45.03 80.2634L37.0508 88.2427L45.03 96.2219L53.0093 88.2427L45.03 80.2634Z" fill="#4D5BA9"/>
<path d="M58.1238 199.382L50.1445 207.361L58.1238 215.341L66.103 207.361L58.1238 199.382Z" fill="#4D5BA9"/>
<path d="M35.9685 164.655L27.9893 172.634L35.9685 180.614L43.9477 172.634L35.9685 164.655Z" fill="#4D5BA9"/>
<path d="M5.26733 261.847C4.89735 267.168 8.18365 272.555 15.2133 276.614C28.5543 284.318 50.1981 284.318 63.5391 276.614C70.5687 272.566 73.8657 267.179 73.4849 261.858V20.5338C73.8657 15.2235 70.5687 9.83709 63.5391 5.7782C50.1981 -1.92607 28.5543 -1.92607 15.2133 5.7782C8.18365 9.83709 4.89735 15.2235 5.26733 20.5338V261.847Z" fill="url(#paint2_linear)"/>
<path d="M113.955 221.28C114.819 221.672 115.804 221.705 116.693 221.372C117.582 221.04 118.303 220.369 118.699 219.506L130.277 194C130.665 193.133 130.695 192.149 130.361 191.26C130.027 190.372 129.355 189.651 128.493 189.255C127.625 188.864 126.638 188.832 125.747 189.167C124.856 189.501 124.134 190.174 123.737 191.04L112.17 216.536C111.779 217.402 111.748 218.387 112.082 219.277C112.417 220.166 113.09 220.886 113.955 221.28V221.28Z" fill="#ECC2B6"/>
<path d="M120.136 194.25L123.868 186.013C124.48 184.676 125.596 183.636 126.973 183.12C128.349 182.604 129.874 182.655 131.213 183.26V183.26C132.55 183.871 133.59 184.988 134.106 186.364C134.622 187.74 134.572 189.265 133.966 190.605L130.234 198.831C130.234 198.831 124.565 201.889 120.136 194.25Z" fill="#C0CDE9"/>
<path d="M137.013 221.411C137.19 221.746 137.284 222.119 137.285 222.499V234.665C137.285 237.037 134.902 239.017 131.92 239.017C128.928 239.017 126.479 237.167 126.425 234.795V219.343C126.424 219.052 126.515 218.768 126.685 218.531C126.855 218.295 127.095 218.118 127.372 218.026C129.396 217.384 134.314 216.427 137.013 221.411Z" fill="#2D2D4F"/>
<path d="M162.454 245.59C163.901 246.211 162.933 249.943 162.998 253.588C163.085 258.627 162.008 263.382 159.733 264.742C159.521 264.898 159.271 264.994 159.009 265.021C158.747 265.048 158.482 265.004 158.243 264.894L155.99 263.654C154.684 263.012 153.814 260.052 152.595 255.634C151.267 250.77 150.419 247.691 155.859 244.48C157.394 243.555 158.275 243.392 158.776 243.61L162.454 245.59Z" fill="#10120C"/>
<path d="M152.649 255.634C154.249 261.521 155.294 264.819 157.514 263.491C159.733 262.163 160.201 257.288 159.396 251.586C158.689 246.592 161.202 241.271 155.859 244.481C150.517 247.691 151.322 250.77 152.649 255.634Z" fill="#1B1B37"/>
<path d="M151.638 251.118C151.256 251.108 150.882 251.003 150.55 250.813L128.471 238.571C126.403 237.429 125.892 234.349 127.382 231.738C128.83 229.126 131.735 227.929 133.781 229.072L158.7 242.87C158.956 243.012 159.159 243.233 159.281 243.499C159.402 243.765 159.435 244.063 159.375 244.35C158.918 246.472 157.307 251.227 151.638 251.118Z" fill="#2D2D4F"/>
<path d="M148.254 269.225C148.417 270.792 144.663 271.761 141.518 273.578C137.165 276.102 132.443 277.474 130.201 276.179C129.961 276.07 129.755 275.898 129.606 275.682C129.456 275.465 129.368 275.212 129.352 274.949V272.381C129.265 270.934 131.43 268.725 134.706 265.525C138.319 262 140.626 259.802 146.023 262.925C147.568 263.817 148.199 264.481 148.199 265.047L148.254 269.225Z" fill="#10120C"/>
<path d="M134.76 265.525C130.407 269.78 128.013 272.294 130.255 273.589C132.497 274.884 136.98 272.925 141.572 269.454C145.598 266.418 151.485 266.037 146.077 262.925C140.669 259.812 138.318 262 134.76 265.525Z" fill="#1B1B37"/>
<path d="M138.199 262.435C138.028 262.098 137.942 261.725 137.949 261.347V223.914C137.949 221.552 140.397 219.561 143.389 219.561C146.371 219.561 148.83 221.509 148.83 223.914V264.655C148.832 264.949 148.738 265.236 148.564 265.473C148.389 265.711 148.143 265.885 147.862 265.972C145.762 266.57 140.821 267.441 138.199 262.435Z" fill="#47476C"/>
<path d="M144.554 188.189C144.522 188.596 144.381 188.987 144.145 189.32C143.91 189.654 143.588 189.917 143.215 190.082C142.205 190.601 141.086 190.871 139.951 190.871C138.815 190.871 137.696 190.601 136.686 190.082C136.307 189.925 135.98 189.664 135.744 189.329C135.507 188.994 135.37 188.599 135.348 188.189V182.171C135.375 181.762 135.514 181.368 135.75 181.032C135.986 180.696 136.31 180.432 136.686 180.267C137.698 179.754 138.816 179.486 139.951 179.486C141.085 179.486 142.203 179.754 143.215 180.267C143.588 180.436 143.91 180.701 144.145 181.036C144.38 181.371 144.522 181.763 144.554 182.171V188.189Z" fill="#D5A79C"/>
<path d="M168.94 227.69C169.785 227.259 170.425 226.511 170.72 225.61C171.016 224.709 170.943 223.728 170.518 222.88L157.884 197.852C157.453 197.005 156.704 196.362 155.801 196.064C154.898 195.767 153.914 195.838 153.063 196.263V196.263C152.216 196.694 151.574 197.444 151.278 198.347C150.982 199.251 151.057 200.235 151.486 201.084L164.141 226.09C164.568 226.936 165.312 227.579 166.211 227.878C167.11 228.178 168.091 228.11 168.94 227.69V227.69Z" fill="#ECC2B6"/>
<path d="M151.725 205.937L147.645 197.874C146.988 196.561 146.876 195.042 147.335 193.648C147.794 192.253 148.785 191.097 150.093 190.43V190.43C151.405 189.769 152.926 189.655 154.323 190.111C155.72 190.568 156.879 191.559 157.547 192.868L161.617 200.942C161.617 200.942 160.452 207.275 151.725 205.937Z" fill="#C0CDE9"/>
<path d="M127.208 172.573C127.208 175.065 127.947 177.502 129.332 179.574C130.716 181.646 132.684 183.261 134.987 184.215C137.289 185.169 139.823 185.418 142.267 184.932C144.712 184.446 146.957 183.246 148.719 181.484C150.482 179.721 151.682 177.476 152.168 175.032C152.654 172.587 152.405 170.054 151.451 167.751C150.497 165.449 148.882 163.48 146.81 162.096C144.738 160.711 142.301 159.972 139.809 159.972C138.154 159.971 136.515 160.296 134.985 160.928C133.456 161.561 132.066 162.489 130.895 163.66C129.725 164.83 128.797 166.22 128.164 167.749C127.532 169.279 127.207 170.918 127.208 172.573V172.573Z" fill="#ECC2B6"/>
<path fill-rule="evenodd" clip-rule="evenodd" d="M150.321 157.666C161.094 161.366 155.762 177.101 147.906 182.77C144.075 180.681 148.733 176.937 143.553 179.505C142.465 174.445 144.848 175.98 143.433 169.614C137.992 172.476 127.296 169.005 125.642 163.727C127.546 162.878 129.548 157.459 134.01 155.479C139.712 152.954 147.057 154.086 150.321 157.666Z" fill="#CE872A"/>
<path d="M144.021 179.657C144.021 181.159 145.11 181.769 146.383 181.018C147.067 180.569 147.636 179.966 148.044 179.257C148.452 178.548 148.688 177.754 148.733 176.937C148.733 175.424 147.645 174.826 146.383 175.577C145.696 176.023 145.124 176.625 144.713 177.334C144.303 178.043 144.066 178.839 144.021 179.657Z" fill="#ECC2B6"/>
<defs>
<linearGradient id="paint0_linear" x1="117774" y1="32274.4" x2="110636" y2="33284.8" gradientUnits="userSpaceOnUse">
<stop stop-color="#E6F2FB" stop-opacity="0"/>
<stop offset="0.06" stop-color="#E3EFFA" stop-opacity="0.08"/>
<stop offset="0.32" stop-color="#D7E3F4" stop-opacity="0.4"/>
<stop offset="0.56" stop-color="#CDDAEF" stop-opacity="0.66"/>
<stop offset="0.75" stop-color="#C6D3EC" stop-opacity="0.84"/>
<stop offset="0.91" stop-color="#C2CFEA" stop-opacity="0.96"/>
<stop offset="1" stop-color="#C0CDE9"/>
</linearGradient>
<linearGradient id="paint1_linear" x1="95225.1" y1="20270.6" x2="99518.8" y2="20270.6" gradientUnits="userSpaceOnUse">
<stop stop-color="#62CBE6"/>
<stop offset="0.03" stop-color="#61C8E5"/>
<stop offset="0.46" stop-color="#519DCF"/>
<stop offset="0.8" stop-color="#4783C2"/>
<stop offset="1" stop-color="#4379BD"/>
</linearGradient>
<linearGradient id="paint2_linear" x1="39.3598" y1="41.5247" x2="39.3598" y2="374.832" gradientUnits="userSpaceOnUse">
<stop stop-color="white" stop-opacity="0"/>
<stop offset="1" stop-color="#62CBE6"/>
</linearGradient>
</defs>
</svg>
