<svg width="180" height="180" viewBox="0 0 180 180" fill="none" xmlns="http://www.w3.org/2000/svg">
<path d="M145.286 106.023C178.433 125.26 75.2129 3.98764 60.2384 0.100482L31.1829 59.0164C82.3596 72.4752 112.139 86.7851 145.286 106.023Z" fill="url(#paint0_radial)"/>
<path d="M30.3775 129.028H25.1775V126.142H39.6075V129.028H34.4335V143.016H30.3775V129.028ZM41.7844 130.432H45.3984V132.642C45.3984 132.244 45.563 131.854 45.8924 131.472C46.2217 131.091 46.6377 130.779 47.1404 130.536C47.6604 130.294 48.1717 130.172 48.6744 130.172H50.0264V133.318H48.7264C47.6517 133.318 46.8544 133.483 46.3344 133.812C45.8317 134.142 45.5804 134.688 45.5804 135.45V143.016H41.7844V130.432ZM52.2223 125.882H56.0183V128.95H52.2223V125.882ZM52.2223 130.432H56.0183V143.016H52.2223V130.432ZM67.0742 143.276C66.3116 143.276 65.6269 143.242 65.0202 143.172C64.4309 143.103 63.7809 142.973 63.0702 142.782C62.2729 142.574 61.6142 142.306 61.0942 141.976C60.5742 141.63 60.1409 141.153 59.7942 140.546C59.4302 139.94 59.2482 139.22 59.2482 138.388V130.978C59.2482 127.581 61.8569 125.882 67.0742 125.882C68.4089 125.882 70.1942 126.073 72.4302 126.454V129.496C70.4196 129.011 68.6516 128.768 67.1262 128.768C66.4849 128.768 65.9822 128.786 65.6182 128.82C65.2716 128.855 64.9076 128.942 64.5262 129.08C63.7116 129.358 63.3042 129.973 63.3042 130.926V138.102C63.3042 139.628 64.6996 140.39 67.4902 140.39C68.6862 140.39 70.3676 140.139 72.5342 139.636V142.704C70.6796 143.086 68.8596 143.276 67.0742 143.276ZM81.0019 143.276C80.2219 143.276 79.5806 143.25 79.0779 143.198C78.5752 143.146 78.0379 143.042 77.4659 142.886C76.8419 142.713 76.3392 142.47 75.9579 142.158C75.5766 141.829 75.2559 141.37 74.9959 140.78C74.7359 140.208 74.6059 139.515 74.6059 138.7V134.982C74.6059 134.15 74.7359 133.422 74.9959 132.798C75.2559 132.174 75.5939 131.689 76.0099 131.342C76.3739 131.048 76.8506 130.805 77.4399 130.614C78.0466 130.406 78.6359 130.276 79.2079 130.224C79.8666 130.19 80.4646 130.172 81.0019 130.172C81.7992 130.172 82.4319 130.198 82.8999 130.25C83.3852 130.285 83.9139 130.389 84.4859 130.562C85.1099 130.753 85.6126 131.013 85.9939 131.342C86.3926 131.672 86.7306 132.14 87.0079 132.746C87.2679 133.37 87.3979 134.116 87.3979 134.982V138.7C87.3979 139.48 87.2679 140.165 87.0079 140.754C86.7652 141.344 86.4446 141.803 86.0459 142.132C85.6992 142.427 85.2226 142.67 84.6159 142.86C84.0266 143.034 83.4459 143.146 82.8739 143.198C82.3539 143.25 81.7299 143.276 81.0019 143.276ZM81.0019 140.91C81.7126 140.91 82.2499 140.858 82.6139 140.754C82.9779 140.633 83.2292 140.451 83.3679 140.208C83.5239 139.966 83.6019 139.61 83.6019 139.142V134.384C83.6019 133.691 83.4199 133.206 83.0559 132.928C82.6919 132.651 82.0072 132.512 81.0019 132.512C79.9966 132.512 79.3119 132.651 78.9479 132.928C78.5839 133.206 78.4019 133.691 78.4019 134.384V139.142C78.4019 139.61 78.4712 139.966 78.6099 140.208C78.7659 140.451 79.0259 140.633 79.3899 140.754C79.7539 140.858 80.2912 140.91 81.0019 140.91ZM95.1926 143.276C93.702 143.276 92.6013 143.172 91.8906 142.964C91.18 142.739 90.686 142.323 90.4086 141.716C90.1313 141.11 89.9926 140.165 89.9926 138.882V133.968C89.9926 132.582 90.3826 131.602 91.1626 131.03C91.96 130.458 93.2426 130.172 95.0106 130.172C95.8426 130.172 96.4926 130.224 96.9606 130.328C97.446 130.415 97.836 130.58 98.1306 130.822C98.4253 131.048 98.7286 131.386 99.0406 131.836V124.816H102.837V143.016H99.1706V141.586C98.8586 142.089 98.5726 142.444 98.3126 142.652C98.07 142.843 97.7233 142.99 97.2726 143.094C96.8046 143.216 96.1113 143.276 95.1926 143.276ZM96.1546 140.91C97.004 140.91 97.628 140.867 98.0266 140.78C98.4253 140.694 98.694 140.538 98.8326 140.312C98.9713 140.07 99.0406 139.714 99.0406 139.246V134.176C99.0406 133.743 98.9626 133.414 98.8066 133.188C98.668 132.946 98.408 132.772 98.0266 132.668C97.6626 132.564 97.108 132.512 96.3626 132.512C95.5653 132.512 94.9933 132.564 94.6466 132.668C94.3 132.755 94.066 132.92 93.9446 133.162C93.8406 133.388 93.7886 133.769 93.7886 134.306V139.116C93.7886 139.602 93.8406 139.974 93.9446 140.234C94.066 140.477 94.2913 140.65 94.6206 140.754C94.95 140.858 95.4613 140.91 96.1546 140.91ZM112.493 143.276C108.038 143.276 105.811 141.916 105.811 139.194V134.67C105.811 133.093 106.314 131.949 107.319 131.238C108.342 130.528 109.91 130.172 112.025 130.172C114.018 130.172 115.474 130.519 116.393 131.212C117.329 131.888 117.797 133.041 117.797 134.67V137.738H109.633V138.882C109.633 139.61 109.893 140.13 110.413 140.442C110.933 140.754 111.869 140.91 113.221 140.91C114.469 140.91 115.873 140.728 117.433 140.364V142.782C115.89 143.112 114.244 143.276 112.493 143.276ZM114.183 135.58V133.76C114.183 133.344 114.01 133.032 113.663 132.824C113.334 132.616 112.77 132.512 111.973 132.512C111.054 132.512 110.439 132.616 110.127 132.824C109.798 133.05 109.633 133.362 109.633 133.76V135.58H114.183Z" fill="#565A62"/>
<path d="M146.121 119.075C183.731 121.548 41.399 60.9194 26.8015 64.0518L0 119.075C49.9751 108.524 108.511 116.602 146.121 119.075Z" fill="url(#paint1_linear)"/>
<path d="M12.5324 159.95H7.03237V158.25H20.4574V159.95H14.9824V174.475H12.5324V159.95ZM28.1064 174.725C24.4064 174.725 22.5564 173.492 22.5564 171.025V166.25C22.5564 164.784 22.9731 163.734 23.8064 163.1C24.6564 162.45 26.0231 162.125 27.9064 162.125C29.6897 162.125 30.9731 162.434 31.7564 163.05C32.5564 163.667 32.9564 164.734 32.9564 166.25V168.925H24.8314V170.75C24.8314 171.584 25.1231 172.184 25.7064 172.55C26.2897 172.917 27.1897 173.1 28.4064 173.1C29.5564 173.1 30.9147 172.9 32.4814 172.5V174.225C30.9481 174.559 29.4897 174.725 28.1064 174.725ZM30.7064 167.45V165.55C30.7064 164.817 30.4814 164.317 30.0314 164.05C29.5981 163.767 28.8481 163.625 27.7814 163.625C26.7481 163.625 25.9981 163.767 25.5314 164.05C25.0647 164.317 24.8314 164.817 24.8314 165.55V167.45H30.7064ZM41.2603 174.725C40.427 174.725 39.8186 174.709 39.4353 174.675C39.0686 174.642 38.6436 174.559 38.1603 174.425C37.6436 174.292 37.2436 174.092 36.9603 173.825C36.677 173.559 36.4353 173.167 36.2353 172.65C36.0353 172.15 35.9353 171.525 35.9353 170.775V166.325C35.9353 164.975 36.1936 164.009 36.7103 163.425C36.9936 163.092 37.277 162.842 37.5603 162.675C37.8603 162.492 38.2436 162.367 38.7103 162.3C39.177 162.234 39.5936 162.192 39.9603 162.175C40.327 162.142 40.8436 162.125 41.5103 162.125C42.6603 162.125 43.8103 162.25 44.9603 162.5V164.15C43.627 163.817 42.3853 163.65 41.2353 163.65C40.3686 163.65 39.727 163.717 39.3103 163.85C38.9103 163.967 38.627 164.192 38.4603 164.525C38.3103 164.842 38.2353 165.334 38.2353 166V170.95C38.2353 171.567 38.3186 172.025 38.4853 172.325C38.6686 172.625 38.9853 172.842 39.4353 172.975C39.902 173.092 40.5853 173.15 41.4853 173.15C42.702 173.15 43.9186 172.992 45.1353 172.675V174.375C44.002 174.609 42.7103 174.725 41.2603 174.725ZM47.982 156.975H50.232V163.85C50.4653 162.7 51.7903 162.125 54.207 162.125C55.757 162.125 56.8403 162.409 57.457 162.975C58.0903 163.525 58.407 164.4 58.407 165.6V174.475H56.157V165.75C56.157 165.434 56.132 165.175 56.082 164.975C56.032 164.775 55.932 164.575 55.782 164.375C55.4486 163.959 54.707 163.75 53.557 163.75C52.6403 163.75 51.9403 163.817 51.457 163.95C50.9903 164.067 50.6653 164.267 50.482 164.55C50.3153 164.834 50.232 165.234 50.232 165.75V174.475H47.982V156.975ZM62.313 162.375H64.563V163.85C64.7964 162.7 66.1214 162.125 68.538 162.125C70.088 162.125 71.1714 162.409 71.788 162.975C72.4214 163.525 72.738 164.4 72.738 165.6V174.475H70.488V165.725C70.488 165.409 70.463 165.15 70.413 164.95C70.363 164.75 70.263 164.55 70.113 164.35C69.7797 163.934 69.038 163.725 67.888 163.725C67.0047 163.725 66.3214 163.792 65.838 163.925C65.3714 164.042 65.038 164.242 64.838 164.525C64.6547 164.809 64.563 165.209 64.563 165.725V174.475H62.313V162.375ZM81.7691 174.725C80.7024 174.725 79.9024 174.684 79.3691 174.6C78.8358 174.534 78.3024 174.375 77.7691 174.125C77.2191 173.875 76.8191 173.475 76.5691 172.925C76.3191 172.359 76.1941 171.6 76.1941 170.65V166.45C76.1941 165.7 76.2858 165.042 76.4691 164.475C76.6524 163.909 76.8941 163.467 77.1941 163.15C77.4441 162.867 77.8191 162.65 78.3191 162.5C78.8358 162.334 79.3608 162.225 79.8941 162.175C80.4941 162.142 81.1191 162.125 81.7691 162.125C82.6358 162.125 83.2858 162.15 83.7191 162.2C84.1691 162.234 84.6441 162.317 85.1441 162.45C85.6608 162.6 86.0608 162.825 86.3441 163.125C86.6274 163.425 86.8691 163.859 87.0691 164.425C87.2524 165.009 87.3441 165.684 87.3441 166.45V170.65C87.3441 172.067 87.0191 173.1 86.3691 173.75C86.1024 174.017 85.7191 174.225 85.2191 174.375C84.7191 174.525 84.2024 174.625 83.6691 174.675C83.0358 174.709 82.4024 174.725 81.7691 174.725ZM81.7691 173.25C82.4691 173.25 82.9774 173.234 83.2941 173.2C83.6108 173.167 83.9191 173.075 84.2191 172.925C84.5191 172.792 84.7274 172.575 84.8441 172.275C84.9774 171.959 85.0441 171.525 85.0441 170.975V166.075C85.0441 165.325 84.9524 164.784 84.7691 164.45C84.5858 164.1 84.2691 163.875 83.8191 163.775C83.3858 163.659 82.7024 163.6 81.7691 163.6C80.8358 163.6 80.1441 163.659 79.6941 163.775C79.2608 163.875 78.9524 164.1 78.7691 164.45C78.5858 164.784 78.4941 165.325 78.4941 166.075V170.975C78.4941 171.525 78.5524 171.959 78.6691 172.275C78.8024 172.575 79.0191 172.792 79.3191 172.925C79.6191 173.075 79.9274 173.167 80.2441 173.2C80.5608 173.234 81.0691 173.25 81.7691 173.25ZM90.8531 156.975H93.1031V174.475H90.8531V156.975ZM102.13 174.725C101.064 174.725 100.264 174.684 99.7304 174.6C99.1971 174.534 98.6638 174.375 98.1304 174.125C97.5804 173.875 97.1804 173.475 96.9304 172.925C96.6804 172.359 96.5554 171.6 96.5554 170.65V166.45C96.5554 165.7 96.6471 165.042 96.8304 164.475C97.0138 163.909 97.2554 163.467 97.5554 163.15C97.8054 162.867 98.1804 162.65 98.6804 162.5C99.1971 162.334 99.7221 162.225 100.255 162.175C100.855 162.142 101.48 162.125 102.13 162.125C102.997 162.125 103.647 162.15 104.08 162.2C104.53 162.234 105.005 162.317 105.505 162.45C106.022 162.6 106.422 162.825 106.705 163.125C106.989 163.425 107.23 163.859 107.43 164.425C107.614 165.009 107.705 165.684 107.705 166.45V170.65C107.705 172.067 107.38 173.1 106.73 173.75C106.464 174.017 106.08 174.225 105.58 174.375C105.08 174.525 104.564 174.625 104.03 174.675C103.397 174.709 102.764 174.725 102.13 174.725ZM102.13 173.25C102.83 173.25 103.339 173.234 103.655 173.2C103.972 173.167 104.28 173.075 104.58 172.925C104.88 172.792 105.089 172.575 105.205 172.275C105.339 171.959 105.405 171.525 105.405 170.975V166.075C105.405 165.325 105.314 164.784 105.13 164.45C104.947 164.1 104.63 163.875 104.18 163.775C103.747 163.659 103.064 163.6 102.13 163.6C101.197 163.6 100.505 163.659 100.055 163.775C99.6221 163.875 99.3138 164.1 99.1304 164.45C98.9471 164.784 98.8554 165.325 98.8554 166.075V170.975C98.8554 171.525 98.9138 171.959 99.0304 172.275C99.1638 172.575 99.3804 172.792 99.6804 172.925C99.9804 173.075 100.289 173.167 100.605 173.2C100.922 173.234 101.43 173.25 102.13 173.25ZM115.789 179.975C114.139 179.975 112.748 179.884 111.614 179.7V178.1C113.614 178.334 115.073 178.45 115.989 178.45C117.139 178.45 117.973 178.267 118.489 177.9C119.023 177.534 119.289 176.925 119.289 176.075V173.175C119.256 173.709 118.889 174.1 118.189 174.35C117.506 174.6 116.639 174.725 115.589 174.725C114.339 174.725 113.364 174.609 112.664 174.375C111.981 174.142 111.489 173.759 111.189 173.225C110.906 172.692 110.764 171.967 110.764 171.05V166.125C110.764 164.692 111.148 163.667 111.914 163.05C112.698 162.434 113.973 162.125 115.739 162.125C117.839 162.125 119.073 162.6 119.439 163.55V162.375H121.539V175.625C121.539 176.742 121.331 177.617 120.914 178.25C120.498 178.884 119.873 179.325 119.039 179.575C118.206 179.842 117.123 179.975 115.789 179.975ZM116.064 173.225C117.248 173.225 118.081 173.084 118.564 172.8C119.048 172.517 119.289 171.984 119.289 171.2V165.725C119.289 165.175 119.198 164.759 119.014 164.475C118.848 164.192 118.531 163.992 118.064 163.875C117.598 163.742 116.914 163.675 116.014 163.675C115.164 163.675 114.523 163.734 114.089 163.85C113.673 163.967 113.381 164.175 113.214 164.475C113.064 164.759 112.989 165.175 112.989 165.725V171.2C112.989 171.767 113.073 172.192 113.239 172.475C113.406 172.759 113.706 172.959 114.139 173.075C114.573 173.175 115.214 173.225 116.064 173.225ZM128.323 174.65L123.648 162.375H126.098L129.473 172.25H129.523L132.573 162.375H134.848L128.773 179.675H126.423L128.323 174.65Z" fill="#AE9A94"/>
<line x1="3.73248e-08" y1="151.125" x2="152.232" y2="151.125" stroke="#C0B5B5" stroke-width="0.7"/>
<defs>
<radialGradient id="paint0_radial" cx="0" cy="0" r="1" gradientUnits="userSpaceOnUse" gradientTransform="translate(103.401 58.1104) rotate(120.51) scale(32.9891 66.637)">
<stop stop-color="#42474F"/>
</radialGradient>
<linearGradient id="paint1_linear" x1="76.213" y1="63.9344" x2="76.213" y2="119.149" gradientUnits="userSpaceOnUse">
<stop stop-color="#97786F"/>
</linearGradient>
</defs>
</svg>
