<svg width="120" height="132" viewBox="0 0 120 132" fill="none" xmlns="http://www.w3.org/2000/svg">
<path d="M96.8571 77.0382C118.955 91.0167 50.1418 2.8975 40.1588 0.0730125L20.7884 42.8825C54.9063 52.6619 74.7592 63.0597 96.8571 77.0382Z" fill="url(#paint0_linear)"/>
<path d="M97.4145 87.9516C122.488 89.7485 27.5994 45.6944 17.8677 47.9705L0 87.9516C33.3168 80.2847 72.341 86.1547 97.4145 87.9516Z" fill="url(#paint1_linear)"/>
<path d="M20.3985 96.6544H16.7985V94.6564H26.7885V96.6544H23.2065V106.338H20.3985V96.6544ZM28.2956 97.6264H30.7976V99.1564C30.7976 98.8804 30.9116 98.6104 31.1396 98.3464C31.3676 98.0824 31.6556 97.8664 32.0036 97.6984C32.3636 97.5304 32.7176 97.4464 33.0656 97.4464H34.0016V99.6244H33.1016C32.3576 99.6244 31.8056 99.7384 31.4456 99.9664C31.0976 100.194 30.9236 100.572 30.9236 101.1V106.338H28.2956V97.6264ZM35.5219 94.4764H38.1499V96.6004H35.5219V94.4764ZM35.5219 97.6264H38.1499V106.338H35.5219V97.6264ZM45.8039 106.518C45.2759 106.518 44.8019 106.494 44.3819 106.446C43.9739 106.398 43.5239 106.308 43.0319 106.176C42.4799 106.032 42.0239 105.846 41.6639 105.618C41.3039 105.378 41.0039 105.048 40.7639 104.628C40.5119 104.208 40.3859 103.71 40.3859 103.134V98.0044C40.3859 95.6524 42.1919 94.4764 45.8039 94.4764C46.7279 94.4764 47.9639 94.6084 49.5119 94.8724V96.9784C48.1199 96.6424 46.8959 96.4744 45.8399 96.4744C45.3959 96.4744 45.0479 96.4864 44.7959 96.5104C44.5559 96.5344 44.3039 96.5944 44.0399 96.6904C43.4759 96.8824 43.1939 97.3084 43.1939 97.9684V102.936C43.1939 103.992 44.1599 104.52 46.0919 104.52C46.9199 104.52 48.0839 104.346 49.5839 103.998V106.122C48.2999 106.386 47.0399 106.518 45.8039 106.518ZM55.4462 106.518C54.9062 106.518 54.4622 106.5 54.1142 106.464C53.7662 106.428 53.3942 106.356 52.9982 106.248C52.5662 106.128 52.2182 105.96 51.9542 105.744C51.6902 105.516 51.4682 105.198 51.2882 104.79C51.1082 104.394 51.0182 103.914 51.0182 103.35V100.776C51.0182 100.2 51.1082 99.6964 51.2882 99.2644C51.4682 98.8324 51.7022 98.4964 51.9902 98.2564C52.2422 98.0524 52.5722 97.8844 52.9802 97.7524C53.4002 97.6084 53.8082 97.5184 54.2042 97.4824C54.6602 97.4584 55.0742 97.4464 55.4462 97.4464C55.9982 97.4464 56.4362 97.4644 56.7602 97.5004C57.0962 97.5244 57.4622 97.5964 57.8582 97.7164C58.2902 97.8484 58.6382 98.0284 58.9022 98.2564C59.1782 98.4844 59.4122 98.8084 59.6042 99.2284C59.7842 99.6604 59.8742 100.176 59.8742 100.776V103.35C59.8742 103.89 59.7842 104.364 59.6042 104.772C59.4362 105.18 59.2142 105.498 58.9382 105.726C58.6982 105.93 58.3682 106.098 57.9482 106.23C57.5402 106.35 57.1382 106.428 56.7422 106.464C56.3822 106.5 55.9502 106.518 55.4462 106.518ZM55.4462 104.88C55.9382 104.88 56.3102 104.844 56.5622 104.772C56.8142 104.688 56.9882 104.562 57.0842 104.394C57.1922 104.226 57.2462 103.98 57.2462 103.656V100.362C57.2462 99.8824 57.1202 99.5464 56.8682 99.3544C56.6162 99.1624 56.1422 99.0664 55.4462 99.0664C54.7502 99.0664 54.2762 99.1624 54.0242 99.3544C53.7722 99.5464 53.6462 99.8824 53.6462 100.362V103.656C53.6462 103.98 53.6942 104.226 53.7902 104.394C53.8982 104.562 54.0782 104.688 54.3302 104.772C54.5822 104.844 54.9542 104.88 55.4462 104.88ZM65.2705 106.518C64.2385 106.518 63.4765 106.446 62.9845 106.302C62.4925 106.146 62.1505 105.858 61.9585 105.438C61.7665 105.018 61.6705 104.364 61.6705 103.476V100.074C61.6705 99.1144 61.9405 98.4364 62.4805 98.0404C63.0325 97.6444 63.9205 97.4464 65.1445 97.4464C65.7205 97.4464 66.1705 97.4824 66.4945 97.5544C66.8305 97.6144 67.1005 97.7284 67.3045 97.8964C67.5085 98.0524 67.7185 98.2864 67.9345 98.5984V93.7384H70.5625V106.338H68.0245V105.348C67.8085 105.696 67.6105 105.942 67.4305 106.086C67.2625 106.218 67.0225 106.32 66.7105 106.392C66.3865 106.476 65.9065 106.518 65.2705 106.518ZM65.9365 104.88C66.5245 104.88 66.9565 104.85 67.2325 104.79C67.5085 104.73 67.6945 104.622 67.7905 104.466C67.8865 104.298 67.9345 104.052 67.9345 103.728V100.218C67.9345 99.9184 67.8805 99.6904 67.7725 99.5344C67.6765 99.3664 67.4965 99.2464 67.2325 99.1744C66.9805 99.1024 66.5965 99.0664 66.0805 99.0664C65.5285 99.0664 65.1325 99.1024 64.8925 99.1744C64.6525 99.2344 64.4905 99.3484 64.4065 99.5164C64.3345 99.6724 64.2985 99.9364 64.2985 100.308V103.638C64.2985 103.974 64.3345 104.232 64.4065 104.412C64.4905 104.58 64.6465 104.7 64.8745 104.772C65.1025 104.844 65.4565 104.88 65.9365 104.88ZM77.2477 106.518C74.1637 106.518 72.6217 105.576 72.6217 103.692V100.56C72.6217 99.4684 72.9697 98.6764 73.6657 98.1844C74.3737 97.6924 75.4597 97.4464 76.9237 97.4464C78.3037 97.4464 79.3117 97.6864 79.9477 98.1664C80.5957 98.6344 80.9197 99.4324 80.9197 100.56V102.684H75.2677V103.476C75.2677 103.98 75.4477 104.34 75.8077 104.556C76.1677 104.772 76.8157 104.88 77.7517 104.88C78.6157 104.88 79.5877 104.754 80.6677 104.502V106.176C79.5997 106.404 78.4597 106.518 77.2477 106.518ZM78.4177 101.19V99.9304C78.4177 99.6424 78.2977 99.4264 78.0577 99.2824C77.8297 99.1384 77.4397 99.0664 76.8877 99.0664C76.2517 99.0664 75.8257 99.1384 75.6097 99.2824C75.3817 99.4384 75.2677 99.6544 75.2677 99.9304V101.19H78.4177Z" fill="#565A62"/>
<path d="M13.392 117.542H9.432V116.318H19.098V117.542H15.156V128H13.392V117.542ZM24.6053 128.18C21.9413 128.18 20.6093 127.292 20.6093 125.516V122.078C20.6093 121.022 20.9093 120.266 21.5093 119.81C22.1213 119.342 23.1053 119.108 24.4613 119.108C25.7453 119.108 26.6693 119.33 27.2333 119.774C27.8093 120.218 28.0973 120.986 28.0973 122.078V124.004H22.2473V125.318C22.2473 125.918 22.4573 126.35 22.8773 126.614C23.2973 126.878 23.9453 127.01 24.8213 127.01C25.6493 127.01 26.6273 126.866 27.7553 126.578V127.82C26.6513 128.06 25.6013 128.18 24.6053 128.18ZM26.4773 122.942V121.574C26.4773 121.046 26.3153 120.686 25.9913 120.494C25.6793 120.29 25.1393 120.188 24.3713 120.188C23.6273 120.188 23.0873 120.29 22.7513 120.494C22.4153 120.686 22.2473 121.046 22.2473 121.574V122.942H26.4773ZM34.0761 128.18C33.4761 128.18 33.0381 128.168 32.7621 128.144C32.4981 128.12 32.1921 128.06 31.8441 127.964C31.4721 127.868 31.1841 127.724 30.9801 127.532C30.7761 127.34 30.6021 127.058 30.4581 126.686C30.3141 126.326 30.2421 125.876 30.2421 125.336V122.132C30.2421 121.16 30.4281 120.464 30.8001 120.044C31.0041 119.804 31.2081 119.624 31.4121 119.504C31.6281 119.372 31.9041 119.282 32.2401 119.234C32.5761 119.186 32.8761 119.156 33.1401 119.144C33.4041 119.12 33.7761 119.108 34.2561 119.108C35.0841 119.108 35.9121 119.198 36.7401 119.378V120.566C35.7801 120.326 34.8861 120.206 34.0581 120.206C33.4341 120.206 32.9721 120.254 32.6721 120.35C32.3841 120.434 32.1801 120.596 32.0601 120.836C31.9521 121.064 31.8981 121.418 31.8981 121.898V125.462C31.8981 125.906 31.9581 126.236 32.0781 126.452C32.2101 126.668 32.4381 126.824 32.7621 126.92C33.0981 127.004 33.5901 127.046 34.2381 127.046C35.1141 127.046 35.9901 126.932 36.8661 126.704V127.928C36.0501 128.096 35.1201 128.18 34.0761 128.18ZM38.9157 115.4H40.5357V120.35C40.7037 119.522 41.6577 119.108 43.3977 119.108C44.5137 119.108 45.2937 119.312 45.7377 119.72C46.1937 120.116 46.4217 120.746 46.4217 121.61V128H44.8017V121.718C44.8017 121.49 44.7837 121.304 44.7477 121.16C44.7117 121.016 44.6397 120.872 44.5317 120.728C44.2917 120.428 43.7577 120.278 42.9297 120.278C42.2697 120.278 41.7657 120.326 41.4177 120.422C41.0817 120.506 40.8477 120.65 40.7157 120.854C40.5957 121.058 40.5357 121.346 40.5357 121.718V128H38.9157V115.4ZM49.2341 119.288H50.8541V120.35C51.0221 119.522 51.9761 119.108 53.7161 119.108C54.8321 119.108 55.6121 119.312 56.0561 119.72C56.5121 120.116 56.7401 120.746 56.7401 121.61V128H55.1201V121.7C55.1201 121.472 55.1021 121.286 55.0661 121.142C55.0301 120.998 54.9581 120.854 54.8501 120.71C54.6101 120.41 54.0761 120.26 53.2481 120.26C52.6121 120.26 52.1201 120.308 51.7721 120.404C51.4361 120.488 51.1961 120.632 51.0521 120.836C50.9201 121.04 50.8541 121.328 50.8541 121.7V128H49.2341V119.288ZM63.2424 128.18C62.4744 128.18 61.8984 128.15 61.5144 128.09C61.1304 128.042 60.7464 127.928 60.3624 127.748C59.9664 127.568 59.6784 127.28 59.4984 126.884C59.3184 126.476 59.2284 125.93 59.2284 125.246V122.222C59.2284 121.682 59.2944 121.208 59.4264 120.8C59.5584 120.392 59.7324 120.074 59.9484 119.846C60.1284 119.642 60.3984 119.486 60.7584 119.378C61.1304 119.258 61.5084 119.18 61.8924 119.144C62.3244 119.12 62.7744 119.108 63.2424 119.108C63.8664 119.108 64.3344 119.126 64.6464 119.162C64.9704 119.186 65.3124 119.246 65.6724 119.342C66.0444 119.45 66.3324 119.612 66.5364 119.828C66.7404 120.044 66.9144 120.356 67.0584 120.764C67.1904 121.184 67.2564 121.67 67.2564 122.222V125.246C67.2564 126.266 67.0224 127.01 66.5544 127.478C66.3624 127.67 66.0864 127.82 65.7264 127.928C65.3664 128.036 64.9944 128.108 64.6104 128.144C64.1544 128.168 63.6984 128.18 63.2424 128.18ZM63.2424 127.118C63.7464 127.118 64.1124 127.106 64.3404 127.082C64.5684 127.058 64.7904 126.992 65.0064 126.884C65.2224 126.788 65.3724 126.632 65.4564 126.416C65.5524 126.188 65.6004 125.876 65.6004 125.48V121.952C65.6004 121.412 65.5344 121.022 65.4024 120.782C65.2704 120.53 65.0424 120.368 64.7184 120.296C64.4064 120.212 63.9144 120.17 63.2424 120.17C62.5704 120.17 62.0724 120.212 61.7484 120.296C61.4364 120.368 61.2144 120.53 61.0824 120.782C60.9504 121.022 60.8844 121.412 60.8844 121.952V125.48C60.8844 125.876 60.9264 126.188 61.0104 126.416C61.1064 126.632 61.2624 126.788 61.4784 126.884C61.6944 126.992 61.9164 127.058 62.1444 127.082C62.3724 127.106 62.7384 127.118 63.2424 127.118ZM69.7829 115.4H71.4029V128H69.7829V115.4ZM77.9026 128.18C77.1346 128.18 76.5586 128.15 76.1746 128.09C75.7906 128.042 75.4066 127.928 75.0226 127.748C74.6266 127.568 74.3386 127.28 74.1586 126.884C73.9786 126.476 73.8886 125.93 73.8886 125.246V122.222C73.8886 121.682 73.9546 121.208 74.0866 120.8C74.2186 120.392 74.3926 120.074 74.6086 119.846C74.7886 119.642 75.0586 119.486 75.4186 119.378C75.7906 119.258 76.1686 119.18 76.5526 119.144C76.9846 119.12 77.4346 119.108 77.9026 119.108C78.5266 119.108 78.9946 119.126 79.3066 119.162C79.6306 119.186 79.9726 119.246 80.3326 119.342C80.7046 119.45 80.9926 119.612 81.1966 119.828C81.4006 120.044 81.5746 120.356 81.7186 120.764C81.8506 121.184 81.9166 121.67 81.9166 122.222V125.246C81.9166 126.266 81.6826 127.01 81.2146 127.478C81.0226 127.67 80.7466 127.82 80.3866 127.928C80.0266 128.036 79.6546 128.108 79.2706 128.144C78.8146 128.168 78.3586 128.18 77.9026 128.18ZM77.9026 127.118C78.4066 127.118 78.7726 127.106 79.0006 127.082C79.2286 127.058 79.4506 126.992 79.6666 126.884C79.8826 126.788 80.0326 126.632 80.1166 126.416C80.2126 126.188 80.2606 125.876 80.2606 125.48V121.952C80.2606 121.412 80.1946 121.022 80.0626 120.782C79.9306 120.53 79.7026 120.368 79.3786 120.296C79.0666 120.212 78.5746 120.17 77.9026 120.17C77.2306 120.17 76.7326 120.212 76.4086 120.296C76.0966 120.368 75.8746 120.53 75.7426 120.782C75.6106 121.022 75.5446 121.412 75.5446 121.952V125.48C75.5446 125.876 75.5866 126.188 75.6706 126.416C75.7666 126.632 75.9226 126.788 76.1386 126.884C76.3546 126.992 76.5766 127.058 76.8046 127.082C77.0326 127.106 77.3986 127.118 77.9026 127.118ZM87.7371 131.96C86.5491 131.96 85.5471 131.894 84.7311 131.762V130.61C86.1711 130.778 87.2211 130.862 87.8811 130.862C88.7091 130.862 89.3091 130.73 89.6811 130.466C90.0651 130.202 90.2571 129.764 90.2571 129.152V127.064C90.2331 127.448 89.9691 127.73 89.4651 127.91C88.9731 128.09 88.3491 128.18 87.5931 128.18C86.6931 128.18 85.9911 128.096 85.4871 127.928C84.9951 127.76 84.6411 127.484 84.4251 127.1C84.2211 126.716 84.1191 126.194 84.1191 125.534V121.988C84.1191 120.956 84.3951 120.218 84.9471 119.774C85.5111 119.33 86.4291 119.108 87.7011 119.108C89.2131 119.108 90.1011 119.45 90.3651 120.134V119.288H91.8771V128.828C91.8771 129.632 91.7271 130.262 91.4271 130.718C91.1271 131.174 90.6771 131.492 90.0771 131.672C89.4771 131.864 88.6971 131.96 87.7371 131.96ZM87.9351 127.1C88.7871 127.1 89.3871 126.998 89.7351 126.794C90.0831 126.59 90.2571 126.206 90.2571 125.642V121.7C90.2571 121.304 90.1911 121.004 90.0591 120.8C89.9391 120.596 89.7111 120.452 89.3751 120.368C89.0391 120.272 88.5471 120.224 87.8991 120.224C87.2871 120.224 86.8251 120.266 86.5131 120.35C86.2131 120.434 86.0031 120.584 85.8831 120.8C85.7751 121.004 85.7211 121.304 85.7211 121.7V125.642C85.7211 126.05 85.7811 126.356 85.9011 126.56C86.0211 126.764 86.2371 126.908 86.5491 126.992C86.8611 127.064 87.3231 127.1 87.9351 127.1ZM96.7611 128.126L93.3951 119.288H95.1591L97.5891 126.398H97.6251L99.8211 119.288H101.459L97.0851 131.744H95.3931L96.7611 128.126Z" fill="#42474F"/>
<line x1="6.43262" y1="110.63" x2="95.0564" y2="110.63" stroke="black" stroke-width="0.3"/>
<defs>
<linearGradient id="paint0_linear" x1="80.0992" y1="21.5725" x2="57.7685" y2="62.8758" gradientUnits="userSpaceOnUse">
<stop stop-color="#F25903"/>
<stop offset="0.9998" stop-color="#FF5D00"/>
<stop offset="0.9999" stop-color="#F05A07"/>
</linearGradient>
<linearGradient id="paint1_linear" x1="50.8088" y1="47.8853" x2="50.8088" y2="88.0051" gradientUnits="userSpaceOnUse">
<stop offset="0.0625" stop-color="#2B5CA7" stop-opacity="0.91209"/>
<stop offset="0.4375" stop-color="#1E52A2"/>
</linearGradient>
</defs>
</svg>
