<svg width="22" height="22" viewBox="0 0 22 22" fill="none" xmlns="http://www.w3.org/2000/svg">
<path fill-rule="evenodd" clip-rule="evenodd" d="M1.31315 1.31322C2.03841 0.587957 3.21429 0.587959 3.93955 1.31322L20.4333 17.807C21.1586 18.5322 21.1586 19.7081 20.4333 20.4334V20.4334C19.7081 21.1586 18.5322 21.1586 17.8069 20.4334L1.31315 3.93961C0.587889 3.21435 0.587888 2.03848 1.31315 1.31322V1.31322Z" fill="#24f687"/>
<path fill-rule="evenodd" clip-rule="evenodd" d="M20.4051 1.31317C21.1303 2.03843 21.1303 3.21431 20.4051 3.93957L3.93959 20.4051C3.21434 21.1303 2.03846 21.1303 1.3132 20.4051V20.4051C0.587939 19.6798 0.587939 18.5039 1.3132 17.7787L17.7787 1.31317C18.5039 0.587915 19.6798 0.587914 20.4051 1.31317V1.31317Z" fill="#24f687"/>
</svg>
