<svg width="250" height="250" viewBox="0 0 250 250" fill="none" xmlns="http://www.w3.org/2000/svg">
<path d="M234.333 20.192H96.7332C93.8436 20.1957 91.0733 21.5025 89.03 23.8257C86.9868 26.149 85.8375 29.2989 85.8342 32.5844V141.87C85.8375 145.155 86.9868 148.305 89.03 150.628C91.0733 152.951 93.8436 154.258 96.7332 154.262H149.411L147.765 166.775C147.497 168.743 146.621 170.539 145.294 171.839C143.968 173.139 142.277 173.859 140.525 173.87H139.825C137.758 173.873 135.777 174.807 134.316 176.469C132.854 178.131 132.032 180.384 132.03 182.733C132.03 183.144 132.173 183.538 132.429 183.829C132.684 184.119 133.031 184.283 133.392 184.283H197.674C198.035 184.283 198.382 184.119 198.637 183.829C198.893 183.538 199.036 183.144 199.036 182.733C199.034 180.384 198.212 178.131 196.75 176.469C195.289 174.807 193.308 173.873 191.241 173.87H190.541C188.789 173.859 187.098 173.139 185.772 171.839C184.445 170.539 183.569 168.743 183.301 166.775L181.655 154.262H234.333C237.222 154.258 239.993 152.951 242.036 150.628C244.079 148.305 245.228 145.155 245.232 141.87V32.5844C245.228 29.2989 244.079 26.149 242.036 23.8257C239.993 21.5025 237.222 20.1957 234.333 20.192V20.192Z" fill="#E6E7E8"/>
<path d="M91.2838 146.517H228.883C234.15 146.517 238.42 141.662 238.42 135.674V26.3899C238.42 20.4013 234.15 15.5465 228.883 15.5465H91.2838C86.0169 15.5465 81.7472 20.4013 81.7472 26.3899V135.674C81.7472 141.662 86.0169 146.517 91.2838 146.517Z" fill="#214456"/>
<path d="M228.883 15.5449H91.2837C88.7544 15.5449 86.3287 16.6873 84.5403 18.7209C82.7518 20.7544 81.7471 23.5124 81.7471 26.3882V31.0354C81.7471 28.1596 82.7518 25.4015 84.5403 23.368C86.3287 21.3345 88.7544 20.1921 91.2837 20.1921H228.883C231.412 20.1921 233.838 21.3345 235.627 23.368C237.415 25.4015 238.42 28.1596 238.42 31.0354V26.3882C238.42 23.5124 237.415 20.7544 235.627 18.7209C233.838 16.6873 231.412 15.5449 228.883 15.5449Z" fill="white"/>
<path d="M98.4823 127.175H221.686C225.448 127.175 228.498 123.707 228.498 119.43V34.5731C228.498 30.2955 225.448 26.8278 221.686 26.8278H98.4823C94.7202 26.8278 91.6705 30.2955 91.6705 34.5731V119.43C91.6705 123.707 94.7202 127.175 98.4823 127.175Z" fill="#D4FBFF"/>
<path d="M185.791 169.223H185.093C183.013 169.221 181.003 168.371 179.427 166.827C177.852 165.283 176.817 163.147 176.51 160.808L174.631 146.517H145.541L143.663 160.808C143.355 163.147 142.32 165.283 140.745 166.827C139.17 168.371 137.16 169.221 135.08 169.223H134.376C132.669 169.223 131.033 169.993 129.827 171.365C128.62 172.737 127.942 174.597 127.942 176.537H192.225C192.225 174.597 191.547 172.737 190.34 171.365C189.134 169.993 187.498 169.223 185.791 169.223V169.223Z" fill="#C6C9CB"/>
<path d="M160.084 131.655C159.242 131.655 158.42 131.938 157.72 132.469C157.021 133.001 156.475 133.756 156.153 134.64C155.831 135.523 155.746 136.496 155.91 137.434C156.074 138.372 156.479 139.234 157.074 139.91C157.669 140.587 158.427 141.048 159.252 141.234C160.077 141.421 160.932 141.325 161.71 140.959C162.487 140.593 163.151 139.974 163.619 139.178C164.086 138.383 164.336 137.448 164.336 136.491C164.336 135.856 164.226 135.227 164.012 134.641C163.799 134.054 163.485 133.521 163.091 133.072C162.696 132.623 162.227 132.266 161.711 132.023C161.195 131.78 160.642 131.655 160.084 131.655V131.655Z" fill="#C6C9CB"/>
<path d="M221.686 25.2773H98.4811C96.3139 25.2802 94.2363 26.2604 92.7038 28.0027C91.1714 29.7451 90.3094 32.1075 90.3069 34.5716V119.431C90.3094 121.896 91.1714 124.258 92.7038 126C94.2363 127.743 96.3139 128.723 98.4811 128.726H221.686C223.853 128.723 225.931 127.743 227.463 126C228.996 124.258 229.858 121.896 229.86 119.431V34.5716C229.858 32.1075 228.996 29.7451 227.463 28.0027C225.931 26.2604 223.853 25.2802 221.686 25.2773V25.2773ZM227.135 119.43C227.135 121.073 226.561 122.649 225.539 123.811C224.517 124.973 223.131 125.626 221.686 125.626H98.4811C97.0358 125.626 95.6497 124.973 94.6277 123.811C93.6058 122.649 93.0316 121.073 93.0316 119.43V34.5716C93.0334 32.9289 93.6082 31.3541 94.6297 30.1925C95.6513 29.031 97.0364 28.3775 98.4811 28.3754H221.686C223.131 28.3775 224.516 29.031 225.537 30.1925C226.559 31.3541 227.134 32.9289 227.135 34.5716V119.43Z" fill="#3A2C60"/>
<path d="M238.42 70.1798C238.059 70.1798 237.712 70.343 237.457 70.6335C237.201 70.924 237.058 71.318 237.058 71.7289V86.4448C237.058 86.8556 237.201 87.2496 237.457 87.5401C237.712 87.8306 238.059 87.9939 238.42 87.9939C238.781 87.9939 239.128 87.8306 239.383 87.5401C239.639 87.2496 239.782 86.8556 239.782 86.4448V71.7289C239.782 71.318 239.639 70.924 239.383 70.6335C239.128 70.343 238.781 70.1798 238.42 70.1798Z" fill="#3A2C60"/>
<path d="M228.883 13.9958H91.2837C88.3941 13.9995 85.6238 15.3063 83.5806 17.6296C81.5373 19.9528 80.388 23.1027 80.3848 26.3882V135.673C80.388 138.959 81.5373 142.109 83.5806 144.432C85.6238 146.755 88.3941 148.062 91.2837 148.066H143.961L142.315 160.579C142.048 162.547 141.172 164.343 139.845 165.643C138.518 166.943 136.827 167.663 135.076 167.674H134.376C132.309 167.677 130.327 168.611 128.866 170.273C127.405 171.935 126.583 174.187 126.58 176.537C126.58 176.948 126.724 177.342 126.979 177.633C127.235 177.923 127.581 178.086 127.942 178.086H192.225C192.586 178.086 192.932 177.923 193.188 177.633C193.443 177.342 193.587 176.948 193.587 176.537C193.584 174.187 192.762 171.935 191.301 170.273C189.839 168.611 187.858 167.677 185.791 167.674H185.091C183.34 167.663 181.649 166.943 180.322 165.643C178.995 164.343 178.119 162.547 177.852 160.579L176.206 148.066H228.883C231.773 148.062 234.543 146.755 236.586 144.432C238.63 142.109 239.779 138.959 239.782 135.673V92.8346C239.782 92.4237 239.639 92.0297 239.383 91.7392C239.128 91.4487 238.781 91.2855 238.42 91.2855C238.059 91.2855 237.712 91.4487 237.456 91.7392C237.201 92.0297 237.057 92.4237 237.057 92.8346V135.673C237.055 138.138 236.193 140.5 234.661 142.242C233.128 143.985 231.05 144.965 228.883 144.968H91.2837C89.1166 144.965 87.0389 143.985 85.5065 142.242C83.9741 140.5 83.112 138.138 83.1095 135.673V26.3882C83.112 23.9241 83.9741 21.5617 85.5065 19.8193C87.0389 18.077 89.1166 17.0968 91.2837 17.0939H228.883C231.05 17.0968 233.128 18.077 234.661 19.8193C236.193 21.5617 237.055 23.9241 237.057 26.3882V64.3708C237.057 64.7817 237.201 65.1757 237.456 65.4662C237.712 65.7567 238.059 65.9199 238.42 65.9199C238.781 65.9199 239.128 65.7567 239.383 65.4662C239.639 65.1757 239.782 64.7817 239.782 64.3708V26.3882C239.779 23.1027 238.63 19.9528 236.586 17.6296C234.543 15.3063 231.773 13.9995 228.883 13.9958V13.9958ZM173.451 148.066L175.155 161.038C175.523 163.738 176.726 166.201 178.546 167.985C180.367 169.769 182.688 170.757 185.091 170.772H185.791C186.899 170.773 187.975 171.186 188.857 171.947C189.739 172.709 190.378 173.776 190.677 174.988H129.49C129.789 173.776 130.428 172.709 131.31 171.947C132.192 171.186 133.268 170.773 134.376 170.772H135.076C137.479 170.757 139.8 169.769 141.621 167.985C143.441 166.201 144.644 163.738 145.012 161.038L146.716 148.066H173.451Z" fill="#3A2C60"/>
<path d="M221.686 25.2775H98.4811C96.3139 25.2803 94.2363 26.2605 92.7038 28.0029C91.1714 29.7453 90.3094 32.1076 90.3069 34.5717V119.432C90.3094 121.896 91.1714 124.258 92.7038 126C94.2363 127.743 96.3139 128.723 98.4811 128.726H221.686C223.853 128.723 225.931 127.743 227.463 126C228.996 124.258 229.858 121.896 229.86 119.432V34.5717C229.858 32.1076 228.996 29.7453 227.463 28.0029C225.931 26.2605 223.853 25.2803 221.686 25.2775V25.2775ZM227.135 119.43C227.135 121.073 226.561 122.649 225.539 123.811C224.517 124.973 223.131 125.626 221.686 125.626H98.4811C97.0358 125.626 95.6497 124.973 94.6277 123.811C93.6058 122.649 93.0316 121.073 93.0316 119.43V34.5717C93.0334 32.929 93.6082 31.3542 94.6297 30.1926C95.6513 29.0311 97.0364 28.3776 98.4811 28.3756H221.686C223.131 28.3776 224.516 29.0311 225.537 30.1926C226.559 31.3542 227.134 32.929 227.135 34.5717V119.43Z" fill="#3A2C60"/>
<path d="M238.42 70.1799C238.059 70.1799 237.712 70.3431 237.457 70.6336C237.201 70.9241 237.058 71.3181 237.058 71.729V86.4449C237.058 86.8558 237.201 87.2498 237.457 87.5403C237.712 87.8308 238.059 87.994 238.42 87.994C238.781 87.994 239.128 87.8308 239.383 87.5403C239.639 87.2498 239.782 86.8558 239.782 86.4449V71.729C239.782 71.3181 239.639 70.9241 239.383 70.6336C239.128 70.3431 238.781 70.1799 238.42 70.1799Z" fill="#3A2C60"/>
<path d="M228.883 13.996H91.2837C88.3941 13.9997 85.6238 15.3065 83.5806 17.6297C81.5373 19.9529 80.388 23.1028 80.3848 26.3883V135.674C80.388 138.959 81.5373 142.109 83.5806 144.432C85.6238 146.755 88.3941 148.062 91.2837 148.066H143.961L142.315 160.579C142.048 162.547 141.172 164.343 139.845 165.643C138.518 166.943 136.827 167.663 135.076 167.674H134.376C132.309 167.677 130.327 168.611 128.866 170.273C127.405 171.935 126.583 174.188 126.58 176.537C126.58 176.948 126.724 177.342 126.979 177.633C127.235 177.923 127.581 178.086 127.942 178.086H192.225C192.586 178.086 192.932 177.923 193.188 177.633C193.443 177.342 193.587 176.948 193.587 176.537C193.584 174.188 192.762 171.935 191.301 170.273C189.839 168.611 187.858 167.677 185.791 167.674H185.091C183.34 167.663 181.649 166.943 180.322 165.643C178.995 164.343 178.119 162.547 177.852 160.579L176.206 148.066H228.883C231.773 148.062 234.543 146.755 236.586 144.432C238.63 142.109 239.779 138.959 239.782 135.674V92.8347C239.782 92.4239 239.639 92.0299 239.383 91.7394C239.128 91.4488 238.781 91.2856 238.42 91.2856C238.059 91.2856 237.712 91.4488 237.456 91.7394C237.201 92.0299 237.057 92.4239 237.057 92.8347V135.674C237.055 138.138 236.193 140.5 234.661 142.242C233.128 143.985 231.05 144.965 228.883 144.968H91.2837C89.1166 144.965 87.0389 143.985 85.5065 142.242C83.9741 140.5 83.112 138.138 83.1095 135.674V26.3883C83.112 23.9242 83.9741 21.5619 85.5065 19.8195C87.0389 18.0771 89.1166 17.0969 91.2837 17.0941H228.883C231.05 17.0969 233.128 18.0771 234.661 19.8195C236.193 21.5619 237.055 23.9242 237.057 26.3883V64.371C237.057 64.7818 237.201 65.1758 237.456 65.4663C237.712 65.7568 238.059 65.92 238.42 65.92C238.781 65.92 239.128 65.7568 239.383 65.4663C239.639 65.1758 239.782 64.7818 239.782 64.371V26.3883C239.779 23.1028 238.63 19.9529 236.586 17.6297C234.543 15.3065 231.773 13.9997 228.883 13.996V13.996ZM173.451 148.066L175.155 161.038C175.523 163.738 176.726 166.202 178.546 167.986C180.367 169.769 182.688 170.757 185.091 170.772H185.791C186.899 170.774 187.975 171.186 188.857 171.948C189.739 172.709 190.378 173.776 190.677 174.988H129.49C129.789 173.776 130.428 172.709 131.31 171.948C132.192 171.186 133.268 170.774 134.376 170.772H135.076C137.479 170.757 139.8 169.769 141.621 167.986C143.441 166.202 144.644 163.738 145.012 161.038L146.716 148.066H173.451Z" fill="#3A2C60"/>
<g clip-path="url(#clip0)">
<path d="M15.2655 203.99H149.337C154.469 203.99 158.629 199.675 158.629 194.351V97.2104C158.629 91.8872 154.469 87.5719 149.337 87.5719H15.2655C10.1336 87.5719 5.97342 91.8872 5.97342 97.2104V194.351C5.97342 199.675 10.1336 203.99 15.2655 203.99Z" fill="#214456"/>
<path d="M149.337 87.5706H15.2655C12.8011 87.5706 10.4376 88.586 8.69497 90.3936C6.95237 92.2012 5.97339 94.6528 5.97339 97.2091V101.34C5.97339 98.7836 6.95237 96.332 8.69497 94.5244C10.4376 92.7168 12.8011 91.7013 15.2655 91.7013H149.337C151.801 91.7013 154.165 92.7168 155.907 94.5244C157.65 96.332 158.629 98.7836 158.629 101.34V97.2091C158.629 94.6528 157.65 92.2012 155.907 90.3936C154.165 88.586 151.801 87.5706 149.337 87.5706Z" fill="white"/>
<path d="M22.2796 186.797H142.324C145.99 186.797 148.961 183.715 148.961 179.913V104.485C148.961 100.682 145.99 97.5999 142.324 97.5999H22.2796C18.614 97.5999 15.6424 100.682 15.6424 104.485V179.913C15.6424 183.715 18.614 186.797 22.2796 186.797Z" fill="#D4FBFF"/>
<path d="M82.3014 190.78C81.4816 190.78 80.6803 191.031 79.9986 191.504C79.3169 191.976 78.7855 192.647 78.4716 193.433C78.1577 194.218 78.0755 195.082 78.2352 195.916C78.395 196.75 78.7896 197.516 79.3691 198.118C79.9487 198.719 80.6871 199.129 81.491 199.295C82.295 199.461 83.1283 199.376 83.8857 199.05C84.643 198.725 85.2903 198.174 85.7458 197.467C86.2012 196.76 86.4443 195.929 86.4443 195.079C86.4445 194.514 86.3374 193.955 86.1293 193.434C85.9212 192.912 85.616 192.438 85.2313 192.039C84.8466 191.64 84.3898 191.323 83.8871 191.107C83.3844 190.891 82.8455 190.78 82.3014 190.78V190.78Z" fill="white"/>
<path d="M142.324 96.2217H22.2784C20.1668 96.2242 18.1423 97.0955 16.6492 98.6443C15.1561 100.193 14.3162 102.293 14.3137 104.483V179.914C14.3162 182.105 15.1561 184.204 16.6492 185.753C18.1423 187.302 20.1668 188.173 22.2784 188.176H142.324C144.436 188.173 146.46 187.302 147.953 185.753C149.446 184.204 150.286 182.105 150.289 179.914V104.483C150.286 102.293 149.446 100.193 147.953 98.6443C146.46 97.0955 144.436 96.2242 142.324 96.2217V96.2217ZM147.634 179.913C147.634 181.374 147.074 182.775 146.079 183.807C145.083 184.84 143.732 185.421 142.324 185.421H22.2784C20.8701 185.421 19.5196 184.84 18.5238 183.807C17.528 182.775 16.9686 181.374 16.9686 179.913V104.483C16.9704 103.023 17.5303 101.623 18.5257 100.591C19.5211 99.5582 20.8707 98.9774 22.2784 98.9755H142.324C143.732 98.9774 145.081 99.5582 146.077 100.591C147.072 101.623 147.632 103.023 147.634 104.483V179.913Z" fill="#3A2C60"/>
<path d="M158.629 136.135C158.277 136.135 157.939 136.28 157.69 136.538C157.441 136.797 157.302 137.147 157.302 137.512V150.593C157.302 150.958 157.441 151.308 157.69 151.566C157.939 151.825 158.277 151.97 158.629 151.97C158.981 151.97 159.319 151.825 159.568 151.566C159.817 151.308 159.956 150.958 159.956 150.593V137.512C159.956 137.147 159.817 136.797 159.568 136.538C159.319 136.28 158.981 136.135 158.629 136.135Z" fill="#3A2C60"/>
<path d="M15.2655 86.1937H149.337C152.152 86.197 154.852 87.3586 156.842 89.4237C158.833 91.4888 159.953 94.2887 159.956 97.2092V130.972C159.956 131.337 159.816 131.687 159.568 131.945C159.319 132.203 158.981 132.348 158.629 132.348C158.277 132.348 157.939 132.203 157.69 131.945C157.441 131.687 157.301 131.337 157.301 130.972V97.2092C157.299 95.0188 156.459 92.919 154.966 91.3702C153.473 89.8214 151.448 88.9501 149.337 88.9476H15.2655C13.1539 88.9501 11.1295 89.8214 9.63638 91.3702C8.14325 92.919 7.30333 95.0188 7.30087 97.2092V194.352C7.30333 196.542 8.14325 198.642 9.63638 200.191C11.1295 201.739 13.1539 202.611 15.2655 202.613H149.337C151.448 202.611 153.473 201.739 154.966 200.191C156.459 198.642 157.299 196.542 157.301 194.352V156.273C157.301 155.907 157.441 155.557 157.69 155.299C157.939 155.041 158.277 154.896 158.629 154.896C158.981 154.896 159.319 155.041 159.568 155.299C159.816 155.557 159.956 155.907 159.956 156.273V194.352C159.953 197.272 158.833 200.072 156.842 202.137C154.852 204.202 152.152 205.364 149.337 205.367H70.6834H15.2655C12.45 205.364 9.75073 204.202 7.75987 202.137C5.76901 200.072 4.64916 197.272 4.646 194.352V97.2092C4.64916 94.2887 5.76901 91.4888 7.75987 89.4237C9.75073 87.3586 12.45 86.197 15.2655 86.1937Z" fill="#3A2C60"/>
<path d="M142.324 96.2217H22.2784C20.1668 96.2242 18.1423 97.0955 16.6492 98.6443C15.1561 100.193 14.3162 102.293 14.3137 104.483V179.914C14.3162 182.105 15.1561 184.204 16.6492 185.753C18.1423 187.302 20.1668 188.173 22.2784 188.176H142.324C144.436 188.173 146.46 187.302 147.953 185.753C149.446 184.204 150.286 182.105 150.289 179.914V104.483C150.286 102.293 149.446 100.193 147.953 98.6443C146.46 97.0955 144.436 96.2242 142.324 96.2217V96.2217ZM147.634 179.913C147.634 181.374 147.074 182.775 146.078 183.807C145.083 184.84 143.732 185.421 142.324 185.421H22.2784C20.8701 185.421 19.5196 184.84 18.5238 183.807C17.528 182.775 16.9686 181.374 16.9686 179.913V104.483C16.9704 103.023 17.5303 101.623 18.5257 100.591C19.5211 99.5582 20.8707 98.9774 22.2784 98.9755H142.324C143.732 98.9774 145.081 99.5582 146.077 100.591C147.072 101.623 147.632 103.023 147.634 104.483V179.913Z" fill="#3A2C60"/>
<path d="M158.629 136.135C158.277 136.135 157.939 136.28 157.69 136.538C157.441 136.797 157.302 137.147 157.302 137.512V150.593C157.302 150.958 157.441 151.308 157.69 151.566C157.939 151.825 158.277 151.97 158.629 151.97C158.981 151.97 159.319 151.825 159.568 151.566C159.817 151.308 159.956 150.958 159.956 150.593V137.512C159.956 137.147 159.817 136.797 159.568 136.538C159.319 136.28 158.981 136.135 158.629 136.135Z" fill="#3A2C60"/>
<path d="M161.308 120.751H122.144C118.921 120.751 116.308 123.461 116.308 126.805V209.361C116.308 212.704 118.921 215.415 122.144 215.415H161.308C164.531 215.415 167.144 212.704 167.144 209.361V126.805C167.144 123.461 164.531 120.751 161.308 120.751Z" fill="#214456"/>
<path d="M116.308 129.726H167.144V202.58H116.308V129.726Z" fill="#D4FBFF"/>
<path d="M116.308 129.726H167.144V132.308H116.308V129.726Z" fill="white"/>
<path d="M148.81 124.353H134.643C134.173 124.353 133.792 124.749 133.792 125.236V125.423C133.792 125.911 134.173 126.306 134.643 126.306H148.81C149.28 126.306 149.661 125.911 149.661 125.423V125.236C149.661 124.749 149.28 124.353 148.81 124.353Z" fill="#B6E6FF"/>
<path d="M153.425 124.258C153.22 124.258 153.02 124.32 152.85 124.438C152.68 124.556 152.547 124.723 152.469 124.919C152.391 125.115 152.37 125.331 152.41 125.539C152.45 125.747 152.548 125.938 152.693 126.088C152.837 126.238 153.021 126.34 153.222 126.382C153.422 126.423 153.63 126.402 153.819 126.321C154.008 126.24 154.17 126.102 154.283 125.926C154.397 125.749 154.458 125.542 154.458 125.33C154.458 125.189 154.431 125.05 154.379 124.92C154.327 124.79 154.251 124.671 154.155 124.572C154.059 124.472 153.946 124.393 153.82 124.339C153.695 124.285 153.56 124.258 153.425 124.258V124.258Z" fill="#B6E6FF"/>
<path d="M146.518 206.08H136.935C135.794 206.08 134.868 207.04 134.868 208.225V208.679C134.868 209.863 135.794 210.824 136.935 210.824H146.518C147.66 210.824 148.585 209.863 148.585 208.679V208.225C148.585 207.04 147.66 206.08 146.518 206.08Z" fill="white"/>
<path d="M116.308 161.555C116.528 161.555 116.739 161.464 116.894 161.302C117.05 161.141 117.137 160.922 117.137 160.694V153.74C117.137 153.511 117.05 153.292 116.894 153.131C116.739 152.97 116.528 152.879 116.308 152.879C116.088 152.879 115.877 152.97 115.721 153.131C115.565 153.292 115.478 153.511 115.478 153.74V160.694C115.478 160.922 115.565 161.141 115.721 161.302C115.877 161.464 116.088 161.555 116.308 161.555V161.555Z" fill="#3A2C60"/>
<path d="M161.306 119.89H122.147C120.379 119.892 118.684 120.622 117.435 121.918C116.185 123.215 115.482 124.972 115.48 126.806V149.58C115.48 149.809 115.567 150.027 115.723 150.189C115.878 150.35 116.089 150.441 116.309 150.441C116.529 150.441 116.74 150.35 116.896 150.189C117.052 150.027 117.139 149.809 117.139 149.58V130.586H166.316V201.719H117.137V164.856C117.137 164.627 117.05 164.408 116.894 164.247C116.739 164.086 116.528 163.995 116.308 163.995C116.088 163.995 115.877 164.086 115.721 164.247C115.565 164.408 115.478 164.627 115.478 164.856V209.36C115.48 211.194 116.183 212.952 117.434 214.248C118.684 215.545 120.379 216.274 122.147 216.275H161.306C163.074 216.273 164.768 215.544 166.018 214.247C167.268 212.951 167.971 211.193 167.973 209.36V126.806C167.971 124.972 167.268 123.215 166.018 121.918C164.768 120.622 163.074 119.893 161.306 119.89V119.89ZM117.137 128.865V126.806C117.139 125.428 117.667 124.108 118.606 123.134C119.546 122.16 120.819 121.613 122.147 121.611H161.306C162.634 121.613 163.907 122.161 164.846 123.135C165.784 124.108 166.312 125.429 166.314 126.806V128.865H117.137ZM161.306 214.554H122.147C120.819 214.553 119.546 214.005 118.607 213.031C117.669 212.057 117.141 210.737 117.139 209.36V203.441H166.316V209.36C166.314 210.737 165.786 212.058 164.847 213.032C163.907 214.005 162.634 214.553 161.306 214.554V214.554Z" fill="#3A2C60"/>
</g>
<defs>
<clipPath id="clip0">
<rect width="169.912" height="176.247" fill="white" transform="translate(0 73.7529)"/>
</clipPath>
</defs>
</svg>
