<svg width="94" height="94" viewBox="0 0 94 94" fill="none" xmlns="http://www.w3.org/2000/svg">
<path d="M34.9999 0C44.1941 0 53.0117 3.65237 59.513 10.1536C66.0142 16.6549 69.6666 25.4725 69.6666 34.6667C69.6666 43.2533 66.5199 51.1467 61.3466 57.2267L62.7866 58.6667H66.9999L93.6666 85.3333L85.6666 93.3333L58.9999 66.6667V62.4533L57.5599 61.0133C51.4799 66.1867 43.5866 69.3333 34.9999 69.3333C25.8057 69.3333 16.9881 65.681 10.4869 59.1797C3.98562 52.6784 0.333252 43.8608 0.333252 34.6667C0.333252 25.4725 3.98562 16.6549 10.4869 10.1536C16.9881 3.65237 25.8057 0 34.9999 0ZM34.9999 10.6667C21.6666 10.6667 10.9999 21.3333 10.9999 34.6667C10.9999 48 21.6666 58.6667 34.9999 58.6667C48.3333 58.6667 58.9999 48 58.9999 34.6667C58.9999 21.3333 48.3333 10.6667 34.9999 10.6667Z" fill="#C7C7C7" fill-opacity="0.4"/>
</svg>
