<svg width="120" height="120" viewBox="0 0 120 120" fill="none" xmlns="http://www.w3.org/2000/svg">
<circle cx="60.1059" cy="59.8" r="59.2941" fill="#E03301" fill-opacity="0.4"/>
<path d="M92.5323 34.251H30.1499C28.8399 34.2524 27.5839 34.7735 26.6576 35.6998C25.7313 36.6262 25.2102 37.8821 25.2087 39.1922V82.7672C25.2102 84.0772 25.7313 85.3331 26.6576 86.2595C27.5839 87.1858 28.8399 87.7069 30.1499 87.7083H54.0319L53.2857 92.6977C53.1643 93.4824 52.7672 94.1982 52.1657 94.7166C51.5642 95.2351 50.7976 95.5222 50.0036 95.5265H49.6861C48.7491 95.5276 47.8509 95.9004 47.1883 96.5629C46.5258 97.2254 46.1531 98.1237 46.1519 99.0607C46.1519 99.2245 46.217 99.3816 46.3328 99.4974C46.4487 99.6133 46.6058 99.6783 46.7696 99.6783H75.9126C76.0764 99.6783 76.2335 99.6133 76.3494 99.4974C76.4652 99.3816 76.5303 99.2245 76.5303 99.0607C76.5291 98.1237 76.1564 97.2254 75.4939 96.5629C74.8313 95.9004 73.9331 95.5276 72.9961 95.5265H72.6786C71.8845 95.5222 71.118 95.2351 70.5165 94.7166C69.915 94.1982 69.5179 93.4824 69.3964 92.6977L68.6503 87.7083H92.5323C93.8423 87.7069 95.0983 87.1858 96.0246 86.2595C96.9509 85.3331 97.472 84.0772 97.4734 82.7672V39.1922C97.472 37.8821 96.9509 36.6262 96.0246 35.6998C95.0983 34.7735 93.8423 34.2524 92.5323 34.251Z" fill="#E6E7E8"/>
<path d="M27.6794 84.6201H90.0617C92.4495 84.6201 94.3853 82.6844 94.3853 80.2966V36.7222C94.3853 34.3344 92.4495 32.3987 90.0617 32.3987H27.6794C25.2915 32.3987 23.3558 34.3344 23.3558 36.7222V80.2966C23.3558 82.6844 25.2915 84.6201 27.6794 84.6201Z" fill="#6DC9F7"/>
<path d="M90.0616 32.3979H27.6792C26.5326 32.3979 25.4329 32.8535 24.622 33.6643C23.8112 34.4751 23.3557 35.5748 23.3557 36.7215V38.5744C23.3557 37.4277 23.8112 36.328 24.622 35.5172C25.4329 34.7064 26.5326 34.2509 27.6792 34.2509H90.0616C91.2083 34.2509 92.308 34.7064 93.1188 35.5172C93.9296 36.328 94.3851 37.4277 94.3851 38.5744V36.7215C94.3851 35.5748 93.9296 34.4751 93.1188 33.6643C92.308 32.8535 91.2083 32.3979 90.0616 32.3979Z" fill="white"/>
<path d="M30.943 76.9082H86.7987C88.5043 76.9082 89.887 75.5256 89.887 73.82V39.9853C89.887 38.2797 88.5043 36.897 86.7987 36.897H30.943C29.2375 36.897 27.8548 38.2797 27.8548 39.9853V73.82C27.8548 75.5256 29.2375 76.9082 30.943 76.9082Z" fill="#D4FBFF"/>
<path d="M52.5835 54.8002H48.3779C48.2141 54.8002 48.057 54.7352 47.9412 54.6193C47.8253 54.5035 47.7603 54.3464 47.7603 54.1826C47.7603 54.0188 47.8253 53.8617 47.9412 53.7458C48.057 53.63 48.2141 53.5649 48.3779 53.5649H52.5835C52.7473 53.5649 52.9044 53.63 53.0202 53.7458C53.136 53.8617 53.2011 54.0188 53.2011 54.1826C53.2011 54.3464 53.136 54.5035 53.0202 54.6193C52.9044 54.7352 52.7473 54.8002 52.5835 54.8002Z" fill="#FA759E"/>
<path d="M44.672 54.8002H34.2751C34.1113 54.8002 33.9542 54.7352 33.8384 54.6193C33.7225 54.5035 33.6575 54.3464 33.6575 54.1826C33.6575 54.0188 33.7225 53.8617 33.8384 53.7458C33.9542 53.63 34.1113 53.5649 34.2751 53.5649H44.672C44.8358 53.5649 44.9929 53.63 45.1087 53.7458C45.2245 53.8617 45.2896 54.0188 45.2896 54.1826C45.2896 54.3464 45.2245 54.5035 45.1087 54.6193C44.9929 54.7352 44.8358 54.8002 44.672 54.8002Z" fill="#FA759E"/>
<path d="M52.5836 72.0942H46.2163C46.0525 72.0942 45.8954 72.0291 45.7795 71.9133C45.6637 71.7974 45.5986 71.6403 45.5986 71.4765C45.5986 71.3127 45.6637 71.1556 45.7795 71.0398C45.8954 70.924 46.0525 70.8589 46.2163 70.8589H52.5836C52.7474 70.8589 52.9045 70.924 53.0203 71.0398C53.1362 71.1556 53.2013 71.3127 53.2013 71.4765C53.2013 71.6403 53.1362 71.7974 53.0203 71.9133C52.9045 72.0291 52.7474 72.0942 52.5836 72.0942Z" fill="#FA759E"/>
<path d="M43.7455 72.0942H34.2751C34.1113 72.0942 33.9542 72.0291 33.8384 71.9133C33.7225 71.7974 33.6575 71.6403 33.6575 71.4765C33.6575 71.3127 33.7225 71.1556 33.8384 71.0398C33.9542 70.924 34.1113 70.8589 34.2751 70.8589H43.7455C43.9093 70.8589 44.0664 70.924 44.1822 71.0398C44.2981 71.1556 44.3631 71.3127 44.3631 71.4765C44.3631 71.6403 44.2981 71.7974 44.1822 71.9133C44.0664 72.0291 43.9093 72.0942 43.7455 72.0942Z" fill="#FA759E"/>
<path d="M70.5256 93.6736H70.2087C69.2659 93.673 68.3545 93.334 67.6404 92.7183C66.9263 92.1026 66.4569 91.2511 66.3176 90.3185L65.4658 84.6201H52.2778L51.4261 90.3185C51.2868 91.2511 50.8173 92.1026 50.1033 92.7183C49.3892 93.334 48.4778 93.673 47.5349 93.6736H47.2156C46.4421 93.6736 45.7003 93.9809 45.1533 94.5278C44.6063 95.0748 44.2991 95.8166 44.2991 96.5901H73.4421C73.4421 95.8166 73.1348 95.0748 72.5879 94.5278C72.0409 93.9809 71.2991 93.6736 70.5256 93.6736Z" fill="#0089EF"/>
<path d="M58.8706 78.6943C58.4892 78.6942 58.1163 78.8072 57.7991 79.019C57.4819 79.2308 57.2347 79.5319 57.0886 79.8843C56.9426 80.2366 56.9043 80.6244 56.9786 80.9984C57.053 81.3725 57.2366 81.7162 57.5062 81.9859C57.7759 82.2557 58.1195 82.4394 58.4935 82.5138C58.8676 82.5883 59.2553 82.5501 59.6077 82.4042C59.9601 82.2583 60.2613 82.0111 60.4732 81.694C60.6851 81.3769 60.7982 81.004 60.7982 80.6226C60.7983 80.3694 60.7485 80.1187 60.6517 79.8847C60.5548 79.6508 60.4129 79.4382 60.2339 79.2592C60.0548 79.0801 59.8423 78.938 59.6084 78.8411C59.3745 78.7442 59.1238 78.6943 58.8706 78.6943Z" fill="#0089EF"/>
<path d="M86.7988 36.2788H30.9425C29.9599 36.28 29.018 36.6708 28.3233 37.3655C27.6285 38.0602 27.2377 39.0022 27.2366 39.9847V73.8206C27.2377 74.8031 27.6285 75.7451 28.3233 76.4398C29.018 77.1346 29.9599 77.5254 30.9425 77.5265H86.7988C87.7813 77.5254 88.7232 77.1346 89.4179 76.4398C90.1127 75.7451 90.5035 74.8031 90.5046 73.8206V39.9847C90.5035 39.0022 90.1127 38.0602 89.4179 37.3655C88.7232 36.6708 87.7813 36.28 86.7988 36.2788ZM89.2693 73.82C89.2693 74.4753 89.009 75.1037 88.5457 75.567C88.0824 76.0303 87.454 76.2906 86.7988 76.2906H30.9425C30.2872 76.2906 29.6588 76.0303 29.1955 75.567C28.7322 75.1037 28.4719 74.4753 28.4719 73.82V39.9847C28.4727 39.3297 28.7332 38.7018 29.1964 38.2386C29.6595 37.7755 30.2875 37.5149 30.9425 37.5141H86.7988C87.4537 37.5149 88.0817 37.7755 88.5448 38.2386C89.008 38.7018 89.2685 39.3297 89.2693 39.9847V73.82Z" fill="#3A2C60"/>
<path d="M58.5686 59.1237H77.2895C77.4533 59.1237 77.6104 59.0586 77.7262 58.9428C77.842 58.827 77.9071 58.6699 77.9071 58.5061C77.9071 58.3423 77.842 58.1852 77.7262 58.0693C77.6104 57.9535 77.4533 57.8884 77.2895 57.8884H58.5686C58.4048 57.8884 58.2477 57.9535 58.1318 58.0693C58.016 58.1852 57.9509 58.3423 57.9509 58.5061C57.9509 58.6699 58.016 58.827 58.1318 58.9428C58.2477 59.0586 58.4048 59.1237 58.5686 59.1237Z" fill="#3A2C60"/>
<path d="M38.5988 59.1237H54.1426C54.3064 59.1237 54.4635 59.0586 54.5793 58.9428C54.6951 58.827 54.7602 58.6699 54.7602 58.5061C54.7602 58.3423 54.6951 58.1852 54.5793 58.0693C54.4635 57.9535 54.3064 57.8884 54.1426 57.8884H38.5988C38.435 57.8884 38.2779 57.9535 38.1621 58.0693C38.0463 58.1852 37.9812 58.3423 37.9812 58.5061C37.9812 58.6699 38.0463 58.827 38.1621 58.9428C38.2779 59.0586 38.435 59.1237 38.5988 59.1237Z" fill="#3A2C60"/>
<path d="M83.466 62.2119H49.9765C49.8127 62.2119 49.6556 62.277 49.5398 62.3928C49.424 62.5086 49.3589 62.6657 49.3589 62.8296C49.3589 62.9934 49.424 63.1505 49.5398 63.2663C49.6556 63.3821 49.8127 63.4472 49.9765 63.4472H83.466C83.6298 63.4472 83.7869 63.3821 83.9027 63.2663C84.0186 63.1505 84.0836 62.9934 84.0836 62.8296C84.0836 62.6657 84.0186 62.5086 83.9027 62.3928C83.7869 62.277 83.6298 62.2119 83.466 62.2119Z" fill="#3A2C60"/>
<path d="M38.5988 63.4472H46.2163C46.3801 63.4472 46.5372 63.3821 46.653 63.2663C46.7689 63.1505 46.8339 62.9934 46.8339 62.8296C46.8339 62.6657 46.7689 62.5086 46.653 62.3928C46.5372 62.277 46.3801 62.2119 46.2163 62.2119H38.5988C38.435 62.2119 38.2779 62.277 38.1621 62.3928C38.0463 62.5086 37.9812 62.6657 37.9812 62.8296C37.9812 62.9934 38.0463 63.1505 38.1621 63.2663C38.2779 63.3821 38.435 63.4472 38.5988 63.4472Z" fill="#3A2C60"/>
<path d="M83.466 66.5356H38.5988C38.435 66.5356 38.2779 66.6007 38.1621 66.7165C38.0463 66.8324 37.9812 66.9895 37.9812 67.1533C37.9812 67.3171 38.0463 67.4742 38.1621 67.59C38.2779 67.7059 38.435 67.7709 38.5988 67.7709H83.466C83.6298 67.7709 83.7869 67.7059 83.9027 67.59C84.0185 67.4742 84.0836 67.3171 84.0836 67.1533C84.0836 66.9895 84.0185 66.8324 83.9027 66.7165C83.7869 66.6007 83.6298 66.5356 83.466 66.5356Z" fill="#3A2C60"/>
<path d="M60.7236 50.0239L66.8705 52.5316C67.0248 52.597 67.1902 52.6322 67.3578 52.6353C67.482 52.6385 67.6056 52.6163 67.721 52.57C67.8363 52.5236 67.941 52.4543 68.0286 52.366C68.118 52.2758 68.188 52.1682 68.2343 52.0498C68.2806 51.9315 68.3022 51.805 68.2979 51.678C68.2995 51.5204 68.2538 51.3659 68.1669 51.2345C68.0759 51.0975 67.9456 50.9912 67.7932 50.9294L62.0991 48.649L67.7932 46.3681C67.9454 46.3121 68.0761 46.2095 68.1667 46.075C68.2573 45.9406 68.3032 45.7809 68.2979 45.6189C68.3029 45.4938 68.2824 45.369 68.2375 45.2521C68.1925 45.1353 68.1242 45.0289 68.0366 44.9395C67.9501 44.8531 67.8469 44.7853 67.7332 44.7404C67.6195 44.6955 67.4979 44.6743 67.3757 44.6782C67.2021 44.6802 67.0306 44.7156 66.8705 44.7826L60.7236 47.2902C60.5211 47.3729 60.3394 47.4994 60.1915 47.6605C60.0437 47.8217 59.9333 48.0137 59.8684 48.2225C59.8034 48.4314 59.7855 48.6521 59.8159 48.8687C59.8463 49.0853 59.9243 49.2925 60.0442 49.4754C60.2137 49.7194 60.4494 49.9097 60.7236 50.0239Z" fill="#3A2C60"/>
<path d="M70.1458 54.9517C70.3603 54.9527 70.5701 54.8881 70.7467 54.7664C70.9335 54.6347 71.0663 54.4399 71.1204 54.2179L75.1252 41.6797C75.1588 41.5606 75.1765 41.4377 75.1777 41.314C75.181 41.1831 75.1544 41.0531 75.1001 40.9339C75.0457 40.8147 74.965 40.7094 74.864 40.626C74.6622 40.4488 74.4019 40.3526 74.1333 40.356C73.9133 40.3552 73.6991 40.4262 73.5231 40.5582C73.3471 40.6902 73.2189 40.8759 73.158 41.0873L69.1711 53.6256C69.1372 53.7445 69.1195 53.8675 69.1186 53.9912C69.1157 54.122 69.1423 54.2517 69.1965 54.3708C69.2508 54.4898 69.3312 54.5951 69.4318 54.6787C69.6278 54.8548 69.8822 54.9521 70.1458 54.9517Z" fill="#3A2C60"/>
<path d="M83.5869 47.2903L77.4407 44.7833C77.2805 44.7164 77.109 44.681 76.9354 44.6789C76.8132 44.675 76.6914 44.6962 76.5777 44.7411C76.4639 44.7861 76.3605 44.8538 76.2739 44.9402C76.1865 45.0297 76.1182 45.1361 76.0733 45.253C76.0284 45.3698 76.0077 45.4945 76.0127 45.6196C76.0075 45.7817 76.0535 45.9414 76.1442 46.0758C76.2349 46.2103 76.3657 46.3128 76.5179 46.3688L82.2114 48.6498L76.5179 50.9301C76.3653 50.9919 76.2349 51.0983 76.1436 51.2352C76.057 51.3668 76.0114 51.5212 76.0127 51.6787C76.0084 51.8057 76.0302 51.9323 76.0766 52.0506C76.123 52.1689 76.1931 52.2765 76.2826 52.3668C76.3701 52.455 76.4748 52.5245 76.5901 52.5708C76.7055 52.6171 76.8291 52.6393 76.9534 52.6361C77.1209 52.6329 77.2863 52.5977 77.4407 52.5323L83.5869 50.0247C83.8609 49.9102 84.0966 49.7199 84.2663 49.4762C84.4302 49.2322 84.5152 48.9437 84.5097 48.6498C84.5138 48.356 84.4275 48.068 84.2624 47.825C84.0973 47.5819 83.8615 47.3955 83.5869 47.291V47.2903Z" fill="#3A2C60"/>
<path d="M94.3852 54.1826C94.2214 54.1826 94.0643 54.2477 93.9485 54.3635C93.8327 54.4794 93.7676 54.6365 93.7676 54.8003V60.6679C93.7676 60.8317 93.8327 60.9888 93.9485 61.1047C94.0643 61.2205 94.2214 61.2856 94.3852 61.2856C94.549 61.2856 94.7061 61.2205 94.822 61.1047C94.9378 60.9888 95.0029 60.8317 95.0029 60.6679V54.8003C95.0029 54.6365 94.9378 54.4794 94.822 54.3635C94.7061 54.2477 94.549 54.1826 94.3852 54.1826Z" fill="#3A2C60"/>
<path d="M90.0618 31.7805H27.6795C26.3694 31.782 25.1135 32.303 24.1871 33.2294C23.2608 34.1557 22.7398 35.4117 22.7383 36.7217V80.2967C22.7398 81.6067 23.2608 82.8627 24.1871 83.789C25.1135 84.7153 26.3694 85.2364 27.6795 85.2379H51.5614L50.8153 90.2272C50.694 91.012 50.2969 91.7279 49.6954 92.2463C49.0938 92.7648 48.3272 93.0519 47.5331 93.056H47.2156C46.2787 93.0572 45.3804 93.4299 44.7179 94.0925C44.0553 94.755 43.6826 95.6533 43.6815 96.5902C43.6815 96.754 43.7465 96.9111 43.8624 97.027C43.9782 97.1428 44.1353 97.2079 44.2991 97.2079H73.4422C73.606 97.2079 73.7631 97.1428 73.8789 97.027C73.9947 96.9111 74.0598 96.754 74.0598 96.5902C74.0587 95.6533 73.6859 94.755 73.0234 94.0925C72.3609 93.4299 71.4626 93.0572 70.5256 93.056H70.2082C69.4141 93.0519 68.6474 92.7648 68.0459 92.2463C67.4444 91.7279 67.0473 91.012 66.926 90.2272L66.1799 85.2379H90.0618C91.3718 85.2364 92.6278 84.7153 93.5541 83.789C94.4805 82.8627 95.0015 81.6067 95.003 80.2967V63.2157C95.003 63.0519 94.9379 62.8948 94.8221 62.7789C94.7063 62.6631 94.5491 62.598 94.3853 62.598C94.2215 62.598 94.0644 62.6631 93.9486 62.7789C93.8328 62.8948 93.7677 63.0519 93.7677 63.2157V80.2967C93.7665 81.2792 93.3757 82.2211 92.681 82.9159C91.9863 83.6106 91.0443 84.0014 90.0618 84.0026H27.6795C26.6969 84.0014 25.755 83.6106 25.0603 82.9159C24.3655 82.2211 23.9747 81.2792 23.9736 80.2967V36.7217C23.9747 35.7392 24.3655 34.7972 25.0603 34.1025C25.755 33.4078 26.6969 33.017 27.6795 33.0158H90.0618C91.0443 33.017 91.9863 33.4078 92.681 34.1025C93.3757 34.7972 93.7665 35.7392 93.7677 36.7217V51.8664C93.7677 52.0302 93.8328 52.1873 93.9486 52.3031C94.0644 52.419 94.2215 52.484 94.3853 52.484C94.5491 52.484 94.7063 52.419 94.8221 52.3031C94.9379 52.1873 95.003 52.0302 95.003 51.8664V36.7217C95.0015 35.4117 94.4805 34.1557 93.5541 33.2294C92.6278 32.303 91.3718 31.782 90.0618 31.7805ZM64.931 85.2379L65.7037 90.41C65.8705 91.4869 66.4155 92.4691 67.241 93.1804C68.0665 93.8917 69.1185 94.2855 70.2082 94.2913H70.5256C71.0276 94.292 71.5155 94.4566 71.9153 94.7601C72.3151 95.0636 72.6049 95.4893 72.7405 95.9726H45.0008C45.1364 95.4893 45.4261 95.0636 45.8259 94.7601C46.2257 94.4566 46.7137 94.292 47.2156 94.2913H47.5331C48.6228 94.2855 49.6747 93.8917 50.5002 93.1804C51.3257 92.4691 51.8708 91.4869 52.0376 90.41L52.8103 85.2379H64.931Z" fill="#3A2C60"/>
</svg>
